ply
format ascii 1.0
comment Created by Blender 2.91.0 - www.blender.org
element vertex 286
property float x
property float y
property float z
element face 154
property list uchar uint vertex_indices
end_header
-0.410738 0.394686 0.039995
0.336715 0.318813 -0.392330
-0.561775 0.274004 -0.338166
-0.295619 0.208691 0.452834
-0.281945 -0.179498 0.436611
0.369229 0.282023 0.518935
-0.493000 -0.304722 -0.275328
0.259544 0.018313 -0.542924
0.255689 -0.346471 -0.351411
0.455024 -0.418940 0.092168
0.519022 -0.422275 0.092377
0.497573 -0.367007 -0.161663
0.493667 -0.354387 -0.219912
0.532535 0.322966 -0.386908
0.514066 0.421214 -0.095113
0.505610 0.458840 0.030538
0.487801 0.411849 0.158682
0.440014 0.280638 0.515968
0.431690 0.188031 0.518528
0.395375 -0.210941 0.523365
0.399374 -0.317596 0.321413
0.403342 -0.369369 0.193205
0.405596 -0.418771 0.093660
0.415039 -0.399086 0.012955
0.459767 -0.323071 -0.354286
0.486555 -0.154786 -0.441482
0.517473 0.039407 -0.542183
0.527961 0.223503 -0.448493
0.461071 -0.377044 0.200116
0.548142 -0.421113 0.099322
0.548172 -0.421223 0.099044
0.519022 -0.422275 0.092377
0.455024 -0.418940 0.092168
0.415039 -0.399086 0.012955
0.455024 -0.418940 0.092168
0.493667 -0.354387 -0.219912
0.487712 -0.325580 -0.351678
0.459767 -0.323071 -0.354286
0.405596 -0.418771 0.093660
0.455024 -0.418940 0.092168
0.415039 -0.399086 0.012955
0.455024 -0.418940 0.092168
0.403342 -0.369369 0.193205
0.399374 -0.317596 0.321413
0.437127 -0.346739 0.265355
0.461071 -0.377044 0.200116
0.403342 -0.369369 0.193205
0.455024 -0.418940 0.092168
0.405596 -0.418771 0.093660
0.548167 -0.421231 0.099076
0.548172 -0.421223 0.099044
0.548142 -0.421113 0.099322
-0.410738 0.394686 0.039995
0.359367 0.462847 0.033707
0.336715 0.318813 -0.392330
0.532535 0.322966 -0.386908
0.336715 0.318813 -0.392330
0.359367 0.462847 0.033707
0.514066 0.421214 -0.095113
0.514066 0.421214 -0.095113
0.359367 0.462847 0.033707
0.505610 0.458840 0.030538
-0.281945 -0.179498 0.436611
0.306851 -0.211039 0.525293
0.369229 0.282023 0.518935
0.431690 0.188031 0.518528
0.369229 0.282023 0.518935
0.306851 -0.211039 0.525293
0.395375 -0.210941 0.523365
0.395375 -0.210941 0.523365
0.306851 -0.211039 0.525293
0.251497 -0.444131 0.085465
0.437127 -0.346739 0.265355
0.399374 -0.317596 0.321413
0.437127 -0.346739 0.265355
0.251497 -0.444131 0.085465
0.548167 -0.421231 0.099076
0.548142 -0.421113 0.099322
0.461071 -0.377044 0.200116
-0.355869 -0.400509 0.082285
-0.493000 -0.304722 -0.275328
0.255689 -0.346471 -0.351411
0.251497 -0.444131 0.085465
-0.355869 -0.400509 0.082285
0.255689 -0.346471 -0.351411
-0.561775 0.274004 -0.338166
0.336715 0.318813 -0.392330
0.259544 0.018313 -0.542924
0.259544 0.018313 -0.542924
0.336715 0.318813 -0.392330
0.527961 0.223503 -0.448493
0.517473 0.039407 -0.542183
0.336715 0.318813 -0.392330
0.532535 0.322966 -0.386908
0.527961 0.223503 -0.448493
0.487801 0.411849 0.158682
0.505610 0.458840 0.030538
0.359367 0.462847 0.033707
0.487801 0.411849 0.158682
0.359367 0.462847 0.033707
0.369229 0.282023 0.518935
0.440014 0.280638 0.515968
0.259544 0.018313 -0.542924
0.517473 0.039407 -0.542183
0.486555 -0.154786 -0.441482
0.459767 -0.323071 -0.354286
0.487712 -0.325580 -0.351678
0.255689 -0.346471 -0.351411
0.259544 0.018313 -0.542924
0.486555 -0.154786 -0.441482
0.251497 -0.444131 0.085465
0.255689 -0.346471 -0.351411
0.487712 -0.325580 -0.351678
0.493667 -0.354387 -0.219912
0.497573 -0.367007 -0.161663
0.369229 0.282023 0.518935
0.431690 0.188031 0.518528
0.440014 0.280638 0.515968
-0.355869 -0.400509 0.082285
0.251497 -0.444131 0.085465
0.306851 -0.211039 0.525293
-0.281945 -0.179498 0.436611
-0.355869 -0.400509 0.082285
0.306851 -0.211039 0.525293
-0.295619 0.208691 0.452834
0.359367 0.462847 0.033707
-0.410738 0.394686 0.039995
-0.295619 0.208691 0.452834
0.369229 0.282023 0.518935
0.359367 0.462847 0.033707
0.548172 -0.421223 0.099044
0.548167 -0.421231 0.099076
0.251497 -0.444131 0.085465
0.497573 -0.367007 -0.161663
0.519022 -0.422275 0.092377
-0.605666 0.315827 -0.230504
-0.561775 0.274004 -0.338166
-0.605666 0.274150 -0.339090
-0.410738 0.394686 0.039995
-0.561775 0.274004 -0.338166
-0.605666 0.315827 -0.230504
-0.605666 0.408993 0.033096
-0.605666 0.300444 0.290789
-0.410738 0.394686 0.039995
-0.605666 0.408993 0.033096
-0.295619 0.208691 0.452834
-0.410738 0.394686 0.039995
-0.605666 0.300444 0.290789
-0.605666 0.214967 0.489209
-0.281945 -0.179498 0.436611
-0.295619 0.208691 0.452834
-0.605666 0.214967 0.489209
-0.605666 0.081558 0.484181
-0.605666 0.274150 -0.339090
-0.561775 0.274004 -0.338166
-0.605666 0.182133 -0.379843
-0.605666 0.182133 -0.379843
-0.561775 0.274004 -0.338166
-0.605666 0.078588 -0.417113
-0.561775 0.274004 -0.338166
0.259544 0.018313 -0.542924
-0.605666 -0.007146 -0.453972
-0.605666 0.078588 -0.417113
-0.605666 -0.138949 -0.380939
-0.493000 -0.304722 -0.275328
-0.605666 -0.327064 -0.282114
-0.605666 -0.366322 -0.124865
-0.605666 -0.327064 -0.282114
-0.493000 -0.304722 -0.275328
-0.605666 -0.273695 0.354200
-0.605666 -0.436747 0.098150
-0.355869 -0.400509 0.082285
-0.605666 0.081558 0.484181
-0.605666 -0.190823 0.493566
-0.281945 -0.179498 0.436611
-0.355869 -0.400509 0.082285
-0.281945 -0.179498 0.436611
-0.605666 -0.190823 0.493566
-0.605666 -0.273695 0.354200
-0.493000 -0.304722 -0.275328
-0.355869 -0.400509 0.082285
-0.605666 -0.436747 0.098150
-0.605666 -0.366322 -0.124865
-0.605666 0.374596 0.038092
-0.605666 0.326149 -0.097581
-0.564605 0.370520 0.040037
-0.605666 0.343673 0.110754
-0.605666 0.374596 0.038092
-0.564605 0.370520 0.040037
-0.605666 0.343673 0.110754
-0.564605 0.370520 0.040037
-0.481184 0.188246 0.440491
-0.605666 0.191653 0.460040
-0.605666 -0.340865 0.219494
-0.515836 -0.194288 0.435249
-0.504595 -0.155843 0.431309
-0.474288 -0.076567 0.429537
-0.361537 0.206093 0.456414
-0.360892 0.251372 0.337452
-0.347292 0.396533 0.037662
-0.385976 0.345997 -0.098265
-0.451140 0.267287 -0.344767
-0.492431 0.175784 -0.387389
-0.573849 -0.010929 -0.454259
-0.593606 -0.078440 -0.409915
-0.605082 -0.114199 -0.393574
-0.605666 -0.116201 -0.392255
-0.605666 0.256864 -0.332297
-0.451140 0.267287 -0.344767
-0.385976 0.345997 -0.098265
-0.564605 0.370520 0.040037
-0.605666 0.326149 -0.097581
-0.564605 0.370520 0.040037
-0.385976 0.345997 -0.098265
-0.347292 0.396533 0.037662
-0.481184 0.188246 0.440491
-0.474288 -0.076567 0.429537
-0.504595 -0.155843 0.431309
-0.605666 -0.045615 0.451190
-0.605666 0.191653 0.460040
-0.481184 0.188246 0.440491
-0.361537 0.206093 0.456414
-0.474288 -0.076567 0.429537
-0.573849 -0.010929 -0.454259
-0.492431 0.175784 -0.387389
-0.605666 0.223459 -0.349600
-0.605666 -0.013045 -0.450242
-0.605082 -0.114199 -0.393574
-0.605666 -0.112655 -0.394473
-0.605666 -0.116201 -0.392255
-0.492431 0.175784 -0.387389
-0.451140 0.267287 -0.344767
-0.605666 0.256864 -0.332297
-0.605666 0.223459 -0.349600
-0.605666 -0.045615 0.451190
-0.504595 -0.155843 0.431309
-0.515836 -0.194288 0.435249
-0.605666 -0.198539 0.456405
-0.515836 -0.194288 0.435249
-0.605666 -0.340865 0.219494
-0.605666 -0.198539 0.456405
-0.481184 0.188246 0.440491
-0.564605 0.370520 0.040037
-0.347292 0.396533 0.037662
-0.360892 0.251372 0.337452
-0.361537 0.206093 0.456414
-0.481184 0.188246 0.440491
-0.360892 0.251372 0.337452
-0.605666 -0.112655 -0.394473
-0.605666 -0.138949 -0.380939
-0.605666 -0.327064 -0.282114
-0.605666 -0.366322 -0.124865
-0.605666 -0.436747 0.098150
-0.605666 -0.273695 0.354200
-0.605666 -0.190823 0.493566
-0.605666 0.081558 0.484181
-0.605666 0.214967 0.489209
-0.605666 0.300444 0.290789
-0.605666 0.408993 0.033096
-0.605666 0.315827 -0.230504
-0.605666 0.274150 -0.339090
-0.605666 0.182133 -0.379843
-0.605666 0.078588 -0.417113
-0.605666 -0.007146 -0.453972
-0.605666 -0.013045 -0.450242
-0.605666 0.223459 -0.349600
-0.605666 0.256864 -0.332297
-0.605666 0.326149 -0.097581
-0.605666 0.374596 0.038092
-0.605666 0.343673 0.110754
-0.605666 0.191653 0.460040
-0.605666 -0.045615 0.451190
-0.605666 -0.198539 0.456405
-0.605666 -0.340865 0.219494
-0.605666 -0.116201 -0.392255
-0.605666 -0.007146 -0.453972
0.259544 0.018313 -0.542924
-0.493000 -0.304722 -0.275328
-0.593606 -0.078440 -0.409915
-0.573849 -0.010929 -0.454259
-0.605666 -0.013045 -0.450242
-0.493000 -0.304722 -0.275328
-0.605666 -0.138949 -0.380939
-0.605666 -0.112655 -0.394473
-0.605082 -0.114199 -0.393574
-0.593606 -0.078440 -0.409915
3 0 1 2
3 3 4 5
3 6 7 8
3 9 10 11
3 9 11 12
3 13 14 15
3 13 15 16
3 13 16 17
3 13 17 18
3 13 18 19
3 13 19 20
3 13 20 21
3 13 21 22
3 13 22 23
3 13 23 24
3 13 24 25
3 13 25 26
3 13 26 27
3 28 29 30
3 28 30 31
3 28 31 32
3 33 34 35
3 33 35 36
3 33 36 37
3 38 39 40
3 41 42 43
3 41 43 44
3 41 44 45
3 46 47 48
3 49 50 51
3 52 53 54
3 55 56 57
3 55 57 58
3 59 60 61
3 62 63 64
3 65 66 67
3 65 67 68
3 69 70 71
3 69 71 72
3 69 72 73
3 74 75 76
3 74 76 77
3 74 77 78
3 79 80 81
3 82 83 84
3 85 86 87
3 88 89 90
3 88 90 91
3 92 93 94
3 95 96 97
3 98 99 100
3 98 100 101
3 102 103 104
3 105 106 107
3 105 107 108
3 105 108 109
3 110 111 112
3 110 112 113
3 110 113 114
3 115 116 117
3 118 119 120
3 121 122 123
3 124 125 126
3 127 128 129
3 130 131 132
3 130 132 133
3 130 133 134
3 135 136 137
3 138 139 140
3 138 140 141
3 142 143 144
3 145 146 147
3 145 147 148
3 149 150 151
3 149 151 152
3 153 154 155
3 156 157 158
3 159 160 161
3 159 161 162
3 163 164 165
3 166 167 168
3 169 170 171
3 172 173 174
3 175 176 177
3 175 177 178
3 179 180 181
3 179 181 182
3 183 184 185
3 186 187 188
3 189 190 191
3 189 191 192
3 193 194 195
3 193 195 196
3 193 196 197
3 193 197 198
3 193 198 199
3 193 199 200
3 193 200 201
3 193 201 202
3 193 202 203
3 193 203 204
3 193 204 205
3 193 205 206
3 207 208 209
3 207 209 210
3 207 210 211
3 212 213 214
3 215 216 217
3 215 217 218
3 215 218 219
3 220 221 222
3 223 224 225
3 223 225 226
3 227 228 229
3 230 231 232
3 230 232 233
3 234 235 236
3 234 236 237
3 238 239 240
3 241 242 243
3 241 243 244
3 245 246 247
3 248 249 250
3 248 250 251
3 248 251 252
3 248 252 253
3 248 253 254
3 248 254 255
3 248 255 256
3 248 256 257
3 248 257 258
3 248 258 259
3 248 259 260
3 248 260 261
3 248 261 262
3 248 262 263
3 248 263 264
3 248 264 265
3 248 265 266
3 248 266 267
3 248 267 268
3 248 268 269
3 248 269 270
3 248 270 271
3 248 271 272
3 248 272 273
3 248 273 274
3 275 276 277
3 275 277 278
3 275 278 279
3 275 279 280
3 281 282 283
3 281 283 284
3 281 284 285
