ply
format ascii 1.0
comment VCGLIB generated
element vertex 426
property float x
property float y
property float z
element face 217
property list uchar int vertex_indices
end_header
0.765166 0.836227 0.242825 
0.611856 0.994131 0.872264 
0.558452 0.896136 0.754869 
0.637382 0.461814 -1.024989 
0.834803 -0.37355 -1.097604 
0.004187 -0.458099 -1.463245 
0.023649 0.471507 -1.225253 
0.637382 0.461814 -1.024989 
0.004187 -0.458099 -1.463245 
-0.012859 0.788916 -1.134123 
0.637382 0.461814 -1.024989 
0.023649 0.471507 -1.225253 
-0.584699 -0.403632 1.338128 
-0.641927 -0.924732 1.212047 
-0.448861 -0.915864 1.252499 
-0.453642 -0.001004 1.318551 
-0.584699 -0.403632 1.338128 
-0.448861 -0.915864 1.252499 
0.146953 0.750019 1.166286 
0.147207 0.353163 1.255862 
0.611113 0.46133 0.858632 
0.146953 0.750019 1.166286 
0.611113 0.46133 0.858632 
0.5571 0.767452 0.700184 
0.611113 0.46133 0.858632 
0.961527 0.47357 -0.066508 
0.5571 0.767452 0.700184 
1.117695 0.088782 -0.068117 
0.637382 0.461814 -1.024989 
0.961527 0.47357 -0.066508 
0.70831 0.046728 0.936 
1.117695 0.088782 -0.068117 
0.961527 0.47357 -0.066508 
0.611113 0.46133 0.858632 
0.70831 0.046728 0.936 
0.961527 0.47357 -0.066508 
0.611113 0.46133 0.858632 
0.13693 0.017741 1.273646 
0.70831 0.046728 0.936 
0.147207 0.353163 1.255862 
0.13693 0.017741 1.273646 
0.611113 0.46133 0.858632 
-0.453642 -0.001004 1.318551 
0.13693 0.017741 1.273646 
0.147207 0.353163 1.255862 
0.710362 -0.648264 1.069936 
1.22346 -0.29196 -0.048801 
1.117695 0.088782 -0.068117 
-0.453642 -0.001004 1.318551 
-0.448861 -0.915864 1.252499 
0.13693 0.017741 1.273646 
0.13693 0.017741 1.273646 
-0.448861 -0.915864 1.252499 
0.710362 -0.648264 1.069936 
0.70831 0.046728 0.936 
0.13693 0.017741 1.273646 
0.710362 -0.648264 1.069936 
0.70831 0.046728 0.936 
0.710362 -0.648264 1.069936 
1.117695 0.088782 -0.068117 
0.148094 0.946432 1.113671 
0.558452 0.896136 0.754869 
0.611856 0.994131 0.872264 
0.611856 0.994131 0.872264 
0.765166 0.836227 0.242825 
0.869842 0.892489 0.234218 
0.765166 0.836227 0.242825 
0.827393 0.87506 -0.06494 
0.869842 0.892489 0.234218 
1.22346 -0.29196 -0.048801 
0.834803 -0.37355 -1.097604 
1.117695 0.088782 -0.068117 
1.117695 0.088782 -0.068117 
0.834803 -0.37355 -1.097604 
0.637382 0.461814 -1.024989 
-0.54254 0.853097 1.262115 
-0.545654 0.851958 1.262137 
-0.554818 0.847259 1.26186 
0.961527 0.47357 -0.066508 
0.830029 0.741733 -0.048669 
0.5571 0.767452 0.700184 
0.830029 0.741733 -0.048669 
0.961527 0.47357 -0.066508 
0.512008 0.779879 -0.932841 
0.961527 0.47357 -0.066508 
0.637382 0.461814 -1.024989 
0.512008 0.779879 -0.932841 
0.512008 0.779879 -0.932841 
0.637382 0.461814 -1.024989 
-0.012859 0.788916 -1.134123 
0.869842 0.892489 0.234218 
0.827393 0.87506 -0.06494 
0.846192 0.980845 0.1861 
0.148094 0.946432 1.113671 
0.146953 0.750019 1.166286 
0.558452 0.896136 0.754869 
0.146953 0.750019 1.166286 
0.5571 0.767452 0.700184 
0.558452 0.896136 0.754869 
0.5571 0.767452 0.700184 
0.765166 0.836227 0.242825 
0.558452 0.896136 0.754869 
0.5571 0.767452 0.700184 
0.830029 0.741733 -0.048669 
0.765166 0.836227 0.242825 
0.765166 0.836227 0.242825 
0.830029 0.741733 -0.048669 
0.827393 0.87506 -0.06494 
0.830029 0.741733 -0.048669 
0.512008 0.779879 -0.932841 
0.827393 0.87506 -0.06494 
-0.554818 0.847259 1.26186 
-0.661886 0.692667 1.276851 
-0.532947 -0.026828 1.424419 
-0.545654 0.851958 1.262137 
-0.545654 0.851958 1.262137 
-0.545775 0.860315 1.260594 
-0.554818 0.847259 1.26186 
-0.532947 -0.026828 1.424419 
-0.231862 0.159845 1.408151 
-0.54254 0.853097 1.262115 
-0.470294 0.602252 1.312549 
-0.533699 0.563208 1.315926 
-0.545654 0.851958 1.262137 
-0.54254 0.853097 1.262115 
-0.545654 0.851958 1.262137 
-0.533699 0.563208 1.315926 
-0.470294 0.602252 1.312549 
-0.545775 0.860315 1.260594 
-0.545654 0.851958 1.262137 
-0.54254 0.853097 1.262115 
-0.231862 0.159845 1.408151 
-0.532947 -0.026828 1.424419 
0.020004 -0.532314 1.440168 
-0.532947 -0.026828 1.424419 
-0.418757 -0.753066 1.458528 
0.020004 -0.532314 1.440168 
-0.469291 0.563411 1.312504 
-0.470294 0.602252 1.312549 
-0.533699 0.563208 1.315926 
0.791482 0.928089 -0.532687 
0.787217 0.94521 -0.551144 
0.794764 0.946733 -0.530407 
0.791482 0.928089 -0.532687 
0.762596 0.940976 -0.606991 
0.778972 0.944459 -0.55912 
0.846192 0.980845 0.1861 
0.859748 0.993096 0.183616 
0.824326 0.995933 0.247049 
0.791482 0.928089 -0.532687 
0.778972 0.944459 -0.55912 
0.787217 0.94521 -0.551144 
0.611803 0.924706 -0.793444 
0.762596 0.940976 -0.606991 
0.791482 0.928089 -0.532687 
0.611803 0.924706 -0.793444 
0.791482 0.928089 -0.532687 
0.827393 0.87506 -0.06494 
0.541695 0.918537 -0.857661 
0.148094 0.946432 1.113671 
0.611856 0.994131 0.872264 
0.512119 1.029047 0.936709 
0.123074 1.030228 1.150646 
0.611856 0.994131 0.872264 
0.615096 1.027201 0.855389 
0.512119 1.029047 0.936709 
0.750477 1.010041 0.511233 
0.615096 1.027201 0.855389 
0.611856 0.994131 0.872264 
0.869842 0.892489 0.234218 
0.824326 0.995933 0.247049 
0.750477 1.010041 0.511233 
0.869842 0.892489 0.234218 
0.846192 0.980845 0.1861 
0.905152 0.985301 0.035357 
0.859748 0.993096 0.183616 
0.846192 0.980845 0.1861 
0.827393 0.87506 -0.06494 
0.818423 0.952864 -0.443526 
0.905152 0.985301 0.035357 
0.827393 0.87506 -0.06494 
0.791482 0.928089 -0.532687 
0.791482 0.928089 -0.532687 
0.794764 0.946733 -0.530407 
0.818423 0.952864 -0.443526 
0.827393 0.87506 -0.06494 
0.512008 0.779879 -0.932841 
0.513245 0.912781 -0.936094 
0.541695 0.918537 -0.857661 
0.512008 0.779879 -0.932841 
-0.012859 0.788916 -1.134123 
0.462942 0.910024 -0.955283 
0.513245 0.912781 -0.936094 
0.462942 0.910024 -0.955283 
-0.012859 0.788916 -1.134123 
0.001132 0.901479 -1.149729 
-0.725857 0.961296 1.326047 
-0.725857 0.933078 1.310103 
-0.725857 0.953242 1.326049 
-0.584699 -0.403632 1.338128 
-0.453642 -0.001004 1.318551 
-0.725857 0.661746 1.249158 
-0.725857 0.580684 1.255109 
-0.453642 -0.001004 1.318551 
0.147207 0.353163 1.255862 
-0.725857 0.698173 1.244831 
-0.725857 0.661746 1.249158 
0.147207 0.353163 1.255862 
0.146953 0.750019 1.166286 
-0.725857 0.706129 1.243034 
-0.725857 0.698173 1.244831 
-0.725857 0.439329 -1.338366 
0.004187 -0.458099 -1.463245 
-0.725857 -0.388637 -1.445218 
-0.641927 -0.924732 1.212047 
-0.584699 -0.403632 1.338128 
-0.725857 -0.865323 1.229991 
-0.725857 -0.907753 1.219541 
-0.725857 -0.402733 1.294617 
-0.725857 -0.865323 1.229991 
-0.584699 -0.403632 1.338128 
-0.725857 0.778791 -1.271669 
0.023649 0.471507 -1.225253 
-0.725857 0.461363 -1.332789 
0.023649 0.471507 -1.225253 
0.004187 -0.458099 -1.463245 
-0.725857 0.439329 -1.338366 
-0.725857 0.461363 -1.332789 
-0.725857 0.953242 1.326049 
-0.725857 0.933078 1.310103 
-0.706139 0.960878 1.325 
-0.725857 0.580684 1.255109 
-0.725857 -0.402733 1.294617 
-0.584699 -0.403632 1.338128 
-0.725857 0.71866 1.246236 
-0.554818 0.847259 1.26186 
-0.545654 0.851958 1.262137 
-0.725857 0.902184 1.293133 
-0.545654 0.851958 1.262137 
-0.54254 0.853097 1.262115 
-0.554818 0.847259 1.26186 
-0.725857 0.71866 1.246236 
-0.725857 0.706129 1.243034 
0.146953 0.750019 1.166286 
-0.725857 0.904054 1.293611 
-0.725857 0.902184 1.293133 
0.146953 0.750019 1.166286 
0.148094 0.946432 1.113671 
-0.725857 0.908086 1.292536 
-0.725857 0.904054 1.293611 
-0.012859 0.788916 -1.134123 
0.023649 0.471507 -1.225253 
-0.725857 0.778791 -1.271669 
-0.725857 0.786582 -1.269264 
-0.725857 0.781108 1.326088 
-0.479429 0.95608 1.312959 
-0.706139 0.960878 1.325 
-0.725857 0.953242 1.326049 
-0.725857 0.961296 1.326047 
-0.725857 0.953242 1.326049 
-0.706139 0.960878 1.325 
-0.533699 0.563208 1.315926 
-0.470294 0.602252 1.312549 
-0.479429 0.95608 1.312959 
-0.725857 0.781108 1.326088 
0.818423 0.952864 -0.443526 
0.794764 0.946733 -0.530407 
0.787217 0.94521 -0.551144 
0.778972 0.944459 -0.55912 
0.762596 0.940976 -0.606991 
0.611803 0.924706 -0.793444 
0.541695 0.918537 -0.857661 
0.513245 0.912781 -0.936094 
0.462942 0.910024 -0.955283 
0.001132 0.901479 -1.149729 
-0.122384 0.908099 -1.17428 
-0.21223 0.912988 -1.195174 
-0.432737 0.925761 -1.278937 
-0.725857 0.943185 -1.408851 
-0.725857 1.017883 1.37717 
-0.402968 1.020867 1.263455 
0.123074 1.030228 1.150646 
0.512119 1.029047 0.936709 
0.615096 1.027201 0.855389 
0.750477 1.010041 0.511233 
0.824326 0.995933 0.247049 
0.859748 0.993096 0.183616 
0.905152 0.985301 0.035357 
-0.432737 0.925761 -1.278937 
-0.21223 0.912988 -1.195174 
-0.725857 0.865692 -1.292271 
-0.725857 0.867718 -1.294849 
-0.725857 0.953242 1.326049 
-0.706139 0.960878 1.325 
-0.725857 0.933078 1.310103 
-0.725857 0.913374 1.29452 
-0.402968 1.020867 1.263455 
-0.725857 1.017883 1.37717 
-0.725857 0.867718 -1.294849 
-0.725857 0.943185 -1.408851 
-0.432737 0.925761 -1.278937 
0.148094 0.946432 1.113671 
0.123074 1.030228 1.150646 
-0.402968 1.020867 1.263455 
-0.725857 0.913374 1.29452 
-0.725857 0.908086 1.292536 
-0.012859 0.788916 -1.134123 
-0.725857 0.786582 -1.269264 
-0.725857 0.790203 -1.269851 
-0.122384 0.908099 -1.17428 
0.001132 0.901479 -1.149729 
-0.725857 0.865692 -1.292271 
-0.21223 0.912988 -1.195174 
-0.122384 0.908099 -1.17428 
-0.725857 0.790203 -1.269851 
-0.558748 -1.021072 -1.242073 
-0.540848 -1.016852 -1.250078 
-0.522883 -1.012633 -1.252461 
-0.040885 -0.899387 -1.334155 
0.64874 -0.738274 -1.145172 
0.812121 -0.700179 -1.075382 
0.908855 -0.67828 -0.814756 
1.249008 -0.600814 -0.05183 
0.978459 -0.665947 0.518268 
0.723434 -0.72737 1.064773 
-0.248707 -0.955739 1.217723 
-0.423882 -0.996847 1.230762 
-0.624709 -1.043071 0.943525 
-0.661676 -1.051667 0.920021 
-0.672708 -1.054224 0.910261 
-0.725857 -1.064392 0.14353 
-0.725857 -1.062366 -0.534324 
-0.673044 -1.04816 -1.144287 
-0.423882 -0.996847 1.230762 
-0.448861 -0.915864 1.252499 
-0.624709 -1.043071 0.943525 
-0.448861 -0.915864 1.252499 
-0.423882 -0.996847 1.230762 
-0.248707 -0.955739 1.217723 
0.723434 -0.72737 1.064773 
0.710362 -0.648264 1.069936 
-0.448861 -0.915864 1.252499 
-0.248707 -0.955739 1.217723 
0.978459 -0.665947 0.518268 
0.710362 -0.648264 1.069936 
0.723434 -0.72737 1.064773 
1.249008 -0.600814 -0.05183 
1.22346 -0.29196 -0.048801 
0.710362 -0.648264 1.069936 
0.978459 -0.665947 0.518268 
1.249008 -0.600814 -0.05183 
0.908855 -0.67828 -0.814756 
1.22346 -0.29196 -0.048801 
0.834803 -0.37355 -1.097604 
1.22346 -0.29196 -0.048801 
0.908855 -0.67828 -0.814756 
0.812121 -0.700179 -1.075382 
0.004187 -0.458099 -1.463245 
0.834803 -0.37355 -1.097604 
0.812121 -0.700179 -1.075382 
0.64874 -0.738274 -1.145172 
-0.641927 -0.924732 1.212047 
-0.661676 -1.051667 0.920021 
-0.624709 -1.043071 0.943525 
-0.448861 -0.915864 1.252499 
0.64874 -0.738274 -1.145172 
-0.040885 -0.899387 -1.334155 
0.004187 -0.458099 -1.463245 
-0.040885 -0.899387 -1.334155 
-0.522883 -1.012633 -1.252461 
0.004187 -0.458099 -1.463245 
0.020004 -0.532314 1.440168 
-0.418757 -0.753066 1.458528 
-0.222557 -0.950284 1.443799 
-0.725857 0.902184 1.293133 
-0.725857 0.904054 1.293611 
-0.725857 0.908086 1.292536 
-0.725857 0.913374 1.29452 
-0.725857 1.017883 1.37717 
-0.725857 0.943185 -1.408851 
-0.725857 0.867718 -1.294849 
-0.725857 0.865692 -1.292271 
-0.725857 0.790203 -1.269851 
-0.725857 0.786582 -1.269264 
-0.725857 0.778791 -1.271669 
-0.725857 0.461363 -1.332789 
-0.725857 0.439329 -1.338366 
-0.725857 -0.388637 -1.445218 
-0.725857 -0.433817 -1.430441 
-0.725857 -0.968056 -1.206141 
-0.725857 -0.98033 -1.191957 
-0.725857 -1.062366 -0.534324 
-0.725857 -1.064392 0.14353 
-0.725857 -0.933119 1.162623 
-0.725857 -0.907753 1.219541 
-0.725857 -0.865323 1.229991 
-0.725857 -0.402733 1.294617 
-0.725857 0.580684 1.255109 
-0.725857 0.661746 1.249158 
-0.725857 0.698173 1.244831 
-0.725857 0.706129 1.243034 
-0.725857 0.71866 1.246236 
-0.725857 -0.433817 -1.430441 
-0.725857 -0.388637 -1.445218 
0.004187 -0.458099 -1.463245 
-0.522883 -1.012633 -1.252461 
-0.540848 -1.016852 -1.250078 
-0.725857 -1.062366 -0.534324 
-0.725857 -0.98033 -1.191957 
-0.673044 -1.04816 -1.144287 
-0.673044 -1.04816 -1.144287 
-0.725857 -0.98033 -1.191957 
-0.725857 -0.968056 -1.206141 
-0.558748 -1.021072 -1.242073 
-0.558748 -1.021072 -1.242073 
-0.725857 -0.968056 -1.206141 
-0.725857 -0.433817 -1.430441 
-0.540848 -1.016852 -1.250078 
-0.661676 -1.051667 0.920021 
-0.641927 -0.924732 1.212047 
-0.725857 -0.907753 1.219541 
-0.725857 -0.933119 1.162623 
-0.672708 -1.054224 0.910261 
-0.672708 -1.054224 0.910261 
-0.725857 -0.933119 1.162623 
-0.725857 -1.064392 0.14353 
3 0 1 2 
3 3 4 5 
3 6 7 8 
3 9 10 11 
3 12 13 14 
3 15 16 17 
3 18 19 20 
3 21 22 23 
3 24 25 26 
3 27 28 29 
3 30 31 32 
3 33 34 35 
3 36 37 38 
3 39 40 41 
3 42 43 44 
3 45 46 47 
3 48 49 50 
3 51 52 53 
3 54 55 56 
3 57 58 59 
3 60 61 62 
3 63 64 65 
3 66 67 68 
3 69 70 71 
3 72 73 74 
3 75 76 77 
3 78 79 80 
3 81 82 83 
3 84 85 86 
3 87 88 89 
3 90 91 92 
3 93 94 95 
3 96 97 98 
3 99 100 101 
3 102 103 104 
3 105 106 107 
3 108 109 110 
3 111 112 113 
3 111 113 114 
3 115 116 117 
3 118 119 120 
3 118 120 121 
3 118 121 122 
3 118 122 123 
3 124 125 126 
3 124 126 127 
3 128 129 130 
3 131 132 133 
3 134 135 136 
3 137 138 139 
3 140 141 142 
3 143 144 145 
3 146 147 148 
3 149 150 151 
3 152 153 154 
3 155 156 157 
3 155 157 158 
3 159 160 161 
3 159 161 162 
3 163 164 165 
3 166 167 168 
3 166 168 169 
3 170 171 172 
3 170 172 173 
3 174 175 176 
3 174 176 177 
3 178 179 180 
3 178 180 181 
3 182 183 184 
3 185 186 187 
3 185 187 188 
3 189 190 191 
3 189 191 192 
3 193 194 195 
3 196 197 198 
3 199 200 201 
3 199 201 202 
3 203 204 205 
3 203 205 206 
3 207 208 209 
3 207 209 210 
3 211 212 213 
3 214 215 216 
3 214 216 217 
3 218 219 220 
3 221 222 223 
3 224 225 226 
3 224 226 227 
3 228 229 230 
3 231 232 233 
3 234 235 236 
3 234 236 237 
3 238 239 240 
3 238 240 241 
3 238 241 242 
3 238 242 243 
3 238 243 244 
3 238 244 245 
3 246 247 248 
3 246 248 249 
3 250 251 252 
3 250 252 253 
3 254 255 256 
3 254 256 257 
3 258 259 260 
3 261 262 263 
3 261 263 264 
3 265 266 267 
3 265 267 268 
3 265 268 269 
3 265 269 270 
3 265 270 271 
3 265 271 272 
3 265 272 273 
3 265 273 274 
3 265 274 275 
3 265 275 276 
3 265 276 277 
3 265 277 278 
3 265 278 279 
3 265 279 280 
3 265 280 281 
3 265 281 282 
3 265 282 283 
3 265 283 284 
3 265 284 285 
3 265 285 286 
3 265 286 287 
3 288 289 290 
3 288 290 291 
3 292 293 294 
3 292 294 295 
3 292 295 296 
3 292 296 297 
3 298 299 300 
3 301 302 303 
3 301 303 304 
3 301 304 305 
3 306 307 308 
3 306 308 309 
3 306 309 310 
3 311 312 313 
3 311 313 314 
3 315 316 317 
3 315 317 318 
3 315 318 319 
3 315 319 320 
3 315 320 321 
3 315 321 322 
3 315 322 323 
3 315 323 324 
3 315 324 325 
3 315 325 326 
3 315 326 327 
3 315 327 328 
3 315 328 329 
3 315 329 330 
3 315 330 331 
3 315 331 332 
3 333 334 335 
3 336 337 338 
3 339 340 341 
3 339 341 342 
3 343 344 345 
3 346 347 348 
3 346 348 349 
3 350 351 352 
3 353 354 355 
3 353 355 356 
3 357 358 359 
3 357 359 360 
3 361 362 363 
3 361 363 364 
3 365 366 367 
3 368 369 370 
3 371 372 373 
3 374 375 376 
3 374 376 377 
3 374 377 197 
3 374 197 196 
3 374 196 198 
3 374 198 378 
3 374 378 379 
3 374 379 380 
3 374 380 381 
3 374 381 382 
3 374 382 383 
3 374 383 384 
3 374 384 385 
3 374 385 386 
3 374 386 387 
3 374 387 388 
3 374 388 389 
3 374 389 390 
3 374 390 391 
3 374 391 392 
3 374 392 393 
3 374 393 394 
3 374 394 395 
3 374 395 396 
3 374 396 397 
3 374 397 398 
3 374 398 399 
3 374 399 400 
3 374 400 401 
3 402 403 404 
3 402 404 405 
3 402 405 406 
3 407 408 409 
3 410 411 412 
3 410 412 413 
3 414 415 416 
3 414 416 417 
3 418 419 420 
3 418 420 421 
3 418 421 422 
3 423 424 425 
