ply
format ascii 1.0
comment Created by Blender 2.91.0 - www.blender.org
element vertex 473
property float x
property float y
property float z
element face 300
property list uchar uint vertex_indices
end_header
0.591628 0.722291 -0.195622
0.591628 -0.657710 -0.102952
0.555498 -0.657710 -0.200501
0.555498 0.722291 -0.293171
0.555498 0.722291 -0.293171
0.555498 -0.657710 -0.200501
0.496826 -0.657710 -0.290402
0.496826 0.722291 -0.383072
0.053407 0.722291 -0.521505
0.053407 -0.657710 -0.521505
-0.070459 -0.657710 -0.511514
-0.085316 0.722291 -0.511514
0.038550 0.722291 0.425825
0.162416 0.722291 0.415833
0.241037 0.722291 0.386242
0.350806 0.722291 0.338189
0.403008 0.722291 0.273520
0.481968 0.722291 0.194721
0.540641 0.722291 0.104820
0.576771 0.722291 0.007272
0.603828 0.722291 -0.094175
0.591628 0.722291 -0.195622
0.555498 0.722291 -0.293171
0.496826 0.722291 -0.383072
0.417866 0.722291 -0.461871
0.378824 0.716069 -0.468272
0.255895 0.722291 -0.481923
0.177273 0.722291 -0.511514
0.053407 0.722291 -0.521505
-0.085316 0.722291 -0.511514
-0.223361 0.708580 -0.521053
-0.310203 0.703908 -0.512195
-0.406546 0.708580 -0.501001
-0.485506 0.708580 -0.422202
-0.544179 0.708580 -0.332300
-0.557828 0.721185 -0.195622
-0.530459 0.722291 -0.094175
-0.518259 0.722291 0.007272
-0.482129 0.722291 0.104820
-0.423456 0.722291 0.194722
-0.344496 0.722291 0.273520
-0.248283 0.722291 0.338189
-0.161311 0.722291 0.386242
-0.085315 0.722291 0.415833
-0.645831 -0.666234 -0.235119
-0.645935 -0.667009 -0.234628
-0.645612 -0.671255 -0.233054
-0.631088 -0.671276 -0.251243
-0.629017 -0.666993 -0.255833
-0.495790 -0.557285 -0.413422
-0.566006 -0.612776 -0.332301
-0.629017 -0.666993 -0.255833
-0.631088 -0.671276 -0.251243
-0.224900 -0.657933 -0.465077
-0.231686 -0.634471 -0.481170
-0.370735 -0.556778 -0.476267
-0.479260 -0.513150 -0.458317
-0.488750 -0.518688 -0.448981
-0.173981 -0.657710 -0.488647
-0.204550 -0.648450 -0.482188
-0.231686 -0.634471 -0.481170
-0.224900 -0.657933 -0.465077
0.261417 -0.619574 -0.490331
0.177273 -0.641515 -0.511514
0.142861 -0.657710 -0.514290
0.250692 -0.657710 -0.464220
0.461404 -0.642910 -0.370195
0.404970 -0.598507 -0.435352
0.294958 -0.609282 -0.481923
0.261417 -0.619574 -0.490331
0.250692 -0.657710 -0.464220
0.468433 -0.657710 -0.354418
0.544386 -0.204299 0.201722
0.557778 -0.169749 0.090987
0.517807 -0.202778 0.219203
0.544386 -0.204299 0.201722
0.517807 -0.202778 0.219203
0.509397 -0.207738 0.246116
0.525374 -0.213860 0.256073
0.540641 -0.211244 0.232324
0.525374 -0.213860 0.256073
0.509397 -0.207738 0.246116
0.398508 -0.266370 0.450588
0.413927 -0.268699 0.450516
0.481968 -0.232764 0.325164
0.413927 -0.268699 0.450516
0.398508 -0.266370 0.450588
0.392292 -0.269551 0.458808
0.406084 -0.276782 0.468978
0.403008 -0.281568 0.476545
0.406084 -0.276782 0.468978
0.392292 -0.269551 0.458808
0.348051 -0.289525 0.492541
0.292887 -0.332327 0.562111
0.317386 -0.325620 0.550123
-0.548465 -0.209803 0.183956
-0.544679 -0.209560 0.186444
-0.549360 -0.205958 0.172132
-0.040105 -0.349287 0.638736
-0.287919 -0.319367 0.537790
-0.274499 -0.329623 0.554604
-0.194862 -0.351727 0.603456
-0.117093 -0.360946 0.634912
0.292887 -0.332327 0.562111
0.348051 -0.289525 0.492541
0.056454 -0.346939 0.638096
0.130737 -0.357547 0.634224
0.241037 -0.354752 0.604068
0.600124 -0.134057 -0.080287
0.603828 -0.134691 -0.094175
0.600146 -0.133713 -0.096825
-0.274499 -0.329623 0.554604
-0.287919 -0.319367 0.537790
-0.318481 -0.310355 0.521535
-0.281070 -0.327259 0.550455
-0.447636 -0.262097 0.400367
-0.519555 -0.224386 0.267429
-0.521935 -0.225318 0.268918
-0.512022 -0.234627 0.298352
-0.454161 -0.260600 0.393506
-0.521935 -0.225318 0.268918
-0.519555 -0.224386 0.267429
-0.544679 -0.209560 0.186444
-0.548465 -0.209803 0.183956
-0.548168 -0.210677 0.187651
-0.547469 -0.212739 0.196377
-0.489192 -0.228479 -0.436305
-0.453051 -0.247225 -0.469474
-0.463559 -0.249343 -0.467534
0.056454 -0.346939 0.638096
0.121932 -0.657710 0.694930
0.130737 -0.357547 0.634224
0.162416 0.722291 0.415833
0.038550 0.722291 0.425825
-0.001934 -0.657710 0.704922
0.121932 -0.657710 0.694930
0.241037 -0.657710 0.665339
0.241037 -0.354752 0.604068
0.130737 -0.357547 0.634224
0.241037 0.722291 0.386242
0.162416 0.722291 0.415833
0.130737 -0.357547 0.634224
0.241037 -0.354752 0.604068
0.306795 -0.657710 0.617286
0.317386 -0.325620 0.550123
0.292887 -0.332327 0.562111
0.241037 -0.354752 0.604068
0.241037 -0.657710 0.665339
0.350806 0.722291 0.338189
0.241037 0.722291 0.386242
0.241037 -0.354752 0.604068
0.292887 -0.332327 0.562111
0.317386 -0.325620 0.550123
0.306795 -0.657710 0.617286
0.403008 -0.657710 0.552617
0.403008 -0.281568 0.476545
0.317386 -0.325620 0.550123
0.403008 0.722291 0.273520
0.350806 0.722291 0.338189
0.317386 -0.325620 0.550123
0.403008 -0.281568 0.476545
0.481968 0.722291 0.194721
0.403008 0.722291 0.273520
0.403008 -0.281568 0.476545
0.406084 -0.276782 0.468978
0.413927 -0.268699 0.450516
0.481968 -0.232764 0.325164
0.406084 -0.276782 0.468978
0.403008 -0.281568 0.476545
0.403008 -0.657710 0.552617
0.481968 -0.657710 0.383204
0.481968 -0.232764 0.325164
0.413927 -0.268699 0.450516
0.540641 -0.657710 0.293303
0.540641 -0.211244 0.232324
0.525374 -0.213860 0.256073
0.481968 -0.232764 0.325164
0.481968 -0.657710 0.383204
0.540641 0.722291 0.104820
0.481968 0.722291 0.194721
0.576771 -0.657710 0.007271
0.576771 0.722291 0.007272
0.540641 0.722291 0.104820
0.540641 -0.211244 0.232324
0.544386 -0.204299 0.201722
0.557778 -0.169749 0.090987
0.540641 -0.211244 0.232324
0.540641 -0.657710 0.293303
0.576771 -0.657710 0.007271
0.557778 -0.169749 0.090987
0.544386 -0.204299 0.201722
0.603828 -0.134691 -0.094175
0.603828 0.722291 -0.094175
0.576771 0.722291 0.007272
0.576771 -0.657710 0.007271
0.603828 -0.657710 -0.094175
0.600124 -0.134057 -0.080287
0.591628 -0.657710 -0.102952
0.591628 0.722291 -0.195622
0.603828 0.722291 -0.094175
0.603828 -0.134691 -0.094175
0.600146 -0.133713 -0.096825
0.603828 -0.134691 -0.094175
0.603828 -0.657710 -0.094175
0.591628 -0.657710 -0.102952
0.600146 -0.133713 -0.096825
0.417866 0.722291 -0.461871
0.496826 0.722291 -0.383072
0.496826 -0.657710 -0.290402
0.468433 -0.657710 -0.354418
0.461404 -0.642910 -0.370195
0.468433 -0.657710 -0.354418
0.461876 -0.657710 -0.369201
0.461404 -0.642910 -0.370195
0.404970 -0.598507 -0.435352
0.378824 0.716069 -0.468272
0.417866 0.722291 -0.461871
0.461404 -0.642910 -0.370195
0.461404 -0.642910 -0.370195
0.461876 -0.657710 -0.369201
0.406147 -0.657710 -0.433870
0.404970 -0.598507 -0.435352
0.294958 -0.609282 -0.481923
0.255895 0.722291 -0.481923
0.378824 0.716069 -0.468272
0.404970 -0.598507 -0.435352
0.404970 -0.598507 -0.435352
0.406147 -0.657710 -0.433870
0.296379 -0.657710 -0.481923
0.294958 -0.609282 -0.481923
0.177273 -0.641515 -0.511514
0.177273 0.722291 -0.511514
0.255895 0.722291 -0.481923
0.294958 -0.609282 -0.481923
0.261417 -0.619574 -0.490331
0.261417 -0.619574 -0.490331
0.294958 -0.609282 -0.481923
0.296379 -0.657710 -0.481923
0.177273 -0.657710 -0.511514
0.177273 -0.641515 -0.511514
0.142861 -0.657710 -0.514290
0.053407 -0.657710 -0.521505
0.053407 0.722291 -0.521505
0.177273 0.722291 -0.511514
0.177273 -0.641515 -0.511514
0.177273 -0.641515 -0.511514
0.177273 -0.657710 -0.511514
0.142861 -0.657710 -0.514290
-0.223361 0.708580 -0.521053
-0.085316 0.722291 -0.511514
-0.070459 -0.657710 -0.511514
-0.173981 -0.657710 -0.488647
-0.204550 -0.648450 -0.482188
-0.173981 -0.657710 -0.488647
-0.204422 -0.657710 -0.481923
-0.204550 -0.648450 -0.482188
-0.370735 -0.556778 -0.476267
-0.310203 0.703908 -0.512195
-0.223361 0.708580 -0.521053
-0.204550 -0.648450 -0.482188
-0.231686 -0.634471 -0.481170
-0.204550 -0.648450 -0.482188
-0.204422 -0.657710 -0.481923
-0.376239 -0.671421 -0.472999
-0.370735 -0.556778 -0.476267
-0.231686 -0.634471 -0.481170
-0.406546 0.708580 -0.501001
-0.310203 0.703908 -0.512195
-0.370735 -0.556778 -0.476267
-0.479260 -0.513150 -0.458317
-0.453051 -0.247225 -0.469474
-0.463559 -0.249343 -0.467534
-0.479260 -0.513150 -0.458317
-0.463559 -0.249343 -0.467534
-0.453051 -0.247225 -0.469474
-0.370735 -0.556778 -0.476267
-0.376239 -0.671421 -0.472999
-0.489176 -0.679761 -0.452496
-0.479260 -0.513150 -0.458317
-0.479260 -0.513150 -0.458317
-0.488750 -0.518688 -0.448981
-0.489192 -0.228479 -0.436305
-0.463559 -0.249343 -0.467534
-0.489192 -0.228479 -0.436305
-0.488750 -0.518688 -0.448981
-0.495790 -0.557285 -0.413422
-0.485506 0.708580 -0.422202
-0.406546 0.708580 -0.501001
-0.463559 -0.249343 -0.467534
-0.488750 -0.518688 -0.448981
-0.479260 -0.513150 -0.458317
-0.489176 -0.679761 -0.452496
-0.496840 -0.686494 -0.412526
-0.495790 -0.557285 -0.413422
-0.495790 -0.557285 -0.413422
-0.496840 -0.686494 -0.412526
-0.566974 -0.671421 -0.332301
-0.566006 -0.612776 -0.332301
-0.645831 -0.666234 -0.235119
-0.609898 -0.154725 -0.253465
-0.588262 -0.169437 -0.295886
-0.566006 -0.612776 -0.332301
-0.629017 -0.666993 -0.255833
-0.566974 -0.671421 -0.332301
-0.646215 -0.671421 -0.234752
-0.645935 -0.667009 -0.234628
-0.645831 -0.666234 -0.235119
-0.629017 -0.666993 -0.255833
-0.566006 -0.612776 -0.332301
-0.646215 -0.671421 -0.234752
-0.645612 -0.671255 -0.233054
-0.645935 -0.667009 -0.234628
-0.547469 -0.212739 0.196377
-0.548168 -0.210677 0.187651
-0.561369 -0.657710 0.286369
-0.549360 -0.205958 0.172132
-0.547469 -0.212739 0.196377
-0.518259 0.722291 0.007272
-0.530459 0.722291 -0.094175
-0.596365 -0.657710 -0.094175
-0.561369 -0.657710 0.286369
-0.548168 -0.210677 0.187651
-0.548465 -0.209803 0.183956
-0.547469 -0.212739 0.196377
-0.549360 -0.205958 0.172132
-0.548465 -0.209803 0.183956
-0.548168 -0.210677 0.187651
-0.512022 -0.234627 0.298352
-0.482129 0.722291 0.104820
-0.518259 0.722291 0.007272
-0.547469 -0.212739 0.196377
-0.521935 -0.225318 0.268918
-0.547469 -0.212739 0.196377
-0.561369 -0.657710 0.286369
-0.525239 -0.657710 0.383918
-0.512022 -0.234627 0.298352
-0.521935 -0.225318 0.268918
-0.454161 -0.260600 0.393506
-0.423456 0.722291 0.194722
-0.482129 0.722291 0.104820
-0.512022 -0.234627 0.298352
-0.512022 -0.234627 0.298352
-0.525239 -0.657710 0.383918
-0.466566 -0.657710 0.473819
-0.454161 -0.260600 0.393506
-0.466566 -0.657710 0.473819
-0.387606 -0.657710 0.552618
-0.344496 0.722291 0.273520
-0.423456 0.722291 0.194722
-0.454161 -0.260600 0.393506
-0.447636 -0.262097 0.400367
-0.454161 -0.260600 0.393506
-0.466566 -0.657710 0.473819
-0.447636 -0.262097 0.400367
-0.387606 -0.657710 0.552618
-0.291393 -0.657710 0.617286
-0.281070 -0.327259 0.550455
-0.318481 -0.310355 0.521535
-0.248283 0.722291 0.338189
-0.344496 0.722291 0.273520
-0.161311 0.722291 0.386242
-0.248283 0.722291 0.338189
-0.281070 -0.327259 0.550455
-0.274499 -0.329623 0.554604
-0.194862 -0.351727 0.603456
-0.291393 -0.657710 0.617286
-0.204421 -0.657710 0.665340
-0.194862 -0.351727 0.603456
-0.274499 -0.329623 0.554604
-0.281070 -0.327259 0.550455
0.468433 -0.657710 -0.354418
0.496826 -0.657710 -0.290402
0.555498 -0.657710 -0.200501
0.591628 -0.657710 -0.102952
0.603828 -0.657710 -0.094175
0.576771 -0.657710 0.007271
0.540641 -0.657710 0.293303
0.481968 -0.657710 0.383204
0.403008 -0.657710 0.552617
0.306795 -0.657710 0.617286
0.241037 -0.657710 0.665339
0.121932 -0.657710 0.694930
-0.001934 -0.657710 0.704922
-0.125799 -0.657710 0.694930
-0.204421 -0.657710 0.665340
-0.291393 -0.657710 0.617286
-0.387606 -0.657710 0.552618
-0.466566 -0.657710 0.473819
-0.525239 -0.657710 0.383918
-0.561369 -0.657710 0.286369
-0.596365 -0.657710 -0.094175
-0.645612 -0.671255 -0.233054
-0.631088 -0.671276 -0.251243
-0.224900 -0.657933 -0.465077
-0.173981 -0.657710 -0.488647
-0.070459 -0.657710 -0.511514
0.053407 -0.657710 -0.521505
0.142861 -0.657710 -0.514290
0.250692 -0.657710 -0.464220
0.177273 -0.657710 -0.511514
0.296379 -0.657710 -0.481923
0.406147 -0.657710 -0.433870
0.461876 -0.657710 -0.369201
0.468433 -0.657710 -0.354418
0.250692 -0.657710 -0.464220
0.142861 -0.657710 -0.514290
-0.645612 -0.671255 -0.233054
-0.646215 -0.671421 -0.234752
-0.566974 -0.671421 -0.332301
-0.496840 -0.686494 -0.412526
-0.489176 -0.679761 -0.452496
-0.376239 -0.671421 -0.472999
-0.204422 -0.657710 -0.481923
-0.173981 -0.657710 -0.488647
-0.224900 -0.657933 -0.465077
-0.631088 -0.671276 -0.251243
-0.085315 0.722291 0.415833
-0.161311 0.722291 0.386242
-0.194862 -0.351727 0.603456
-0.117093 -0.360946 0.634912
-0.204421 -0.657710 0.665340
-0.125799 -0.657710 0.694930
-0.117093 -0.360946 0.634912
-0.194862 -0.351727 0.603456
-0.040105 -0.349287 0.638736
-0.001934 -0.657710 0.704922
0.038550 0.722291 0.425825
-0.085315 0.722291 0.415833
-0.117093 -0.360946 0.634912
-0.125799 -0.657710 0.694930
-0.001934 -0.657710 0.704922
-0.040105 -0.349287 0.638736
-0.117093 -0.360946 0.634912
-0.534952 0.386463 -0.349329
-0.528254 0.370294 -0.305130
-0.574637 0.386402 -0.246909
-0.549412 0.391780 -0.332300
-0.580611 0.362222 -0.205708
-0.574637 0.386402 -0.246909
-0.528254 0.370294 -0.305130
-0.570166 0.320048 -0.169337
-0.544179 0.708580 -0.332300
-0.534952 0.386463 -0.349329
-0.549412 0.391780 -0.332300
-0.534952 0.386463 -0.349329
-0.544179 0.708580 -0.332300
-0.485506 0.708580 -0.422202
-0.495790 -0.557285 -0.413422
-0.566006 -0.612776 -0.332301
-0.549412 0.391780 -0.332300
-0.580611 0.362222 -0.205708
-0.557828 0.721185 -0.195622
-0.544179 0.708580 -0.332300
-0.549412 0.391780 -0.332300
-0.574637 0.386402 -0.246909
-0.645831 -0.666234 -0.235119
-0.645935 -0.667009 -0.234628
-0.580611 0.362222 -0.205708
-0.574637 0.386402 -0.246909
-0.549412 0.391780 -0.332300
-0.566006 -0.612776 -0.332301
-0.588262 -0.169437 -0.295886
-0.609898 -0.154725 -0.253465
-0.557828 0.721185 -0.195622
-0.580611 0.362222 -0.205708
-0.570166 0.320048 -0.169337
-0.645612 -0.671255 -0.233054
-0.596365 -0.657710 -0.094175
-0.530459 0.722291 -0.094175
-0.557828 0.721185 -0.195622
-0.570166 0.320048 -0.169337
-0.580611 0.362222 -0.205708
-0.645935 -0.667009 -0.234628
3 0 1 2
3 0 2 3
3 4 5 6
3 4 6 7
3 8 9 10
3 8 10 11
3 12 13 14
3 12 14 15
3 12 15 16
3 12 16 17
3 12 17 18
3 12 18 19
3 12 19 20
3 12 20 21
3 12 21 22
3 12 22 23
3 12 23 24
3 12 24 25
3 12 25 26
3 12 26 27
3 12 27 28
3 12 28 29
3 12 29 30
3 12 30 31
3 12 31 32
3 12 32 33
3 12 33 34
3 12 34 35
3 12 35 36
3 12 36 37
3 12 37 38
3 12 38 39
3 12 39 40
3 12 40 41
3 12 41 42
3 12 42 43
3 44 45 46
3 44 46 47
3 44 47 48
3 49 50 51
3 49 51 52
3 49 52 53
3 49 53 54
3 49 54 55
3 49 55 56
3 49 56 57
3 58 59 60
3 58 60 61
3 62 63 64
3 62 64 65
3 66 67 68
3 66 68 69
3 66 69 70
3 66 70 71
3 72 73 74
3 75 76 77
3 75 77 78
3 75 78 79
3 80 81 82
3 80 82 83
3 80 83 84
3 85 86 87
3 85 87 88
3 89 90 91
3 89 91 92
3 89 92 93
3 89 93 94
3 95 96 97
3 98 99 100
3 98 100 101
3 98 101 102
3 103 104 105
3 103 105 106
3 103 106 107
3 108 109 110
3 111 112 113
3 111 113 114
3 115 116 117
3 115 117 118
3 115 118 119
3 120 121 122
3 120 122 123
3 120 123 124
3 120 124 125
3 126 127 128
3 129 130 131
3 132 133 134
3 132 134 130
3 132 130 129
3 132 129 131
3 135 136 137
3 135 137 138
3 139 140 141
3 139 141 142
3 143 144 145
3 143 145 146
3 143 146 147
3 148 149 150
3 148 150 151
3 148 151 152
3 153 154 155
3 153 155 156
3 157 158 159
3 157 159 160
3 161 162 163
3 161 163 164
3 161 164 165
3 161 165 166
3 167 168 169
3 167 169 170
3 167 170 171
3 167 171 172
3 173 174 175
3 173 175 176
3 173 176 177
3 178 179 176
3 178 176 175
3 178 175 174
3 180 181 182
3 180 182 183
3 180 183 184
3 180 184 185
3 186 187 188
3 186 188 189
3 186 189 190
3 191 192 193
3 191 193 194
3 191 194 195
3 191 195 196
3 197 198 199
3 197 199 200
3 197 200 201
3 202 203 204
3 202 204 205
3 206 207 208
3 206 208 209
3 206 209 210
3 211 212 213
3 214 215 216
3 214 216 217
3 218 219 220
3 218 220 221
3 222 223 224
3 222 224 225
3 226 227 228
3 226 228 229
3 230 231 232
3 230 232 233
3 230 233 234
3 235 236 237
3 235 237 238
3 235 238 239
3 240 241 242
3 240 242 243
3 240 243 244
3 245 246 247
3 248 249 250
3 248 250 251
3 248 251 252
3 253 254 255
3 256 257 258
3 256 258 259
3 256 259 260
3 261 262 263
3 261 263 264
3 261 264 265
3 266 267 268
3 266 268 269
3 266 269 270
3 266 270 271
3 272 273 274
3 275 276 277
3 275 277 278
3 279 280 281
3 279 281 282
3 283 284 285
3 283 285 286
3 283 286 287
3 283 287 288
3 289 290 291
3 289 291 292
3 289 292 293
3 294 295 296
3 294 296 297
3 298 299 300
3 298 300 301
3 298 301 302
3 303 304 305
3 303 305 306
3 303 306 307
3 303 307 308
3 309 310 311
3 312 313 314
3 315 316 317
3 315 317 318
3 315 318 319
3 315 319 320
3 315 320 321
3 315 321 322
3 323 324 325
3 323 325 326
3 327 328 329
3 327 329 330
3 327 330 331
3 332 333 334
3 332 334 335
3 332 335 336
3 337 338 339
3 337 339 340
3 341 342 343
3 341 343 344
3 345 346 347
3 345 347 348
3 345 348 349
3 345 349 350
3 351 352 353
3 354 355 356
3 354 356 357
3 358 359 354
3 358 354 357
3 358 357 356
3 360 361 362
3 360 362 363
3 360 363 364
3 365 366 367
3 365 367 368
3 365 368 369
3 370 371 372
3 370 372 373
3 370 373 374
3 370 374 375
3 370 375 376
3 370 376 377
3 370 377 378
3 370 378 379
3 370 379 380
3 370 380 381
3 370 381 382
3 370 382 383
3 370 383 384
3 370 384 385
3 370 385 386
3 370 386 387
3 370 387 388
3 370 388 389
3 370 389 390
3 370 390 391
3 370 391 392
3 370 392 393
3 370 393 394
3 370 394 395
3 370 395 396
3 370 396 397
3 370 397 398
3 399 400 401
3 399 401 402
3 399 402 403
3 399 403 404
3 399 404 405
3 406 407 408
3 406 408 409
3 406 409 410
3 406 410 411
3 406 411 412
3 406 412 413
3 406 413 414
3 406 414 415
3 416 417 418
3 416 418 419
3 420 421 422
3 420 422 423
3 424 425 426
3 424 426 427
3 424 427 428
3 429 430 431
3 429 431 432
3 433 434 435
3 433 435 436
3 437 438 439
3 437 439 440
3 441 442 443
3 444 445 446
3 444 446 447
3 444 447 448
3 444 448 449
3 450 451 452
3 450 452 453
3 450 453 454
3 455 456 457
3 455 457 458
3 455 458 459
3 455 459 460
3 455 460 461
3 455 461 462
3 463 464 465
3 466 467 468
3 466 468 469
3 466 469 470
3 466 470 471
3 466 471 472
