ply
format ascii 1.0
comment VCGLIB generated
element vertex 797
property float x
property float y
property float z
element face 327
property list uchar int vertex_indices
end_header
-0.480123 -1.033334 -0.131802 
-0.207075 -1.12209 -0.145583 
0.045009 -1.097446 0.417678 
0.371119 0.884748 1.126016 
0.456786 0.312185 0.964396 
0.936794 0.765176 0.02142 
0.380336 1.242429 -0.97845 
0.421039 1.193771 -0.979738 
-0.481421 0.991444 -1.198299 
-0.280547 -0.918208 0.826001 
-0.480123 -1.033334 -0.131802 
0.045009 -1.097446 0.417678 
-0.280547 -0.918208 0.826001 
0.045009 -1.097446 0.417678 
0.221658 -0.825346 0.844458 
-0.524501 -0.432386 0.802603 
-0.280547 -0.918208 0.826001 
0.221658 -0.825346 0.844458 
-0.350556 -0.351809 0.931078 
-0.524501 -0.432386 0.802603 
0.221658 -0.825346 0.844458 
-1.006909 0.204197 0.725802 
-0.524501 -0.432386 0.802603 
-0.350556 -0.351809 0.931078 
0.371119 0.884748 1.126016 
0.936794 0.765176 0.02142 
0.831479 1.364278 0.037078 
-0.727459 0.659864 1.215319 
-1.089287 0.976412 0.962709 
-1.006909 0.204197 0.725802 
-0.422115 -0.075704 0.929563 
-0.350556 -0.351809 0.931078 
0.083894 -0.122106 0.991089 
0.083894 -0.122106 0.991089 
-0.350556 -0.351809 0.931078 
0.185103 -0.56494 1.046822 
0.185103 -0.56494 1.046822 
-0.350556 -0.351809 0.931078 
0.221658 -0.825346 0.844458 
0.185103 -0.56494 1.046822 
0.221658 -0.825346 0.844458 
0.5342 -0.215509 0.997334 
0.221658 -0.825346 0.844458 
0.597158 -0.221337 0.781335 
0.5342 -0.215509 0.997334 
0.5342 -0.215509 0.997334 
0.597158 -0.221337 0.781335 
0.936794 0.765176 0.02142 
0.597158 -0.221337 0.781335 
0.923188 0.569665 0.004887 
0.936794 0.765176 0.02142 
0.936794 0.765176 0.02142 
0.923188 0.569665 0.004887 
0.450395 0.856738 -0.928379 
0.923188 0.569665 0.004887 
1.008155 0.369098 -0.011845 
0.450395 0.856738 -0.928379 
1.008155 0.369098 -0.011845 
0.981099 0.0086 -0.032616 
0.450395 0.856738 -0.928379 
0.81944 -0.170201 0.715734 
0.981099 0.0086 -0.032616 
1.008155 0.369098 -0.011845 
0.81944 -0.170201 0.715734 
0.769403 -0.662841 0.415931 
0.981099 0.0086 -0.032616 
0.486743 -0.746861 0.845543 
0.769403 -0.662841 0.415931 
0.81944 -0.170201 0.715734 
0.486743 -0.746861 0.845543 
0.505937 -1.052591 0.40643 
0.769403 -0.662841 0.415931 
0.486743 -0.746861 0.845543 
0.045009 -1.097446 0.417678 
0.505937 -1.052591 0.40643 
-0.492875 0.780855 -1.145712 
0.450395 0.856738 -0.928379 
-0.370259 0.255279 -1.179859 
-0.492875 0.780855 -1.145712 
-0.370259 0.255279 -1.179859 
-0.95572 0.715507 -0.829051 
-0.95572 0.715507 -0.829051 
-0.370259 0.255279 -1.179859 
-0.766206 0.140851 -0.816664 
-0.911067 -0.000805 -0.074261 
-0.95572 0.715507 -0.829051 
-0.766206 0.140851 -0.816664 
-0.911067 -0.000805 -0.074261 
-0.766206 0.140851 -0.816664 
-0.73897 -0.32732 -0.841848 
-0.794722 -0.555337 -0.108258 
-0.911067 -0.000805 -0.074261 
-0.73897 -0.32732 -0.841848 
-0.794722 -0.555337 -0.108258 
-0.73897 -0.32732 -0.841848 
-0.646236 -0.658531 -0.791727 
-0.394351 -0.97646 -0.629925 
-0.794722 -0.555337 -0.108258 
-0.646236 -0.658531 -0.791727 
-0.394351 -0.97646 -0.629925 
-0.646236 -0.658531 -0.791727 
-0.228957 -0.871 -1.100009 
-0.394351 -0.97646 -0.629925 
-0.228957 -0.871 -1.100009 
-0.068351 -1.012815 -0.875073 
-0.068351 -1.012815 -0.875073 
-0.228957 -0.871 -1.100009 
0.595612 -0.921264 -0.83213 
-0.370259 0.255279 -1.179859 
-0.299372 -0.245446 -1.179718 
-0.766206 0.140851 -0.816664 
-0.370259 0.255279 -1.179859 
-0.003001 -0.201185 -1.220585 
-0.299372 -0.245446 -1.179718 
-0.370259 0.255279 -1.179859 
0.541822 0.28938 -1.007831 
-0.003001 -0.201185 -1.220585 
0.541822 0.28938 -1.007831 
0.615348 -0.129447 -1.126195 
-0.003001 -0.201185 -1.220585 
0.981099 0.0086 -0.032616 
0.615348 -0.129447 -1.126195 
0.541822 0.28938 -1.007831 
1.046206 -0.505297 -0.091087 
0.615348 -0.129447 -1.126195 
0.981099 0.0086 -0.032616 
0.769403 -0.662841 0.415931 
1.046206 -0.505297 -0.091087 
0.981099 0.0086 -0.032616 
0.769403 -0.662841 0.415931 
0.974438 -0.757562 -0.127008 
1.046206 -0.505297 -0.091087 
0.505937 -1.052591 0.40643 
0.974438 -0.757562 -0.127008 
0.769403 -0.662841 0.415931 
0.505937 -1.052591 0.40643 
0.782673 -0.975071 -0.184438 
0.974438 -0.757562 -0.127008 
0.089989 -1.246128 0.358118 
0.045009 -1.097446 0.417678 
-0.15579 -1.236042 -0.147394 
0.045009 -1.097446 0.417678 
0.089989 -1.246128 0.358118 
0.505937 -1.052591 0.40643 
0.505937 -1.052591 0.40643 
0.089989 -1.246128 0.358118 
0.511631 -1.191342 0.347818 
0.505937 -1.052591 0.40643 
0.511631 -1.191342 0.347818 
0.782673 -0.975071 -0.184438 
0.511631 -1.191342 0.347818 
0.761481 -1.115061 -0.203249 
0.782673 -0.975071 -0.184438 
0.782673 -0.975071 -0.184438 
0.761481 -1.115061 -0.203249 
0.595612 -0.921264 -0.83213 
0.761481 -1.115061 -0.203249 
0.604546 -1.110952 -0.807405 
0.595612 -0.921264 -0.83213 
0.595612 -0.921264 -0.83213 
0.604546 -1.110952 -0.807405 
-0.006178 -1.187789 -0.860006 
0.782673 -0.975071 -0.184438 
0.595612 -0.921264 -0.83213 
0.974438 -0.757562 -0.127008 
0.974438 -0.757562 -0.127008 
0.595612 -0.921264 -0.83213 
0.63366 -0.563756 -1.047921 
0.328175 -0.551242 -1.15171 
0.63366 -0.563756 -1.047921 
0.595612 -0.921264 -0.83213 
0.615348 -0.129447 -1.126195 
0.63366 -0.563756 -1.047921 
0.328175 -0.551242 -1.15171 
0.016872 -0.529255 -1.157915 
0.615348 -0.129447 -1.126195 
0.328175 -0.551242 -1.15171 
-0.003001 -0.201185 -1.220585 
0.615348 -0.129447 -1.126195 
0.016872 -0.529255 -1.157915 
-0.003001 -0.201185 -1.220585 
0.016872 -0.529255 -1.157915 
-0.299372 -0.245446 -1.179718 
-0.280547 -0.918208 0.826001 
-0.603429 -0.699132 -0.119337 
-0.480123 -1.033334 -0.131802 
-0.794722 -0.555337 -0.108258 
-0.603429 -0.699132 -0.119337 
-0.280547 -0.918208 0.826001 
-0.280547 -0.918208 0.826001 
-0.689851 -0.51055 0.648605 
-0.794722 -0.555337 -0.108258 
-0.689851 -0.51055 0.648605 
-0.911067 -0.000805 -0.074261 
-0.794722 -0.555337 -0.108258 
-0.524501 -0.432386 0.802603 
-0.911067 -0.000805 -0.074261 
-0.689851 -0.51055 0.648605 
-0.524501 -0.432386 0.802603 
-1.006909 0.204197 0.725802 
-0.911067 -0.000805 -0.074261 
0.221658 -0.825346 0.844458 
0.045009 -1.097446 0.417678 
0.486743 -0.746861 0.845543 
0.221658 -0.825346 0.844458 
0.486743 -0.746861 0.845543 
0.597158 -0.221337 0.781335 
0.597158 -0.221337 0.781335 
0.486743 -0.746861 0.845543 
0.81944 -0.170201 0.715734 
0.81944 -0.170201 0.715734 
1.008155 0.369098 -0.011845 
0.597158 -0.221337 0.781335 
0.083894 -0.122106 0.991089 
0.185103 -0.56494 1.046822 
0.5342 -0.215509 0.997334 
0.510274 0.145693 0.853252 
0.083894 -0.122106 0.991089 
0.5342 -0.215509 0.997334 
0.510274 0.145693 0.853252 
0.5342 -0.215509 0.997334 
0.936794 0.765176 0.02142 
0.456786 0.312185 0.964396 
0.510274 0.145693 0.853252 
0.936794 0.765176 0.02142 
-1.025497 0.907921 -0.989595 
-0.961785 1.020666 -1.156947 
-0.465169 0.913543 -1.173806 
-0.481421 0.991444 -1.198299 
-0.465169 0.913543 -1.173806 
-0.961785 1.020666 -1.156947 
-0.15579 -1.236042 -0.147394 
0.045009 -1.097446 0.417678 
-0.207075 -1.12209 -0.145583 
-0.15579 -1.236042 -0.147394 
-0.207075 -1.12209 -0.145583 
-0.006178 -1.187789 -0.860006 
-0.207075 -1.12209 -0.145583 
-0.068351 -1.012815 -0.875073 
-0.006178 -1.187789 -0.860006 
-0.068351 -1.012815 -0.875073 
0.595612 -0.921264 -0.83213 
-0.006178 -1.187789 -0.860006 
0.328175 -0.551242 -1.15171 
0.595612 -0.921264 -0.83213 
0.016872 -0.529255 -1.157915 
0.016872 -0.529255 -1.157915 
0.595612 -0.921264 -0.83213 
-0.261799 -0.549084 -1.223878 
-0.261799 -0.549084 -1.223878 
0.595612 -0.921264 -0.83213 
-0.228957 -0.871 -1.100009 
-0.261799 -0.549084 -1.223878 
-0.228957 -0.871 -1.100009 
-0.646236 -0.658531 -0.791727 
-0.603429 -0.699132 -0.119337 
-0.794722 -0.555337 -0.108258 
-0.394351 -0.97646 -0.629925 
-0.480123 -1.033334 -0.131802 
-0.603429 -0.699132 -0.119337 
-0.394351 -0.97646 -0.629925 
-0.480123 -1.033334 -0.131802 
-0.394351 -0.97646 -0.629925 
-0.207075 -1.12209 -0.145583 
-0.727459 0.659864 1.215319 
0.051365 0.102402 1.150941 
0.371119 0.884748 1.126016 
-0.727459 0.659864 1.215319 
-0.454016 0.075779 1.025799 
0.051365 0.102402 1.150941 
-0.727459 0.659864 1.215319 
-1.006909 0.204197 0.725802 
-0.454016 0.075779 1.025799 
0.584662 -1.076552 -0.508204 
0.490014 -1.050254 -0.608383 
0.604546 -1.110952 -0.807405 
0.761481 -1.115061 -0.203249 
0.663949 -1.078245 -0.19872 
0.700154 -1.103155 -0.325101 
0.243014 -0.919351 -0.179171 
0.490014 -1.050254 -0.608383 
0.584662 -1.076552 -0.508204 
0.700154 -1.103155 -0.325101 
0.663949 -1.078245 -0.19872 
0.081704 -1.09312 -0.619897 
-0.006178 -1.187789 -0.860006 
0.604546 -1.110952 -0.807405 
0.490014 -1.050254 -0.608383 
0.436084 -1.078864 -0.673728 
0.293529 -1.146681 -0.824735 
0.119179 -1.105369 -0.663849 
0.436084 -1.078864 -0.673728 
0.490014 -1.050254 -0.608383 
0.243014 -0.919351 -0.179171 
0.081704 -1.09312 -0.619897 
0.119179 -1.105369 -0.663849 
0.293529 -1.146681 -0.824735 
-0.06742 -1.170094 -0.196417 
-0.054579 -1.155671 -0.155459 
-0.15579 -1.236042 -0.147394 
-0.006178 -1.187789 -0.860006 
0.081704 -1.09312 -0.619897 
-0.000961 -1.151424 -0.540413 
-0.075699 -1.188942 -0.317654 
0.081704 -1.09312 -0.619897 
0.243014 -0.919351 -0.179171 
-0.054579 -1.155671 -0.155459 
-0.06742 -1.170094 -0.196417 
-0.075699 -1.188942 -0.317654 
-0.000961 -1.151424 -0.540413 
-0.299372 -0.245446 -1.179718 
0.016872 -0.529255 -1.157915 
-0.261799 -0.549084 -1.223878 
-0.299372 -0.245446 -1.179718 
-0.261799 -0.549084 -1.223878 
-0.73897 -0.32732 -0.841848 
-0.646236 -0.658531 -0.791727 
-0.73897 -0.32732 -0.841848 
-0.261799 -0.549084 -1.223878 
0.663949 -1.078245 -0.19872 
0.761481 -1.115061 -0.203249 
0.511631 -1.191342 0.347818 
0.422582 -1.101174 0.173115 
0.531233 -1.118591 0.093452 
0.621631 -1.135604 0.035145 
0.662111 -1.096099 -0.139979 
0.662111 -1.096099 -0.139979 
0.621631 -1.135604 0.035145 
0.531233 -1.118591 0.093452 
0.422582 -1.101174 0.173115 
0.243014 -0.919351 -0.179171 
0.663949 -1.078245 -0.19872 
0.315494 -1.181351 0.290933 
0.422582 -1.101174 0.173115 
0.511631 -1.191342 0.347818 
0.089989 -1.246128 0.358118 
0.149736 -1.118542 0.148341 
0.149736 -1.118542 0.148341 
0.243014 -0.919351 -0.179171 
0.422582 -1.101174 0.173115 
0.315494 -1.181351 0.290933 
1.046206 -0.505297 -0.091087 
0.974438 -0.757562 -0.127008 
0.615348 -0.129447 -1.126195 
0.974438 -0.757562 -0.127008 
0.63366 -0.563756 -1.047921 
0.615348 -0.129447 -1.126195 
-0.524501 -0.432386 0.802603 
-0.689851 -0.51055 0.648605 
-0.280547 -0.918208 0.826001 
-0.207075 -1.12209 -0.145583 
-0.394351 -0.97646 -0.629925 
-0.068351 -1.012815 -0.875073 
0.597158 -0.221337 0.781335 
1.008155 0.369098 -0.011845 
0.923188 0.569665 0.004887 
0.089989 -1.246128 0.358118 
-0.15579 -1.236042 -0.147394 
-0.054579 -1.155671 -0.155459 
0.019737 -1.175869 0.041264 
0.072312 -1.151625 0.081859 
0.149736 -1.118542 0.148341 
0.019737 -1.175869 0.041264 
-0.054579 -1.155671 -0.155459 
0.243014 -0.919351 -0.179171 
0.149736 -1.118542 0.148341 
0.072312 -1.151625 0.081859 
-0.766206 0.140851 -0.816664 
-0.299372 -0.245446 -1.179718 
-0.73897 -0.32732 -0.841848 
0.456786 0.312185 0.964396 
0.083894 -0.122106 0.991089 
0.510274 0.145693 0.853252 
0.981099 0.0086 -0.032616 
0.541822 0.28938 -1.007831 
0.450395 0.856738 -0.928379 
0.450395 0.856738 -0.928379 
0.541822 0.28938 -1.007831 
-0.370259 0.255279 -1.179859 
-0.481421 0.991444 -1.198299 
0.421039 1.193771 -0.979738 
-0.465169 0.913543 -1.173806 
-0.465169 0.913543 -1.173806 
0.421039 1.193771 -0.979738 
-0.492875 0.780855 -1.145712 
-1.025497 0.907921 -0.989595 
-0.465169 0.913543 -1.173806 
-0.492875 0.780855 -1.145712 
-0.95572 0.715507 -0.829051 
-1.025497 0.907921 -0.989595 
-0.492875 0.780855 -1.145712 
0.421039 1.193771 -0.979738 
0.450395 0.856738 -0.928379 
-0.492875 0.780855 -1.145712 
0.936794 0.765176 0.02142 
0.450395 0.856738 -0.928379 
0.421039 1.193771 -0.979738 
0.421039 1.193771 -0.979738 
0.380336 1.242429 -0.97845 
0.831479 1.364278 0.037078 
0.936794 0.765176 0.02142 
0.421039 1.193771 -0.979738 
0.831479 1.364278 0.037078 
0.371119 0.884748 1.126016 
0.051365 0.102402 1.150941 
0.456786 0.312185 0.964396 
0.051365 0.102402 1.150941 
0.083894 -0.122106 0.991089 
0.456786 0.312185 0.964396 
0.051365 0.102402 1.150941 
-0.454016 0.075779 1.025799 
0.083894 -0.122106 0.991089 
-0.454016 0.075779 1.025799 
-0.422115 -0.075704 0.929563 
0.083894 -0.122106 0.991089 
-0.454016 0.075779 1.025799 
-1.006909 0.204197 0.725802 
-0.422115 -0.075704 0.929563 
-0.422115 -0.075704 0.929563 
-1.006909 0.204197 0.725802 
-0.350556 -0.351809 0.931078 
-0.017994 -0.917304 0.037975 
-0.03869 -0.911559 -0.449581 
-0.075699 -1.188942 -0.317654 
-0.06742 -1.170094 -0.196417 
-0.085567 -1.262907 -0.282475 
-0.06742 -1.170094 -0.196417 
-0.075699 -1.188942 -0.317654 
-0.054579 -1.155671 -0.155459 
0.019737 -1.175869 0.041264 
-0.017994 -0.917304 0.037975 
-0.06742 -1.170094 -0.196417 
-0.06742 -1.170094 -0.196417 
-0.085567 -1.262907 -0.282475 
0.025524 -1.215527 0.041768 
0.019737 -1.175869 0.041264 
-0.054579 -1.155671 -0.155459 
-0.215641 -1.607701 0.347989 
0.025524 -1.215527 0.041768 
-0.085567 -1.262907 -0.282475 
-0.022107 -1.424054 0.541529 
0.025524 -1.215527 0.041768 
-0.215641 -1.607701 0.347989 
0.010286 -1.50739 0.872894 
-0.022107 -1.424054 0.541529 
-0.215641 -1.607701 0.347989 
0.010286 -1.50739 0.872894 
0.334397 -1.282184 0.572895 
-0.022107 -1.424054 0.541529 
0.010286 -1.50739 0.872894 
0.339157 -1.421344 0.940867 
0.334397 -1.282184 0.572895 
0.339157 -1.421344 0.940867 
0.722888 -1.501979 0.88629 
0.334397 -1.282184 0.572895 
0.573727 -1.601261 1.316488 
0.722888 -1.501979 0.88629 
0.339157 -1.421344 0.940867 
0.573727 -1.601261 1.316488 
0.873659 -1.754581 0.851252 
0.722888 -1.501979 0.88629 
0.567209 -1.731076 1.364999 
0.873659 -1.754581 0.851252 
0.573727 -1.601261 1.316488 
0.422582 -1.101174 0.173115 
0.531233 -1.118591 0.093452 
0.249592 -0.9095 0.233763 
0.315494 -1.181351 0.290933 
0.315494 -1.181351 0.290933 
0.32287 -1.211776 0.297331 
0.648636 -1.205752 0.034963 
0.531233 -1.118591 0.093452 
0.422582 -1.101174 0.173115 
0.621631 -1.135604 0.035145 
0.535231 -0.911167 0.035726 
0.249592 -0.9095 0.233763 
0.531233 -1.118591 0.093452 
0.648636 -1.205752 0.034963 
0.621631 -1.135604 0.035145 
0.531233 -1.118591 0.093452 
0.621631 -1.135604 0.035145 
0.662111 -1.096099 -0.139979 
0.535231 -0.911167 0.035726 
0.662111 -1.096099 -0.139979 
0.621631 -1.135604 0.035145 
0.648636 -1.205752 0.034963 
0.748192 -1.221566 -0.259185 
0.618009 -0.900671 -0.437817 
0.535231 -0.911167 0.035726 
0.662111 -1.096099 -0.139979 
0.663949 -1.078245 -0.19872 
0.700154 -1.103155 -0.325101 
0.662111 -1.096099 -0.139979 
0.748192 -1.221566 -0.259185 
0.700154 -1.103155 -0.325101 
0.663949 -1.078245 -0.19872 
0.700154 -1.103155 -0.325101 
0.584662 -1.076552 -0.508204 
0.618009 -0.900671 -0.437817 
0.748192 -1.221566 -0.259185 
0.556899 -1.222984 -0.566806 
0.584662 -1.076552 -0.508204 
0.700154 -1.103155 -0.325101 
0.286131 -0.899986 -0.806438 
0.618009 -0.900671 -0.437817 
0.584662 -1.076552 -0.508204 
0.490014 -1.050254 -0.608383 
0.436084 -1.078864 -0.673728 
0.584662 -1.076552 -0.508204 
0.556899 -1.222984 -0.566806 
0.436084 -1.078864 -0.673728 
0.490014 -1.050254 -0.608383 
0.436084 -1.078864 -0.673728 
0.293529 -1.146681 -0.824735 
0.286131 -0.899986 -0.806438 
0.556899 -1.222984 -0.566806 
0.295715 -1.219577 -0.830141 
0.293529 -1.146681 -0.824735 
0.436084 -1.078864 -0.673728 
0.293529 -1.146681 -0.824735 
0.119179 -1.105369 -0.663849 
0.286131 -0.899986 -0.806438 
0.295715 -1.219577 -0.830141 
0.012447 -1.236669 -0.572693 
0.119179 -1.105369 -0.663849 
0.293529 -1.146681 -0.824735 
0.295715 -1.219577 -0.830141 
0.30551 -1.414128 -0.893865 
0.012447 -1.236669 -0.572693 
0.012447 -1.236669 -0.572693 
0.30551 -1.414128 -0.893865 
0.020345 -1.762538 -0.730036 
0.30551 -1.414128 -0.893865 
0.326672 -1.748604 -0.911445 
0.020345 -1.762538 -0.730036 
0.072312 -1.151625 0.081859 
0.249592 -0.9095 0.233763 
-0.017994 -0.917304 0.037975 
0.019737 -1.175869 0.041264 
0.025524 -1.215527 0.041768 
0.072312 -1.151625 0.081859 
0.019737 -1.175869 0.041264 
0.315494 -1.181351 0.290933 
0.249592 -0.9095 0.233763 
0.072312 -1.151625 0.081859 
0.149736 -1.118542 0.148341 
0.072312 -1.151625 0.081859 
0.025524 -1.215527 0.041768 
0.32287 -1.211776 0.297331 
0.315494 -1.181351 0.290933 
0.149736 -1.118542 0.148341 
0.722888 -1.501979 0.88629 
0.96089 -1.603786 0.42734 
0.726249 -1.385549 0.500669 
0.873659 -1.754581 0.851252 
0.96089 -1.603786 0.42734 
0.722888 -1.501979 0.88629 
0.020345 -1.762538 -0.730036 
0.326672 -1.748604 -0.911445 
0.64174 -1.762545 -0.673215 
-0.122209 -1.760075 -0.292372 
0.020345 -1.762538 -0.730036 
0.64174 -1.762545 -0.673215 
-0.122209 -1.760075 -0.292372 
0.64174 -1.762545 -0.673215 
0.874194 -1.76056 -0.290684 
-0.22276 -1.75654 0.344196 
-0.122209 -1.760075 -0.292372 
0.874194 -1.76056 -0.290684 
-0.22276 -1.75654 0.344196 
0.874194 -1.76056 -0.290684 
1.013422 -1.756925 0.435674 
0.873659 -1.754581 0.851252 
-0.22276 -1.75654 0.344196 
1.013422 -1.756925 0.435674 
0.081704 -1.09312 -0.619897 
-0.000961 -1.151424 -0.540413 
-0.03869 -0.911559 -0.449581 
0.286131 -0.899986 -0.806438 
0.119179 -1.105369 -0.663849 
0.012447 -1.236669 -0.572693 
-0.000961 -1.151424 -0.540413 
0.081704 -1.09312 -0.619897 
0.119179 -1.105369 -0.663849 
-0.075699 -1.188942 -0.317654 
-0.03869 -0.911559 -0.449581 
-0.000961 -1.151424 -0.540413 
-0.000961 -1.151424 -0.540413 
0.012447 -1.236669 -0.572693 
-0.085567 -1.262907 -0.282475 
-0.075699 -1.188942 -0.317654 
-0.085567 -1.262907 -0.282475 
0.012447 -1.236669 -0.572693 
-0.122209 -1.760075 -0.292372 
-0.215641 -1.607701 0.347989 
-0.085567 -1.262907 -0.282475 
-0.122209 -1.760075 -0.292372 
-0.22276 -1.75654 0.344196 
-0.215641 -1.607701 0.347989 
-0.122209 -1.760075 -0.292372 
-0.12207 -1.754074 0.81308 
-0.215641 -1.607701 0.347989 
-0.22276 -1.75654 0.344196 
0.14005 -1.61449 1.287127 
0.339157 -1.421344 0.940867 
0.010286 -1.50739 0.872894 
0.14005 -1.61449 1.287127 
0.345927 -1.602003 1.38137 
0.339157 -1.421344 0.940867 
0.345927 -1.602003 1.38137 
0.14005 -1.61449 1.287127 
0.348763 -1.714092 1.433251 
0.345927 -1.602003 1.38137 
0.348763 -1.714092 1.433251 
0.573727 -1.601261 1.316488 
0.348763 -1.714092 1.433251 
0.567209 -1.731076 1.364999 
0.573727 -1.601261 1.316488 
-0.12207 -1.754074 0.81308 
0.010286 -1.50739 0.872894 
-0.215641 -1.607701 0.347989 
0.14005 -1.61449 1.287127 
0.010286 -1.50739 0.872894 
-0.12207 -1.754074 0.81308 
0.156376 -1.737012 1.341177 
0.14005 -1.61449 1.287127 
-0.12207 -1.754074 0.81308 
0.14005 -1.61449 1.287127 
0.156376 -1.737012 1.341177 
0.348763 -1.714092 1.433251 
0.556899 -1.222984 -0.566806 
0.30551 -1.414128 -0.893865 
0.295715 -1.219577 -0.830141 
0.64174 -1.762545 -0.673215 
0.30551 -1.414128 -0.893865 
0.556899 -1.222984 -0.566806 
0.874194 -1.76056 -0.290684 
0.64174 -1.762545 -0.673215 
0.556899 -1.222984 -0.566806 
0.874194 -1.76056 -0.290684 
0.556899 -1.222984 -0.566806 
0.748192 -1.221566 -0.259185 
0.96089 -1.603786 0.42734 
0.874194 -1.76056 -0.290684 
0.748192 -1.221566 -0.259185 
0.648636 -1.205752 0.034963 
0.96089 -1.603786 0.42734 
0.748192 -1.221566 -0.259185 
-0.12207 -1.754074 0.81308 
-0.22276 -1.75654 0.344196 
0.873659 -1.754581 0.851252 
0.567209 -1.731076 1.364999 
-0.12207 -1.754074 0.81308 
0.873659 -1.754581 0.851252 
0.156376 -1.737012 1.341177 
-0.12207 -1.754074 0.81308 
0.567209 -1.731076 1.364999 
0.348763 -1.714092 1.433251 
0.156376 -1.737012 1.341177 
0.567209 -1.731076 1.364999 
1.013422 -1.756925 0.435674 
0.874194 -1.76056 -0.290684 
0.96089 -1.603786 0.42734 
0.873659 -1.754581 0.851252 
1.013422 -1.756925 0.435674 
0.96089 -1.603786 0.42734 
-0.122209 -1.760075 -0.292372 
0.012447 -1.236669 -0.572693 
0.020345 -1.762538 -0.730036 
-0.022107 -1.424054 0.541529 
0.334397 -1.282184 0.572895 
0.025524 -1.215527 0.041768 
0.30551 -1.414128 -0.893865 
0.64174 -1.762545 -0.673215 
0.326672 -1.748604 -0.911445 
0.345927 -1.602003 1.38137 
0.573727 -1.601261 1.316488 
0.339157 -1.421344 0.940867 
0.722888 -1.501979 0.88629 
0.726249 -1.385549 0.500669 
0.334397 -1.282184 0.572895 
0.726249 -1.385549 0.500669 
0.96089 -1.603786 0.42734 
0.648636 -1.205752 0.034963 
0.334397 -1.282184 0.572895 
0.726249 -1.385549 0.500669 
0.648636 -1.205752 0.034963 
0.334397 -1.282184 0.572895 
0.648636 -1.205752 0.034963 
0.32287 -1.211776 0.297331 
0.025524 -1.215527 0.041768 
0.334397 -1.282184 0.572895 
0.32287 -1.211776 0.297331 
-1.150287 0.913399 -0.113649 
-0.911067 -0.000805 -0.074261 
-1.006909 0.204197 0.725802 
-1.150287 0.900972 -0.050781 
-1.006909 0.204197 0.725802 
-1.089287 0.976412 0.962709 
-1.150287 0.96198 0.061281 
-1.150287 0.900972 -0.050781 
-1.150287 0.945026 -0.156971 
-0.95572 0.715507 -0.829051 
-0.911067 -0.000805 -0.074261 
-1.150287 0.913399 -0.113649 
-0.95572 0.715507 -0.829051 
-1.150287 0.945026 -0.156971 
-1.150287 0.954664 -0.192121 
-1.025497 0.907921 -0.989595 
-1.086106 0.996858 1.009747 
-1.049139 1.005454 1.033251 
-0.848312 1.051678 1.320488 
-0.673137 1.092786 1.307449 
0.299004 1.321155 1.154499 
0.554029 1.382578 0.607994 
0.824578 1.447711 0.037896 
0.484425 1.370245 -0.72503 
0.387691 1.348346 -0.985656 
0.22431 1.310251 -1.055446 
-0.465315 1.149138 -1.244429 
-0.947313 1.035892 -1.162735 
-0.965278 1.031673 -1.160352 
-0.983178 1.027453 -1.152347 
-1.097474 1.000365 -1.054561 
-1.150287 0.986159 -0.444598 
-1.150287 0.984133 0.233256 
-1.097138 0.994301 0.999987 
-0.730119 0.233558 1.527237 
-0.145325 0.593974 1.495863 
-0.646987 1.098241 1.533525 
-0.727459 0.659864 1.215319 
-0.848312 1.051678 1.320488 
-1.049139 1.005454 1.033251 
-1.089287 0.976412 0.962709 
-0.727459 0.659864 1.215319 
0.371119 0.884748 1.126016 
-0.673137 1.092786 1.307449 
-0.848312 1.051678 1.320488 
0.371119 0.884748 1.126016 
0.299004 1.321155 1.154499 
-0.673137 1.092786 1.307449 
0.299004 1.321155 1.154499 
0.371119 0.884748 1.126016 
0.831479 1.364278 0.037078 
0.554029 1.382578 0.607994 
0.554029 1.382578 0.607994 
0.831479 1.364278 0.037078 
0.824578 1.447711 0.037896 
0.484425 1.370245 -0.72503 
0.824578 1.447711 0.037896 
0.831479 1.364278 0.037078 
0.380336 1.242429 -0.97845 
0.380336 1.242429 -0.97845 
0.387691 1.348346 -0.985656 
0.484425 1.370245 -0.72503 
0.380336 1.242429 -0.97845 
0.22431 1.310251 -1.055446 
0.387691 1.348346 -0.985656 
-1.086106 0.996858 1.009747 
-1.089287 0.976412 0.962709 
-1.049139 1.005454 1.033251 
0.380336 1.242429 -0.97845 
-0.481421 0.991444 -1.198299 
-0.465315 1.149138 -1.244429 
0.22431 1.310251 -1.055446 
-0.481421 0.991444 -1.198299 
-0.961785 1.020666 -1.156947 
-0.947313 1.035892 -1.162735 
-0.465315 1.149138 -1.244429 
-1.150287 0.986159 -0.444598 
-1.150287 0.954664 -0.192121 
-1.150287 0.945026 -0.156971 
-1.150287 0.913399 -0.113649 
-1.150287 0.900972 -0.050781 
-1.150287 0.96198 0.061281 
-1.150287 0.984133 0.233256 
-0.961785 1.020666 -1.156947 
-0.965278 1.031673 -1.160352 
-0.947313 1.035892 -1.162735 
-1.097474 1.000365 -1.054561 
-1.025497 0.907921 -0.989595 
-1.150287 0.954664 -0.192121 
-1.150287 0.986159 -0.444598 
-0.983178 1.027453 -1.152347 
-0.961785 1.020666 -1.156947 
-1.025497 0.907921 -0.989595 
-1.097474 1.000365 -1.054561 
-0.965278 1.031673 -1.160352 
-0.961785 1.020666 -1.156947 
-0.983178 1.027453 -1.152347 
-1.089287 0.976412 0.962709 
-1.086106 0.996858 1.009747 
-1.097138 0.994301 0.999987 
-1.089287 0.976412 0.962709 
-1.097138 0.994301 0.999987 
-1.150287 0.984133 0.233256 
-1.150287 0.96198 0.061281 
3 0 1 2 
3 3 4 5 
3 6 7 8 
3 9 10 11 
3 12 13 14 
3 15 16 17 
3 18 19 20 
3 21 22 23 
3 24 25 26 
3 27 28 29 
3 30 31 32 
3 33 34 35 
3 36 37 38 
3 39 40 41 
3 42 43 44 
3 45 46 47 
3 48 49 50 
3 51 52 53 
3 54 55 56 
3 57 58 59 
3 60 61 62 
3 63 64 65 
3 66 67 68 
3 69 70 71 
3 72 73 74 
3 75 76 77 
3 78 79 80 
3 81 82 83 
3 84 85 86 
3 87 88 89 
3 90 91 92 
3 93 94 95 
3 96 97 98 
3 99 100 101 
3 102 103 104 
3 105 106 107 
3 108 109 110 
3 111 112 113 
3 114 115 116 
3 117 118 119 
3 120 121 122 
3 123 124 125 
3 126 127 128 
3 129 130 131 
3 132 133 134 
3 135 136 137 
3 138 139 140 
3 141 142 143 
3 144 145 146 
3 147 148 149 
3 150 151 152 
3 153 154 155 
3 156 157 158 
3 159 160 161 
3 162 163 164 
3 165 166 167 
3 168 169 170 
3 171 172 173 
3 174 175 176 
3 177 178 179 
3 180 181 182 
3 183 184 185 
3 186 187 188 
3 189 190 191 
3 192 193 194 
3 195 196 197 
3 198 199 200 
3 201 202 203 
3 204 205 206 
3 207 208 209 
3 210 211 212 
3 213 214 215 
3 216 217 218 
3 219 220 221 
3 222 223 224 
3 225 226 227 
3 228 229 230 
3 231 232 233 
3 234 235 236 
3 237 238 239 
3 240 241 242 
3 243 244 245 
3 246 247 248 
3 249 250 251 
3 252 253 254 
3 255 256 257 
3 258 259 260 
3 261 262 263 
3 264 265 266 
3 267 268 269 
3 270 271 272 
3 273 274 275 
3 273 275 276 
3 273 276 277 
3 273 277 278 
3 279 280 281 
3 279 281 282 
3 279 282 283 
3 284 285 286 
3 284 286 287 
3 284 287 288 
3 284 288 289 
3 284 289 290 
3 291 292 293 
3 291 293 294 
3 291 294 295 
3 291 295 296 
3 297 298 299 
3 297 299 300 
3 297 300 301 
3 297 301 302 
3 297 302 303 
3 304 305 306 
3 304 306 307 
3 304 307 308 
3 304 308 309 
3 310 311 312 
3 313 314 315 
3 316 317 318 
3 319 320 321 
3 319 321 322 
3 319 322 323 
3 319 323 324 
3 319 324 325 
3 326 327 328 
3 326 328 329 
3 326 329 330 
3 326 330 331 
3 332 333 334 
3 332 334 335 
3 332 335 336 
3 337 338 339 
3 337 339 340 
3 341 342 343 
3 344 345 346 
3 347 348 349 
3 350 351 352 
3 353 354 355 
3 356 357 358 
3 356 358 359 
3 356 359 360 
3 356 360 361 
3 362 363 364 
3 362 364 365 
3 362 365 366 
3 367 368 369 
3 370 371 372 
3 373 374 375 
3 376 377 378 
3 379 380 381 
3 382 383 384 
3 385 386 387 
3 388 389 390 
3 391 392 393 
3 394 395 396 
3 397 398 399 
3 400 401 402 
3 403 404 405 
3 406 407 408 
3 409 410 411 
3 412 413 414 
3 415 416 417 
3 418 419 420 
3 421 422 423 
3 421 423 424 
3 425 426 427 
3 428 429 430 
3 428 430 431 
3 432 433 434 
3 432 434 435 
3 432 435 436 
3 437 438 439 
3 440 441 442 
3 443 444 445 
3 446 447 448 
3 449 450 451 
3 452 453 454 
3 455 456 457 
3 458 459 460 
3 461 462 463 
3 464 465 466 
3 464 466 467 
3 468 469 470 
3 468 470 471 
3 468 471 472 
3 473 474 475 
3 473 475 476 
3 477 478 479 
3 480 481 482 
3 483 484 485 
3 483 485 486 
3 487 488 489 
3 487 489 490 
3 487 490 491 
3 492 493 494 
3 492 494 495 
3 496 497 498 
3 499 500 501 
3 499 501 502 
3 503 504 505 
3 503 505 506 
3 503 506 507 
3 508 509 510 
3 508 510 511 
3 512 513 514 
3 515 516 517 
3 515 517 518 
3 519 520 521 
3 522 523 524 
3 522 524 525 
3 526 527 528 
3 529 530 531 
3 532 533 534 
3 535 536 537 
3 535 537 538 
3 539 540 541 
3 542 543 544 
3 542 544 545 
3 546 547 548 
3 546 548 549 
3 546 549 550 
3 551 552 553 
3 554 555 556 
3 557 558 559 
3 560 561 562 
3 563 564 565 
3 566 567 568 
3 569 570 571 
3 572 573 574 
3 575 576 577 
3 575 577 578 
3 575 578 579 
3 580 581 582 
3 580 582 583 
3 584 585 586 
3 587 588 589 
3 587 589 590 
3 591 592 593 
3 594 595 596 
3 597 598 599 
3 600 601 602 
3 603 604 605 
3 606 607 608 
3 609 610 611 
3 612 613 614 
3 615 616 617 
3 618 619 620 
3 621 622 623 
3 624 625 626 
3 627 628 629 
3 630 631 632 
3 633 634 635 
3 636 637 638 
3 639 640 641 
3 642 643 644 
3 645 646 647 
3 648 649 650 
3 651 652 653 
3 654 655 656 
3 657 658 659 
3 660 661 662 
3 663 664 665 
3 666 667 668 
3 669 670 671 
3 672 673 674 
3 675 676 677 
3 678 679 680 
3 681 682 683 
3 684 685 686 
3 687 688 689 
3 690 691 692 
3 693 694 695 
3 693 695 696 
3 697 698 699 
3 697 699 700 
3 701 702 703 
3 701 703 704 
3 705 706 707 
3 705 707 708 
3 709 710 711 
3 709 711 712 
3 709 712 713 
3 709 713 714 
3 709 714 715 
3 709 715 716 
3 709 716 717 
3 709 717 718 
3 709 718 719 
3 709 719 720 
3 709 720 721 
3 709 721 722 
3 709 722 723 
3 709 723 724 
3 709 724 725 
3 709 725 726 
3 727 728 729 
3 730 731 732 
3 730 732 733 
3 734 735 736 
3 734 736 737 
3 738 739 740 
3 741 742 743 
3 741 743 744 
3 745 746 747 
3 748 749 750 
3 748 750 751 
3 752 753 754 
3 755 756 757 
3 758 759 760 
3 761 762 763 
3 761 763 764 
3 765 766 767 
3 765 767 768 
3 769 770 771 
3 769 771 772 
3 769 772 773 
3 769 773 774 
3 769 774 775 
3 776 777 778 
3 779 780 781 
3 779 781 782 
3 783 784 785 
3 783 785 786 
3 787 788 789 
3 790 791 792 
3 793 794 795 
3 793 795 796 
