ply
format ascii 1.0
comment Created by Blender 2.91.0 - www.blender.org
element vertex 1462
property float x
property float y
property float z
element face 502
property list uchar uint vertex_indices
end_header
0.733586 -0.434307 0.016441
0.432194 -0.396019 0.018964
0.422627 -0.315833 -0.323796
0.014390 -0.445804 0.029063
-0.037718 -0.348576 0.173592
-0.038388 -0.352058 0.023529
-1.046811 -0.424084 0.529593
-1.046231 -0.336637 0.549281
-1.025961 -0.285584 0.531218
-0.647238 -0.195757 0.463877
-0.744092 -0.246569 0.631410
-0.529663 -0.154722 0.568377
-0.730064 -0.481952 0.424229
-0.716348 -0.540289 0.513162
-0.829917 -0.550173 0.464443
-0.635540 -0.078931 0.428537
-0.705497 -0.030209 0.385780
-0.700922 -0.068369 0.204727
-1.005074 -0.596418 -0.228710
-1.001991 -0.537568 -0.296582
-0.924798 -0.474314 -0.320506
-0.988684 -0.531973 -0.115425
-0.929622 -0.455307 -0.092428
-1.062946 -0.194411 -0.092613
-0.935003 -0.543065 -0.450523
-0.932493 -0.495332 -0.498931
-0.869848 -0.444004 -0.515983
-0.947865 -0.105987 -0.527403
-0.960597 -0.223220 -0.528240
-1.067815 -0.227815 -0.512264
-1.068450 -0.215425 -0.380773
-0.981721 -0.225887 -0.353328
-0.946993 -0.091987 -0.347811
-1.092928 -0.165068 -0.067316
-0.948169 -0.424787 -0.060307
-1.017772 -0.500878 -0.033886
-0.770560 0.357323 0.189720
-0.794533 0.373712 0.290439
-0.464338 0.353596 0.266111
-0.933060 -0.410681 0.197132
-0.963963 -0.143506 0.227994
-0.899899 -0.273821 0.255838
-1.051676 -0.135189 0.423066
-0.964254 -0.127980 0.391072
-1.036359 0.009321 0.423092
0.733586 -0.434307 0.016441
0.422627 -0.315833 -0.323796
0.764935 -0.327555 -0.370932
0.420047 0.010658 -0.524646
0.764935 -0.327555 -0.370932
0.422627 -0.315833 -0.323796
0.420047 0.010658 -0.524646
0.795366 0.012347 -0.540979
0.764935 -0.327555 -0.370932
0.419193 0.322776 -0.415034
0.795366 0.012347 -0.540979
0.420047 0.010658 -0.524646
0.419193 0.322776 -0.415034
0.799606 0.287570 -0.420202
0.795366 0.012347 -0.540979
0.783875 0.427064 -0.061098
0.799606 0.287570 -0.420202
0.419193 0.322776 -0.415034
0.783875 0.427064 -0.061098
0.892445 0.287156 -0.417586
0.799606 0.287570 -0.420202
0.783875 0.427064 -0.061098
1.001892 0.405424 -0.050770
0.892445 0.287156 -0.417586
0.014390 -0.445804 0.029063
-0.038388 -0.352058 0.023529
0.024064 -0.390679 -0.341840
-0.038388 -0.352058 0.023529
-0.042787 -0.267512 -0.328339
0.024064 -0.390679 -0.341840
-0.042787 -0.267512 -0.328339
0.020923 0.007327 -0.558099
0.024064 -0.390679 -0.341840
-0.049273 0.004270 -0.473314
0.020923 0.007327 -0.558099
-0.042787 -0.267512 -0.328339
-0.049273 0.004270 -0.473314
0.018252 0.360905 -0.433771
0.020923 0.007327 -0.558099
-0.055244 0.299918 -0.371335
0.018252 0.360905 -0.433771
-0.049273 0.004270 -0.473314
-0.055244 0.299918 -0.371335
0.017523 0.472032 -0.040818
0.018252 0.360905 -0.433771
-0.053809 0.402074 -0.038122
0.017523 0.472032 -0.040818
-0.055244 0.299918 -0.371335
-0.053809 0.402074 -0.038122
0.019140 0.281006 0.460084
0.017523 0.472032 -0.040818
-0.054014 0.241673 0.393998
0.019140 0.281006 0.460084
-0.053809 0.402074 -0.038122
0.019140 0.281006 0.460084
-0.054014 0.241673 0.393998
0.023376 -0.270744 0.494335
0.023376 -0.270744 0.494335
-0.054014 0.241673 0.393998
-0.038263 -0.199873 0.428124
0.023376 -0.270744 0.494335
-0.038263 -0.199873 0.428124
-0.037718 -0.348576 0.173592
0.014390 -0.445804 0.029063
0.024064 -0.390679 -0.341840
0.077857 -0.370754 -0.324815
0.074773 0.007674 -0.529637
0.077857 -0.370754 -0.324815
0.024064 -0.390679 -0.341840
0.020923 0.007327 -0.558099
0.074773 0.007674 -0.529637
0.024064 -0.390679 -0.341840
0.072189 0.336911 -0.413383
0.074773 0.007674 -0.529637
0.020923 0.007327 -0.558099
0.018252 0.360905 -0.433771
0.072189 0.336911 -0.413383
0.020923 0.007327 -0.558099
0.071483 0.440005 -0.045644
0.072189 0.336911 -0.413383
0.018252 0.360905 -0.433771
0.017523 0.472032 -0.040818
0.071483 0.440005 -0.045644
0.018252 0.360905 -0.433771
0.017523 0.472032 -0.040818
0.073063 0.260011 0.429326
0.071483 0.440005 -0.045644
0.019140 0.281006 0.460084
0.073063 0.260011 0.429326
0.017523 0.472032 -0.040818
0.073063 0.260011 0.429326
0.019140 0.281006 0.460084
0.077142 -0.250413 0.458140
0.019140 0.281006 0.460084
0.023376 -0.270744 0.494335
0.077142 -0.250413 0.458140
0.077142 -0.250413 0.458140
0.023376 -0.270744 0.494335
0.078396 -0.415091 0.022709
0.420047 0.010658 -0.524646
0.337183 0.013111 -0.605075
0.419167 0.322884 -0.413959
0.337183 0.013111 -0.605075
0.420047 0.010658 -0.524646
0.340485 -0.408211 -0.362476
0.422627 -0.315833 -0.323796
0.340485 -0.408211 -0.362476
0.420047 0.010658 -0.524646
0.341100 -0.472684 0.030407
0.340485 -0.408211 -0.362476
0.422627 -0.315833 -0.323796
0.341100 -0.472684 0.030407
0.422627 -0.315833 -0.323796
0.432194 -0.396019 0.018964
0.339665 -0.265667 0.519502
0.341100 -0.472684 0.030407
0.432194 -0.396019 0.018964
0.339665 -0.265667 0.519502
0.432194 -0.396019 0.018964
0.420191 -0.197980 0.430469
0.339665 -0.265667 0.519502
0.420191 -0.197980 0.430469
0.335514 0.276841 0.504022
0.420191 -0.197980 0.430469
0.415323 0.234909 0.424780
0.335514 0.276841 0.504022
0.335514 0.276841 0.504022
0.415323 0.234909 0.424780
0.333736 0.485463 -0.061869
0.333736 0.485463 -0.061869
0.415323 0.234909 0.424780
0.409750 0.417870 -0.064873
0.333736 0.485463 -0.061869
0.409750 0.417870 -0.064873
0.334460 0.374327 -0.474968
0.337183 0.013111 -0.605075
0.340485 -0.408211 -0.362476
0.259267 -0.376231 -0.335814
0.259860 -0.436706 0.023462
0.259267 -0.376231 -0.335814
0.340485 -0.408211 -0.362476
0.259860 -0.436706 0.023462
0.340485 -0.408211 -0.362476
0.341100 -0.472684 0.030407
0.258495 -0.247667 0.471521
0.259860 -0.436706 0.023462
0.341100 -0.472684 0.030407
0.339665 -0.265667 0.519502
0.258495 -0.247667 0.471521
0.341100 -0.472684 0.030407
0.254456 0.257840 0.452694
0.258495 -0.247667 0.471521
0.339665 -0.265667 0.519502
0.335514 0.276841 0.504022
0.254456 0.257840 0.452694
0.339665 -0.265667 0.519502
0.254456 0.257840 0.452694
0.335514 0.276841 0.504022
0.252784 0.447195 -0.056845
0.252784 0.447195 -0.056845
0.335514 0.276841 0.504022
0.333736 0.485463 -0.061869
0.252784 0.447195 -0.056845
0.333736 0.485463 -0.061869
0.253490 0.344095 -0.435296
0.333736 0.485463 -0.061869
0.334460 0.374327 -0.474968
0.253490 0.344095 -0.435296
0.253490 0.344095 -0.435296
0.334460 0.374327 -0.474968
0.256111 0.010800 -0.554631
-0.037718 -0.348576 0.173592
0.014390 -0.445804 0.029063
0.023376 -0.270744 0.494335
0.023376 -0.270744 0.494335
0.014390 -0.445804 0.029063
0.078396 -0.415091 0.022709
0.014390 -0.445804 0.029063
0.077857 -0.370754 -0.324815
0.078396 -0.415091 0.022709
0.078396 -0.415091 0.022709
0.077857 -0.370754 -0.324815
0.259267 -0.376231 -0.335814
0.256111 0.010800 -0.554631
0.259267 -0.376231 -0.335814
0.077857 -0.370754 -0.324815
0.256111 0.010800 -0.554631
0.337183 0.013111 -0.605075
0.259267 -0.376231 -0.335814
0.334460 0.374327 -0.474968
0.337183 0.013111 -0.605075
0.256111 0.010800 -0.554631
0.334460 0.374327 -0.474968
0.419167 0.322884 -0.413959
0.337183 0.013111 -0.605075
0.409750 0.417870 -0.064873
0.419167 0.322884 -0.413959
0.334460 0.374327 -0.474968
0.737672 0.232666 0.404279
1.001892 0.405424 -0.050770
0.783875 0.427064 -0.061098
0.737672 0.232666 0.404279
1.085313 0.223149 0.349684
1.001892 0.405424 -0.050770
0.799606 0.287570 -0.420202
0.892445 0.287156 -0.417586
0.795366 0.012347 -0.540979
0.795366 0.012347 -0.540979
0.892445 0.287156 -0.417586
0.846593 0.011070 -0.527985
0.409750 0.417870 -0.064873
0.783875 0.427064 -0.061098
0.419193 0.322776 -0.415034
0.737672 0.232666 0.404279
0.783875 0.427064 -0.061098
0.409750 0.417870 -0.064873
0.415323 0.234909 0.424780
0.737672 0.232666 0.404279
0.409750 0.417870 -0.064873
0.737672 0.232666 0.404279
0.415323 0.234909 0.424780
0.749978 -0.173612 0.415256
0.415323 0.234909 0.424780
0.420191 -0.197980 0.430469
0.749978 -0.173612 0.415256
0.420191 -0.197980 0.430469
0.432194 -0.396019 0.018964
0.749978 -0.173612 0.415256
0.253490 0.344095 -0.435296
0.256111 0.010800 -0.554631
0.072189 0.336911 -0.413383
0.252784 0.447195 -0.056845
0.253490 0.344095 -0.435296
0.072189 0.336911 -0.413383
0.071483 0.440005 -0.045644
0.252784 0.447195 -0.056845
0.072189 0.336911 -0.413383
0.073063 0.260011 0.429326
0.252784 0.447195 -0.056845
0.071483 0.440005 -0.045644
0.073063 0.260011 0.429326
0.254456 0.257840 0.452694
0.252784 0.447195 -0.056845
0.254456 0.257840 0.452694
0.073063 0.260011 0.429326
0.258495 -0.247667 0.471521
0.073063 0.260011 0.429326
0.077142 -0.250413 0.458140
0.258495 -0.247667 0.471521
0.077142 -0.250413 0.458140
0.078396 -0.415091 0.022709
0.258495 -0.247667 0.471521
0.432194 -0.396019 0.018964
0.733586 -0.434307 0.016441
0.749978 -0.173612 0.415256
0.074773 0.007674 -0.529637
0.256111 0.010800 -0.554631
0.077857 -0.370754 -0.324815
0.072189 0.336911 -0.413383
0.256111 0.010800 -0.554631
0.074773 0.007674 -0.529637
0.078396 -0.415091 0.022709
0.259267 -0.376231 -0.335814
0.259860 -0.436706 0.023462
0.258495 -0.247667 0.471521
0.078396 -0.415091 0.022709
0.259860 -0.436706 0.023462
-1.046811 -0.424084 0.529593
-1.025961 -0.285584 0.531218
-0.974281 -0.380316 0.441277
-1.025961 -0.285584 0.531218
-0.949193 -0.247364 0.508844
-0.974281 -0.380316 0.441277
-0.949193 -0.247364 0.508844
-0.843491 -0.260569 0.469134
-0.974281 -0.380316 0.441277
-0.949193 -0.247364 0.508844
-0.842130 -0.232544 0.557822
-0.843491 -0.260569 0.469134
-0.842130 -0.232544 0.557822
-0.760702 -0.246179 0.522594
-0.843491 -0.260569 0.469134
-0.647238 -0.195757 0.463877
-0.529663 -0.154722 0.568377
-0.619378 -0.179455 0.439823
-0.829917 -0.550173 0.464443
-0.828714 -0.475853 0.381088
-0.730064 -0.481952 0.424229
-0.829917 -0.550173 0.464443
-0.953916 -0.529997 0.427236
-0.828714 -0.475853 0.381088
-0.974281 -0.380316 0.441277
-0.828714 -0.475853 0.381088
-0.953916 -0.529997 0.427236
-0.999376 -0.509597 0.507108
-0.953916 -0.529997 0.427236
-0.829917 -0.550173 0.464443
-0.999376 -0.509597 0.507108
-0.829917 -0.550173 0.464443
-0.738549 -0.531091 0.626707
-0.716348 -0.540289 0.513162
-0.508867 -0.531124 0.445447
-0.490169 -0.514161 0.560544
-1.025961 -0.285584 0.531218
-0.842130 -0.232544 0.557822
-0.949193 -0.247364 0.508844
-1.025961 -0.285584 0.531218
-0.738553 -0.306014 0.727961
-0.842130 -0.232544 0.557822
-1.025961 -0.285584 0.531218
-1.046231 -0.336637 0.549281
-0.738553 -0.306014 0.727961
-1.046231 -0.336637 0.549281
-1.046811 -0.424084 0.529593
-0.738553 -0.306014 0.727961
-0.843491 -0.260569 0.469134
-0.828714 -0.475853 0.381088
-0.974281 -0.380316 0.441277
-0.843491 -0.260569 0.469134
-0.730064 -0.481952 0.424229
-0.828714 -0.475853 0.381088
-0.738553 -0.306014 0.727961
-0.485398 -0.260755 0.685432
-0.529663 -0.154722 0.568377
-0.738553 -0.306014 0.727961
-0.738549 -0.531091 0.626707
-0.485398 -0.260755 0.685432
-0.619378 -0.179455 0.439823
-0.545624 -0.458574 0.346324
-0.647238 -0.195757 0.463877
-0.647238 -0.195757 0.463877
-0.545624 -0.458574 0.346324
-0.576114 -0.467954 0.366190
-0.576114 -0.467954 0.366190
-0.545624 -0.458574 0.346324
-0.508867 -0.531124 0.445447
-0.999376 -0.509597 0.507108
-1.046811 -0.424084 0.529593
-0.953916 -0.529997 0.427236
-1.046811 -0.424084 0.529593
-0.974281 -0.380316 0.441277
-0.953916 -0.529997 0.427236
-0.529663 -0.154722 0.568377
-0.485398 -0.260755 0.685432
-0.445801 -0.249995 0.685623
-0.485398 -0.260755 0.685432
-0.490169 -0.514161 0.560544
-0.445801 -0.249995 0.685623
-0.490169 -0.514161 0.560544
-0.508867 -0.531124 0.445447
-0.449456 -0.508536 0.539546
-0.490169 -0.514161 0.560544
-0.449456 -0.508536 0.539546
-0.445801 -0.249995 0.685623
-0.647238 -0.195757 0.463877
-0.576114 -0.467954 0.366190
-0.730064 -0.481952 0.424229
-0.738549 -0.531091 0.626707
-0.490169 -0.514161 0.560544
-0.485398 -0.260755 0.685432
-0.093844 -0.194135 0.433189
-0.100723 -0.352319 0.172707
-0.038263 -0.199873 0.428124
-0.117049 0.243432 0.395158
-0.093844 -0.194135 0.433189
-0.038263 -0.199873 0.428124
-0.054014 0.241673 0.393998
-0.117049 0.243432 0.395158
-0.038263 -0.199873 0.428124
-0.117049 0.243432 0.395158
-0.054014 0.241673 0.393998
-0.119413 0.404507 -0.028915
-0.054014 0.241673 0.393998
-0.053809 0.402074 -0.038122
-0.119413 0.404507 -0.028915
-0.119413 0.404507 -0.028915
-0.053809 0.402074 -0.038122
-0.055244 0.299918 -0.371335
-0.635540 -0.078931 0.428537
-0.700922 -0.068369 0.204727
-0.530520 -0.194520 0.207443
-0.700922 -0.068369 0.204727
-0.708327 -0.075940 0.128849
-0.530520 -0.194520 0.207443
-0.530520 -0.194520 0.207443
-0.708327 -0.075940 0.128849
-0.368706 -0.279400 0.008315
-0.708327 -0.075940 0.128849
-0.708596 -0.107779 -0.039896
-0.368706 -0.279400 0.008315
-0.708596 -0.107779 -0.039896
-0.702336 -0.124967 -0.116020
-0.368706 -0.279400 0.008315
-0.207390 -0.435258 0.385794
-0.100723 -0.352319 0.172707
-0.093844 -0.194135 0.433189
-0.281669 -0.468534 0.453181
-0.207390 -0.435258 0.385794
-0.093844 -0.194135 0.433189
-0.305621 -0.213613 0.615102
-0.281669 -0.468534 0.453181
-0.093844 -0.194135 0.433189
-0.305621 -0.213613 0.615102
-0.449456 -0.508536 0.539546
-0.281669 -0.468534 0.453181
-0.445801 -0.249995 0.685623
-0.449456 -0.508536 0.539546
-0.305621 -0.213613 0.615102
-0.368706 -0.279400 0.008315
-0.114261 -0.326036 0.014562
-0.100723 -0.352319 0.172707
-0.416845 -0.427384 0.237149
-0.368706 -0.279400 0.008315
-0.100723 -0.352319 0.172707
-0.449456 -0.508536 0.539546
-0.508867 -0.531124 0.445447
-0.281669 -0.468534 0.453181
-0.508867 -0.531124 0.445447
-0.416845 -0.427384 0.237149
-0.281669 -0.468534 0.453181
-0.508867 -0.531124 0.445447
-0.545624 -0.458574 0.346324
-0.416845 -0.427384 0.237149
-0.619378 -0.179455 0.439823
-0.416845 -0.427384 0.237149
-0.545624 -0.458574 0.346324
-0.117049 0.243432 0.395158
-0.305621 -0.213613 0.615102
-0.093844 -0.194135 0.433189
-0.398391 0.009220 0.530998
-0.305621 -0.213613 0.615102
-0.117049 0.243432 0.395158
-0.458740 0.291262 0.412193
-0.398391 0.009220 0.530998
-0.117049 0.243432 0.395158
-0.458740 0.291262 0.412193
-0.646063 0.161635 0.446186
-0.398391 0.009220 0.530998
-0.113234 -0.257934 -0.340974
-0.042787 -0.267512 -0.328339
-0.038388 -0.352058 0.023529
-0.114261 -0.326036 0.014562
-0.113234 -0.257934 -0.340974
-0.038388 -0.352058 0.023529
-0.100723 -0.352319 0.172707
-0.114261 -0.326036 0.014562
-0.038388 -0.352058 0.023529
-0.619378 -0.179455 0.439823
-0.635540 -0.078931 0.428537
-0.416845 -0.427384 0.237149
-0.529663 -0.154722 0.568377
-0.635540 -0.078931 0.428537
-0.619378 -0.179455 0.439823
-0.049273 0.004270 -0.473314
-0.042787 -0.267512 -0.328339
-0.113234 -0.257934 -0.340974
-0.114257 0.008051 -0.478635
-0.049273 0.004270 -0.473314
-0.113234 -0.257934 -0.340974
-0.100723 -0.352319 0.172707
-0.038388 -0.352058 0.023529
-0.037718 -0.348576 0.173592
-0.038263 -0.199873 0.428124
-0.100723 -0.352319 0.172707
-0.037718 -0.348576 0.173592
-0.119413 0.404507 -0.028915
-0.055244 0.299918 -0.371335
-0.124739 0.300531 -0.376585
-0.055244 0.299918 -0.371335
-0.049273 0.004270 -0.473314
-0.124739 0.300531 -0.376585
-0.702336 -0.124967 -0.116020
-0.688616 -0.127274 -0.302400
-0.368706 -0.279400 0.008315
-0.688616 -0.127274 -0.302400
-0.684152 -0.154282 -0.362249
-0.368706 -0.279400 0.008315
-0.684152 -0.154282 -0.362249
-0.455110 -0.243841 -0.452115
-0.368706 -0.279400 0.008315
-0.368706 -0.279400 0.008315
-0.455110 -0.243841 -0.452115
-0.347863 -0.274200 -0.438905
-0.368706 -0.279400 0.008315
-0.347863 -0.274200 -0.438905
-0.252085 -0.271165 -0.419919
-0.368706 -0.279400 0.008315
-0.252085 -0.271165 -0.419919
-0.114261 -0.326036 0.014562
-0.646063 0.161635 0.446186
-0.529663 -0.154722 0.568377
-0.398391 0.009220 0.530998
-0.529663 -0.154722 0.568377
-0.445801 -0.249995 0.685623
-0.398391 0.009220 0.530998
-0.124739 0.300531 -0.376585
-0.049273 0.004270 -0.473314
-0.114257 0.008051 -0.478635
-0.398391 0.009220 0.530998
-0.445801 -0.249995 0.685623
-0.305621 -0.213613 0.615102
-0.911800 -0.515612 -0.202588
-1.005074 -0.596418 -0.228710
-0.924798 -0.474314 -0.320506
-0.911800 -0.515612 -0.202588
-0.924798 -0.474314 -0.320506
-0.889103 -0.320299 -0.257636
-0.885819 -0.321261 -0.148726
-0.911800 -0.515612 -0.202588
-0.889103 -0.320299 -0.257636
-0.759358 -0.125439 -0.118019
-0.746733 -0.122645 -0.305726
-0.702336 -0.124967 -0.116020
-0.791552 0.106498 -0.088543
-0.759358 -0.125439 -0.118019
-0.702336 -0.124967 -0.116020
-1.062946 -0.194411 -0.092613
-1.169711 -0.185294 -0.131095
-0.988684 -0.531973 -0.115425
-1.169711 -0.185294 -0.131095
-1.062946 -0.194411 -0.092613
-1.020158 -0.029417 -0.084945
-1.092960 0.100938 -0.134097
-1.169711 -0.185294 -0.131095
-1.020158 -0.029417 -0.084945
-1.092960 0.100938 -0.134097
-1.020158 -0.029417 -0.084945
-0.791552 0.106498 -0.088543
-0.807914 0.298975 -0.132303
-1.092960 0.100938 -0.134097
-0.791552 0.106498 -0.088543
-1.004083 -0.588808 -0.169470
-1.005074 -0.596418 -0.228710
-0.911800 -0.515612 -0.202588
-1.004083 -0.588808 -0.169470
-0.911800 -0.515612 -0.202588
-0.929622 -0.455307 -0.092428
-0.929622 -0.455307 -0.092428
-0.911800 -0.515612 -0.202588
-0.885819 -0.321261 -0.148726
-0.949099 -0.189447 -0.134869
-0.929622 -0.455307 -0.092428
-0.885819 -0.321261 -0.148726
-1.169711 -0.185294 -0.131095
-1.092960 0.100938 -0.134097
-1.203434 -0.194440 -0.224418
-1.092960 0.100938 -0.134097
-1.109092 0.119226 -0.224380
-1.203434 -0.194440 -0.224418
-1.092960 0.100938 -0.134097
-0.807914 0.298975 -0.132303
-1.109092 0.119226 -0.224380
-1.109092 0.119226 -0.224380
-0.807914 0.298975 -0.132303
-0.823638 0.295325 -0.233801
-1.203434 -0.194440 -0.224418
-1.109092 0.119226 -0.224380
-1.168936 -0.200487 -0.315392
-1.168936 -0.200487 -0.315392
-1.109092 0.119226 -0.224380
-1.091360 0.065907 -0.316688
-1.109092 0.119226 -0.224380
-0.787362 0.242756 -0.325924
-1.091360 0.065907 -0.316688
-0.787362 0.242756 -0.325924
-0.763938 0.034150 -0.348676
-1.091360 0.065907 -0.316688
-1.036930 -0.191028 -0.337767
-0.924798 -0.474314 -0.320506
-1.001991 -0.537568 -0.296582
-1.036930 -0.191028 -0.337767
-1.001991 -0.537568 -0.296582
-1.168936 -0.200487 -0.315392
-1.005074 -0.596418 -0.228710
-1.168936 -0.200487 -0.315392
-1.001991 -0.537568 -0.296582
-1.020158 -0.029417 -0.084945
-0.949099 -0.189447 -0.134869
-0.791552 0.106498 -0.088543
-0.889103 -0.320299 -0.257636
-0.924798 -0.474314 -0.320506
-0.949465 -0.182103 -0.298448
-0.949465 -0.182103 -0.298448
-0.924798 -0.474314 -0.320506
-1.036930 -0.191028 -0.337767
-1.021234 -0.046571 -0.336656
-0.949465 -0.182103 -0.298448
-1.036930 -0.191028 -0.337767
-1.021234 -0.046571 -0.336656
-0.763938 0.034150 -0.348676
-0.949465 -0.182103 -0.298448
-0.988684 -0.531973 -0.115425
-1.169711 -0.185294 -0.131095
-1.004083 -0.588808 -0.169470
-1.004083 -0.588808 -0.169470
-1.169711 -0.185294 -0.131095
-1.203434 -0.194440 -0.224418
-1.004083 -0.588808 -0.169470
-1.203434 -0.194440 -0.224418
-1.005074 -0.596418 -0.228710
-1.005074 -0.596418 -0.228710
-1.203434 -0.194440 -0.224418
-1.168936 -0.200487 -0.315392
-1.168936 -0.200487 -0.315392
-1.021234 -0.046571 -0.336656
-1.036930 -0.191028 -0.337767
-1.091360 0.065907 -0.316688
-1.021234 -0.046571 -0.336656
-1.168936 -0.200487 -0.315392
-0.988684 -0.531973 -0.115425
-1.004083 -0.588808 -0.169470
-0.929622 -0.455307 -0.092428
-1.091360 0.065907 -0.316688
-0.763938 0.034150 -0.348676
-1.021234 -0.046571 -0.336656
-0.823638 0.295325 -0.233801
-0.787362 0.242756 -0.325924
-1.109092 0.119226 -0.224380
-0.791552 0.106498 -0.088543
-0.949099 -0.189447 -0.134869
-0.759358 -0.125439 -0.118019
-0.859305 -0.477486 -0.431866
-0.935003 -0.543065 -0.450523
-0.869848 -0.444004 -0.515983
-0.859305 -0.477486 -0.431866
-0.869848 -0.444004 -0.515983
-0.840631 -0.328104 -0.471109
-0.841952 -0.334477 -0.393424
-0.859305 -0.477486 -0.431866
-0.840631 -0.328104 -0.471109
-0.730114 -0.146831 -0.362386
-0.725634 -0.154106 -0.482021
-0.684152 -0.154282 -0.362249
-0.763938 0.034150 -0.348676
-0.730114 -0.146831 -0.362386
-0.684152 -0.154282 -0.362249
-1.004773 -0.014698 -0.513121
-0.947865 -0.105987 -0.527403
-1.067815 -0.227815 -0.512264
-1.067815 -0.227815 -0.512264
-1.019168 0.028603 -0.447248
-1.004773 -0.014698 -0.513121
-1.019168 0.028603 -0.447248
-0.766926 0.137466 -0.519623
-1.004773 -0.014698 -0.513121
-0.792235 0.195387 -0.450877
-0.766926 0.137466 -0.519623
-1.019168 0.028603 -0.447248
-1.006074 0.013793 -0.382840
-1.068450 -0.215425 -0.380773
-0.946993 -0.091987 -0.347811
-1.006074 0.013793 -0.382840
-0.946993 -0.091987 -0.347811
-0.763938 0.034150 -0.348676
-0.779585 0.201833 -0.381416
-1.006074 0.013793 -0.382840
-0.763938 0.034150 -0.348676
-1.068450 -0.215425 -0.380773
-1.006074 0.013793 -0.382840
-1.094129 -0.222837 -0.447355
-1.006074 0.013793 -0.382840
-1.019168 0.028603 -0.447248
-1.094129 -0.222837 -0.447355
-1.006074 0.013793 -0.382840
-0.779585 0.201833 -0.381416
-1.019168 0.028603 -0.447248
-1.019168 0.028603 -0.447248
-0.779585 0.201833 -0.381416
-0.792235 0.195387 -0.450877
-0.934199 -0.536876 -0.408257
-0.935003 -0.543065 -0.450523
-0.859305 -0.477486 -0.431866
-0.934199 -0.536876 -0.408257
-0.859305 -0.477486 -0.431866
-0.873769 -0.428505 -0.353252
-0.873769 -0.428505 -0.353252
-0.859305 -0.477486 -0.431866
-0.841952 -0.334477 -0.393424
-0.893144 -0.215609 -0.380712
-0.873769 -0.428505 -0.353252
-0.841952 -0.334477 -0.393424
-0.960597 -0.223220 -0.528240
-0.869848 -0.444004 -0.515983
-0.932493 -0.495332 -0.498931
-0.960597 -0.223220 -0.528240
-0.932493 -0.495332 -0.498931
-1.067815 -0.227815 -0.512264
-0.935003 -0.543065 -0.450523
-1.067815 -0.227815 -0.512264
-0.932493 -0.495332 -0.498931
-0.946993 -0.091987 -0.347811
-0.893144 -0.215609 -0.380712
-0.763938 0.034150 -0.348676
-0.889870 -0.209738 -0.494212
-0.840631 -0.328104 -0.471109
-0.869848 -0.444004 -0.515983
-0.889870 -0.209738 -0.494212
-0.869848 -0.444004 -0.515983
-0.960597 -0.223220 -0.528240
-0.947865 -0.105987 -0.527403
-0.889870 -0.209738 -0.494212
-0.960597 -0.223220 -0.528240
-0.947865 -0.105987 -0.527403
-0.715904 -0.018928 -0.535919
-0.889870 -0.209738 -0.494212
-0.981721 -0.225887 -0.353328
-0.921704 -0.490739 -0.369683
-0.873769 -0.428505 -0.353252
-0.981721 -0.225887 -0.353328
-1.068450 -0.215425 -0.380773
-0.921704 -0.490739 -0.369683
-0.921704 -0.490739 -0.369683
-1.068450 -0.215425 -0.380773
-0.934199 -0.536876 -0.408257
-0.934199 -0.536876 -0.408257
-1.068450 -0.215425 -0.380773
-1.094129 -0.222837 -0.447355
-0.934199 -0.536876 -0.408257
-1.094129 -0.222837 -0.447355
-0.935003 -0.543065 -0.450523
-0.935003 -0.543065 -0.450523
-1.094129 -0.222837 -0.447355
-1.067815 -0.227815 -0.512264
-0.766926 0.137466 -0.519623
-0.715904 -0.018928 -0.535919
-1.004773 -0.014698 -0.513121
-1.004773 -0.014698 -0.513121
-0.715904 -0.018928 -0.535919
-0.947865 -0.105987 -0.527403
-1.094129 -0.222837 -0.447355
-1.019168 0.028603 -0.447248
-1.067815 -0.227815 -0.512264
-0.921704 -0.490739 -0.369683
-0.934199 -0.536876 -0.408257
-0.873769 -0.428505 -0.353252
-0.763938 0.034150 -0.348676
-0.893144 -0.215609 -0.380712
-0.730114 -0.146831 -0.362386
-1.092928 -0.165068 -0.067316
-1.017772 -0.500878 -0.033886
-1.195058 -0.154631 -0.041881
-1.032993 -0.554990 0.022597
-1.195058 -0.154631 -0.041881
-1.017772 -0.500878 -0.033886
-1.237255 -0.159363 0.056392
-1.195058 -0.154631 -0.041881
-1.032993 -0.554990 0.022597
-1.033933 -0.559629 0.082104
-1.237255 -0.159363 0.056392
-1.032993 -0.554990 0.022597
-1.202405 -0.161053 0.140750
-1.237255 -0.159363 0.056392
-1.033933 -0.559629 0.082104
-1.030964 -0.497438 0.147334
-1.202405 -0.161053 0.140750
-1.033933 -0.559629 0.082104
-1.066792 -0.149281 0.160906
-1.202405 -0.161053 0.140750
-1.030964 -0.497438 0.147334
-1.066792 -0.149281 0.160906
-1.030964 -0.497438 0.147334
-0.957752 -0.446511 0.169022
-0.979077 -0.157609 -0.029446
-0.915013 -0.287924 -0.001597
-0.948169 -0.424787 -0.060307
-0.940891 -0.479917 0.052375
-0.948169 -0.424787 -0.060307
-0.915013 -0.287924 -0.001597
-0.940891 -0.479917 0.052375
-0.915013 -0.287924 -0.001597
-0.918242 -0.281519 0.107151
-0.957752 -0.446511 0.169022
-0.940891 -0.479917 0.052375
-0.918242 -0.281519 0.107151
-1.051470 -0.004787 0.165734
-1.066792 -0.149281 0.160906
-0.979371 -0.142085 0.133637
-1.195058 -0.154631 -0.041881
-1.050574 -0.000516 -0.076136
-1.092928 -0.165068 -0.067316
-1.123685 0.131958 -0.042706
-1.050574 -0.000516 -0.076136
-1.195058 -0.154631 -0.041881
-1.237255 -0.159363 0.056392
-1.123685 0.131958 -0.042706
-1.195058 -0.154631 -0.041881
-1.237255 -0.159363 0.056392
-1.139824 0.154688 0.046701
-1.123685 0.131958 -0.042706
-1.202405 -0.161053 0.140750
-1.139824 0.154688 0.046701
-1.237255 -0.159363 0.056392
-1.121902 0.106112 0.141213
-1.139824 0.154688 0.046701
-1.202405 -0.161053 0.140750
-1.121902 0.106112 0.141213
-1.202405 -0.161053 0.140750
-1.051470 -0.004787 0.165734
-1.121902 0.106112 0.141213
-1.051470 -0.004787 0.165734
-0.784294 0.171307 0.163404
-0.791552 0.106498 -0.088543
-0.759943 -0.094794 -0.042767
-0.979077 -0.157609 -0.029446
-0.791552 0.106498 -0.088543
-0.708596 -0.107779 -0.039896
-0.759943 -0.094794 -0.042767
-1.030964 -0.497438 0.147334
-1.033933 -0.559629 0.082104
-0.957752 -0.446511 0.169022
-1.033933 -0.559629 0.082104
-0.940891 -0.479917 0.052375
-0.957752 -0.446511 0.169022
-1.033933 -0.559629 0.082104
-1.032993 -0.554990 0.022597
-0.940891 -0.479917 0.052375
-0.940891 -0.479917 0.052375
-1.032993 -0.554990 0.022597
-0.948169 -0.424787 -0.060307
-1.032993 -0.554990 0.022597
-1.017772 -0.500878 -0.033886
-0.948169 -0.424787 -0.060307
-1.123685 0.131958 -0.042706
-0.791552 0.106498 -0.088543
-1.050574 -0.000516 -0.076136
-0.809772 0.322538 -0.061800
-0.791552 0.106498 -0.088543
-1.123685 0.131958 -0.042706
-1.139824 0.154688 0.046701
-0.809772 0.322538 -0.061800
-1.123685 0.131958 -0.042706
-0.836910 0.366788 0.036174
-0.809772 0.322538 -0.061800
-1.139824 0.154688 0.046701
-1.139824 0.154688 0.046701
-0.799192 0.351898 0.133802
-0.836910 0.366788 0.036174
-0.759943 -0.094794 -0.042767
-0.708596 -0.107779 -0.039896
-0.708327 -0.075940 0.128849
-0.763658 -0.062751 0.130176
-0.759943 -0.094794 -0.042767
-0.708327 -0.075940 0.128849
-0.784294 0.171307 0.163404
-0.763658 -0.062751 0.130176
-0.708327 -0.075940 0.128849
-0.799192 0.351898 0.133802
-1.121902 0.106112 0.141213
-0.784294 0.171307 0.163404
-1.121902 0.106112 0.141213
-0.799192 0.351898 0.133802
-1.139824 0.154688 0.046701
-0.918242 -0.281519 0.107151
-0.915013 -0.287924 -0.001597
-0.979371 -0.142085 0.133637
-0.915013 -0.287924 -0.001597
-0.979077 -0.157609 -0.029446
-0.979371 -0.142085 0.133637
-1.202405 -0.161053 0.140750
-1.066792 -0.149281 0.160906
-1.051470 -0.004787 0.165734
-1.050574 -0.000516 -0.076136
-0.791552 0.106498 -0.088543
-0.979077 -0.157609 -0.029446
-0.770560 0.357323 0.189720
-0.464338 0.353596 0.266111
-0.471551 0.407116 0.011827
-0.464338 0.353596 0.266111
-0.119413 0.404507 -0.028915
-0.471551 0.407116 0.011827
-0.471551 0.407116 0.011827
-0.119413 0.404507 -0.028915
-0.472021 0.364421 -0.240098
-0.472021 0.364421 -0.240098
-0.119413 0.404507 -0.028915
-0.124739 0.300531 -0.376585
-0.472021 0.364421 -0.240098
-0.124739 0.300531 -0.376585
-0.471627 0.298437 -0.420233
-0.471627 0.298437 -0.420233
-0.124739 0.300531 -0.376585
-0.457804 0.212350 -0.501630
-0.471627 0.298437 -0.420233
-0.457804 0.212350 -0.501630
-0.744492 0.159875 -0.519376
-0.457804 0.212350 -0.501630
-0.378698 0.003886 -0.544290
-0.744492 0.159875 -0.519376
-0.744492 0.159875 -0.519376
-0.378698 0.003886 -0.544290
-0.715904 -0.018928 -0.535919
-0.925776 -0.465817 0.309815
-0.933060 -0.410681 0.197132
-0.899899 -0.273821 0.255838
-0.925776 -0.465817 0.309815
-0.899899 -0.273821 0.255838
-0.903126 -0.267413 0.364586
-0.942638 -0.432381 0.418618
-0.925776 -0.465817 0.309815
-0.903126 -0.267413 0.364586
-1.077811 -0.150951 0.186134
-0.933060 -0.410681 0.197132
-1.002655 -0.486771 0.223554
-1.077811 -0.150951 0.186134
-1.002655 -0.486771 0.223554
-1.179944 -0.140526 0.215554
-1.017872 -0.540885 0.280036
-1.179944 -0.140526 0.215554
-1.002655 -0.486771 0.223554
-1.222140 -0.145262 0.313827
-1.179944 -0.140526 0.215554
-1.017872 -0.540885 0.280036
-1.018817 -0.545523 0.339539
-1.222140 -0.145262 0.313827
-1.017872 -0.540885 0.280036
-1.187288 -0.146944 0.398186
-1.222140 -0.145262 0.313827
-1.018817 -0.545523 0.339539
-1.015847 -0.483331 0.404773
-1.187288 -0.146944 0.398186
-1.018817 -0.545523 0.339539
-1.051676 -0.135189 0.423066
-1.187288 -0.146944 0.398186
-1.015847 -0.483331 0.404773
-1.051676 -0.135189 0.423066
-1.015847 -0.483331 0.404773
-0.942638 -0.432381 0.418618
-1.179944 -0.140526 0.215554
-1.035459 0.013601 0.177178
-1.077811 -0.150951 0.186134
-1.108570 0.146059 0.214733
-1.035459 0.013601 0.177178
-1.179944 -0.140526 0.215554
-1.222140 -0.145262 0.313827
-1.108570 0.146059 0.214733
-1.179944 -0.140526 0.215554
-1.222140 -0.145262 0.313827
-1.124707 0.168795 0.304139
-1.108570 0.146059 0.214733
-1.187288 -0.146944 0.398186
-1.124707 0.168795 0.304139
-1.222140 -0.145262 0.313827
-1.106785 0.120218 0.398648
-1.124707 0.168795 0.304139
-1.187288 -0.146944 0.398186
-1.106785 0.120218 0.398648
-1.187288 -0.146944 0.398186
-1.036359 0.009321 0.423092
-1.106785 0.120218 0.398648
-1.036359 0.009321 0.423092
-0.743518 0.165854 0.423841
-0.826949 0.362838 0.292303
-0.770560 0.357323 0.189720
-0.795113 0.347781 0.189010
-0.794533 0.373712 0.290439
-0.770560 0.357323 0.189720
-0.826949 0.362838 0.292303
-0.826949 0.362838 0.292303
-0.761524 0.307155 0.389758
-0.794533 0.373712 0.290439
-0.761524 0.307155 0.389758
-0.464338 0.353596 0.266111
-0.794533 0.373712 0.290439
-0.761524 0.307155 0.389758
-0.458740 0.291262 0.412193
-0.464338 0.353596 0.266111
-0.458740 0.291262 0.412193
-0.117049 0.243432 0.395158
-0.464338 0.353596 0.266111
-1.108570 0.146059 0.214733
-0.784294 0.171307 0.163404
-1.035459 0.013601 0.177178
-0.795113 0.347781 0.189010
-0.784294 0.171307 0.163404
-1.108570 0.146059 0.214733
-1.124707 0.168795 0.304139
-0.795113 0.347781 0.189010
-1.108570 0.146059 0.214733
-0.826949 0.362838 0.292303
-0.795113 0.347781 0.189010
-1.124707 0.168795 0.304139
-1.124707 0.168795 0.304139
-0.785114 0.303623 0.391054
-0.826949 0.362838 0.292303
-1.015847 -0.483331 0.404773
-1.018817 -0.545523 0.339539
-0.942638 -0.432381 0.418618
-1.018817 -0.545523 0.339539
-0.925776 -0.465817 0.309815
-0.942638 -0.432381 0.418618
-1.018817 -0.545523 0.339539
-1.017872 -0.540885 0.280036
-0.925776 -0.465817 0.309815
-0.925776 -0.465817 0.309815
-1.017872 -0.540885 0.280036
-0.933060 -0.410681 0.197132
-1.017872 -0.540885 0.280036
-1.002655 -0.486771 0.223554
-0.933060 -0.410681 0.197132
-1.035459 0.013601 0.177178
-0.784294 0.171307 0.163404
-0.963963 -0.143506 0.227994
-0.784294 0.171307 0.163404
-0.774568 -0.067559 0.212386
-0.963963 -0.143506 0.227994
-0.784294 0.171307 0.163404
-0.700922 -0.068369 0.204727
-0.774568 -0.067559 0.212386
-0.705497 -0.030209 0.385780
-0.774568 -0.067559 0.212386
-0.700922 -0.068369 0.204727
-0.823638 0.295325 -0.233801
-0.752478 0.260511 -0.325876
-0.787362 0.242756 -0.325924
-0.782529 0.313287 -0.233761
-0.752478 0.260511 -0.325876
-0.823638 0.295325 -0.233801
-0.807914 0.298975 -0.132303
-0.782529 0.313287 -0.233761
-0.823638 0.295325 -0.233801
-0.807914 0.298975 -0.132303
-0.772951 0.314676 -0.132268
-0.782529 0.313287 -0.233761
-0.472021 0.364421 -0.240098
-0.471627 0.298437 -0.420233
-0.749692 0.222723 -0.386592
-0.749692 0.222723 -0.386592
-0.471627 0.298437 -0.420233
-0.763546 0.216526 -0.450601
-0.763546 0.216526 -0.450601
-0.471627 0.298437 -0.420233
-0.744492 0.159875 -0.519376
-0.763546 0.216526 -0.450601
-0.744492 0.159875 -0.519376
-0.792235 0.195387 -0.450877
-0.836910 0.366788 0.036174
-0.775247 0.335044 -0.061772
-0.809772 0.322538 -0.061800
-0.802546 0.378280 0.034982
-0.775247 0.335044 -0.061772
-0.836910 0.366788 0.036174
-0.836910 0.366788 0.036174
-0.799192 0.351898 0.133802
-0.802546 0.378280 0.034982
-0.799192 0.351898 0.133802
-0.772000 0.360720 0.132552
-0.802546 0.378280 0.034982
-0.779585 0.201833 -0.381416
-0.763938 0.034150 -0.348676
-0.749692 0.222723 -0.386592
-0.763938 0.034150 -0.348676
-0.752478 0.260511 -0.325876
-0.749692 0.222723 -0.386592
-0.787362 0.242756 -0.325924
-0.752478 0.260511 -0.325876
-0.763938 0.034150 -0.348676
-0.807914 0.298975 -0.132303
-0.791552 0.106498 -0.088543
-0.772951 0.314676 -0.132268
-0.791552 0.106498 -0.088543
-0.775247 0.335044 -0.061772
-0.772951 0.314676 -0.132268
-0.809772 0.322538 -0.061800
-0.775247 0.335044 -0.061772
-0.791552 0.106498 -0.088543
-0.799192 0.351898 0.133802
-0.784294 0.171307 0.163404
-0.772000 0.360720 0.132552
-0.770560 0.357323 0.189720
-0.772000 0.360720 0.132552
-0.784294 0.171307 0.163404
-0.795113 0.347781 0.189010
-0.770560 0.357323 0.189720
-0.784294 0.171307 0.163404
-0.114261 -0.326036 0.014562
-0.252085 -0.271165 -0.419919
-0.113234 -0.257934 -0.340974
-0.114257 0.008051 -0.478635
-0.113234 -0.257934 -0.340974
-0.252085 -0.271165 -0.419919
-0.378698 0.003886 -0.544290
-0.114257 0.008051 -0.478635
-0.252085 -0.271165 -0.419919
-0.684152 -0.154282 -0.362249
-0.677862 -0.147738 -0.479340
-0.455110 -0.243841 -0.452115
-0.677862 -0.147738 -0.479340
-0.378698 0.003886 -0.544290
-0.455110 -0.243841 -0.452115
-0.715904 -0.018928 -0.535919
-0.378698 0.003886 -0.544290
-0.677862 -0.147738 -0.479340
-0.770560 0.357323 0.189720
-0.471551 0.407116 0.011827
-0.772000 0.360720 0.132552
-0.772000 0.360720 0.132552
-0.471551 0.407116 0.011827
-0.802546 0.378280 0.034982
-0.802546 0.378280 0.034982
-0.471551 0.407116 0.011827
-0.775247 0.335044 -0.061772
-0.772951 0.314676 -0.132268
-0.472021 0.364421 -0.240098
-0.782529 0.313287 -0.233761
-0.782529 0.313287 -0.233761
-0.472021 0.364421 -0.240098
-0.752478 0.260511 -0.325876
-0.752478 0.260511 -0.325876
-0.472021 0.364421 -0.240098
-0.749692 0.222723 -0.386592
-0.743518 0.165854 0.423841
-0.705497 -0.030209 0.385780
-0.646063 0.161635 0.446186
-0.761524 0.307155 0.389758
-0.743518 0.165854 0.423841
-0.646063 0.161635 0.446186
-0.761524 0.307155 0.389758
-0.646063 0.161635 0.446186
-0.458740 0.291262 0.412193
-0.744492 0.159875 -0.519376
-0.715904 -0.018928 -0.535919
-0.766926 0.137466 -0.519623
-0.792235 0.195387 -0.450877
-0.744492 0.159875 -0.519376
-0.766926 0.137466 -0.519623
-0.378698 0.003886 -0.544290
-0.347863 -0.274200 -0.438905
-0.455110 -0.243841 -0.452115
-0.378698 0.003886 -0.544290
-0.252085 -0.271165 -0.419919
-0.347863 -0.274200 -0.438905
-0.775247 0.335044 -0.061772
-0.471551 0.407116 0.011827
-0.772951 0.314676 -0.132268
-0.772951 0.314676 -0.132268
-0.471551 0.407116 0.011827
-0.472021 0.364421 -0.240098
-0.779585 0.201833 -0.381416
-0.763546 0.216526 -0.450601
-0.792235 0.195387 -0.450877
-0.779585 0.201833 -0.381416
-0.749692 0.222723 -0.386592
-0.763546 0.216526 -0.450601
-0.785114 0.303623 0.391054
-0.761524 0.307155 0.389758
-0.826949 0.362838 0.292303
-0.761524 0.307155 0.389758
-0.785114 0.303623 0.391054
-0.743518 0.165854 0.423841
-0.785114 0.303623 0.391054
-1.106785 0.120218 0.398648
-0.743518 0.165854 0.423841
-1.106785 0.120218 0.398648
-0.785114 0.303623 0.391054
-1.124707 0.168795 0.304139
-0.124739 0.300531 -0.376585
-0.114257 0.008051 -0.478635
-0.457804 0.212350 -0.501630
-0.457804 0.212350 -0.501630
-0.114257 0.008051 -0.478635
-0.378698 0.003886 -0.544290
-0.903126 -0.267413 0.364586
-0.899899 -0.273821 0.255838
-0.964254 -0.127980 0.391072
-0.899899 -0.273821 0.255838
-0.963963 -0.143506 0.227994
-0.964254 -0.127980 0.391072
-0.774691 -0.035381 0.386811
-0.774568 -0.067559 0.212386
-0.705497 -0.030209 0.385780
-0.743518 0.165854 0.423841
-0.774691 -0.035381 0.386811
-0.705497 -0.030209 0.385780
-1.187288 -0.146944 0.398186
-1.051676 -0.135189 0.423066
-1.036359 0.009321 0.423092
-0.688616 -0.127274 -0.302400
-0.763938 0.034150 -0.348676
-0.684152 -0.154282 -0.362249
-0.708596 -0.107779 -0.039896
-0.791552 0.106498 -0.088543
-0.702336 -0.124967 -0.116020
-0.700922 -0.068369 0.204727
-0.784294 0.171307 0.163404
-0.708327 -0.075940 0.128849
-0.464338 0.353596 0.266111
-0.117049 0.243432 0.395158
-0.119413 0.404507 -0.028915
-0.774691 -0.035381 0.386811
-0.963963 -0.143506 0.227994
-0.774568 -0.067559 0.212386
-0.964254 -0.127980 0.391072
-0.963963 -0.143506 0.227994
-0.774691 -0.035381 0.386811
-0.964254 -0.127980 0.391072
-0.774691 -0.035381 0.386811
-0.743518 0.165854 0.423841
-1.036359 0.009321 0.423092
-0.964254 -0.127980 0.391072
-0.743518 0.165854 0.423841
-0.964254 -0.127980 0.391072
-1.051676 -0.135189 0.423066
-0.942638 -0.432381 0.418618
-0.964254 -0.127980 0.391072
-0.942638 -0.432381 0.418618
-0.903126 -0.267413 0.364586
-0.963963 -0.143506 0.227994
-0.933060 -0.410681 0.197132
-1.077811 -0.150951 0.186134
-1.035459 0.013601 0.177178
-0.963963 -0.143506 0.227994
-1.077811 -0.150951 0.186134
-0.763658 -0.062751 0.130176
-0.979077 -0.157609 -0.029446
-0.759943 -0.094794 -0.042767
-0.979371 -0.142085 0.133637
-0.979077 -0.157609 -0.029446
-0.763658 -0.062751 0.130176
-0.784294 0.171307 0.163404
-0.979371 -0.142085 0.133637
-0.763658 -0.062751 0.130176
-1.051470 -0.004787 0.165734
-0.979371 -0.142085 0.133637
-0.784294 0.171307 0.163404
-0.979371 -0.142085 0.133637
-1.066792 -0.149281 0.160906
-0.957752 -0.446511 0.169022
-0.979371 -0.142085 0.133637
-0.957752 -0.446511 0.169022
-0.918242 -0.281519 0.107151
-0.979077 -0.157609 -0.029446
-0.948169 -0.424787 -0.060307
-1.092928 -0.165068 -0.067316
-1.050574 -0.000516 -0.076136
-0.979077 -0.157609 -0.029446
-1.092928 -0.165068 -0.067316
-0.889870 -0.209738 -0.494212
-0.715904 -0.018928 -0.535919
-0.725634 -0.154106 -0.482021
-0.715904 -0.018928 -0.535919
-0.677862 -0.147738 -0.479340
-0.725634 -0.154106 -0.482021
-0.684152 -0.154282 -0.362249
-0.725634 -0.154106 -0.482021
-0.677862 -0.147738 -0.479340
-0.946993 -0.091987 -0.347811
-0.981721 -0.225887 -0.353328
-0.893144 -0.215609 -0.380712
-0.893144 -0.215609 -0.380712
-0.981721 -0.225887 -0.353328
-0.873769 -0.428505 -0.353252
-0.730114 -0.146831 -0.362386
-0.893144 -0.215609 -0.380712
-0.725634 -0.154106 -0.482021
-0.893144 -0.215609 -0.380712
-0.889870 -0.209738 -0.494212
-0.725634 -0.154106 -0.482021
-0.893144 -0.215609 -0.380712
-0.841952 -0.334477 -0.393424
-0.889870 -0.209738 -0.494212
-0.841952 -0.334477 -0.393424
-0.840631 -0.328104 -0.471109
-0.889870 -0.209738 -0.494212
-0.763938 0.034150 -0.348676
-0.746733 -0.122645 -0.305726
-0.949465 -0.182103 -0.298448
-0.763938 0.034150 -0.348676
-0.688616 -0.127274 -0.302400
-0.746733 -0.122645 -0.305726
-0.702336 -0.124967 -0.116020
-0.746733 -0.122645 -0.305726
-0.688616 -0.127274 -0.302400
-1.020158 -0.029417 -0.084945
-1.062946 -0.194411 -0.092613
-0.949099 -0.189447 -0.134869
-0.949099 -0.189447 -0.134869
-1.062946 -0.194411 -0.092613
-0.929622 -0.455307 -0.092428
-0.759358 -0.125439 -0.118019
-0.949099 -0.189447 -0.134869
-0.746733 -0.122645 -0.305726
-0.949099 -0.189447 -0.134869
-0.949465 -0.182103 -0.298448
-0.746733 -0.122645 -0.305726
-0.949099 -0.189447 -0.134869
-0.885819 -0.321261 -0.148726
-0.949465 -0.182103 -0.298448
-0.885819 -0.321261 -0.148726
-0.889103 -0.320299 -0.257636
-0.949465 -0.182103 -0.298448
-0.529663 -0.154722 0.568377
-0.646063 0.161635 0.446186
-0.635540 -0.078931 0.428537
-0.646063 0.161635 0.446186
-0.705497 -0.030209 0.385780
-0.635540 -0.078931 0.428537
-0.416845 -0.427384 0.237149
-0.635540 -0.078931 0.428537
-0.530520 -0.194520 0.207443
-0.416845 -0.427384 0.237149
-0.530520 -0.194520 0.207443
-0.368706 -0.279400 0.008315
-0.281669 -0.468534 0.453181
-0.416845 -0.427384 0.237149
-0.207390 -0.435258 0.385794
-0.207390 -0.435258 0.385794
-0.416845 -0.427384 0.237149
-0.100723 -0.352319 0.172707
-0.738553 -0.306014 0.727961
-1.046811 -0.424084 0.529593
-0.738549 -0.531091 0.626707
-1.046811 -0.424084 0.529593
-0.999376 -0.509597 0.507108
-0.738549 -0.531091 0.626707
-0.738553 -0.306014 0.727961
-0.529663 -0.154722 0.568377
-0.744092 -0.246569 0.631410
-0.842130 -0.232544 0.557822
-0.738553 -0.306014 0.727961
-0.744092 -0.246569 0.631410
-0.760702 -0.246179 0.522594
-0.647238 -0.195757 0.463877
-0.730064 -0.481952 0.424229
-0.760702 -0.246179 0.522594
-0.730064 -0.481952 0.424229
-0.843491 -0.260569 0.469134
-0.738549 -0.531091 0.626707
-0.716348 -0.540289 0.513162
-0.490169 -0.514161 0.560544
-0.738549 -0.531091 0.626707
-0.829917 -0.550173 0.464443
-0.716348 -0.540289 0.513162
-0.716348 -0.540289 0.513162
-0.730064 -0.481952 0.424229
-0.576114 -0.467954 0.366190
-0.716348 -0.540289 0.513162
-0.576114 -0.467954 0.366190
-0.508867 -0.531124 0.445447
-0.744092 -0.246569 0.631410
-0.647238 -0.195757 0.463877
-0.760702 -0.246179 0.522594
-0.842130 -0.232544 0.557822
-0.744092 -0.246569 0.631410
-0.760702 -0.246179 0.522594
1.050662 -0.159384 0.344442
0.955475 -0.314700 0.115824
0.906319 -0.400418 0.001757
0.900755 -0.310702 -0.282396
0.896894 -0.292168 -0.360293
0.917008 -0.229703 -0.388347
0.921350 -0.216323 -0.394118
0.989501 0.016757 -0.547651
1.074066 0.210688 -0.478196
1.115357 0.302190 -0.435574
1.180521 0.380901 -0.189072
1.219205 0.431436 -0.053145
1.205606 0.286275 0.246645
1.204960 0.240997 0.365607
1.092210 -0.041663 0.338730
1.061903 -0.120940 0.340502
1.115357 0.302190 -0.435574
0.892445 0.287156 -0.417586
1.001892 0.405424 -0.050770
1.180521 0.380901 -0.189072
1.001892 0.405424 -0.050770
1.219205 0.431436 -0.053145
1.180521 0.380901 -0.189072
1.092210 -0.041663 0.338730
1.085313 0.223149 0.349684
0.737672 0.232666 0.404279
1.061903 -0.120940 0.340502
1.085313 0.223149 0.349684
1.092210 -0.041663 0.338730
1.204960 0.240997 0.365607
0.892445 0.287156 -0.417586
1.074066 0.210688 -0.478196
0.989501 0.016757 -0.547651
0.846593 0.011070 -0.527985
0.846593 0.011070 -0.527985
0.989501 0.016757 -0.547651
0.921350 -0.216323 -0.394118
0.892445 0.287156 -0.417586
1.115357 0.302190 -0.435574
1.074066 0.210688 -0.478196
0.917008 -0.229703 -0.388347
0.795366 0.012347 -0.540979
0.846593 0.011070 -0.527985
0.921350 -0.216323 -0.394118
0.896894 -0.292168 -0.360293
0.764935 -0.327555 -0.370932
0.795366 0.012347 -0.540979
0.917008 -0.229703 -0.388347
0.733586 -0.434307 0.016441
0.764935 -0.327555 -0.370932
0.896894 -0.292168 -0.360293
0.900755 -0.310702 -0.282396
0.749978 -0.173612 0.415256
0.733586 -0.434307 0.016441
0.906319 -0.400418 0.001757
0.955475 -0.314700 0.115824
0.737672 0.232666 0.404279
0.749978 -0.173612 0.415256
1.050662 -0.159384 0.344442
1.061903 -0.120940 0.340502
0.749978 -0.173612 0.415256
0.955475 -0.314700 0.115824
1.050662 -0.159384 0.344442
1.219205 0.431436 -0.053145
1.001892 0.405424 -0.050770
1.085313 0.223149 0.349684
1.205606 0.286275 0.246645
1.204960 0.240997 0.365607
1.205606 0.286275 0.246645
1.085313 0.223149 0.349684
0.733586 -0.434307 0.016441
0.900755 -0.310702 -0.282396
0.906319 -0.400418 0.001757
3 0 1 2
3 3 4 5
3 6 7 8
3 9 10 11
3 12 13 14
3 15 16 17
3 18 19 20
3 21 22 23
3 24 25 26
3 27 28 29
3 30 31 32
3 33 34 35
3 36 37 38
3 39 40 41
3 42 43 44
3 45 46 47
3 48 49 50
3 51 52 53
3 54 55 56
3 57 58 59
3 60 61 62
3 63 64 65
3 66 67 68
3 69 70 71
3 72 73 74
3 75 76 77
3 78 79 80
3 81 82 83
3 84 85 86
3 87 88 89
3 90 91 92
3 93 94 95
3 96 97 98
3 99 100 101
3 102 103 104
3 105 106 107
3 108 109 110
3 111 112 113
3 114 115 116
3 117 118 119
3 120 121 122
3 123 124 125
3 126 127 128
3 129 130 131
3 132 133 134
3 135 136 137
3 138 139 140
3 141 142 143
3 144 145 146
3 147 148 149
3 150 151 152
3 153 154 155
3 156 157 158
3 159 160 161
3 162 163 164
3 165 166 167
3 168 169 170
3 171 172 173
3 174 175 176
3 177 178 179
3 180 181 182
3 183 184 185
3 186 187 188
3 189 190 191
3 192 193 194
3 195 196 197
3 198 199 200
3 201 202 203
3 204 205 206
3 207 208 209
3 210 211 212
3 213 214 215
3 216 217 218
3 219 220 221
3 222 223 224
3 225 226 227
3 228 229 230
3 231 232 233
3 234 235 236
3 237 238 239
3 240 241 242
3 243 244 245
3 246 247 248
3 249 250 251
3 252 253 254
3 255 256 257
3 258 259 260
3 261 262 263
3 264 265 266
3 267 268 269
3 270 271 272
3 273 274 275
3 276 277 278
3 279 280 281
3 282 283 284
3 285 286 287
3 288 289 290
3 291 292 293
3 294 295 296
3 297 298 299
3 300 301 302
3 303 304 305
3 306 307 308
3 309 310 311
3 312 313 314
3 315 316 317
3 318 319 320
3 321 322 323
3 324 325 326
3 327 328 329
3 330 331 332
3 333 334 335
3 336 337 338
3 339 340 341
3 342 343 344
3 345 346 347
3 348 349 350
3 351 352 353
3 354 355 356
3 357 358 359
3 360 361 362
3 363 364 365
3 366 367 368
3 369 370 371
3 372 373 374
3 375 376 377
3 378 379 380
3 381 382 383
3 384 385 386
3 387 388 389
3 390 391 392
3 393 394 395
3 396 397 398
3 399 400 401
3 402 403 404
3 405 406 407
3 408 409 410
3 411 412 413
3 414 415 416
3 417 418 419
3 420 421 422
3 423 424 425
3 426 427 428
3 429 430 431
3 432 433 434
3 435 436 437
3 438 439 440
3 441 442 443
3 444 445 446
3 447 448 449
3 450 451 452
3 453 454 455
3 456 457 458
3 459 460 461
3 462 463 464
3 465 466 467
3 468 469 470
3 471 472 473
3 474 475 476
3 477 478 479
3 480 481 482
3 483 484 485
3 486 487 488
3 489 490 491
3 492 493 494
3 495 496 497
3 498 499 500
3 501 502 503
3 504 505 506
3 507 508 509
3 510 511 512
3 513 514 515
3 516 517 518
3 519 520 521
3 522 523 524
3 525 526 527
3 528 529 530
3 531 532 533
3 534 535 536
3 537 538 539
3 540 541 542
3 543 544 545
3 546 547 548
3 549 550 551
3 552 553 554
3 555 556 557
3 558 559 560
3 561 562 563
3 564 565 566
3 567 568 569
3 570 571 572
3 573 574 575
3 576 577 578
3 579 580 581
3 582 583 584
3 585 586 587
3 588 589 590
3 591 592 593
3 594 595 596
3 597 598 599
3 600 601 602
3 603 604 605
3 606 607 608
3 609 610 611
3 612 613 614
3 615 616 617
3 618 619 620
3 621 622 623
3 624 625 626
3 627 628 629
3 630 631 632
3 633 634 635
3 636 637 638
3 639 640 641
3 642 643 644
3 645 646 647
3 648 649 650
3 651 652 653
3 654 655 656
3 657 658 659
3 660 661 662
3 663 664 665
3 666 667 668
3 669 670 671
3 672 673 674
3 675 676 677
3 678 679 680
3 681 682 683
3 684 685 686
3 687 688 689
3 690 691 692
3 693 694 695
3 696 697 698
3 699 700 701
3 702 703 704
3 705 706 707
3 708 709 710
3 711 712 713
3 714 715 716
3 717 718 719
3 720 721 722
3 723 724 725
3 726 727 728
3 729 730 731
3 732 733 734
3 735 736 737
3 738 739 740
3 741 742 743
3 744 745 746
3 747 748 749
3 750 751 752
3 753 754 755
3 756 757 758
3 759 760 761
3 762 763 764
3 765 766 767
3 768 769 770
3 771 772 773
3 774 775 776
3 777 778 779
3 780 781 782
3 783 784 785
3 786 787 788
3 789 790 791
3 792 793 794
3 795 796 797
3 798 799 800
3 801 802 803
3 804 805 806
3 807 808 809
3 810 811 812
3 813 814 815
3 816 817 818
3 819 820 821
3 822 823 824
3 825 826 827
3 828 829 830
3 831 832 833
3 834 835 836
3 837 838 839
3 840 841 842
3 843 844 845
3 846 847 848
3 849 850 851
3 852 853 854
3 855 856 857
3 858 859 860
3 861 862 863
3 864 865 866
3 867 868 869
3 870 871 872
3 873 874 875
3 876 877 878
3 879 880 881
3 882 883 884
3 885 886 887
3 888 889 890
3 891 892 893
3 894 895 896
3 897 898 899
3 900 901 902
3 903 904 905
3 906 907 908
3 909 910 911
3 912 913 914
3 915 916 917
3 918 919 920
3 921 922 923
3 924 925 926
3 927 928 929
3 930 931 932
3 933 934 935
3 936 937 938
3 939 940 941
3 942 943 944
3 945 946 947
3 948 949 950
3 951 952 953
3 954 955 956
3 957 958 959
3 960 961 962
3 963 964 965
3 966 967 968
3 969 970 971
3 972 973 974
3 975 976 977
3 978 979 980
3 981 982 983
3 984 985 986
3 987 988 989
3 990 991 992
3 993 994 995
3 996 997 998
3 999 1000 1001
3 1002 1003 1004
3 1005 1006 1007
3 1008 1009 1010
3 1011 1012 1013
3 1014 1015 1016
3 1017 1018 1019
3 1020 1021 1022
3 1023 1024 1025
3 1026 1027 1028
3 1029 1030 1031
3 1032 1033 1034
3 1035 1036 1037
3 1038 1039 1040
3 1041 1042 1043
3 1044 1045 1046
3 1047 1048 1049
3 1050 1051 1052
3 1053 1054 1055
3 1056 1057 1058
3 1059 1060 1061
3 1062 1063 1064
3 1065 1066 1067
3 1068 1069 1070
3 1071 1072 1073
3 1074 1075 1076
3 1077 1078 1079
3 1080 1081 1082
3 1083 1084 1085
3 1086 1087 1088
3 1089 1090 1091
3 1092 1093 1094
3 1095 1096 1097
3 1098 1099 1100
3 1101 1102 1103
3 1104 1105 1106
3 1107 1108 1109
3 1110 1111 1112
3 1113 1114 1115
3 1116 1117 1118
3 1119 1120 1121
3 1122 1123 1124
3 1125 1126 1127
3 1128 1129 1130
3 1131 1132 1133
3 1134 1135 1136
3 1137 1138 1139
3 1140 1141 1142
3 1143 1144 1145
3 1146 1147 1148
3 1149 1150 1151
3 1152 1153 1154
3 1155 1156 1157
3 1158 1159 1160
3 1161 1162 1163
3 1164 1165 1166
3 1167 1168 1169
3 1170 1171 1172
3 1173 1174 1175
3 1176 1177 1178
3 1179 1180 1181
3 1182 1183 1184
3 1185 1186 1187
3 1188 1189 1190
3 1191 1192 1193
3 1194 1195 1196
3 1197 1198 1199
3 1200 1201 1202
3 1203 1204 1205
3 1206 1207 1208
3 1209 1210 1211
3 1212 1213 1214
3 1215 1216 1217
3 1218 1219 1220
3 1221 1222 1223
3 1224 1225 1226
3 1227 1228 1229
3 1230 1231 1232
3 1233 1234 1235
3 1236 1237 1238
3 1239 1240 1241
3 1242 1243 1244
3 1245 1246 1247
3 1248 1249 1250
3 1251 1252 1253
3 1254 1255 1256
3 1257 1258 1259
3 1260 1261 1262
3 1263 1264 1265
3 1266 1267 1268
3 1269 1270 1271
3 1272 1273 1274
3 1275 1276 1277
3 1278 1279 1280
3 1281 1282 1283
3 1284 1285 1286
3 1287 1288 1289
3 1290 1291 1292
3 1293 1294 1295
3 1296 1297 1298
3 1299 1300 1301
3 1302 1303 1304
3 1305 1306 1307
3 1308 1309 1310
3 1311 1312 1313
3 1314 1315 1316
3 1317 1318 1319
3 1320 1321 1322
3 1323 1324 1325
3 1326 1327 1328
3 1329 1330 1331
3 1332 1333 1334
3 1335 1336 1337
3 1338 1339 1340
3 1341 1342 1343
3 1344 1345 1346
3 1347 1348 1349
3 1350 1351 1352
3 1353 1354 1355
3 1356 1357 1358
3 1359 1360 1361
3 1362 1363 1364
3 1365 1366 1367
3 1368 1369 1370
3 1371 1372 1373
3 1374 1375 1376
3 1377 1378 1379
3 1380 1381 1382
3 1383 1384 1385
3 1386 1387 1388
3 1389 1390 1391
3 1389 1391 1392
3 1389 1392 1393
3 1389 1393 1394
3 1389 1394 1395
3 1389 1395 1396
3 1389 1396 1397
3 1389 1397 1398
3 1389 1398 1399
3 1389 1399 1400
3 1389 1400 1401
3 1389 1401 1402
3 1389 1402 1403
3 1389 1403 1404
3 1405 1406 1407
3 1405 1407 1408
3 1409 1410 1411
3 1412 1413 1414
3 1412 1414 1415
3 1416 1417 1418
3 1419 1420 1421
3 1419 1421 1422
3 1423 1424 1425
3 1426 1427 1428
3 1429 1430 1431
3 1429 1431 1432
3 1433 1434 1435
3 1433 1435 1436
3 1437 1438 1439
3 1437 1439 1440
3 1441 1442 1443
3 1441 1443 1444
3 1445 1446 1447
3 1445 1447 1448
3 1449 1450 1451
3 1452 1453 1454
3 1452 1454 1455
3 1456 1457 1458
3 1459 1460 1461
