ply
format ascii 1.0
comment VCGLIB generated
element vertex 170
property float x
property float y
property float z
element face 82
property list uchar int vertex_indices
end_header
-0.655999 0.155783 -0.48961 
-0.657769 0.042803 -0.547425 
-0.621915 -0.261097 -0.38919 
-0.614718 -0.32212 -0.357442 
-0.601963 -0.343318 -0.267178 
-0.550967 -0.428716 0.093452 
-0.524718 -0.309164 0.342961 
-0.507005 -0.218303 0.51533 
-0.520895 0.048636 0.512333 
-0.532912 0.271375 0.506536 
-0.573431 0.371844 0.232747 
-0.604487 0.448782 0.022881 
-0.628963 0.384434 -0.191374 
-0.651231 0.317851 -0.389439 
0.449632 0.387201 0.034371 
0.607235 0.266519 -0.34379 
-0.33032 0.311328 -0.397954 
0.449632 0.387201 0.034371 
-0.33032 0.311328 -0.397954 
-0.353957 0.455362 0.028083 
-0.651231 0.317851 -0.389439 
-0.628963 0.384434 -0.191374 
-0.353957 0.455362 0.028083 
-0.33032 0.311328 -0.397954 
-0.604487 0.448782 0.022881 
-0.353957 0.455362 0.028083 
-0.628963 0.384434 -0.191374 
0.329505 0.201206 0.44721 
-0.364248 0.274538 0.513311 
0.315238 -0.186983 0.430987 
0.315238 -0.186983 0.430987 
-0.364248 0.274538 0.513311 
-0.299158 -0.218524 0.519669 
-0.364248 0.274538 0.513311 
-0.520895 0.048636 0.512333 
-0.507005 -0.218303 0.51533 
-0.299158 -0.218524 0.519669 
-0.524718 -0.309164 0.342961 
-0.241397 -0.451616 0.079841 
-0.299158 -0.218524 0.519669 
-0.507005 -0.218303 0.51533 
-0.524718 -0.309164 0.342961 
-0.550967 -0.428716 0.093452 
-0.241397 -0.451616 0.079841 
0.535469 -0.312208 -0.280952 
-0.245771 -0.353956 -0.357035 
-0.249795 0.010827 -0.548548 
0.392376 -0.407994 0.076661 
-0.245771 -0.353956 -0.357035 
0.535469 -0.312208 -0.280952 
-0.241397 -0.451616 0.079841 
-0.245771 -0.353956 -0.357035 
0.392376 -0.407994 0.076661 
0.607235 0.266519 -0.34379 
-0.249795 0.010827 -0.548548 
-0.33032 0.311328 -0.397954 
-0.657769 0.042803 -0.547425 
-0.655999 0.155783 -0.48961 
-0.33032 0.311328 -0.397954 
-0.249795 0.010827 -0.548548 
-0.651231 0.317851 -0.389439 
-0.33032 0.311328 -0.397954 
-0.655999 0.155783 -0.48961 
-0.573431 0.371844 0.232747 
-0.353957 0.455362 0.028083 
-0.604487 0.448782 0.022881 
-0.364248 0.274538 0.513311 
-0.353957 0.455362 0.028083 
-0.573431 0.371844 0.232747 
-0.532912 0.271375 0.506536 
-0.249795 0.010827 -0.548548 
-0.621915 -0.261097 -0.38919 
-0.657769 0.042803 -0.547425 
-0.614718 -0.32212 -0.357442 
-0.621915 -0.261097 -0.38919 
-0.249795 0.010827 -0.548548 
-0.245771 -0.353956 -0.357035 
-0.241397 -0.451616 0.079841 
-0.601963 -0.343318 -0.267178 
-0.614718 -0.32212 -0.357442 
-0.245771 -0.353956 -0.357035 
-0.364248 0.274538 0.513311 
-0.532912 0.271375 0.506536 
-0.520895 0.048636 0.512333 
0.392376 -0.407994 0.076661 
-0.299158 -0.218524 0.519669 
-0.241397 -0.451616 0.079841 
0.315238 -0.186983 0.430987 
-0.299158 -0.218524 0.519669 
0.392376 -0.407994 0.076661 
0.329505 0.201206 0.44721 
0.449632 0.387201 0.034371 
-0.353957 0.455362 0.028083 
0.329505 0.201206 0.44721 
-0.353957 0.455362 0.028083 
-0.364248 0.274538 0.513311 
-0.550967 -0.428716 0.093452 
-0.601963 -0.343318 -0.267178 
-0.241397 -0.451616 0.079841 
0.653035 -0.0588 -0.431672 
0.653035 -0.014631 -0.459596 
0.653035 0.071103 -0.422737 
0.653035 0.174648 -0.385467 
0.653035 0.266664 -0.344714 
0.653035 0.308341 -0.236128 
0.653035 0.401508 0.027472 
0.653035 0.292959 0.285165 
0.653035 0.207482 0.483585 
0.653035 0.074072 0.478557 
0.653035 -0.198309 0.487942 
0.653035 -0.28118 0.348576 
0.653035 -0.444232 0.092526 
0.653035 -0.373807 -0.130489 
0.653035 -0.334549 -0.287738 
0.653035 -0.146434 -0.386563 
0.653035 0.308341 -0.236128 
0.653035 0.266664 -0.344714 
0.607235 0.266519 -0.34379 
0.449632 0.387201 0.034371 
0.653035 0.401508 0.027472 
0.653035 0.308341 -0.236128 
0.607235 0.266519 -0.34379 
0.653035 0.292959 0.285165 
0.653035 0.401508 0.027472 
0.449632 0.387201 0.034371 
0.329505 0.201206 0.44721 
0.653035 0.207482 0.483585 
0.653035 0.292959 0.285165 
0.449632 0.387201 0.034371 
0.315238 -0.186983 0.430987 
0.653035 0.074072 0.478557 
0.653035 0.207482 0.483585 
0.329505 0.201206 0.44721 
0.653035 0.266664 -0.344714 
0.653035 0.174648 -0.385467 
0.607235 0.266519 -0.34379 
0.653035 0.174648 -0.385467 
0.653035 0.071103 -0.422737 
0.607235 0.266519 -0.34379 
0.607235 0.266519 -0.34379 
0.653035 0.071103 -0.422737 
0.653035 -0.014631 -0.459596 
-0.249795 0.010827 -0.548548 
-0.249795 0.010827 -0.548548 
0.653035 -0.014631 -0.459596 
0.653035 -0.0588 -0.431672 
0.535469 -0.312208 -0.280952 
0.653035 -0.0588 -0.431672 
0.653035 -0.146434 -0.386563 
0.535469 -0.312208 -0.280952 
0.653035 -0.146434 -0.386563 
0.653035 -0.334549 -0.287738 
0.535469 -0.312208 -0.280952 
0.653035 -0.373807 -0.130489 
0.535469 -0.312208 -0.280952 
0.653035 -0.334549 -0.287738 
0.653035 -0.28118 0.348576 
0.392376 -0.407994 0.076661 
0.653035 -0.444232 0.092526 
0.653035 0.074072 0.478557 
0.315238 -0.186983 0.430987 
0.653035 -0.198309 0.487942 
0.392376 -0.407994 0.076661 
0.653035 -0.28118 0.348576 
0.653035 -0.198309 0.487942 
0.315238 -0.186983 0.430987 
0.535469 -0.312208 -0.280952 
0.653035 -0.373807 -0.130489 
0.653035 -0.444232 0.092526 
0.392376 -0.407994 0.076661 
3 0 1 2 
3 0 2 3 
3 0 3 4 
3 0 4 5 
3 0 5 6 
3 0 6 7 
3 0 7 8 
3 0 8 9 
3 0 9 10 
3 0 10 11 
3 0 11 12 
3 0 12 13 
3 14 15 16 
3 17 18 19 
3 20 21 22 
3 20 22 23 
3 24 25 26 
3 27 28 29 
3 30 31 32 
3 33 34 35 
3 33 35 36 
3 37 38 39 
3 37 39 40 
3 41 42 43 
3 44 45 46 
3 47 48 49 
3 50 51 52 
3 53 54 55 
3 56 57 58 
3 56 58 59 
3 60 61 62 
3 63 64 65 
3 66 67 68 
3 66 68 69 
3 70 71 72 
3 73 74 75 
3 73 75 76 
3 77 78 79 
3 77 79 80 
3 81 82 83 
3 84 85 86 
3 87 88 89 
3 90 91 92 
3 93 94 95 
3 96 97 98 
3 99 100 101 
3 99 101 102 
3 99 102 103 
3 99 103 104 
3 99 104 105 
3 99 105 106 
3 99 106 107 
3 99 107 108 
3 99 108 109 
3 99 109 110 
3 99 110 111 
3 99 111 112 
3 99 112 113 
3 99 113 114 
3 115 116 117 
3 118 119 120 
3 118 120 121 
3 122 123 124 
3 125 126 127 
3 125 127 128 
3 129 130 131 
3 129 131 132 
3 133 134 135 
3 136 137 138 
3 139 140 141 
3 139 141 142 
3 143 144 145 
3 143 145 146 
3 147 148 149 
3 150 151 152 
3 153 154 155 
3 156 157 158 
3 159 160 161 
3 162 163 164 
3 162 164 165 
3 166 167 168 
3 166 168 169 
