ply
format ascii 1.0
comment Created by Blender 2.91.0 - www.blender.org
element vertex 543
property float x
property float y
property float z
element face 250
property list uchar uint vertex_indices
end_header
-0.621354 0.573686 -1.036318
-1.098499 0.197293 -0.079177
-0.945035 0.583169 -0.077656
-0.131729 0.865330 1.154682
-0.543449 1.008552 0.742272
-0.542248 0.879884 0.688811
0.102561 -0.910418 1.591305
0.315845 -0.146003 1.517137
-0.128475 0.006798 1.550209
-0.820222 -0.744309 -1.080679
-1.231277 -0.576685 -0.063633
-0.779860 -0.695366 -1.079414
-1.231277 -0.576685 -0.063633
-1.201580 -0.184180 -0.059804
-0.779860 -0.695366 -1.079414
-0.779860 -0.695366 -1.079414
-1.201580 -0.184180 -0.059804
-0.812948 -0.263043 -1.108825
-0.779860 -0.695366 -1.079414
0.083514 -0.940298 -1.299747
-0.820222 -0.744309 -1.080679
-0.820222 -0.744309 -1.080679
0.083514 -0.940298 -1.299747
0.067823 -1.018310 -1.275245
0.083514 -0.940298 -1.299747
0.563684 -0.907706 -1.258665
0.067823 -1.018310 -1.275245
0.067823 -1.018310 -1.275245
0.563684 -0.907706 -1.258665
0.628279 -1.020000 -1.091349
0.628279 -1.020000 -1.091349
0.563684 -0.907706 -1.258665
0.764449 -0.842467 -1.215517
0.765169 -0.967814 -0.217451
0.628279 -1.020000 -1.091349
0.764449 -0.842467 -1.215517
-0.116507 0.133141 1.262035
-0.685365 -0.536872 1.058645
0.475810 -0.796330 1.240557
0.474208 0.118541 1.306608
-0.116507 0.133141 1.262035
0.475810 -0.796330 1.240557
-0.129147 0.468482 1.244257
-0.116507 0.133141 1.262035
0.474208 0.118541 1.306608
-0.685365 -0.536872 1.058645
-1.201580 -0.184180 -0.059804
-1.231277 -0.576685 -0.063633
-0.685365 -0.536872 1.058645
-1.098499 0.197293 -0.079177
-1.201580 -0.184180 -0.059804
-0.594024 0.573391 0.847288
-0.945035 0.583169 -0.077656
-0.688265 0.158116 0.924710
0.474208 0.118541 1.306608
0.475810 -0.796330 1.240557
0.608098 -0.283157 1.326110
0.608098 -0.283157 1.326110
0.475810 -0.796330 1.240557
0.668911 -0.803843 1.199996
-0.129147 0.468482 1.244257
-0.594024 0.573391 0.847288
-0.116507 0.133141 1.262035
-0.594024 0.573391 0.847288
-0.688265 0.158116 0.924710
-0.116507 0.133141 1.262035
-0.621354 0.573686 -1.036318
0.026514 0.905342 -1.145817
-0.007816 0.587686 -1.236927
-0.007816 0.587686 -1.236927
0.018036 -0.341761 -1.474932
-0.621354 0.573686 -1.036318
-0.007816 0.587686 -1.236927
0.759411 0.582686 -1.347438
0.018036 -0.341761 -1.474932
0.759411 0.582686 -1.347438
0.762357 -0.265667 -1.456958
0.018036 -0.341761 -1.474932
-0.621354 0.573686 -1.036318
0.018036 -0.341761 -1.474932
-0.812948 -0.263043 -1.108825
-0.812948 -0.263043 -1.108825
0.018036 -0.341761 -1.474932
-0.779860 -0.695366 -1.079414
0.018036 -0.341761 -1.474932
0.083514 -0.940298 -1.299747
-0.779860 -0.695366 -1.079414
0.018036 -0.341761 -1.474932
0.563684 -0.907706 -1.258665
0.083514 -0.940298 -1.299747
0.018036 -0.341761 -1.474932
0.762357 -0.265667 -1.456958
0.563684 -0.907706 -1.258665
0.762357 -0.265667 -1.456958
0.764449 -0.842467 -1.215517
0.563684 -0.907706 -1.258665
0.763179 -0.281081 1.278209
0.608098 -0.283157 1.326110
0.764923 -0.783719 1.208527
-1.098499 0.197293 -0.079177
-0.621354 0.573686 -1.036318
-0.812948 -0.263043 -1.108825
0.692684 -0.951060 0.860919
0.765169 -0.967814 -0.217451
0.764923 -0.783719 1.208527
-0.542248 0.879884 0.688811
-0.543449 1.008552 0.742272
-0.714300 0.925335 0.230298
0.758009 0.985493 -1.307993
0.758287 0.908083 -1.284942
0.007584 1.049292 -1.165782
0.007584 1.049292 -1.165782
0.758287 0.908083 -1.284942
0.026514 0.905342 -1.145817
0.007584 1.049292 -1.165782
0.026514 0.905342 -1.145817
-0.500499 1.035583 -0.947738
-0.500499 1.035583 -0.947738
0.026514 0.905342 -1.145817
-0.498162 0.892624 -0.944240
-0.813721 0.985591 -0.076162
-0.500499 1.035583 -0.947738
-0.498162 0.892624 -0.944240
-0.815412 0.852248 -0.059890
-0.813721 0.985591 -0.076162
-0.498162 0.892624 -0.944240
-0.542248 0.879884 0.688811
-0.714300 0.925335 0.230298
-0.815412 0.852248 -0.059890
-0.714300 0.925335 0.230298
-0.813721 0.985591 -0.076162
-0.815412 0.852248 -0.059890
-0.498162 0.892624 -0.944240
0.026514 0.905342 -1.145817
-0.621354 0.573686 -1.036318
-0.945035 0.583169 -0.077656
-0.498162 0.892624 -0.944240
-0.621354 0.573686 -1.036318
-0.813721 0.985591 -0.076162
-0.778445 1.038869 -0.543929
-0.500499 1.035583 -0.947738
0.758844 1.028846 1.284175
0.758677 1.067654 1.314927
0.712928 1.084218 1.317353
0.758287 0.908083 -1.284942
0.759411 0.582686 -1.347438
-0.007816 0.587686 -1.236927
0.026514 0.905342 -1.145817
0.758287 0.908083 -1.284942
-0.007816 0.587686 -1.236927
0.759279 0.826794 1.232500
0.608098 -0.283157 1.326110
0.763179 -0.281081 1.278209
0.758844 1.028846 1.284175
0.574172 0.964301 1.249481
0.602501 0.949483 1.248476
0.625176 0.940472 1.248401
0.759279 0.826794 1.232500
-0.131729 0.865330 1.154682
0.759279 0.826794 1.232500
0.625176 0.940472 1.248401
0.602501 0.949483 1.248476
0.574172 0.964301 1.249481
0.758844 1.028846 1.284175
-0.133588 1.061728 1.101233
-0.131729 0.865330 1.154682
0.758844 1.028846 1.284175
-0.133588 1.061728 1.101233
-0.543449 1.008552 0.742272
-0.131729 0.865330 1.154682
-0.815412 0.852248 -0.059890
-0.498162 0.892624 -0.944240
-0.945035 0.583169 -0.077656
-0.945035 0.583169 -0.077656
-0.542248 0.879884 0.688811
-0.815412 0.852248 -0.059890
-0.594024 0.573391 0.847288
-0.542248 0.879884 0.688811
-0.945035 0.583169 -0.077656
-0.131729 0.865330 1.154682
-0.542248 0.879884 0.688811
-0.594024 0.573391 0.847288
-0.131729 0.865330 1.154682
-0.594024 0.573391 0.847288
-0.129147 0.468482 1.244257
-0.131729 0.865330 1.154682
-0.129147 0.468482 1.244257
0.759279 0.826794 1.232500
-0.129147 0.468482 1.244257
0.474208 0.118541 1.306608
0.759279 0.826794 1.232500
0.474208 0.118541 1.306608
0.608098 -0.283157 1.326110
0.759279 0.826794 1.232500
-0.688265 0.158116 0.924710
-0.685365 -0.536872 1.058645
-0.116507 0.133141 1.262035
0.668911 -0.803843 1.199996
0.692684 -0.951060 0.860919
0.764923 -0.783719 1.208527
0.608098 -0.283157 1.326110
0.668911 -0.803843 1.199996
0.764923 -0.783719 1.208527
0.668911 -0.803843 1.199996
0.475810 -0.796330 1.240557
0.692684 -0.951060 0.860919
-0.688265 0.158116 0.924710
-0.945035 0.583169 -0.077656
-1.098499 0.197293 -0.079177
-0.688265 0.158116 0.924710
-1.098499 0.197293 -0.079177
-0.685365 -0.536872 1.058645
-1.201580 -0.184180 -0.059804
-1.098499 0.197293 -0.079177
-0.812948 -0.263043 -1.108825
-0.128475 0.006798 1.550209
-0.549772 -0.753766 1.656812
0.102561 -0.910418 1.591305
0.602501 0.949483 1.248476
0.548606 0.477863 1.364334
0.662971 0.788577 1.280389
0.625176 0.940472 1.248401
0.625176 0.940472 1.248401
0.608932 1.005756 1.234652
0.602501 0.949483 1.248476
0.234600 0.559320 1.394348
0.548606 0.477863 1.364334
0.602501 0.949483 1.248476
0.574172 0.964301 1.249481
0.574172 0.964301 1.249481
0.602501 0.949483 1.248476
0.608932 1.005756 1.234652
0.234600 0.559320 1.394348
0.315845 -0.146003 1.517137
0.548606 0.477863 1.364334
0.234600 0.559320 1.394348
-0.128475 0.006798 1.550209
0.315845 -0.146003 1.517137
-0.864587 1.117197 -0.259908
-0.793359 1.120267 -0.533956
-0.778445 1.038869 -0.543929
-0.714300 0.925335 0.230298
-0.878107 1.107340 0.180155
-0.904030 1.111972 0.039338
-0.813721 0.985591 -0.076162
-0.813721 0.985591 -0.076162
-0.904030 1.111972 0.039338
-0.864587 1.117197 -0.259908
-0.778445 1.038869 -0.543929
-0.575367 1.121853 -1.045902
-0.500499 1.035583 -0.947738
-0.778445 1.038869 -0.543929
-0.595523 1.122141 -1.016738
0.099746 1.107642 1.192315
-0.133588 1.061728 1.101233
0.758844 1.028846 1.284175
0.712928 1.084218 1.317353
0.758677 1.067654 1.314927
0.758367 1.139272 1.371677
-0.062983 1.100754 -1.210345
0.007584 1.049292 -1.165782
-0.500499 1.035583 -0.947738
-0.280018 1.109623 -1.137858
0.007584 1.049292 -1.165782
-0.062983 1.100754 -1.210345
0.216881 1.088708 -1.278352
0.758009 0.985493 -1.307993
0.757692 1.065904 -1.429575
0.758009 0.985493 -1.307993
0.216881 1.088708 -1.278352
-0.543449 1.008552 0.742272
-0.571102 1.078140 0.774486
-0.700067 1.091164 0.493110
-0.714300 0.925335 0.230298
-0.700067 1.091164 0.493110
-0.878107 1.107340 0.180155
-0.714300 0.925335 0.230298
-0.129970 1.096268 1.124248
-0.133588 1.061728 1.101233
0.099746 1.107642 1.192315
-0.133588 1.061728 1.101233
-0.129970 1.096268 1.124248
-0.190609 1.091638 1.080065
-0.571102 1.078140 0.774486
-0.543449 1.008552 0.742272
-0.133588 1.061728 1.101233
-0.190609 1.091638 1.080065
-0.280018 1.109623 -1.137858
-0.500499 1.035583 -0.947738
-0.575367 1.121853 -1.045902
-0.717481 1.119911 -0.674134
-0.595523 1.122141 -1.016738
-0.778445 1.038869 -0.543929
-0.778445 1.038869 -0.543929
-0.758665 1.120921 -0.632244
-0.717481 1.119911 -0.674134
-0.793359 1.120267 -0.533956
-0.758665 1.120921 -0.632244
-0.778445 1.038869 -0.543929
0.777140 1.074805 1.313944
0.777140 1.054641 1.297998
0.777140 1.082859 1.313942
0.777140 1.029649 1.280431
0.777140 1.025617 1.281506
0.777140 1.023747 1.281028
0.777140 0.840223 1.234131
0.777140 0.827692 1.230929
0.777140 0.819736 1.232726
0.777140 0.783309 1.237053
0.777140 0.702247 1.243004
0.777140 -0.281170 1.282512
0.777140 -0.743760 1.217886
0.777140 -0.786190 1.207436
0.777140 -0.811556 1.150518
0.777140 -0.964982 -0.040550
0.777140 -1.025990 -0.152612
0.777140 -1.013563 -0.215480
0.777140 -0.981936 -0.258802
0.777140 -0.972298 -0.293952
0.777140 -0.858767 -1.204062
0.777140 -0.846493 -1.218246
0.777140 -0.312254 -1.442546
0.777140 -0.267074 -1.457323
0.777140 0.560892 -1.350471
0.777140 0.582926 -1.344894
0.777140 0.900354 -1.283774
0.777140 0.908145 -1.281369
0.777140 0.911766 -1.281956
0.777140 0.987255 -1.304376
0.777140 0.989281 -1.306954
0.777140 1.064748 -1.420956
0.777140 1.139446 1.365065
0.777140 1.034937 1.282415
0.777140 -1.025990 -0.152612
0.765169 -0.967814 -0.217451
0.777140 -1.013563 -0.215480
0.765169 -0.967814 -0.217451
0.777140 -1.025990 -0.152612
0.777140 -0.964982 -0.040550
0.759279 0.826794 1.232500
0.777140 0.702247 1.243004
0.777140 0.783309 1.237053
0.759279 0.826794 1.232500
0.777140 0.783309 1.237053
0.777140 0.819736 1.232726
0.759279 0.826794 1.232500
0.777140 0.819736 1.232726
0.777140 0.827692 1.230929
0.777140 -0.267074 -1.457323
0.762357 -0.265667 -1.456958
0.759411 0.582686 -1.347438
0.777140 0.560892 -1.350471
0.762357 -0.265667 -1.456958
0.777140 -0.267074 -1.457323
0.777140 -0.312254 -1.442546
0.764923 -0.783719 1.208527
0.777140 -0.786190 1.207436
0.777140 -0.743760 1.217886
0.777140 -0.743760 1.217886
0.777140 -0.281170 1.282512
0.763179 -0.281081 1.278209
0.764923 -0.783719 1.208527
0.777140 -1.013563 -0.215480
0.765169 -0.967814 -0.217451
0.777140 -0.981936 -0.258802
0.777140 -0.981936 -0.258802
0.765169 -0.967814 -0.217451
0.777140 -0.972298 -0.293952
0.764449 -0.842467 -1.215517
0.777140 -0.858767 -1.204062
0.777140 -0.972298 -0.293952
0.765169 -0.967814 -0.217451
0.764449 -0.842467 -1.215517
0.777140 -0.846493 -1.218246
0.777140 -0.858767 -1.204062
0.777140 0.582926 -1.344894
0.759411 0.582686 -1.347438
0.758287 0.908083 -1.284942
0.777140 0.900354 -1.283774
0.759411 0.582686 -1.347438
0.777140 0.582926 -1.344894
0.777140 0.560892 -1.350471
0.777140 -0.846493 -1.218246
0.764449 -0.842467 -1.215517
0.762357 -0.265667 -1.456958
0.777140 -0.312254 -1.442546
0.764923 -0.783719 1.208527
0.777140 -0.811556 1.150518
0.777140 -0.786190 1.207436
0.764923 -0.783719 1.208527
0.765169 -0.967814 -0.217451
0.777140 -0.964982 -0.040550
0.777140 -0.811556 1.150518
0.777140 1.054641 1.297998
0.777140 1.074805 1.313944
0.758677 1.067654 1.314927
0.758844 1.028846 1.284175
0.777140 0.702247 1.243004
0.759279 0.826794 1.232500
0.763179 -0.281081 1.278209
0.777140 -0.281170 1.282512
0.758844 1.028846 1.284175
0.759279 0.826794 1.232500
0.777140 0.840223 1.234131
0.777140 1.023747 1.281028
0.758844 1.028846 1.284175
0.777140 1.023747 1.281028
0.777140 1.025617 1.281506
0.759279 0.826794 1.232500
0.777140 0.827692 1.230929
0.777140 0.840223 1.234131
0.758844 1.028846 1.284175
0.777140 1.025617 1.281506
0.777140 1.029649 1.280431
0.758287 0.908083 -1.284942
0.777140 0.908145 -1.281369
0.777140 0.900354 -1.283774
0.758677 1.067654 1.314927
0.712928 1.084218 1.317353
0.477705 1.089196 1.329846
0.468030 0.683193 1.330451
0.777140 0.902671 1.313983
0.777140 1.074805 1.313944
0.712928 1.084218 1.317353
0.758677 1.067654 1.314927
0.777140 1.074805 1.313944
0.777140 1.082859 1.313942
0.777140 1.064748 -1.420956
0.757692 1.065904 -1.429575
0.216881 1.088708 -1.278352
-0.062983 1.100754 -1.210345
-0.280018 1.109623 -1.137858
-0.575367 1.121853 -1.045902
-0.595523 1.122141 -1.016738
-0.717481 1.119911 -0.674134
-0.758665 1.120921 -0.632244
-0.793359 1.120267 -0.533956
-0.864587 1.117197 -0.259908
-0.904030 1.111972 0.039338
-0.878107 1.107340 0.180155
-0.700067 1.091164 0.493110
-0.571102 1.078140 0.774486
-0.190609 1.091638 1.080065
-0.129970 1.096268 1.124248
0.099746 1.107642 1.192315
0.758367 1.139272 1.371677
0.777140 1.139446 1.365065
0.758009 0.985493 -1.307993
0.777140 0.989281 -1.306954
0.777140 0.987255 -1.304376
0.758844 1.028846 1.284175
0.777140 1.034937 1.282415
0.777140 1.054641 1.297998
0.758367 1.139272 1.371677
0.758677 1.067654 1.314927
0.777140 1.074805 1.313944
0.777140 1.139446 1.365065
0.777140 1.064748 -1.420956
0.777140 0.989281 -1.306954
0.758009 0.985493 -1.307993
0.757692 1.065904 -1.429575
0.758844 1.028846 1.284175
0.777140 1.029649 1.280431
0.777140 1.034937 1.282415
0.758287 0.908083 -1.284942
0.777140 0.911766 -1.281956
0.777140 0.908145 -1.281369
0.758287 0.908083 -1.284942
0.758009 0.985493 -1.307993
0.777140 0.987255 -1.304376
0.777140 0.911766 -1.281956
-0.361545 -0.969252 1.095349
-0.746643 -0.924505 1.033409
-0.910426 -0.905801 0.688648
-1.279647 -0.863619 -0.071095
-1.000850 -0.896735 -0.727497
-0.833987 -0.916488 -1.054449
-0.288511 -0.980087 -1.177247
0.068564 -1.021737 -1.274519
0.444096 -1.065302 -1.145314
0.605612 -1.083986 -1.038083
0.662727 -1.090154 -0.573519
0.732117 -1.097857 -0.211839
0.739304 -1.098549 -0.071933
0.678765 -1.090589 0.818152
0.552247 -1.075722 0.959691
0.397227 -1.057466 1.170658
0.552247 -1.075722 0.959691
0.678765 -1.090589 0.818152
0.692684 -0.951060 0.860919
-1.000850 -0.896735 -0.727497
-0.820222 -0.744309 -1.080679
-0.833987 -0.916488 -1.054449
-1.231277 -0.576685 -0.063633
-0.820222 -0.744309 -1.080679
-1.000850 -0.896735 -0.727497
-1.279647 -0.863619 -0.071095
0.739304 -1.098549 -0.071933
0.732117 -1.097857 -0.211839
0.765169 -0.967814 -0.217451
-0.910426 -0.905801 0.688648
-1.231277 -0.576685 -0.063633
-1.279647 -0.863619 -0.071095
-0.910426 -0.905801 0.688648
-0.746643 -0.924505 1.033409
-0.685365 -0.536872 1.058645
-1.231277 -0.576685 -0.063633
-0.685365 -0.536872 1.058645
-0.746643 -0.924505 1.033409
-0.361545 -0.969252 1.095349
0.475810 -0.796330 1.240557
0.552247 -1.075722 0.959691
0.692684 -0.951060 0.860919
0.475810 -0.796330 1.240557
0.397227 -1.057466 1.170658
0.397227 -1.057466 1.170658
0.475810 -0.796330 1.240557
-0.361545 -0.969252 1.095349
0.765169 -0.967814 -0.217451
0.692684 -0.951060 0.860919
0.678765 -1.090589 0.818152
0.739304 -1.098549 -0.071933
-0.288511 -0.980087 -1.177247
-0.833987 -0.916488 -1.054449
-0.820222 -0.744309 -1.080679
-0.820222 -0.744309 -1.080679
0.067823 -1.018310 -1.275245
0.068564 -1.021737 -1.274519
-0.288511 -0.980087 -1.177247
0.067823 -1.018310 -1.275245
0.628279 -1.020000 -1.091349
0.444096 -1.065302 -1.145314
0.068564 -1.021737 -1.274519
0.628279 -1.020000 -1.091349
0.605612 -1.083986 -1.038083
0.444096 -1.065302 -1.145314
0.605612 -1.083986 -1.038083
0.628279 -1.020000 -1.091349
0.765169 -0.967814 -0.217451
0.662727 -1.090154 -0.573519
0.732117 -1.097857 -0.211839
0.662727 -1.090154 -0.573519
0.765169 -0.967814 -0.217451
3 0 1 2
3 3 4 5
3 6 7 8
3 9 10 11
3 12 13 14
3 15 16 17
3 18 19 20
3 21 22 23
3 24 25 26
3 27 28 29
3 30 31 32
3 33 34 35
3 36 37 38
3 39 40 41
3 42 43 44
3 45 46 47
3 48 49 50
3 51 52 53
3 54 55 56
3 57 58 59
3 60 61 62
3 63 64 65
3 66 67 68
3 69 70 71
3 72 73 74
3 75 76 77
3 78 79 80
3 81 82 83
3 84 85 86
3 87 88 89
3 90 91 92
3 93 94 95
3 96 97 98
3 99 100 101
3 102 103 104
3 105 106 107
3 108 109 110
3 111 112 113
3 114 115 116
3 117 118 119
3 120 121 122
3 123 124 125
3 126 127 128
3 129 130 131
3 132 133 134
3 135 136 137
3 138 139 140
3 141 142 143
3 144 145 146
3 147 148 149
3 150 151 152
3 153 154 155
3 153 155 156
3 153 156 157
3 158 159 160
3 158 160 161
3 158 161 162
3 158 162 163
3 164 165 166
3 167 168 169
3 170 171 172
3 173 174 175
3 176 177 178
3 179 180 181
3 182 183 184
3 185 186 187
3 188 189 190
3 191 192 193
3 194 195 196
3 197 198 199
3 200 201 202
3 203 204 205
3 206 207 208
3 209 210 211
3 212 213 214
3 215 216 217
3 218 219 220
3 218 220 221
3 222 223 224
3 225 226 227
3 225 227 228
3 229 230 231
3 232 233 234
3 235 236 237
3 238 239 240
3 241 242 243
3 241 243 244
3 245 246 247
3 245 247 248
3 249 250 251
3 249 251 252
3 253 254 255
3 253 255 256
3 253 256 257
3 253 257 258
3 259 260 261
3 259 261 262
3 263 264 265
3 263 265 266
3 267 268 269
3 270 271 272
3 270 272 273
3 274 275 276
3 277 278 279
3 280 281 282
3 283 284 285
3 283 285 286
3 287 288 289
3 290 291 292
3 293 294 295
3 296 297 298
3 299 300 301
3 302 303 304
3 302 304 305
3 302 305 306
3 302 306 307
3 302 307 308
3 302 308 309
3 302 309 310
3 302 310 311
3 302 311 312
3 302 312 313
3 302 313 314
3 302 314 315
3 302 315 316
3 302 316 317
3 302 317 318
3 302 318 319
3 302 319 320
3 302 320 321
3 302 321 322
3 302 322 323
3 302 323 324
3 302 324 325
3 302 325 326
3 302 326 327
3 302 327 328
3 302 328 329
3 302 329 330
3 302 330 331
3 302 331 299
3 302 299 301
3 302 301 300
3 302 300 332
3 333 334 335
3 336 337 338
3 339 340 341
3 342 343 344
3 345 346 347
3 348 349 350
3 348 350 351
3 352 353 354
3 355 356 357
3 358 359 360
3 358 360 361
3 362 363 364
3 365 366 367
3 368 369 370
3 368 370 371
3 372 373 374
3 375 376 377
3 375 377 378
3 379 380 381
3 382 383 384
3 382 384 385
3 386 387 388
3 389 390 391
3 389 391 392
3 393 394 395
3 393 395 396
3 397 398 399
3 397 399 400
3 401 402 403
3 401 403 404
3 405 406 407
3 408 409 410
3 411 412 413
3 414 415 416
3 417 418 419
3 417 419 420
3 417 420 421
3 417 421 422
3 423 424 425
3 423 425 426
3 427 428 429
3 427 429 430
3 427 430 431
3 427 431 432
3 427 432 433
3 427 433 434
3 427 434 435
3 427 435 436
3 427 436 437
3 427 437 438
3 427 438 439
3 427 439 440
3 427 440 441
3 427 441 442
3 427 442 443
3 427 443 444
3 427 444 445
3 427 445 446
3 447 448 449
3 450 451 452
3 453 454 455
3 453 455 456
3 457 458 459
3 457 459 460
3 461 462 463
3 464 465 466
3 467 468 469
3 467 469 470
3 471 472 473
3 471 473 474
3 471 474 475
3 471 475 476
3 471 476 477
3 471 477 478
3 471 478 479
3 471 479 480
3 471 480 481
3 471 481 482
3 471 482 483
3 471 483 484
3 471 484 485
3 471 485 486
3 487 488 489
3 490 491 492
3 493 494 495
3 493 495 496
3 497 498 499
3 500 501 502
3 503 504 505
3 503 505 506
3 507 508 509
3 507 509 510
3 511 512 513
3 511 513 514
3 515 516 517
3 518 519 520
3 518 520 521
3 522 523 524
3 525 526 527
3 525 527 528
3 529 530 531
3 529 531 532
3 533 534 535
3 536 537 538
3 536 538 539
3 540 541 542
