ply
format ascii 1.0
comment Created by Blender 2.91.0 - www.blender.org
element vertex 726
property float x
property float y
property float z
element face 296
property list uchar uint vertex_indices
end_header
-0.944454 -0.611972 -0.103509
-0.751202 -0.828131 -0.161047
-0.473597 -0.903704 0.429665
0.823251 -0.397334 -0.085753
0.632965 -0.542473 -0.096724
0.425553 -0.821261 -0.607196
-0.687119 -1.354607 0.909645
-0.691514 -1.238200 0.524026
-0.924660 -1.458078 0.450830
-0.473597 -0.903704 0.429665
-0.739786 -0.515815 0.439315
-0.944454 -0.611972 -0.103509
-0.456303 -0.597848 0.868767
-0.739786 -0.515815 0.439315
-0.473597 -0.903704 0.429665
-0.456303 -0.597848 0.868767
-0.793110 -0.023539 0.739147
-0.739786 -0.515815 0.439315
-0.570438 -0.073112 0.804623
-0.793110 -0.023539 0.739147
-0.456303 -0.597848 0.868767
-0.793110 -0.023539 0.739147
-0.570438 -0.073112 0.804623
-0.986013 0.514426 0.011676
-0.570438 -0.073112 0.804623
-0.902448 0.715582 0.028359
-0.986013 0.514426 0.011676
-0.902448 0.715582 0.028359
-0.432206 1.005964 -0.905171
-0.986013 0.514426 0.011676
-0.917416 0.910991 0.044901
-0.432206 1.005964 -0.905171
-0.902448 0.715582 0.028359
0.748206 0.817366 1.237864
0.478762 0.231375 1.048497
1.030571 0.363672 0.748189
-0.433711 0.461382 0.987605
-0.917416 0.910991 0.044901
-0.486092 0.294518 0.876491
-0.486092 0.294518 0.876491
-0.917416 0.910991 0.044901
-0.507400 -0.066841 1.020586
-0.507400 -0.066841 1.020586
-0.917416 0.910991 0.044901
-0.570438 -0.073112 0.804623
-0.190675 -0.674471 0.867533
-0.507400 -0.066841 1.020586
-0.570438 -0.073112 0.804623
-0.570438 -0.073112 0.804623
-0.456303 -0.597848 0.868767
-0.190675 -0.674471 0.867533
-0.190675 -0.674471 0.867533
-0.456303 -0.597848 0.868767
-0.012360 -0.945325 0.440654
-0.456303 -0.597848 0.868767
-0.473597 -0.903704 0.429665
-0.012360 -0.945325 0.440654
0.425553 -0.821261 -0.607196
0.675109 -0.501573 -0.769138
0.823251 -0.397334 -0.085753
0.425553 -0.821261 -0.607196
0.259158 -0.716967 -1.077187
0.675109 -0.501573 -0.769138
0.289671 -0.394825 -1.201073
0.675109 -0.501573 -0.769138
0.259158 -0.716967 -1.077187
-0.564889 -0.773013 -0.808843
0.289671 -0.394825 -1.201073
0.259158 -0.716967 -1.077187
0.010904 -0.376953 -1.134953
0.289671 -0.394825 -1.201073
-0.564889 -0.773013 -0.808843
-0.300233 -0.401128 -1.128574
0.010904 -0.376953 -1.134953
-0.564889 -0.773013 -0.808843
-0.590346 0.018645 -1.102897
0.010904 -0.376953 -1.134953
-0.300233 -0.401128 -1.128574
-0.590346 0.018645 -1.102897
-0.300233 -0.401128 -1.128574
-0.605565 -0.415782 -1.024613
-0.944454 -0.611972 -0.103509
-0.590346 0.018645 -1.102897
-0.605565 -0.415782 -1.024613
-0.944454 -0.611972 -0.103509
-0.605565 -0.415782 -1.024613
-0.564889 -0.773013 -0.808843
-0.751202 -0.828131 -0.161047
-0.944454 -0.611972 -0.103509
-0.564889 -0.773013 -0.808843
0.189090 -1.082509 -0.124531
0.239575 -0.968200 -0.122748
-0.012360 -0.945325 0.440654
-0.056329 -1.094319 0.381119
0.189090 -1.082509 -0.124531
-0.012360 -0.945325 0.440654
-0.473597 -0.903704 0.429665
-0.056329 -1.094319 0.381119
-0.012360 -0.945325 0.440654
-0.473597 -0.903704 0.429665
-0.478348 -1.042493 0.371056
-0.056329 -1.094319 0.381119
-0.473597 -0.903704 0.429665
-0.751202 -0.828131 -0.161047
-0.478348 -1.042493 0.371056
-0.478348 -1.042493 0.371056
-0.751202 -0.828131 -0.161047
-0.729039 -0.967968 -0.179870
-0.751202 -0.828131 -0.161047
-0.564889 -0.773013 -0.808843
-0.729039 -0.967968 -0.179870
-0.729039 -0.967968 -0.179870
-0.564889 -0.773013 -0.808843
-0.572476 -0.962760 -0.784115
-0.564889 -0.773013 -0.808843
0.038744 -1.035309 -0.837058
-0.572476 -0.962760 -0.784115
0.552685 -0.276282 0.825260
0.935722 0.157997 -0.051819
1.030571 0.363672 0.748189
0.378251 -0.196931 0.953834
0.552685 -0.276282 0.825260
1.030571 0.363672 0.748189
0.378251 -0.196931 0.953834
-0.190675 -0.674471 0.867533
0.552685 -0.276282 0.825260
-0.155833 -0.413815 1.069879
-0.190675 -0.674471 0.867533
0.378251 -0.196931 0.953834
-0.507400 -0.066841 1.020586
-0.190675 -0.674471 0.867533
-0.155833 -0.413815 1.069879
0.010904 -0.376953 -1.134953
0.325136 -0.090932 -1.156934
0.289671 -0.394825 -1.201073
0.325136 -0.090932 -1.156934
0.765489 -0.169718 -0.819311
0.289671 -0.394825 -1.201073
0.325136 -0.090932 -1.156934
0.789452 0.298631 -0.794142
0.765489 -0.169718 -0.819311
0.935722 0.157997 -0.051819
0.765489 -0.169718 -0.819311
0.789452 0.298631 -0.794142
0.028440 -0.048753 -1.197634
0.325136 -0.090932 -1.156934
0.010904 -0.376953 -1.134953
0.028440 -0.048753 -1.197634
0.392508 0.410278 -1.157114
0.325136 -0.090932 -1.156934
-0.519695 0.437978 -0.984574
0.392508 0.410278 -1.157114
0.028440 -0.048753 -1.197634
-0.432206 1.005964 -0.905171
0.392508 0.410278 -1.157114
-0.519695 0.437978 -0.984574
-0.956441 0.154123 -0.009113
-0.432206 1.005964 -0.905171
-0.519695 0.437978 -0.984574
-0.986013 0.514426 0.011676
-0.432206 1.005964 -0.905171
-0.956441 0.154123 -0.009113
-0.793110 -0.023539 0.739147
-0.986013 0.514426 0.011676
-0.956441 0.154123 -0.009113
-0.190675 -0.674471 0.867533
-0.012360 -0.945325 0.440654
0.312160 -0.763805 0.848794
-0.190675 -0.674471 0.867533
0.312160 -0.763805 0.848794
0.552685 -0.276282 0.825260
0.552685 -0.276282 0.825260
0.312160 -0.763805 0.848794
0.718493 -0.353288 0.671169
0.552685 -0.276282 0.825260
0.718493 -0.353288 0.671169
0.935722 0.157997 -0.051819
0.718493 -0.353288 0.671169
0.823251 -0.397334 -0.085753
0.935722 0.157997 -0.051819
0.392508 0.410278 -1.157114
0.789452 0.298631 -0.794142
0.325136 -0.090932 -1.156934
0.392508 0.410278 -1.157114
0.974922 0.874605 -0.806633
0.789452 0.298631 -0.794142
-0.012360 -0.945325 0.440654
0.239575 -0.968200 -0.122748
0.512002 -0.877532 -0.109121
0.312160 -0.763805 0.848794
-0.012360 -0.945325 0.440654
0.512002 -0.877532 -0.109121
0.312160 -0.763805 0.848794
0.512002 -0.877532 -0.109121
0.632965 -0.542473 -0.096724
0.312160 -0.763805 0.848794
0.632965 -0.542473 -0.096724
0.823251 -0.397334 -0.085753
-0.057765 0.029719 1.014090
-0.155833 -0.413815 1.069879
0.378251 -0.196931 0.953834
-0.057765 0.029719 1.014090
0.378251 -0.196931 0.953834
0.447870 0.079673 0.952278
0.447870 0.079673 0.952278
0.378251 -0.196931 0.953834
1.030571 0.363672 0.748189
0.478762 0.231375 1.048497
0.447870 0.079673 0.952278
1.030571 0.363672 0.748189
-0.793110 -0.023539 0.739147
-0.956441 0.154123 -0.009113
-0.739786 -0.515815 0.439315
-0.739786 -0.515815 0.439315
-0.956441 0.154123 -0.009113
-1.017972 -0.360215 -0.067548
-1.017972 -0.360215 -0.067548
-0.956441 0.154123 -0.009113
-0.590346 0.018645 -1.102897
-1.017972 -0.360215 -0.067548
-0.590346 0.018645 -1.102897
-0.944454 -0.611972 -0.103509
-0.729039 -0.967968 -0.179870
-0.572476 -0.962760 -0.784115
-0.458261 -0.901259 -0.585157
-0.552665 -0.928221 -0.484924
-0.667865 -0.955632 -0.301756
-0.631765 -0.930469 -0.175395
-0.458261 -0.901259 -0.585157
-0.211944 -0.768627 -0.156084
-0.631765 -0.930469 -0.175395
-0.667865 -0.955632 -0.301756
-0.552665 -0.928221 -0.484924
-0.478348 -1.042493 0.371056
-0.729039 -0.967968 -0.179870
-0.631765 -0.930469 -0.175395
-0.629769 -0.948310 -0.116657
-0.588915 -0.987529 0.058444
-0.498609 -0.969883 0.116698
-0.390033 -0.951704 0.196305
-0.629769 -0.948310 -0.116657
-0.631765 -0.930469 -0.175395
-0.211944 -0.768627 -0.156084
-0.390033 -0.951704 0.196305
-0.498609 -0.969883 0.116698
-0.588915 -0.987529 0.058444
-0.117087 -0.967156 0.171374
-0.056329 -1.094319 0.381119
-0.478348 -1.042493 0.371056
-0.390033 -0.951704 0.196305
-0.282321 -1.031126 0.314061
-0.211944 -0.768627 -0.156084
-0.117087 -0.967156 0.171374
-0.282321 -1.031126 0.314061
-0.390033 -0.951704 0.196305
0.087314 -1.002851 -0.132539
0.189090 -1.082509 -0.124531
-0.056329 -1.094319 0.381119
-0.117087 -0.967156 0.171374
-0.039468 -0.999696 0.104846
0.013250 -1.023569 0.064224
-0.117087 -0.967156 0.171374
-0.211944 -0.768627 -0.156084
0.087314 -1.002851 -0.132539
0.013250 -1.023569 0.064224
-0.039468 -0.999696 0.104846
0.038744 -1.035309 -0.837058
0.189090 -1.082509 -0.124531
0.087314 -1.002851 -0.132539
0.100233 -1.017185 -0.173505
0.108575 -1.035974 -0.294745
0.033449 -0.998979 -0.517463
-0.049666 -0.941258 -0.596900
0.100233 -1.017185 -0.173505
0.087314 -1.002851 -0.132539
-0.211944 -0.768627 -0.156084
-0.049666 -0.941258 -0.596900
0.033449 -0.998979 -0.517463
0.108575 -1.035974 -0.294745
-0.458261 -0.901259 -0.585157
-0.572476 -0.962760 -0.784115
0.038744 -1.035309 -0.837058
-0.049666 -0.941258 -0.596900
-0.087079 -0.953771 -0.640831
-0.261226 -0.996305 -0.801619
-0.404167 -0.929491 -0.650533
-0.404167 -0.929491 -0.650533
-0.261226 -0.996305 -0.801619
-0.087079 -0.953771 -0.640831
-0.049666 -0.941258 -0.596900
-0.211944 -0.768627 -0.156084
-0.458261 -0.901259 -0.585157
0.239575 -0.968200 -0.122748
0.099679 -0.859901 -0.852160
0.425553 -0.821261 -0.607196
0.099679 -0.859901 -0.852160
0.259158 -0.716967 -1.077187
0.425553 -0.821261 -0.607196
0.099679 -0.859901 -0.852160
-0.564889 -0.773013 -0.808843
0.259158 -0.716967 -1.077187
0.675109 -0.501573 -0.769138
0.289671 -0.394825 -1.201073
0.765489 -0.169718 -0.819311
0.823251 -0.397334 -0.085753
0.675109 -0.501573 -0.769138
0.765489 -0.169718 -0.819311
0.823251 -0.397334 -0.085753
0.765489 -0.169718 -0.819311
0.935722 0.157997 -0.051819
-0.590346 0.018645 -1.102897
0.028440 -0.048753 -1.197634
0.010904 -0.376953 -1.134953
-0.519695 0.437978 -0.984574
0.028440 -0.048753 -1.197634
-0.590346 0.018645 -1.102897
-0.956441 0.154123 -0.009113
-0.519695 0.437978 -0.984574
-0.590346 0.018645 -1.102897
-0.432206 1.005964 -0.905171
0.511453 0.936701 -1.123034
0.392508 0.410278 -1.157114
-0.351974 1.034532 1.149179
-0.026722 0.254450 1.173923
0.748206 0.817366 1.237864
-0.351974 1.034532 1.149179
-0.433711 0.461382 0.987605
-0.026722 0.254450 1.173923
-0.433711 0.461382 0.987605
-0.351974 1.034532 1.149179
-0.917416 0.910991 0.044901
-0.564889 -0.773013 -0.808843
0.099679 -0.859901 -0.852160
0.038744 -1.035309 -0.837058
0.239575 -0.968200 -0.122748
0.038744 -1.035309 -0.837058
0.099679 -0.859901 -0.852160
0.512002 -0.877532 -0.109121
0.425553 -0.821261 -0.607196
0.632965 -0.542473 -0.096724
0.239575 -0.968200 -0.122748
0.425553 -0.821261 -0.607196
0.512002 -0.877532 -0.109121
0.312160 -0.763805 0.848794
0.823251 -0.397334 -0.085753
0.718493 -0.353288 0.671169
0.189090 -1.082509 -0.124531
0.038744 -1.035309 -0.837058
0.239575 -0.968200 -0.122748
-0.605565 -0.415782 -1.024613
-0.300233 -0.401128 -1.128574
-0.564889 -0.773013 -0.808843
-0.570438 -0.073112 0.804623
-0.917416 0.910991 0.044901
-0.902448 0.715582 0.028359
-0.739786 -0.515815 0.439315
-1.017972 -0.360215 -0.067548
-0.944454 -0.611972 -0.103509
-0.026722 0.254450 1.173923
0.478762 0.231375 1.048497
0.748206 0.817366 1.237864
-0.026722 0.254450 1.173923
-0.057765 0.029719 1.014090
0.478762 0.231375 1.048497
-0.433711 0.461382 0.987605
-0.057765 0.029719 1.014090
-0.026722 0.254450 1.173923
-0.433711 0.461382 0.987605
-0.486092 0.294518 0.876491
-0.057765 0.029719 1.014090
-0.057765 0.029719 1.014090
0.447870 0.079673 0.952278
0.478762 0.231375 1.048497
0.511453 0.936701 -1.123034
0.974922 0.874605 -0.806633
0.392508 0.410278 -1.157114
0.935722 0.157997 -0.051819
0.789452 0.298631 -0.794142
0.974922 0.874605 -0.806633
-0.486092 0.294518 0.876491
-0.507400 -0.066841 1.020586
-0.057765 0.029719 1.014090
-0.507400 -0.066841 1.020586
-0.155833 -0.413815 1.069879
-0.057765 0.029719 1.014090
-0.255548 -0.749566 -0.783326
0.069545 -0.758855 -0.426652
0.033449 -0.998979 -0.517463
-0.049666 -0.941258 -0.596900
-0.087079 -0.953771 -0.640831
0.033449 -0.998979 -0.517463
0.020621 -1.084315 -0.549736
-0.087079 -0.953771 -0.640831
-0.049666 -0.941258 -0.596900
0.108575 -1.035974 -0.294745
0.033449 -0.998979 -0.517463
0.069545 -0.758855 -0.426652
0.118982 -1.109866 -0.259572
0.020621 -1.084315 -0.549736
0.033449 -0.998979 -0.517463
0.108575 -1.035974 -0.294745
0.069545 -0.758855 -0.426652
0.049165 -0.764746 0.060916
0.100233 -1.017185 -0.173505
0.108575 -1.035974 -0.294745
0.118982 -1.109866 -0.259572
0.108575 -1.035974 -0.294745
0.100233 -1.017185 -0.173505
0.087314 -1.002851 -0.132539
0.100233 -1.017185 -0.173505
0.049165 -0.764746 0.060916
0.013250 -1.023569 0.064224
0.013250 -1.023569 0.064224
0.007742 -1.063264 0.064731
0.118982 -1.109866 -0.259572
0.100233 -1.017185 -0.173505
0.087314 -1.002851 -0.132539
0.013250 -1.023569 0.064224
0.049165 -0.764746 0.060916
-0.218359 -0.758819 0.256853
-0.039468 -0.999696 0.104846
0.007742 -1.063264 0.064731
0.013250 -1.023569 0.064224
-0.039468 -0.999696 0.104846
-0.117087 -0.967156 0.171374
-0.039468 -0.999696 0.104846
-0.218359 -0.758819 0.256853
-0.282321 -1.031126 0.314061
-0.282321 -1.031126 0.314061
-0.289479 -1.061600 0.320463
0.007742 -1.063264 0.064731
-0.039468 -0.999696 0.104846
-0.117087 -0.967156 0.171374
-0.282321 -1.031126 0.314061
-0.218359 -0.758819 0.256853
-0.498609 -0.969883 0.116698
-0.390033 -0.951704 0.196305
-0.498609 -0.969883 0.116698
-0.615426 -1.057862 0.058277
-0.289479 -1.061600 0.320463
-0.282321 -1.031126 0.314061
-0.390033 -0.951704 0.196305
-0.300356 -1.132087 0.596033
-0.289479 -1.061600 0.320463
-0.615426 -1.057862 0.058277
-0.836135 -1.608256 0.874692
-0.687119 -1.354607 0.909645
-0.924660 -1.458078 0.450830
-0.836135 -1.608256 0.874692
-0.924660 -1.458078 0.450830
-0.976111 -1.611581 0.459193
-0.504090 -0.762492 0.058979
-0.588915 -0.987529 0.058444
-0.498609 -0.969883 0.116698
-0.218359 -0.758819 0.256853
-0.588915 -0.987529 0.058444
-0.615426 -1.057862 0.058277
-0.498609 -0.969883 0.116698
-0.588915 -0.987529 0.058444
-0.504090 -0.762492 0.058979
-0.629769 -0.948310 -0.116657
-0.615426 -1.057862 0.058277
-0.588915 -0.987529 0.058444
-0.629769 -0.948310 -0.116657
-0.715034 -1.074375 -0.235814
-0.631765 -0.930469 -0.175395
-0.629769 -0.948310 -0.116657
-0.504090 -0.762492 0.058979
-0.587206 -0.752579 -0.414517
-0.667865 -0.955632 -0.301756
-0.715034 -1.074375 -0.235814
-0.629769 -0.948310 -0.116657
-0.631765 -0.930469 -0.175395
-0.667865 -0.955632 -0.301756
-0.667865 -0.955632 -0.301756
-0.587206 -0.752579 -0.414517
-0.552665 -0.928221 -0.484924
-0.552665 -0.928221 -0.484924
-0.523908 -1.074455 -0.543543
-0.715034 -1.074375 -0.235814
-0.667865 -0.955632 -0.301756
-0.458261 -0.901259 -0.585157
-0.552665 -0.928221 -0.484924
-0.587206 -0.752579 -0.414517
-0.255548 -0.749566 -0.783326
-0.404167 -0.929491 -0.650533
-0.523908 -1.074455 -0.543543
-0.552665 -0.928221 -0.484924
-0.458261 -0.901259 -0.585157
-0.404167 -0.929491 -0.650533
-0.404167 -0.929491 -0.650533
-0.255548 -0.749566 -0.783326
-0.261226 -0.996305 -0.801619
-0.261226 -0.996305 -0.801619
-0.262904 -1.069215 -0.807024
-0.523908 -1.074455 -0.543543
-0.404167 -0.929491 -0.650533
-0.087079 -0.953771 -0.640831
-0.261226 -0.996305 -0.801619
-0.255548 -0.749566 -0.783326
0.020621 -1.084315 -0.549736
-0.262904 -1.069215 -0.807024
-0.261226 -0.996305 -0.801619
-0.087079 -0.953771 -0.640831
-0.262904 -1.069215 -0.807024
0.020621 -1.084315 -0.549736
-0.271368 -1.263829 -0.870743
-0.271368 -1.263829 -0.870743
0.020621 -1.084315 -0.549736
0.016326 -1.610231 -0.707076
-0.271368 -1.263829 -0.870743
0.016326 -1.610231 -0.707076
-0.290193 -1.598446 -0.888312
-0.976111 -1.611581 0.459193
-0.837269 -1.614241 -0.267244
0.259988 -1.602525 0.367020
-0.836135 -1.608256 0.874692
-0.976111 -1.611581 0.459193
0.259988 -1.602525 0.367020
0.159545 -1.600764 0.835961
-0.836135 -1.608256 0.874692
0.259988 -1.602525 0.367020
-0.529569 -1.582603 1.388266
-0.836135 -1.608256 0.874692
0.159545 -1.600764 0.835961
-0.118717 -1.585655 1.364214
-0.529569 -1.582603 1.388266
0.159545 -1.600764 0.835961
-0.311208 -1.564085 1.456397
-0.529569 -1.582603 1.388266
-0.118717 -1.585655 1.364214
0.025494 -1.355014 0.895849
0.057115 -1.271455 0.564467
-0.300356 -1.132087 0.596033
0.025494 -1.355014 0.895849
0.251826 -1.453738 0.370817
0.057115 -1.271455 0.564467
0.159545 -1.600764 0.835961
0.251826 -1.453738 0.370817
0.025494 -1.355014 0.895849
0.159545 -1.600764 0.835961
0.259988 -1.602525 0.367020
0.251826 -1.453738 0.370817
-0.311208 -1.564085 1.456397
-0.118717 -1.585655 1.364214
-0.103282 -1.463020 1.310155
-0.309188 -1.451980 1.404514
-0.311208 -1.564085 1.456397
-0.103282 -1.463020 1.310155
-0.309188 -1.451980 1.404514
-0.103282 -1.463020 1.310155
-0.303934 -1.271278 0.964008
-0.309188 -1.451980 1.404514
-0.303934 -1.271278 0.964008
-0.537024 -1.452836 1.339758
-0.537024 -1.452836 1.339758
-0.303934 -1.271278 0.964008
-0.687119 -1.354607 0.909645
-0.537024 -1.452836 1.339758
-0.687119 -1.354607 0.909645
-0.836135 -1.608256 0.874692
-0.837269 -1.614241 -0.267244
-0.523908 -1.074455 -0.543543
-0.605021 -1.614596 -0.649905
-0.837269 -1.614241 -0.267244
-0.715034 -1.074375 -0.235814
-0.523908 -1.074455 -0.543543
-0.924660 -1.458078 0.450830
-0.715034 -1.074375 -0.235814
-0.837269 -1.614241 -0.267244
-0.924660 -1.458078 0.450830
-0.615426 -1.057862 0.058277
-0.715034 -1.074375 -0.235814
-0.523908 -1.074455 -0.543543
-0.262904 -1.069215 -0.807024
-0.271368 -1.263829 -0.870743
-0.605021 -1.614596 -0.649905
-0.523908 -1.074455 -0.543543
-0.271368 -1.263829 -0.870743
-0.605021 -1.614596 -0.649905
-0.271368 -1.263829 -0.870743
-0.290193 -1.598446 -0.888312
0.057115 -1.271455 0.564467
0.251826 -1.453738 0.370817
0.007742 -1.063264 0.064731
0.251826 -1.453738 0.370817
0.118982 -1.109866 -0.259572
0.007742 -1.063264 0.064731
0.251826 -1.453738 0.370817
0.159106 -1.606765 -0.269491
0.118982 -1.109866 -0.259572
-0.537024 -1.452836 1.339758
-0.311208 -1.564085 1.456397
-0.309188 -1.451980 1.404514
-0.537024 -1.452836 1.339758
-0.529569 -1.582603 1.388266
-0.311208 -1.564085 1.456397
-0.529569 -1.582603 1.388266
-0.537024 -1.452836 1.339758
-0.836135 -1.608256 0.874692
-0.605021 -1.614596 -0.649905
-0.290193 -1.598446 -0.888312
0.016326 -1.610231 -0.707076
-0.605021 -1.614596 -0.649905
0.016326 -1.610231 -0.707076
0.159106 -1.606765 -0.269491
-0.837269 -1.614241 -0.267244
-0.605021 -1.614596 -0.649905
0.159106 -1.606765 -0.269491
-0.837269 -1.614241 -0.267244
0.159106 -1.606765 -0.269491
0.259988 -1.602525 0.367020
0.159106 -1.606765 -0.269491
0.016326 -1.610231 -0.707076
0.020621 -1.084315 -0.549736
0.118982 -1.109866 -0.259572
0.159106 -1.606765 -0.269491
0.020621 -1.084315 -0.549736
-0.118717 -1.585655 1.364214
0.159545 -1.600764 0.835961
-0.103282 -1.463020 1.310155
-0.103282 -1.463020 1.310155
0.159545 -1.600764 0.835961
0.025494 -1.355014 0.895849
-0.103282 -1.463020 1.310155
0.025494 -1.355014 0.895849
-0.303934 -1.271278 0.964008
-0.303934 -1.271278 0.964008
0.025494 -1.355014 0.895849
-0.300356 -1.132087 0.596033
0.259988 -1.602525 0.367020
0.159106 -1.606765 -0.269491
0.251826 -1.453738 0.370817
-0.976111 -1.611581 0.459193
-0.924660 -1.458078 0.450830
-0.837269 -1.614241 -0.267244
-0.303934 -1.271278 0.964008
-0.300356 -1.132087 0.596033
-0.687119 -1.354607 0.909645
-0.691514 -1.238200 0.524026
-0.615426 -1.057862 0.058277
-0.924660 -1.458078 0.450830
-0.300356 -1.132087 0.596033
0.057115 -1.271455 0.564467
0.007742 -1.063264 0.064731
-0.300356 -1.132087 0.596033
0.007742 -1.063264 0.064731
-0.289479 -1.061600 0.320463
-0.687119 -1.354607 0.909645
-0.300356 -1.132087 0.596033
-0.691514 -1.238200 0.524026
-0.691514 -1.238200 0.524026
-0.300356 -1.132087 0.596033
-0.615426 -1.057862 0.058277
1.020589 1.003518 -0.913950
0.859073 1.022202 -1.021181
0.483541 1.065767 -1.150386
0.126466 1.107417 -1.053114
-0.419010 1.171016 -0.930316
-0.585873 1.190769 -0.603364
-0.864670 1.223885 0.053038
-0.495449 1.181703 0.812781
-0.331666 1.162999 1.157542
0.053432 1.118252 1.219482
0.812204 1.030038 1.294791
0.967224 1.011782 1.083824
1.093742 0.996915 0.942285
1.154281 0.988955 0.052200
1.147094 0.989647 -0.087706
1.077704 0.997350 -0.449386
1.093742 0.996915 0.942285
0.967224 1.011782 1.083824
0.748206 0.817366 1.237864
1.030571 0.363672 0.748189
-0.419010 1.171016 -0.930316
-0.432206 1.005964 -0.905171
-0.917416 0.910991 0.044901
-0.585873 1.190769 -0.603364
-0.917416 0.910991 0.044901
-0.864670 1.223885 0.053038
-0.585873 1.190769 -0.603364
1.030571 0.363672 0.748189
0.935722 0.157997 -0.051819
1.147094 0.989647 -0.087706
1.154281 0.988955 0.052200
-0.864670 1.223885 0.053038
-0.917416 0.910991 0.044901
-0.351974 1.034532 1.149179
-0.495449 1.181703 0.812781
-0.331666 1.162999 1.157542
-0.495449 1.181703 0.812781
-0.351974 1.034532 1.149179
-0.331666 1.162999 1.157542
-0.351974 1.034532 1.149179
0.053432 1.118252 1.219482
0.748206 0.817366 1.237864
0.967224 1.011782 1.083824
0.812204 1.030038 1.294791
0.053432 1.118252 1.219482
-0.351974 1.034532 1.149179
0.748206 0.817366 1.237864
0.812204 1.030038 1.294791
1.030571 0.363672 0.748189
1.154281 0.988955 0.052200
1.093742 0.996915 0.942285
0.511453 0.936701 -1.123034
-0.432206 1.005964 -0.905171
-0.419010 1.171016 -0.930316
0.126466 1.107417 -1.053114
0.511453 0.936701 -1.123034
0.126466 1.107417 -1.053114
0.483541 1.065767 -1.150386
0.511453 0.936701 -1.123034
0.483541 1.065767 -1.150386
0.859073 1.022202 -1.021181
1.020589 1.003518 -0.913950
0.974922 0.874605 -0.806633
0.511453 0.936701 -1.123034
0.859073 1.022202 -1.021181
1.077704 0.997350 -0.449386
0.974922 0.874605 -0.806633
1.020589 1.003518 -0.913950
1.077704 0.997350 -0.449386
1.147094 0.989647 -0.087706
0.935722 0.157997 -0.051819
0.974922 0.874605 -0.806633
3 0 1 2
3 3 4 5
3 6 7 8
3 9 10 11
3 12 13 14
3 15 16 17
3 18 19 20
3 21 22 23
3 24 25 26
3 27 28 29
3 30 31 32
3 33 34 35
3 36 37 38
3 39 40 41
3 42 43 44
3 45 46 47
3 48 49 50
3 51 52 53
3 54 55 56
3 57 58 59
3 60 61 62
3 63 64 65
3 66 67 68
3 69 70 71
3 72 73 74
3 75 76 77
3 78 79 80
3 81 82 83
3 84 85 86
3 87 88 89
3 90 91 92
3 93 94 95
3 96 97 98
3 99 100 101
3 102 103 104
3 105 106 107
3 108 109 110
3 111 112 113
3 114 115 116
3 117 118 119
3 120 121 122
3 123 124 125
3 126 127 128
3 129 130 131
3 132 133 134
3 135 136 137
3 138 139 140
3 141 142 143
3 144 145 146
3 147 148 149
3 150 151 152
3 153 154 155
3 156 157 158
3 159 160 161
3 162 163 164
3 165 166 167
3 168 169 170
3 171 172 173
3 174 175 176
3 177 178 179
3 180 181 182
3 183 184 185
3 186 187 188
3 189 190 191
3 192 193 194
3 195 196 197
3 198 199 200
3 201 202 203
3 204 205 206
3 207 208 209
3 210 211 212
3 213 214 215
3 216 217 218
3 219 220 221
3 222 223 224
3 222 224 225
3 222 225 226
3 222 226 227
3 228 229 230
3 228 230 231
3 228 231 232
3 233 234 235
3 233 235 236
3 233 236 237
3 233 237 238
3 233 238 239
3 240 241 242
3 240 242 243
3 240 243 244
3 240 244 245
3 246 247 248
3 246 248 249
3 246 249 250
3 251 252 253
3 251 253 254
3 255 256 257
3 255 257 258
3 255 258 259
3 255 259 260
3 261 262 263
3 261 263 264
3 261 264 265
3 266 267 268
3 266 268 269
3 266 269 270
3 266 270 271
3 266 271 272
3 273 274 275
3 273 275 276
3 273 276 277
3 273 277 278
3 279 280 281
3 279 281 282
3 279 282 283
3 279 283 284
3 279 284 285
3 286 287 288
3 286 288 289
3 286 289 290
3 286 290 291
3 292 293 294
3 295 296 297
3 298 299 300
3 301 302 303
3 304 305 306
3 307 308 309
3 310 311 312
3 313 314 315
3 316 317 318
3 319 320 321
3 322 323 324
3 325 326 327
3 328 329 330
3 331 332 333
3 334 335 336
3 337 338 339
3 340 341 342
3 343 344 345
3 346 347 348
3 349 350 351
3 352 353 354
3 355 356 357
3 358 359 360
3 361 362 363
3 364 365 366
3 367 368 369
3 370 371 372
3 373 374 375
3 376 377 378
3 379 380 381
3 382 383 384
3 385 386 387
3 385 387 388
3 385 388 389
3 390 391 392
3 390 392 393
3 394 395 396
3 397 398 399
3 397 399 400
3 401 402 403
3 401 403 404
3 405 406 407
3 408 409 410
3 408 410 411
3 412 413 414
3 412 414 415
3 412 415 416
3 417 418 419
3 417 419 420
3 421 422 423
3 424 425 426
3 424 426 427
3 428 429 430
3 428 430 431
3 428 431 432
3 433 434 435
3 433 435 436
3 437 438 439
3 437 439 440
3 437 440 441
3 442 443 444
3 445 446 447
3 448 449 450
3 451 452 453
3 451 453 454
3 455 456 457
3 458 459 460
3 461 462 463
3 461 463 464
3 465 466 467
3 465 467 468
3 465 468 469
3 470 471 472
3 470 472 473
3 474 475 476
3 477 478 479
3 477 479 480
3 481 482 483
3 481 483 484
3 481 484 485
3 486 487 488
3 486 488 489
3 490 491 492
3 493 494 495
3 493 495 496
3 497 498 499
3 500 501 502
3 500 502 503
3 504 505 506
3 507 508 509
3 510 511 512
3 513 514 515
3 516 517 518
3 519 520 521
3 522 523 524
3 525 526 527
3 528 529 530
3 531 532 533
3 534 535 536
3 537 538 539
3 540 541 542
3 543 544 545
3 546 547 548
3 549 550 551
3 552 553 554
3 555 556 557
3 558 559 560
3 561 562 563
3 564 565 566
3 567 568 569
3 570 571 572
3 573 574 575
3 576 577 578
3 579 580 581
3 582 583 584
3 585 586 587
3 588 589 590
3 591 592 593
3 594 595 596
3 597 598 599
3 600 601 602
3 603 604 605
3 606 607 608
3 609 610 611
3 612 613 614
3 615 616 617
3 618 619 620
3 621 622 623
3 624 625 626
3 627 628 629
3 630 631 632
3 633 634 635
3 636 637 638
3 639 640 641
3 642 643 644
3 645 646 647
3 648 649 650
3 651 652 653
3 654 655 656
3 654 656 657
3 654 657 658
3 654 658 659
3 654 659 660
3 654 660 661
3 654 661 662
3 654 662 663
3 654 663 664
3 654 664 665
3 654 665 666
3 654 666 667
3 654 667 668
3 654 668 669
3 670 671 672
3 670 672 673
3 674 675 676
3 674 676 677
3 678 679 680
3 681 682 683
3 681 683 684
3 685 686 687
3 685 687 688
3 689 690 691
3 692 693 694
3 695 696 697
3 698 699 700
3 698 700 701
3 702 703 704
3 705 706 707
3 705 707 708
3 709 710 711
3 712 713 714
3 715 716 717
3 715 717 718
3 719 720 721
3 722 723 724
3 722 724 725
