ply
format ascii 1.0
comment Created by Blender 2.91.0 - www.blender.org
element vertex 254
property float x
property float y
property float z
element face 502
property list uchar uint vertex_indices
end_header
-0.733587 -0.434307 0.016102
-0.422628 -0.315833 -0.317120
-0.432195 -0.396019 0.018573
-0.014390 -0.445804 0.028463
0.038388 -0.352058 0.023043
0.037718 -0.348576 0.170012
1.046812 -0.424084 0.518673
1.025962 -0.285584 0.520265
1.046232 -0.336637 0.537955
0.647239 -0.195757 0.454312
0.529664 -0.154722 0.556657
0.744093 -0.246569 0.618390
0.730065 -0.481952 0.415482
0.829918 -0.550173 0.454866
0.716349 -0.540289 0.502581
0.635541 -0.078931 0.419701
0.700923 -0.068369 0.200505
0.705498 -0.030209 0.377825
1.005075 -0.596418 -0.223995
0.924799 -0.474314 -0.313898
1.001992 -0.537568 -0.290468
0.988685 -0.531973 -0.113046
1.062947 -0.194411 -0.090704
0.929623 -0.455307 -0.090523
0.935004 -0.543065 -0.441235
0.869849 -0.444004 -0.505345
0.932494 -0.495332 -0.488645
0.947866 -0.105987 -0.516529
1.067816 -0.227815 -0.501702
0.960598 -0.223220 -0.517349
1.068451 -0.215425 -0.372922
0.946994 -0.091987 -0.340640
0.981722 -0.225887 -0.346044
1.092929 -0.165068 -0.065929
1.017773 -0.500878 -0.033188
0.948170 -0.424787 -0.059064
0.770561 0.357323 0.185808
0.464339 0.353596 0.260623
0.794534 0.373712 0.284450
0.933061 -0.410681 0.193067
0.899900 -0.273821 0.250563
0.963964 -0.143506 0.223292
1.051677 -0.135189 0.414343
1.036360 0.009321 0.414367
0.964255 -0.127980 0.383008
-1.050663 -0.159384 0.337339
-1.061904 -0.120940 0.333481
-1.092211 -0.041663 0.331745
-1.204961 0.240997 0.358068
-1.205607 0.286275 0.241559
-1.219206 0.431436 -0.052050
-1.180523 0.380901 -0.185175
-1.115358 0.302190 -0.426594
-1.074067 0.210688 -0.468337
-0.989502 0.016757 -0.536360
-0.921351 -0.216323 -0.385992
-0.917009 -0.229703 -0.380341
-0.896895 -0.292168 -0.352865
-0.900756 -0.310702 -0.276574
-0.906320 -0.400418 0.001720
-0.955476 -0.314700 0.113435
-0.764936 -0.327555 -0.363285
-0.420048 0.010658 -0.513829
-0.795367 0.012347 -0.529825
-0.419194 0.322776 -0.406477
-0.799607 0.287570 -0.411539
-0.783876 0.427064 -0.059839
-0.892446 0.287156 -0.408977
-1.001893 0.405424 -0.049724
-0.024064 -0.390679 -0.334792
0.042787 -0.267512 -0.321570
-0.020923 0.007327 -0.546593
0.049273 0.004270 -0.463555
-0.018252 0.360905 -0.424828
0.055244 0.299918 -0.363679
-0.017523 0.472032 -0.039977
0.053809 0.402074 -0.037337
-0.019140 0.281006 0.450597
0.054014 0.241673 0.385874
-0.023376 -0.270744 0.484142
0.038263 -0.199873 0.419296
-0.077857 -0.370754 -0.318119
-0.074773 0.007674 -0.518717
-0.072189 0.336911 -0.404860
-0.071483 0.440005 -0.044704
-0.073063 0.260011 0.420473
-0.077142 -0.250413 0.448693
-0.078396 -0.415091 0.022240
-0.419167 0.322884 -0.405425
-0.337183 0.013111 -0.592600
-0.340485 -0.408211 -0.355003
-0.341100 -0.472684 0.029779
-0.339666 -0.265667 0.508790
-0.420192 -0.197980 0.421593
-0.335514 0.276841 0.493629
-0.415323 0.234909 0.416021
-0.333736 0.485463 -0.060594
-0.409750 0.417870 -0.063536
-0.334460 0.374327 -0.465176
-0.259267 -0.376231 -0.328891
-0.259860 -0.436706 0.022978
-0.258495 -0.247667 0.461798
-0.254456 0.257840 0.443359
-0.252784 0.447195 -0.055674
-0.253490 0.344095 -0.426322
-0.256111 0.010800 -0.543196
-0.737673 0.232666 0.395943
-1.085314 0.223149 0.342473
-0.846594 0.011070 -0.517099
-0.749979 -0.173612 0.406693
0.974282 -0.380316 0.432178
0.949194 -0.247364 0.498351
0.843492 -0.260569 0.459460
0.842131 -0.232544 0.546320
0.760703 -0.246179 0.511818
0.619379 -0.179455 0.430754
0.828715 -0.475853 0.373230
0.953917 -0.529997 0.418427
0.999377 -0.509597 0.496652
0.738550 -0.531091 0.613785
0.490170 -0.514161 0.548985
0.508868 -0.531124 0.436262
0.738554 -0.306014 0.712950
0.485399 -0.260755 0.671299
0.545625 -0.458574 0.339182
0.576115 -0.467954 0.358639
0.445802 -0.249995 0.671486
0.449457 -0.508536 0.528421
0.093844 -0.194135 0.424257
0.100723 -0.352319 0.169146
0.117049 0.243432 0.387009
0.119413 0.404507 -0.028319
0.530521 -0.194520 0.203165
0.708328 -0.075940 0.126192
0.368706 -0.279400 0.008143
0.708597 -0.107779 -0.039074
0.702337 -0.124967 -0.113628
0.207390 -0.435258 0.377839
0.281669 -0.468534 0.443836
0.305621 -0.213613 0.602419
0.114261 -0.326036 0.014261
0.416845 -0.427384 0.232259
0.398392 0.009220 0.520049
0.458741 0.291262 0.403693
0.646064 0.161635 0.436986
0.113234 -0.257934 -0.333945
0.114257 0.008051 -0.468767
0.124739 0.300531 -0.368821
0.688617 -0.127274 -0.296165
0.684153 -0.154282 -0.354780
0.455111 -0.243841 -0.442794
0.347864 -0.274200 -0.429856
0.252085 -0.271165 -0.411261
0.911801 -0.515612 -0.198412
0.889104 -0.320299 -0.252325
0.885820 -0.321261 -0.145661
0.759359 -0.125439 -0.115586
0.746734 -0.122645 -0.299423
0.791553 0.106498 -0.086718
1.169713 -0.185294 -0.128392
1.020159 -0.029417 -0.083194
1.092961 0.100938 -0.131333
0.807915 0.298975 -0.129576
1.004084 -0.588808 -0.165976
0.949100 -0.189447 -0.132089
1.203435 -0.194440 -0.219792
1.109093 0.119226 -0.219754
0.823639 0.295325 -0.228981
1.168937 -0.200487 -0.308890
1.091362 0.065907 -0.310159
0.787363 0.242756 -0.319205
0.763939 0.034150 -0.341488
1.036931 -0.191028 -0.330803
0.949466 -0.182103 -0.292295
1.021235 -0.046571 -0.329715
0.859306 -0.477486 -0.422963
0.840632 -0.328104 -0.461396
0.841953 -0.334477 -0.385313
0.730115 -0.146831 -0.354915
0.725635 -0.154106 -0.472083
1.004774 -0.014698 -0.502542
1.019169 0.028603 -0.438027
0.766927 0.137466 -0.508910
0.792236 0.195387 -0.441582
1.006075 0.013793 -0.374947
0.779586 0.201833 -0.373552
1.094131 -0.222837 -0.438132
0.934200 -0.536876 -0.399840
0.873770 -0.428505 -0.345969
0.893145 -0.215609 -0.372863
0.889871 -0.209738 -0.484023
0.715905 -0.018928 -0.524870
0.921705 -0.490739 -0.362061
1.195059 -0.154631 -0.041018
1.032994 -0.554990 0.022130
1.237257 -0.159363 0.055228
1.033934 -0.559629 0.080410
1.202406 -0.161053 0.137847
1.030965 -0.497438 0.144296
1.066793 -0.149281 0.157588
0.957753 -0.446511 0.165537
0.979078 -0.157609 -0.028840
0.915014 -0.287924 -0.001564
0.940892 -0.479917 0.051294
0.918243 -0.281519 0.104941
1.051471 -0.004787 0.162316
0.979372 -0.142085 0.130881
1.050575 -0.000516 -0.074567
1.123686 0.131958 -0.041826
1.139825 0.154688 0.045737
1.121903 0.106112 0.138301
0.784295 0.171307 0.160034
0.759944 -0.094794 -0.041886
0.809773 0.322538 -0.060526
0.836911 0.366788 0.035428
0.799193 0.351898 0.131042
0.763659 -0.062751 0.127491
0.471551 0.407116 0.011583
0.472022 0.364421 -0.235149
0.471628 0.298437 -0.411569
0.457805 0.212350 -0.491288
0.744493 0.159875 -0.508668
0.378698 0.003886 -0.533069
0.925777 -0.465817 0.303426
0.903127 -0.267413 0.357068
0.942639 -0.432381 0.409986
1.077812 -0.150951 0.182296
1.002656 -0.486771 0.218944
1.179945 -0.140526 0.211109
1.017873 -0.540885 0.274261
1.222141 -0.145262 0.307356
1.018818 -0.545523 0.332537
1.187289 -0.146944 0.389975
1.015848 -0.483331 0.396427
1.035460 0.013601 0.173524
1.108571 0.146059 0.210304
1.124708 0.168795 0.297867
1.106786 0.120218 0.390427
0.743519 0.165854 0.415102
0.826950 0.362838 0.286275
0.795114 0.347781 0.185112
0.761525 0.307155 0.381721
0.785115 0.303623 0.382990
0.774569 -0.067559 0.208006
0.752479 0.260511 -0.319158
0.782530 0.313287 -0.228942
0.772952 0.314676 -0.129542
0.749693 0.222723 -0.378621
0.763547 0.216526 -0.441311
0.775248 0.335044 -0.060499
0.802547 0.378280 0.034260
0.772001 0.360720 0.129819
0.677863 -0.147738 -0.469458
0.774692 -0.035381 0.378835
3 0 1 2
3 3 4 5
3 6 7 8
3 9 10 11
3 12 13 14
3 15 16 17
3 18 19 20
3 21 22 23
3 24 25 26
3 27 28 29
3 30 31 32
3 33 34 35
3 36 37 38
3 39 40 41
3 42 43 44
3 45 46 47
3 45 47 48
3 45 48 49
3 45 49 50
3 45 50 51
3 45 51 52
3 45 52 53
3 45 53 54
3 45 54 55
3 45 55 56
3 45 56 57
3 45 57 58
3 45 58 59
3 45 59 60
3 0 61 1
3 62 1 61
3 62 61 63
3 64 62 63
3 64 63 65
3 66 64 65
3 66 65 67
3 66 67 68
3 3 69 4
3 4 69 70
3 70 69 71
3 72 70 71
3 72 71 73
3 74 72 73
3 74 73 75
3 76 74 75
3 76 75 77
3 78 76 77
3 77 79 78
3 79 80 78
3 79 5 80
3 3 81 69
3 82 69 81
3 71 69 82
3 83 71 82
3 73 71 83
3 84 73 83
3 75 73 84
3 75 84 85
3 77 75 85
3 85 86 77
3 77 86 79
3 86 87 79
3 62 88 89
3 89 90 62
3 1 62 90
3 91 1 90
3 91 2 1
3 92 2 91
3 92 93 2
3 92 94 93
3 93 94 95
3 94 96 95
3 96 97 95
3 96 98 97
3 89 99 90
3 100 90 99
3 100 91 90
3 101 91 100
3 92 91 101
3 102 92 101
3 94 92 102
3 102 103 94
3 103 96 94
3 103 104 96
3 96 104 98
3 104 105 98
3 5 79 3
3 79 87 3
3 3 87 81
3 87 99 81
3 105 81 99
3 105 99 89
3 98 105 89
3 98 89 88
3 97 98 88
3 106 66 68
3 106 68 107
3 65 63 67
3 63 108 67
3 97 64 66
3 106 97 66
3 95 97 106
3 106 109 95
3 95 109 93
3 93 109 2
3 104 83 105
3 103 83 104
3 84 83 103
3 85 84 103
3 85 103 102
3 102 101 85
3 85 101 86
3 86 101 87
3 2 109 0
3 82 81 105
3 83 82 105
3 87 100 99
3 101 100 87
3 6 110 7
3 7 110 111
3 111 110 112
3 111 112 113
3 113 112 114
3 9 115 10
3 13 12 116
3 13 116 117
3 110 117 116
3 118 13 117
3 118 119 13
3 14 120 121
3 7 111 113
3 7 113 122
3 7 122 8
3 8 122 6
3 112 110 116
3 112 116 12
3 122 10 123
3 122 123 119
3 115 9 124
3 9 125 124
3 125 121 124
3 118 117 6
3 6 117 110
3 10 126 123
3 123 126 120
3 120 127 121
3 120 126 127
3 9 12 125
3 119 123 120
3 128 80 129
3 130 80 128
3 78 80 130
3 130 131 78
3 78 131 76
3 131 74 76
3 15 132 16
3 16 132 133
3 132 134 133
3 133 134 135
3 135 134 136
3 137 128 129
3 138 128 137
3 139 128 138
3 139 138 127
3 126 139 127
3 134 129 140
3 141 129 134
3 127 138 121
3 121 138 141
3 121 141 124
3 115 124 141
3 130 128 139
3 142 130 139
3 143 130 142
3 143 142 144
3 145 4 70
3 140 4 145
3 129 4 140
3 115 141 15
3 10 115 15
3 72 145 70
3 146 145 72
3 129 5 4
3 80 5 129
3 131 147 74
3 74 147 72
3 136 134 148
3 148 134 149
3 149 134 150
3 134 151 150
3 134 152 151
3 134 140 152
3 144 142 10
3 10 142 126
3 147 146 72
3 142 139 126
3 153 19 18
3 153 154 19
3 155 154 153
3 156 136 157
3 158 136 156
3 22 21 159
3 159 160 22
3 161 160 159
3 161 158 160
3 162 158 161
3 163 153 18
3 163 23 153
3 23 155 153
3 164 155 23
3 159 165 161
3 161 165 166
3 161 166 162
3 166 167 162
3 165 168 166
3 168 169 166
3 166 169 170
3 170 169 171
3 172 20 19
3 172 168 20
3 18 20 168
3 160 158 164
3 154 173 19
3 173 172 19
3 174 172 173
3 174 173 171
3 21 163 159
3 163 165 159
3 163 18 165
3 18 168 165
3 168 172 174
3 169 168 174
3 21 23 163
3 169 174 171
3 167 166 170
3 158 156 164
3 175 25 24
3 175 176 25
3 177 176 175
3 178 149 179
3 171 149 178
3 180 28 27
3 28 180 181
3 181 180 182
3 183 181 182
3 184 31 30
3 184 171 31
3 185 171 184
3 30 186 184
3 184 186 181
3 184 181 185
3 181 183 185
3 187 175 24
3 187 188 175
3 188 177 175
3 189 177 188
3 29 26 25
3 29 28 26
3 24 26 28
3 31 171 189
3 190 25 176
3 190 29 25
3 27 29 190
3 27 190 191
3 32 188 192
3 32 192 30
3 192 187 30
3 187 186 30
3 187 24 186
3 24 28 186
3 182 180 191
3 180 27 191
3 186 28 181
3 192 188 187
3 171 178 189
3 33 193 34
3 194 34 193
3 195 194 193
3 196 194 195
3 197 196 195
3 198 196 197
3 199 198 197
3 199 200 198
3 201 35 202
3 203 202 35
3 203 204 202
3 200 204 203
3 205 206 199
3 193 33 207
3 208 193 207
3 195 193 208
3 195 208 209
3 197 195 209
3 210 197 209
3 210 205 197
3 210 211 205
3 158 201 212
3 158 212 135
3 198 200 196
3 196 200 203
3 196 203 194
3 203 35 194
3 194 35 34
3 208 207 158
3 213 208 158
3 209 208 213
3 214 209 213
3 209 214 215
3 212 133 135
3 216 133 212
3 211 133 216
3 215 211 210
3 210 209 215
3 204 206 202
3 202 206 201
3 197 205 199
3 207 201 158
3 36 217 37
3 37 217 131
3 217 218 131
3 218 147 131
3 218 219 147
3 219 220 147
3 219 221 220
3 220 221 222
3 221 191 222
3 223 40 39
3 223 224 40
3 225 224 223
3 226 227 39
3 226 228 227
3 229 227 228
3 230 229 228
3 231 229 230
3 232 231 230
3 233 231 232
3 42 233 232
3 42 225 233
3 228 226 234
3 235 228 234
3 230 228 235
3 230 235 236
3 232 230 236
3 237 232 236
3 237 43 232
3 237 238 43
3 239 240 36
3 38 239 36
3 239 38 241
3 241 38 37
3 241 37 143
3 143 37 130
3 235 234 211
3 240 235 211
3 236 235 240
3 239 236 240
3 236 239 242
3 233 225 231
3 231 225 223
3 231 223 229
3 223 39 229
3 229 39 227
3 234 41 211
3 211 41 243
3 211 243 16
3 17 16 243
3 167 170 244
3 245 167 244
3 162 167 245
3 162 245 246
3 218 247 219
3 247 248 219
3 248 221 219
3 248 183 221
3 214 213 249
3 250 214 249
3 214 250 215
3 215 250 251
3 185 247 171
3 171 247 244
3 170 171 244
3 162 246 158
3 158 246 249
3 213 158 249
3 215 251 211
3 36 211 251
3 240 211 36
3 140 145 152
3 146 152 145
3 222 152 146
3 149 150 252
3 252 150 222
3 191 252 222
3 36 251 217
3 251 250 217
3 250 249 217
3 246 245 218
3 245 244 218
3 244 247 218
3 238 144 17
3 241 144 238
3 241 143 144
3 221 182 191
3 183 182 221
3 222 150 151
3 222 151 152
3 249 246 217
3 246 218 217
3 185 183 248
3 185 248 247
3 242 239 241
3 241 238 242
3 242 238 237
3 237 236 242
3 147 220 146
3 220 222 146
3 224 44 40
3 40 44 41
3 253 17 243
3 238 17 253
3 232 43 42
3 148 149 171
3 135 136 158
3 16 133 211
3 37 131 130
3 253 243 41
3 44 253 41
3 44 238 253
3 43 238 44
3 44 225 42
3 44 224 225
3 41 226 39
3 234 226 41
3 216 212 201
3 206 216 201
3 211 216 206
3 205 211 206
3 206 200 199
3 206 204 200
3 201 33 35
3 207 33 201
3 190 179 191
3 191 179 252
3 149 252 179
3 31 189 32
3 189 188 32
3 178 179 189
3 189 179 190
3 189 190 177
3 177 190 176
3 171 173 157
3 171 157 148
3 136 148 157
3 160 164 22
3 164 23 22
3 156 157 164
3 164 157 173
3 164 173 155
3 155 173 154
3 10 15 144
3 144 15 17
3 141 132 15
3 141 134 132
3 138 137 141
3 137 129 141
3 122 119 6
3 6 119 118
3 122 11 10
3 113 11 122
3 114 12 9
3 114 112 12
3 119 120 14
3 119 14 13
3 14 125 12
3 14 121 125
3 11 114 9
3 113 114 11
3 52 51 68
3 52 68 67
3 68 51 50
3 47 46 106
3 47 106 107
3 107 48 47
3 67 108 54
3 67 54 53
3 108 55 54
3 67 53 52
3 56 55 108
3 56 108 63
3 57 56 63
3 57 63 61
3 0 58 57
3 0 57 61
3 109 60 59
3 109 59 0
3 106 46 45
3 106 45 109
3 109 45 60
3 50 49 107
3 50 107 68
3 48 107 49
3 0 59 58
