ply
format ascii 1.0
comment Created by Blender 2.91.0 - www.blender.org
element vertex 254
property float x
property float y
property float z
element face 502
property list uchar uint vertex_indices
end_header
0.733586 -0.434307 0.016441
0.432194 -0.396019 0.018964
0.422627 -0.315833 -0.323796
0.014390 -0.445804 0.029063
-0.037718 -0.348576 0.173592
-0.038388 -0.352058 0.023529
-1.046811 -0.424084 0.529593
-1.046231 -0.336637 0.549281
-1.025961 -0.285584 0.531218
-0.647238 -0.195757 0.463877
-0.744092 -0.246569 0.631410
-0.529663 -0.154722 0.568377
-0.730064 -0.481952 0.424229
-0.716348 -0.540289 0.513162
-0.829917 -0.550173 0.464443
-0.635540 -0.078931 0.428537
-0.705497 -0.030209 0.385780
-0.700922 -0.068369 0.204727
-1.005074 -0.596418 -0.228710
-1.001991 -0.537568 -0.296582
-0.924798 -0.474314 -0.320506
-0.988684 -0.531973 -0.115425
-0.929622 -0.455307 -0.092428
-1.062946 -0.194411 -0.092613
-0.935003 -0.543065 -0.450523
-0.932493 -0.495332 -0.498931
-0.869848 -0.444004 -0.515983
-0.947865 -0.105987 -0.527403
-0.960597 -0.223220 -0.528240
-1.067815 -0.227815 -0.512264
-1.068450 -0.215425 -0.380773
-0.981721 -0.225887 -0.353328
-0.946993 -0.091987 -0.347811
-1.092928 -0.165068 -0.067316
-0.948169 -0.424787 -0.060307
-1.017772 -0.500878 -0.033886
-0.770560 0.357323 0.189720
-0.794533 0.373712 0.290439
-0.464338 0.353596 0.266111
-0.933060 -0.410681 0.197132
-0.963963 -0.143506 0.227994
-0.899899 -0.273821 0.255838
-1.051676 -0.135189 0.423066
-0.964254 -0.127980 0.391072
-1.036359 0.009321 0.423092
0.764935 -0.327555 -0.370932
0.420047 0.010658 -0.524646
0.795366 0.012347 -0.540979
0.419193 0.322776 -0.415034
0.799606 0.287570 -0.420202
0.783875 0.427064 -0.061098
0.892445 0.287156 -0.417586
1.001892 0.405424 -0.050770
0.024064 -0.390679 -0.341840
-0.042787 -0.267512 -0.328339
0.020923 0.007327 -0.558099
-0.049273 0.004270 -0.473314
0.018252 0.360905 -0.433771
-0.055244 0.299918 -0.371335
0.017523 0.472032 -0.040818
-0.053809 0.402074 -0.038122
0.019140 0.281006 0.460084
-0.054014 0.241673 0.393998
0.023376 -0.270744 0.494335
-0.038263 -0.199873 0.428124
0.077857 -0.370754 -0.324815
0.074773 0.007674 -0.529637
0.072189 0.336911 -0.413383
0.071483 0.440005 -0.045644
0.073063 0.260011 0.429326
0.077142 -0.250413 0.458140
0.078396 -0.415091 0.022709
0.337183 0.013111 -0.605075
0.419167 0.322884 -0.413959
0.340485 -0.408211 -0.362476
0.341100 -0.472684 0.030407
0.339665 -0.265667 0.519502
0.420191 -0.197980 0.430469
0.335514 0.276841 0.504022
0.415323 0.234909 0.424780
0.333736 0.485463 -0.061869
0.409750 0.417870 -0.064873
0.334460 0.374327 -0.474968
0.259267 -0.376231 -0.335814
0.259860 -0.436706 0.023462
0.258495 -0.247667 0.471521
0.254456 0.257840 0.452694
0.252784 0.447195 -0.056845
0.253490 0.344095 -0.435296
0.256111 0.010800 -0.554631
0.737672 0.232666 0.404279
1.085313 0.223149 0.349684
0.846593 0.011070 -0.527985
0.749978 -0.173612 0.415256
-0.974281 -0.380316 0.441277
-0.949193 -0.247364 0.508844
-0.843491 -0.260569 0.469134
-0.842130 -0.232544 0.557822
-0.760702 -0.246179 0.522594
-0.619378 -0.179455 0.439823
-0.828714 -0.475853 0.381088
-0.953916 -0.529997 0.427236
-0.999376 -0.509597 0.507108
-0.738549 -0.531091 0.626707
-0.508867 -0.531124 0.445447
-0.490169 -0.514161 0.560544
-0.738553 -0.306014 0.727961
-0.485398 -0.260755 0.685432
-0.545624 -0.458574 0.346324
-0.576114 -0.467954 0.366190
-0.445801 -0.249995 0.685623
-0.449456 -0.508536 0.539546
-0.093844 -0.194135 0.433189
-0.100723 -0.352319 0.172707
-0.117049 0.243432 0.395158
-0.119413 0.404507 -0.028915
-0.530520 -0.194520 0.207443
-0.708327 -0.075940 0.128849
-0.368706 -0.279400 0.008315
-0.708596 -0.107779 -0.039896
-0.702336 -0.124967 -0.116020
-0.207390 -0.435258 0.385794
-0.281669 -0.468534 0.453181
-0.305621 -0.213613 0.615102
-0.114261 -0.326036 0.014562
-0.416845 -0.427384 0.237149
-0.398391 0.009220 0.530998
-0.458740 0.291262 0.412193
-0.646063 0.161635 0.446186
-0.113234 -0.257934 -0.340974
-0.114257 0.008051 -0.478635
-0.124739 0.300531 -0.376585
-0.688616 -0.127274 -0.302400
-0.684152 -0.154282 -0.362249
-0.455110 -0.243841 -0.452115
-0.347863 -0.274200 -0.438905
-0.252085 -0.271165 -0.419919
-0.911800 -0.515612 -0.202588
-0.889103 -0.320299 -0.257636
-0.885819 -0.321261 -0.148726
-0.759358 -0.125439 -0.118019
-0.746733 -0.122645 -0.305726
-0.791552 0.106498 -0.088543
-1.169711 -0.185294 -0.131095
-1.020158 -0.029417 -0.084945
-1.092960 0.100938 -0.134097
-0.807914 0.298975 -0.132303
-1.004083 -0.588808 -0.169470
-0.949099 -0.189447 -0.134869
-1.203434 -0.194440 -0.224418
-1.109092 0.119226 -0.224380
-0.823638 0.295325 -0.233801
-1.168936 -0.200487 -0.315392
-1.091360 0.065907 -0.316688
-0.787362 0.242756 -0.325924
-0.763938 0.034150 -0.348676
-1.036930 -0.191028 -0.337767
-0.949465 -0.182103 -0.298448
-1.021234 -0.046571 -0.336656
-0.859305 -0.477486 -0.431866
-0.840631 -0.328104 -0.471109
-0.841952 -0.334477 -0.393424
-0.730114 -0.146831 -0.362386
-0.725634 -0.154106 -0.482021
-1.004773 -0.014698 -0.513121
-1.019168 0.028603 -0.447248
-0.766926 0.137466 -0.519623
-0.792235 0.195387 -0.450877
-1.006074 0.013793 -0.382840
-0.779585 0.201833 -0.381416
-1.094129 -0.222837 -0.447355
-0.934199 -0.536876 -0.408257
-0.873769 -0.428505 -0.353252
-0.893144 -0.215609 -0.380712
-0.889870 -0.209738 -0.494212
-0.715904 -0.018928 -0.535919
-0.921704 -0.490739 -0.369683
-1.195058 -0.154631 -0.041881
-1.032993 -0.554990 0.022597
-1.237255 -0.159363 0.056392
-1.033933 -0.559629 0.082104
-1.202405 -0.161053 0.140750
-1.030964 -0.497438 0.147334
-1.066792 -0.149281 0.160906
-0.957752 -0.446511 0.169022
-0.979077 -0.157609 -0.029446
-0.915013 -0.287924 -0.001597
-0.940891 -0.479917 0.052375
-0.918242 -0.281519 0.107151
-1.051470 -0.004787 0.165734
-0.979371 -0.142085 0.133637
-1.050574 -0.000516 -0.076136
-1.123685 0.131958 -0.042706
-1.139824 0.154688 0.046701
-1.121902 0.106112 0.141213
-0.784294 0.171307 0.163404
-0.759943 -0.094794 -0.042767
-0.809772 0.322538 -0.061800
-0.836910 0.366788 0.036174
-0.799192 0.351898 0.133802
-0.763658 -0.062751 0.130176
-0.471551 0.407116 0.011827
-0.472021 0.364421 -0.240098
-0.471627 0.298437 -0.420233
-0.457804 0.212350 -0.501630
-0.744492 0.159875 -0.519376
-0.378698 0.003886 -0.544290
-0.925776 -0.465817 0.309815
-0.903126 -0.267413 0.364586
-0.942638 -0.432381 0.418618
-1.077811 -0.150951 0.186134
-1.002655 -0.486771 0.223554
-1.179944 -0.140526 0.215554
-1.017872 -0.540885 0.280036
-1.222140 -0.145262 0.313827
-1.018817 -0.545523 0.339539
-1.187288 -0.146944 0.398186
-1.015847 -0.483331 0.404773
-1.035459 0.013601 0.177178
-1.108570 0.146059 0.214733
-1.124707 0.168795 0.304139
-1.106785 0.120218 0.398648
-0.743518 0.165854 0.423841
-0.826949 0.362838 0.292303
-0.795113 0.347781 0.189010
-0.761524 0.307155 0.389758
-0.785114 0.303623 0.391054
-0.774568 -0.067559 0.212386
-0.752478 0.260511 -0.325876
-0.782529 0.313287 -0.233761
-0.772951 0.314676 -0.132268
-0.749692 0.222723 -0.386592
-0.763546 0.216526 -0.450601
-0.775247 0.335044 -0.061772
-0.802546 0.378280 0.034982
-0.772000 0.360720 0.132552
-0.677862 -0.147738 -0.479340
-0.774691 -0.035381 0.386811
1.050662 -0.159384 0.344442
0.955475 -0.314700 0.115824
0.906319 -0.400418 0.001757
0.900755 -0.310702 -0.282396
0.896894 -0.292168 -0.360293
0.917008 -0.229703 -0.388347
0.921350 -0.216323 -0.394118
0.989501 0.016757 -0.547651
1.074066 0.210688 -0.478196
1.115357 0.302190 -0.435574
1.180521 0.380901 -0.189072
1.219205 0.431436 -0.053145
1.205606 0.286275 0.246645
1.204960 0.240997 0.365607
1.092210 -0.041663 0.338730
1.061903 -0.120940 0.340502
3 0 1 2
3 3 4 5
3 6 7 8
3 9 10 11
3 12 13 14
3 15 16 17
3 18 19 20
3 21 22 23
3 24 25 26
3 27 28 29
3 30 31 32
3 33 34 35
3 36 37 38
3 39 40 41
3 42 43 44
3 0 2 45
3 46 45 2
3 46 47 45
3 48 47 46
3 48 49 47
3 50 49 48
3 50 51 49
3 50 52 51
3 3 5 53
3 5 54 53
3 54 55 53
3 56 55 54
3 56 57 55
3 58 57 56
3 58 59 57
3 60 59 58
3 60 61 59
3 62 61 60
3 61 62 63
3 63 62 64
3 63 64 4
3 3 53 65
3 66 65 53
3 55 66 53
3 67 66 55
3 57 67 55
3 68 67 57
3 59 68 57
3 59 69 68
3 61 69 59
3 69 61 70
3 61 63 70
3 70 63 71
3 46 72 73
3 72 46 74
3 2 74 46
3 75 74 2
3 75 2 1
3 76 75 1
3 76 1 77
3 76 77 78
3 77 79 78
3 78 79 80
3 80 79 81
3 80 81 82
3 72 74 83
3 84 83 74
3 84 74 75
3 85 84 75
3 76 85 75
3 86 85 76
3 78 86 76
3 86 78 87
3 87 78 80
3 87 80 88
3 80 82 88
3 88 82 89
3 4 3 63
3 63 3 71
3 3 65 71
3 71 65 83
3 89 83 65
3 89 72 83
3 82 72 89
3 82 73 72
3 81 73 82
3 90 52 50
3 90 91 52
3 49 51 47
3 47 51 92
3 81 50 48
3 90 50 81
3 79 90 81
3 90 79 93
3 79 77 93
3 77 1 93
3 88 89 67
3 87 88 67
3 68 87 67
3 69 87 68
3 69 86 87
3 86 69 85
3 69 70 85
3 70 71 85
3 1 0 93
3 66 89 65
3 67 89 66
3 71 83 84
3 85 71 84
3 6 8 94
3 8 95 94
3 95 96 94
3 95 97 96
3 97 98 96
3 9 11 99
3 14 100 12
3 14 101 100
3 94 100 101
3 102 101 14
3 102 14 103
3 13 104 105
3 8 97 95
3 8 106 97
3 8 7 106
3 7 6 106
3 96 100 94
3 96 12 100
3 106 107 11
3 106 103 107
3 99 108 9
3 9 108 109
3 109 108 104
3 102 6 101
3 6 94 101
3 11 107 110
3 107 105 110
3 105 104 111
3 105 111 110
3 9 109 12
3 103 105 107
3 112 113 64
3 114 112 64
3 62 114 64
3 114 62 115
3 62 60 115
3 115 60 58
3 15 17 116
3 17 117 116
3 116 117 118
3 117 119 118
3 119 120 118
3 121 113 112
3 122 121 112
3 123 122 112
3 123 111 122
3 110 111 123
3 118 124 113
3 125 118 113
3 111 104 122
3 104 125 122
3 104 108 125
3 99 125 108
3 114 123 112
3 126 123 114
3 127 126 114
3 127 128 126
3 129 54 5
3 124 129 5
3 113 124 5
3 99 15 125
3 11 15 99
3 56 54 129
3 130 56 129
3 113 5 4
3 64 113 4
3 115 58 131
3 58 56 131
3 120 132 118
3 132 133 118
3 133 134 118
3 118 134 135
3 118 135 136
3 118 136 124
3 128 11 126
3 11 110 126
3 131 56 130
3 126 110 123
3 137 18 20
3 137 20 138
3 139 137 138
3 140 141 120
3 142 140 120
3 23 143 21
3 143 23 144
3 145 143 144
3 145 144 142
3 146 145 142
3 147 18 137
3 147 137 22
3 22 137 139
3 148 22 139
3 143 145 149
3 145 150 149
3 145 146 150
3 150 146 151
3 149 150 152
3 152 150 153
3 150 154 153
3 154 155 153
3 156 20 19
3 156 19 152
3 18 152 19
3 144 148 142
3 138 20 157
3 157 20 156
3 158 157 156
3 158 155 157
3 21 143 147
3 147 143 149
3 147 149 18
3 18 149 152
3 152 158 156
3 153 158 152
3 21 147 22
3 153 155 158
3 151 154 150
3 142 148 140
3 159 24 26
3 159 26 160
3 161 159 160
3 162 163 133
3 155 162 133
3 164 27 29
3 29 165 164
3 165 166 164
3 167 166 165
3 168 30 32
3 168 32 155
3 169 168 155
3 30 168 170
3 168 165 170
3 168 169 165
3 165 169 167
3 171 24 159
3 171 159 172
3 172 159 161
3 173 172 161
3 28 26 25
3 28 25 29
3 24 29 25
3 32 173 155
3 174 160 26
3 174 26 28
3 27 174 28
3 27 175 174
3 31 176 172
3 31 30 176
3 176 30 171
3 171 30 170
3 171 170 24
3 24 170 29
3 166 175 164
3 164 175 27
3 170 165 29
3 176 171 172
3 155 173 162
3 33 35 177
3 178 177 35
3 179 177 178
3 180 179 178
3 181 179 180
3 182 181 180
3 183 181 182
3 183 182 184
3 185 186 34
3 187 34 186
3 187 186 188
3 184 187 188
3 189 183 190
3 177 191 33
3 192 191 177
3 179 192 177
3 179 193 192
3 181 193 179
3 194 193 181
3 194 181 189
3 194 189 195
3 142 196 185
3 142 119 196
3 182 180 184
3 180 187 184
3 180 178 187
3 187 178 34
3 178 35 34
3 192 142 191
3 197 142 192
3 193 197 192
3 198 197 193
3 193 199 198
3 196 119 117
3 200 196 117
3 195 200 117
3 199 194 195
3 194 199 193
3 188 186 190
3 186 185 190
3 181 183 189
3 191 142 185
3 36 38 201
3 38 115 201
3 201 115 202
3 202 115 131
3 202 131 203
3 203 131 204
3 203 204 205
3 204 206 205
3 205 206 175
3 207 39 41
3 207 41 208
3 209 207 208
3 210 39 211
3 210 211 212
3 213 212 211
3 214 212 213
3 215 214 213
3 216 214 215
3 217 216 215
3 42 216 217
3 42 217 209
3 212 218 210
3 219 218 212
3 214 219 212
3 214 220 219
3 216 220 214
3 221 220 216
3 221 216 44
3 221 44 222
3 223 36 224
3 37 36 223
3 223 225 37
3 225 38 37
3 225 127 38
3 127 114 38
3 219 195 218
3 224 195 219
3 220 224 219
3 223 224 220
3 220 226 223
3 217 215 209
3 215 207 209
3 215 213 207
3 207 213 39
3 213 211 39
3 218 195 40
3 195 227 40
3 195 17 227
3 16 227 17
3 151 228 154
3 229 228 151
3 146 229 151
3 146 230 229
3 202 203 231
3 231 203 232
3 232 203 205
3 232 205 167
3 198 233 197
3 234 233 198
3 198 199 234
3 199 235 234
3 169 155 231
3 155 228 231
3 154 228 155
3 146 142 230
3 142 233 230
3 197 233 142
3 199 195 235
3 36 235 195
3 224 36 195
3 124 136 129
3 130 129 136
3 206 130 136
3 133 236 134
3 236 206 134
3 175 206 236
3 36 201 235
3 235 201 234
3 234 201 233
3 230 202 229
3 229 202 228
3 228 202 231
3 222 16 128
3 225 222 128
3 225 128 127
3 205 175 166
3 167 205 166
3 206 135 134
3 206 136 135
3 233 201 230
3 230 201 202
3 169 232 167
3 169 231 232
3 226 225 223
3 225 226 222
3 226 221 222
3 221 226 220
3 131 130 204
3 204 130 206
3 208 41 43
3 41 40 43
3 237 227 16
3 222 237 16
3 216 42 44
3 132 155 133
3 119 142 120
3 17 195 117
3 38 114 115
3 237 40 227
3 43 40 237
3 43 237 222
3 44 43 222
3 43 42 209
3 43 209 208
3 40 39 210
3 218 40 210
3 200 185 196
3 190 185 200
3 195 190 200
3 189 190 195
3 190 183 184
3 190 184 188
3 185 34 33
3 191 185 33
3 174 175 163
3 175 236 163
3 133 163 236
3 32 31 173
3 173 31 172
3 162 173 163
3 173 174 163
3 173 161 174
3 161 160 174
3 155 141 157
3 155 132 141
3 120 141 132
3 144 23 148
3 148 23 22
3 140 148 141
3 148 157 141
3 148 139 157
3 139 138 157
3 11 128 15
3 128 16 15
3 125 15 116
3 125 116 118
3 122 125 121
3 121 125 113
3 106 6 103
3 6 102 103
3 106 11 10
3 97 106 10
3 98 9 12
3 98 12 96
3 103 13 105
3 103 14 13
3 13 12 109
3 13 109 104
3 10 9 98
3 97 10 98
3 238 239 240
3 238 240 241
3 238 241 242
3 238 242 243
3 238 243 244
3 238 244 245
3 238 245 246
3 238 246 247
3 238 247 248
3 238 248 249
3 238 249 250
3 238 250 251
3 238 251 252
3 238 252 253
3 247 51 52
3 247 52 248
3 52 249 248
3 252 91 90
3 252 90 253
3 91 252 251
3 51 246 245
3 51 245 92
3 92 245 244
3 51 247 246
3 243 47 92
3 243 92 244
3 242 45 47
3 242 47 243
3 0 45 242
3 0 242 241
3 93 0 240
3 93 240 239
3 90 93 238
3 90 238 253
3 93 239 238
3 249 52 91
3 249 91 250
3 251 250 91
3 0 241 240
