ply
format ascii 1.0
comment Created by Blender 2.91.0 - www.blender.org
element vertex 78
property float x
property float y
property float z
element face 152
property list uchar uint vertex_indices
end_header
-0.410738 0.394686 0.039995
0.336715 0.318813 -0.392330
-0.561775 0.274004 -0.338166
-0.295619 0.208691 0.452834
-0.281945 -0.179498 0.436611
0.369229 0.282023 0.518935
-0.493000 -0.304722 -0.275328
0.259544 0.018313 -0.542924
0.255689 -0.346471 -0.351411
0.455024 -0.418940 0.092168
0.519022 -0.422275 0.092377
0.497573 -0.367007 -0.161663
0.493667 -0.354387 -0.219912
0.532535 0.322966 -0.386908
0.514066 0.421214 -0.095113
0.505610 0.458840 0.030538
0.487801 0.411849 0.158682
0.440014 0.280638 0.515968
0.431690 0.188031 0.518528
0.395375 -0.210941 0.523365
0.399374 -0.317596 0.321413
0.403342 -0.369369 0.193205
0.405596 -0.418771 0.093660
0.415039 -0.399086 0.012955
0.459767 -0.323071 -0.354286
0.486555 -0.154786 -0.441482
0.517473 0.039407 -0.542183
0.527961 0.223503 -0.448493
0.461071 -0.377044 0.200116
0.548142 -0.421113 0.099322
0.548172 -0.421223 0.099044
0.487712 -0.325580 -0.351678
0.437127 -0.346739 0.265355
0.359367 0.462847 0.033707
0.306851 -0.211039 0.525293
0.251497 -0.444131 0.085465
-0.355869 -0.400509 0.082285
-0.605666 0.315827 -0.230504
-0.605666 0.274150 -0.339090
-0.605666 0.408993 0.033096
-0.605666 0.300444 0.290789
-0.605666 0.214967 0.489209
-0.605666 0.081558 0.484181
-0.605666 0.182133 -0.379843
-0.605666 0.078588 -0.417113
-0.605666 -0.007146 -0.453972
-0.605666 -0.138949 -0.380939
-0.605666 -0.327064 -0.282114
-0.605666 -0.366322 -0.124865
-0.605666 -0.273695 0.354200
-0.605666 -0.436747 0.098150
-0.605666 -0.190823 0.493566
-0.605666 0.374596 0.038092
-0.605666 0.326149 -0.097581
-0.564605 0.370520 0.040037
-0.605666 0.343673 0.110754
-0.481184 0.188246 0.440491
-0.605666 0.191653 0.460040
-0.605666 -0.340865 0.219494
-0.515836 -0.194288 0.435249
-0.504595 -0.155843 0.431309
-0.474288 -0.076567 0.429537
-0.361537 0.206093 0.456414
-0.360892 0.251372 0.337452
-0.347292 0.396533 0.037662
-0.385976 0.345997 -0.098265
-0.451140 0.267287 -0.344767
-0.492431 0.175784 -0.387389
-0.573849 -0.010929 -0.454259
-0.593606 -0.078440 -0.409915
-0.605082 -0.114199 -0.393574
-0.605666 -0.116201 -0.392255
-0.605666 0.256864 -0.332297
-0.605666 -0.045615 0.451190
-0.605666 0.223459 -0.349600
-0.605666 -0.013045 -0.450242
-0.605666 -0.112655 -0.394473
-0.605666 -0.198539 0.456405
3 0 1 2
3 3 4 5
3 6 7 8
3 9 10 11
3 9 11 12
3 13 14 15
3 13 15 16
3 13 16 17
3 13 17 18
3 13 18 19
3 13 19 20
3 13 20 21
3 13 21 22
3 13 22 23
3 13 23 24
3 13 24 25
3 13 25 26
3 13 26 27
3 28 29 30
3 28 30 10
3 28 10 9
3 23 9 12
3 23 12 31
3 23 31 24
3 22 9 23
3 9 21 20
3 9 20 32
3 9 32 28
3 21 9 22
3 0 33 1
3 13 1 33
3 13 33 14
3 14 33 15
3 4 34 5
3 18 5 34
3 18 34 19
3 19 34 35
3 19 35 32
3 19 32 20
3 32 35 30
3 32 30 29
3 32 29 28
3 36 6 8
3 35 36 8
3 2 1 7
3 7 1 27
3 7 27 26
3 1 13 27
3 16 15 33
3 16 33 5
3 16 5 17
3 7 26 25
3 24 31 8
3 24 8 7
3 24 7 25
3 35 8 31
3 35 31 12
3 35 12 11
3 5 18 17
3 36 35 34
3 4 36 34
3 3 33 0
3 3 5 33
3 30 35 11
3 30 11 10
3 37 2 38
3 0 2 37
3 0 37 39
3 40 0 39
3 3 0 40
3 3 40 41
3 4 3 41
3 4 41 42
3 38 2 43
3 43 2 44
3 2 7 45
3 2 45 44
3 46 6 47
3 48 47 6
3 49 50 36
3 42 51 4
3 36 4 51
3 36 51 49
3 6 36 50
3 6 50 48
3 52 53 54
3 55 52 54
3 55 54 56
3 55 56 57
3 58 59 60
3 58 60 61
3 58 61 62
3 58 62 63
3 58 63 64
3 58 64 65
3 58 65 66
3 58 66 67
3 58 67 68
3 58 68 69
3 58 69 70
3 58 70 71
3 72 66 65
3 72 65 54
3 72 54 53
3 54 65 64
3 56 61 60
3 56 60 73
3 56 73 57
3 56 62 61
3 68 67 74
3 68 74 75
3 70 76 71
3 67 66 72
3 67 72 74
3 73 60 59
3 73 59 77
3 59 58 77
3 56 54 64
3 56 64 63
3 62 56 63
3 76 46 47
3 76 47 48
3 76 48 50
3 76 50 49
3 76 49 51
3 76 51 42
3 76 42 41
3 76 41 40
3 76 40 39
3 76 39 37
3 76 37 38
3 76 38 43
3 76 43 44
3 76 44 45
3 76 45 75
3 76 75 74
3 76 74 72
3 76 72 53
3 76 53 52
3 76 52 55
3 76 55 57
3 76 57 73
3 76 73 77
3 76 77 58
3 76 58 71
3 45 7 6
3 45 6 69
3 45 69 68
3 45 68 75
3 6 46 76
3 6 76 70
3 6 70 69
