ply
format ascii 1.0
comment Created by Blender 2.91.0 - www.blender.org
element vertex 43
property float x
property float y
property float z
element face 82
property list uchar uint vertex_indices
end_header
-0.655999 0.155783 -0.489610
-0.657769 0.042803 -0.547425
-0.621915 -0.261097 -0.389190
-0.614718 -0.322120 -0.357442
-0.601963 -0.343318 -0.267178
-0.550967 -0.428716 0.093452
-0.524718 -0.309164 0.342961
-0.507005 -0.218303 0.515330
-0.520895 0.048636 0.512333
-0.532912 0.271375 0.506536
-0.573431 0.371844 0.232747
-0.604487 0.448782 0.022881
-0.628963 0.384434 -0.191374
-0.651231 0.317851 -0.389439
0.449632 0.387201 0.034371
0.607235 0.266519 -0.343790
-0.330320 0.311328 -0.397954
-0.353957 0.455362 0.028083
0.329505 0.201206 0.447210
-0.364248 0.274538 0.513311
0.315238 -0.186983 0.430987
-0.299158 -0.218524 0.519669
-0.241397 -0.451616 0.079841
0.535469 -0.312208 -0.280952
-0.245771 -0.353956 -0.357035
-0.249795 0.010827 -0.548548
0.392376 -0.407994 0.076661
0.653035 -0.058800 -0.431672
0.653035 -0.014631 -0.459596
0.653035 0.071103 -0.422737
0.653035 0.174648 -0.385467
0.653035 0.266664 -0.344714
0.653035 0.308341 -0.236128
0.653035 0.401508 0.027472
0.653035 0.292959 0.285165
0.653035 0.207482 0.483585
0.653035 0.074072 0.478557
0.653035 -0.198309 0.487942
0.653035 -0.281180 0.348576
0.653035 -0.444232 0.092526
0.653035 -0.373807 -0.130489
0.653035 -0.334549 -0.287738
0.653035 -0.146434 -0.386563
3 0 1 2
3 0 2 3
3 0 3 4
3 0 4 5
3 0 5 6
3 0 6 7
3 0 7 8
3 0 8 9
3 0 9 10
3 0 10 11
3 0 11 12
3 0 12 13
3 14 15 16
3 14 16 17
3 13 12 17
3 13 17 16
3 11 17 12
3 18 19 20
3 20 19 21
3 19 8 7
3 19 7 21
3 6 22 21
3 6 21 7
3 6 5 22
3 23 24 25
3 26 24 23
3 22 24 26
3 15 25 16
3 1 0 16
3 1 16 25
3 13 16 0
3 10 17 11
3 19 17 10
3 19 10 9
3 25 2 1
3 3 2 25
3 3 25 24
3 22 4 3
3 22 3 24
3 19 9 8
3 26 21 22
3 20 21 26
3 18 14 17
3 18 17 19
3 5 4 22
3 27 28 29
3 27 29 30
3 27 30 31
3 27 31 32
3 27 32 33
3 27 33 34
3 27 34 35
3 27 35 36
3 27 36 37
3 27 37 38
3 27 38 39
3 27 39 40
3 27 40 41
3 27 41 42
3 32 31 15
3 14 33 32
3 14 32 15
3 34 33 14
3 18 35 34
3 18 34 14
3 20 36 35
3 20 35 18
3 31 30 15
3 30 29 15
3 15 29 28
3 15 28 25
3 25 28 27
3 25 27 23
3 27 42 23
3 42 41 23
3 40 23 41
3 38 26 39
3 36 20 37
3 26 38 37
3 26 37 20
3 23 40 39
3 23 39 26
