ply
format ascii 1.0
comment Created by Blender 2.91.0 - www.blender.org
element vertex 373
property float x
property float y
property float z
element face 720
property list uchar uint vertex_indices
end_header
-0.464421 -2.009128 0.543313
-0.255244 -2.063097 0.597650
-0.287590 -2.064368 0.886320
2.085505 -0.407567 -0.445219
2.066171 -0.680619 -0.444196
1.492151 -0.541880 -0.376631
1.563941 -0.291334 -0.348176
2.055496 -0.222302 -0.428786
1.978388 -0.119584 -0.382313
1.383402 -1.525073 -0.051438
1.208937 -1.520662 0.061495
1.240798 -1.377935 -0.152854
1.545646 -1.451620 -0.163185
1.670697 -1.351620 -0.241101
1.321352 -1.091711 -0.328420
1.847831 -1.132326 -0.333565
2.014972 -0.836859 -0.410790
1.594352 -0.149008 -0.100058
1.741644 -0.071716 -0.222382
1.884628 -0.055074 -0.315646
-1.230943 -1.386608 -0.152160
-1.535273 -1.462431 -0.162320
-1.661066 -1.363311 -0.240165
-1.313604 -1.100959 -0.327680
-1.839787 -1.145265 -0.332528
-2.009041 -0.850978 -0.409660
-1.740983 -0.083936 -0.221403
-1.593084 -0.160192 -0.099163
-1.561813 -0.302304 -0.347298
-1.884133 -0.068300 -0.314588
-1.977475 -0.133464 -0.381202
-2.053887 -0.236721 -0.427631
-2.082605 -0.422197 -0.444047
-1.488284 -0.552337 -0.375794
-1.197962 -1.529108 0.062171
-1.372455 -1.534743 -0.050664
-2.061353 -0.695103 -0.443037
-0.404831 1.158759 1.419800
-0.002618 0.908536 1.603620
-0.003521 1.155543 1.476046
-0.004621 1.450604 1.246046
0.397725 1.161576 1.419573
0.358261 1.449586 1.185537
0.713568 1.427640 1.064720
0.668472 1.579812 0.879977
0.862201 1.542558 0.783027
0.615970 1.699477 0.625899
0.965716 1.582055 0.488119
0.841715 1.724645 0.096476
1.139845 1.526093 -0.114724
1.012124 1.578573 -0.553899
1.333299 1.312869 -0.164908
1.261559 1.223349 -0.735379
1.508788 0.996487 -0.242861
1.426274 0.872226 -0.857649
1.623440 0.634130 -0.282429
1.540924 0.434701 -0.950871
1.658978 0.424374 -0.294009
1.555116 0.170529 -0.977971
1.541546 -0.082672 -0.984345
1.319314 -0.225815 -1.340167
-1.205358 0.875580 1.204149
-1.322959 0.845561 1.073128
-1.359421 0.670402 1.114362
-1.245247 0.663516 1.275648
-1.281522 0.324690 1.311483
-0.923609 0.301278 1.551703
-1.296555 0.142052 1.303207
-0.935941 0.144776 1.557820
-1.266933 -0.142484 1.277907
-0.934956 -0.188311 1.493484
-1.180614 -0.356965 1.295970
-0.925967 -0.402184 1.433029
-1.141336 -0.748051 1.213633
-0.909384 -0.795684 1.419978
-1.084564 -1.066748 1.201042
-0.865795 -1.167519 1.392239
-1.123805 -1.312072 1.221987
-0.837049 -1.326325 1.464777
-1.084553 -1.477495 1.250363
-0.807385 -1.513246 1.494508
-1.058823 -1.575976 1.263008
-0.770973 -1.689149 1.442861
-1.001143 -1.679255 1.245632
-0.896091 -1.783043 1.214831
-0.857511 0.890349 1.439838
-0.894514 0.643250 1.507361
-0.442094 0.625406 1.625004
-0.459609 0.272124 1.699340
-0.001543 0.609890 1.701760
-0.000291 0.257570 1.756316
0.458881 0.275349 1.699082
0.456893 -0.077587 1.672518
0.936017 0.151346 1.557294
0.937332 -0.181742 1.492958
1.268860 -0.133587 1.277194
1.184058 -0.348668 1.295305
1.366002 -0.370838 1.115223
1.147479 -0.740019 1.212988
1.271608 -0.726977 1.052972
1.092937 -1.059108 1.200430
1.212798 -1.053023 1.039864
1.133910 -1.304149 1.221352
1.294596 -1.262610 1.000966
1.256071 -1.439360 1.063214
-0.428847 0.900175 1.533490
-0.800966 1.145510 1.310809
-0.722732 1.422599 1.065124
-1.157854 1.110399 1.082593
-1.065374 1.357956 0.891416
-1.267800 1.085450 0.935070
-1.204608 1.328287 0.599193
-1.381211 1.067107 0.691863
-1.271124 1.336986 0.341285
-1.481286 1.053092 0.259974
-1.342333 1.303481 -0.164156
-1.515642 0.985872 -0.242012
-1.270287 1.214463 -0.734668
-1.432603 0.862194 -0.856845
-1.072029 1.125839 -1.203467
-1.252217 0.775996 -1.283172
-0.770856 0.666987 -1.707488
-1.329858 0.291900 -1.353618
-0.897389 0.143947 -1.764418
-0.947421 -0.369922 -1.675235
0.001041 -0.413311 -1.884012
-0.367520 1.447039 1.185741
-0.678809 1.575084 0.880355
-0.340917 1.614460 0.974537
-0.627291 1.695114 0.626248
-0.315859 1.747591 0.723185
-0.546340 1.825725 0.235687
-0.262634 1.863496 0.322357
-0.475531 1.854036 -0.251405
-0.006674 1.919803 -0.202088
-0.006378 1.789987 -0.771235
0.462606 1.857328 -0.251669
0.378567 1.714031 -0.874523
0.749863 1.762543 -0.355864
0.711166 1.654895 -0.731574
0.691268 1.507354 -1.025354
1.036711 1.399884 -0.898820
1.063665 1.133333 -1.204067
-0.005338 1.636271 1.011355
-0.005843 1.761233 0.775148
-0.006382 1.880976 0.353234
0.249970 1.865292 0.322213
0.533885 1.829514 0.235384
1.241515 0.672242 1.274948
0.891064 0.649517 1.506859
0.922584 0.307754 1.551184
1.280187 0.333678 1.310762
1.296496 0.151149 1.302478
1.430953 0.082857 1.168374
1.411669 -0.164154 1.143049
1.520704 -0.194667 0.961330
1.491193 -0.413185 0.911388
1.391356 -0.733930 0.876933
1.347328 -1.034190 0.854324
-1.339318 -1.043618 0.855079
-1.284901 -1.271662 1.001691
-1.204554 -1.061506 1.040543
-1.385439 -0.743674 0.877713
-1.265644 -0.735879 1.053686
-1.487505 -0.423638 0.912227
-1.362500 -0.380411 1.115990
-1.518519 -0.205331 0.962183
-1.409600 -0.174054 1.143842
-1.430602 0.072817 1.169179
0.929195 -1.382376 -0.824274
0.728957 -1.566089 -0.512893
0.671469 -1.470146 -1.024533
0.790572 -1.204089 -1.290344
1.103328 -1.066374 -1.038732
1.240980 -0.657309 -1.244763
1.357594 -0.904034 -0.805314
1.462309 -0.526419 -0.931352
-0.485332 -2.007627 0.871208
-0.704178 -1.928826 0.469711
-0.098532 -2.088205 0.894406
0.007617 -2.086269 0.631993
0.007716 -2.093609 0.889661
0.113925 -2.087458 0.894346
0.007632 -2.054073 1.086078
0.119417 -2.042456 1.082275
-0.455159 -0.080786 1.672774
0.001145 -0.153738 1.729578
0.002281 -0.483352 1.659106
0.446529 -0.427926 1.583092
0.929810 -0.395674 1.432507
0.003385 -0.803650 1.585057
0.441371 -0.801227 1.507447
0.437702 -1.137703 1.478748
0.874988 -1.161411 1.391750
0.847398 -1.320416 1.464303
1.095836 -1.469844 1.249750
1.197855 -1.556071 1.068932
-0.453616 -1.866274 1.368562
-0.443082 -1.728617 1.473131
-0.440427 -1.544970 1.546453
-0.436562 -1.300724 1.529456
-0.428637 -1.140743 1.478992
0.004280 -1.060385 1.566433
-0.853504 1.718697 0.096952
-0.762173 1.757236 -0.355439
-0.390838 1.711329 -0.874307
-0.005776 1.585299 -1.184520
0.390026 1.399699 -1.346652
-1.245102 -1.448137 1.063917
0.006016 -1.553783 1.584139
0.005111 -1.293212 1.614202
-0.400357 1.396924 -1.346430
-0.005021 1.344461 -1.506786
-0.003846 0.989498 -1.757795
1.355549 0.679930 1.113599
1.317835 0.854827 1.072385
1.200100 0.884022 1.203472
0.852290 0.896350 1.439358
0.438846 0.628496 1.624756
0.592828 1.052670 -1.585679
-0.002470 0.586460 -1.891635
-0.600852 1.048482 -1.585344
1.327005 -1.240008 0.740435
1.385777 -1.040710 0.668280
1.451417 -0.745136 0.650342
1.529041 -0.414251 0.703267
1.558817 -0.346089 0.192931
1.625220 -0.048586 0.190833
1.651355 0.174161 -0.318274
1.659721 0.252239 0.199423
1.651198 0.497096 0.208517
1.563609 0.284795 0.850412
1.509608 0.709848 0.796925
1.403891 0.332674 1.167116
-1.544231 0.423876 -0.950005
-1.556585 0.159610 -0.977097
-1.661841 0.412714 -0.293075
-1.627770 0.622721 -0.281516
-1.654290 0.485496 0.209446
-1.620036 0.687887 0.222907
-1.513864 0.699241 0.797775
-1.217637 -1.257996 -0.578726
-1.351430 -0.913539 -0.804553
-1.458862 -0.536669 -0.930532
-1.541242 -0.093489 -0.983479
-1.652475 0.162568 -0.317346
1.262140 1.345874 0.340573
1.195833 1.336708 0.598519
1.056559 1.365401 0.890820
1.260917 1.094322 0.934359
1.150880 1.118502 1.081943
-0.872326 1.536470 0.783513
-0.976281 1.575239 0.488664
-1.150352 1.518056 -0.114081
-1.023249 1.571429 -0.553327
0.006637 -1.737031 1.502510
0.452367 -1.541837 1.546202
0.446777 -1.297625 1.529208
0.901266 -0.799200 -1.530196
0.949291 -0.363268 -1.675768
0.002725 -0.879209 -1.708343
-0.722934 1.649862 -0.731172
-0.702166 1.502465 -1.024963
-1.185768 -1.606202 0.732492
-1.136994 -1.652250 0.294159
-1.068577 -1.717625 0.741158
-0.738632 -1.895045 0.809360
-0.700168 -1.884075 1.196317
-0.457412 -1.965937 1.162662
0.007062 -1.869084 1.369117
0.456269 -1.725461 1.472878
0.819064 -1.507538 1.494051
0.004137 -1.262644 -1.469592
-0.896255 -0.805508 -1.529690
-0.782588 -1.209609 -1.289902
-1.236797 -0.666004 -1.244066
-1.096160 -1.074092 -1.038114
1.374316 1.076775 0.691089
1.474245 1.063463 0.259144
0.270292 -2.061254 0.597502
0.302808 -2.062296 0.886154
0.479053 -2.005817 0.543048
0.500138 -2.004169 0.870932
0.718199 -1.923835 0.469311
0.752606 -1.889812 0.808941
-0.661471 -1.474823 -1.024158
-0.919695 -1.388864 -0.823755
-0.442387 -0.431043 1.583342
-0.434652 -0.804302 1.507693
0.765435 0.672378 -1.707920
1.246258 0.784762 -1.283874
1.327255 0.301223 -1.354364
1.113074 -1.518363 -0.305720
1.045452 -1.658129 -0.045604
0.623653 -1.775960 -0.119725
0.893725 -1.775673 0.076339
0.419322 -1.912887 0.099818
-1.083685 -1.683833 1.050824
-1.186066 -1.564436 1.069604
-1.266359 -1.436630 0.752065
-1.317615 -1.249288 0.741178
-1.318211 -0.235070 -1.339426
-1.661098 0.240584 0.200356
1.567019 0.017388 0.855719
-0.000674 0.070496 -1.942660
0.895604 0.150237 -1.764922
0.304232 1.749770 0.723011
1.521889 -0.352920 -0.029507
1.362574 -0.842133 -0.004516
-1.046775 1.392574 -0.898235
0.330365 1.616815 0.974347
1.148965 -1.644228 0.293517
1.197663 -1.597839 0.731822
1.081260 -1.710081 0.740554
1.096304 -1.676183 1.050210
0.909504 -1.776707 1.214323
0.423620 0.903164 1.533251
-1.556002 -0.357017 0.193806
-1.445548 -0.755302 0.651156
-1.525462 -0.424968 0.704124
-1.624492 -0.059988 0.191745
-1.566380 0.006392 0.856599
-1.564851 0.273816 0.851291
-1.356394 -0.851675 -0.003753
-1.221099 -1.459656 0.158934
-1.519152 -0.363592 -0.028653
0.793882 1.151107 1.310361
0.915981 -0.789278 1.419463
-0.225306 -2.025499 1.107275
-1.377825 -1.050406 0.669056
1.226349 -1.249420 -0.579412
-0.717997 -1.571166 -0.512486
-1.102324 -1.526136 -0.305097
1.231642 -1.451049 0.158245
1.277071 -1.427705 0.751351
1.615533 0.699241 0.221998
0.240375 -2.023865 1.107144
0.467711 -1.863041 1.368303
0.472090 -1.962675 1.162401
0.714284 -1.879111 1.195920
0.783857 -1.683693 1.442424
1.070806 -1.568503 1.262409
1.013841 -1.672185 1.245066
-1.405295 0.322818 1.167906
-0.880959 -1.781900 0.076838
-0.405591 -1.915782 0.100050
-0.104233 -2.043242 1.082337
-1.033576 -1.665424 -0.045019
-0.611003 -1.780292 -0.119378
0.575796 -1.568696 -0.900843
0.551003 -1.629248 -0.736557
0.631355 -1.722338 -0.481063
0.593228 -1.808991 -0.246029
-0.399044 -1.940792 0.088334
-0.415560 -1.927420 0.051508
-0.342804 -1.947604 0.108275
-0.153280 -1.978531 0.197188
0.184833 -1.972967 0.190406
0.365443 -1.940673 0.106932
-0.346716 -1.500922 -1.108244
0.004750 -1.424418 -1.307883
0.413948 -1.933996 0.089951
0.427712 -1.922570 0.059177
-0.553318 -1.584596 -0.885494
-0.532144 -1.635710 -0.745774
-0.614436 -1.734365 -0.479151
-0.577850 -1.815864 -0.256303
-0.555439 -1.857075 -0.143520
0.379224 -1.496441 -1.102477
-0.052486 -2.028621 0.336092
0.007367 -2.036788 0.359811
0.069410 -2.028569 0.338968
0.572728 -1.847365 -0.142035
3 0 1 2
3 3 4 5
3 3 5 6
3 7 3 6
3 7 6 8
3 9 10 11
3 12 9 11
3 12 11 13
3 13 11 14
3 15 13 14
3 15 14 16
3 6 17 18
3 19 6 18
3 5 16 14
3 19 8 6
3 20 21 22
3 23 20 22
3 23 22 24
3 25 23 24
3 26 27 28
3 29 26 28
3 29 28 30
3 31 30 28
3 32 31 28
3 32 28 33
3 20 34 35
3 21 20 35
3 33 25 36
3 32 33 36
3 25 33 23
3 37 38 39
3 40 37 39
3 40 39 41
3 42 40 41
3 42 41 43
3 44 42 43
3 44 43 45
3 46 44 45
3 46 45 47
3 48 46 47
3 48 47 49
3 50 48 49
3 50 49 51
3 52 50 51
3 52 51 53
3 54 52 53
3 54 53 55
3 56 54 55
3 56 55 57
3 58 56 57
3 58 57 59
3 60 58 59
3 61 62 63
3 64 61 63
3 64 63 65
3 66 64 65
3 66 65 67
3 68 66 67
3 68 67 69
3 70 68 69
3 70 69 71
3 72 70 71
3 72 71 73
3 74 72 73
3 74 73 75
3 76 74 75
3 76 75 77
3 78 76 77
3 78 77 79
3 80 78 79
3 80 79 81
3 82 80 81
3 82 81 83
3 84 82 83
3 85 61 64
3 86 85 64
3 86 64 66
3 87 86 66
3 87 66 88
3 89 87 88
3 89 88 90
3 91 89 90
3 91 90 92
3 93 91 92
3 93 92 94
3 95 93 94
3 95 94 96
3 97 95 96
3 97 96 98
3 99 97 98
3 99 98 100
3 101 99 100
3 101 100 102
3 103 101 102
3 103 102 104
3 105 38 37
3 106 105 37
3 106 37 107
3 108 106 107
3 108 107 109
3 110 108 109
3 110 109 111
3 112 110 111
3 112 111 113
3 114 112 113
3 114 113 115
3 116 114 115
3 116 115 117
3 118 116 117
3 118 117 119
3 120 118 119
3 120 119 121
3 122 120 121
3 122 121 123
3 124 122 123
3 124 123 125
3 107 37 126
3 127 107 126
3 127 126 128
3 129 127 128
3 129 128 130
3 131 129 130
3 131 130 132
3 133 131 132
3 133 132 134
3 135 133 134
3 135 134 136
3 137 135 136
3 137 136 138
3 139 137 138
3 139 138 50
3 140 139 50
3 140 50 141
3 142 140 141
3 142 141 52
3 54 142 52
3 126 37 40
3 128 126 40
3 128 40 143
3 130 128 143
3 130 143 144
3 132 130 144
3 132 144 145
3 134 132 145
3 134 145 146
3 136 134 146
3 136 146 147
3 138 136 147
3 138 147 48
3 50 138 48
3 148 149 150
3 151 148 150
3 151 150 152
3 153 151 152
3 153 152 154
3 155 153 154
3 155 154 97
3 156 155 97
3 156 97 99
3 157 156 99
3 157 99 101
3 158 157 101
3 158 101 103
3 159 160 161
3 162 159 161
3 162 161 163
3 164 162 163
3 164 163 165
3 166 164 165
3 166 165 167
3 168 166 167
3 168 167 67
3 65 168 67
3 169 170 171
3 169 171 172
3 173 169 172
3 173 172 174
3 175 173 174
3 175 174 176
3 5 175 176
3 5 176 6
3 177 178 0
3 2 177 0
3 179 2 1
3 179 1 180
3 181 179 180
3 181 180 182
3 183 181 182
3 183 182 184
3 90 88 185
3 186 90 185
3 186 185 187
3 92 186 187
3 92 187 188
3 94 92 188
3 94 188 189
3 96 94 189
3 96 189 98
3 188 187 190
3 191 188 190
3 191 190 192
3 193 191 192
3 193 192 194
3 102 193 194
3 102 194 195
3 104 102 195
3 104 195 196
3 82 197 198
3 80 82 198
3 80 198 199
3 78 80 199
3 78 199 200
3 201 78 200
3 201 200 202
3 190 201 202
3 190 202 192
3 203 129 131
3 204 203 131
3 204 131 133
3 205 204 133
3 205 133 135
3 206 205 135
3 206 135 137
3 207 206 137
3 160 208 77
3 161 160 77
3 161 77 75
3 163 161 75
3 163 75 73
3 165 163 73
3 165 73 71
3 69 165 71
3 209 210 199
3 211 212 213
3 214 215 216
3 148 214 216
3 148 216 217
3 149 148 217
3 149 217 218
3 150 149 218
3 150 218 91
3 93 150 91
3 137 139 140
3 207 137 140
3 207 140 219
3 213 207 219
3 213 219 220
3 221 213 220
3 221 220 121
3 119 221 121
3 103 104 222
3 158 103 222
3 158 222 223
3 157 158 223
3 157 223 224
3 225 157 224
3 225 224 226
3 227 225 226
3 228 59 57
3 229 228 57
3 229 57 230
3 231 229 230
3 231 230 232
3 233 231 232
3 233 232 214
3 234 235 236
3 237 234 236
3 237 236 238
3 239 237 238
3 239 238 240
3 114 239 240
3 114 240 112
3 241 20 23
3 242 241 23
3 242 23 33
3 243 242 33
3 243 33 28
3 244 243 28
3 244 28 245
3 246 49 47
3 247 246 47
3 247 47 248
3 249 247 248
3 249 248 250
3 215 249 250
3 215 250 216
3 251 127 129
3 252 251 129
3 252 129 203
3 253 252 203
3 253 203 254
3 115 253 254
3 115 254 117
3 199 198 255
3 209 199 255
3 209 255 256
3 210 209 256
3 210 256 257
3 202 210 257
3 202 257 192
3 59 176 174
3 60 59 174
3 60 174 258
3 259 60 258
3 259 258 260
3 125 259 260
3 125 260 124
3 254 203 204
3 261 254 204
3 261 204 205
3 262 261 205
3 262 205 211
3 221 262 211
3 221 211 213
3 263 34 264
3 265 263 264
3 265 264 178
3 266 265 178
3 266 178 177
3 267 266 177
3 267 177 268
3 198 197 269
3 255 198 269
3 255 269 270
3 256 255 270
3 256 270 271
3 194 256 271
3 194 271 195
3 260 258 272
3 273 260 272
3 273 272 274
3 275 273 274
3 275 274 276
3 242 275 276
3 215 214 232
3 277 215 232
3 277 232 278
3 246 277 278
3 246 278 51
3 49 246 51
3 182 180 279
3 280 182 279
3 280 279 281
3 282 280 281
3 282 281 283
3 284 282 283
3 274 272 285
3 274 285 286
3 276 274 286
3 276 286 241
3 242 276 241
3 88 66 68
3 185 88 68
3 185 68 70
3 287 185 70
3 287 70 72
3 74 287 72
3 187 185 287
3 190 187 287
3 190 287 288
3 201 190 288
3 201 288 76
3 78 201 76
3 219 140 142
3 289 219 142
3 289 142 290
3 291 289 290
3 291 290 56
3 58 291 56
3 170 292 293
3 294 170 293
3 294 293 295
3 296 294 295
3 296 295 283
3 281 296 283
3 263 297 298
3 299 263 298
3 299 298 208
3 300 299 208
3 300 208 160
3 159 300 160
3 122 124 301
3 235 122 301
3 235 301 244
3 236 235 244
3 236 244 245
3 302 236 245
3 85 105 106
3 61 85 106
3 61 106 108
3 62 61 108
3 62 108 110
3 112 62 110
3 156 157 225
3 155 156 225
3 155 225 303
3 153 155 303
3 153 303 231
3 233 153 231
3 220 219 289
3 304 220 289
3 304 289 305
3 125 304 305
3 125 305 259
3 46 48 147
3 306 46 147
3 306 147 146
3 144 306 146
3 144 146 145
3 124 260 273
3 301 124 273
3 301 273 275
3 244 301 275
3 244 275 243
3 17 227 226
3 307 17 226
3 307 226 308
3 4 307 308
3 4 308 16
3 119 262 221
3 309 117 254
3 121 220 304
3 306 310 46
3 311 10 312
3 313 311 312
3 313 312 314
3 284 313 314
3 284 314 315
3 107 127 251
3 109 107 251
3 109 251 252
3 111 109 252
3 111 252 113
3 85 86 87
3 105 85 87
3 105 87 89
3 38 105 89
3 38 89 316
3 317 318 319
3 320 317 319
3 320 319 321
3 302 320 321
3 302 321 322
3 323 21 35
3 324 323 35
3 324 35 34
3 263 324 34
3 317 320 27
3 325 317 27
3 325 27 26
3 29 325 26
3 306 144 143
3 310 306 143
3 310 143 40
3 42 310 40
3 52 141 50
3 250 326 216
3 215 277 249
3 193 327 191
3 82 84 267
3 197 82 267
3 197 267 268
3 328 197 268
3 318 329 162
3 319 318 162
3 319 162 164
3 166 319 164
3 250 248 43
3 326 250 43
3 326 43 41
3 316 326 41
3 118 234 237
3 116 118 237
3 116 237 239
3 114 116 239
3 193 102 100
3 327 193 100
3 327 100 98
3 189 327 98
3 292 170 169
3 330 292 169
3 330 169 173
3 175 330 173
3 286 285 331
3 286 331 332
3 241 286 332
3 9 12 308
3 333 9 308
3 333 308 222
3 334 333 222
3 254 261 262
3 309 254 262
3 309 262 119
3 117 309 119
3 211 205 206
3 212 211 206
3 212 206 207
3 213 212 207
3 258 174 172
3 272 258 172
3 272 172 171
3 53 51 278
3 335 53 278
3 335 278 232
3 230 335 232
3 269 184 336
3 337 269 336
3 337 336 338
3 339 337 338
3 270 269 337
3 340 270 337
3 340 337 339
3 315 340 339
3 271 270 340
3 341 271 340
3 341 340 342
3 196 341 342
3 10 9 333
3 312 10 333
3 312 333 334
3 230 57 55
3 335 230 55
3 335 55 53
3 122 235 234
3 120 122 234
3 120 234 118
3 62 112 240
3 63 62 240
3 63 240 343
3 178 344 345
3 0 178 345
3 0 345 1
3 318 317 323
3 329 318 323
3 329 323 300
3 266 84 297
3 265 266 297
3 265 297 263
3 300 323 324
3 299 300 324
3 299 324 263
3 303 225 227
3 229 303 227
3 229 227 228
3 184 182 280
3 336 184 280
3 336 280 338
3 214 148 151
3 233 214 151
3 233 151 153
3 15 16 308
3 13 15 308
3 13 308 12
3 196 314 312
3 334 196 312
3 282 284 339
3 338 282 339
3 283 311 313
3 284 283 313
3 104 196 334
3 222 104 334
3 308 226 224
3 223 308 224
3 218 217 316
3 89 218 316
3 295 293 311
3 283 295 311
3 281 279 296
3 167 165 69
3 67 167 69
3 74 76 288
3 287 74 288
3 321 319 166
3 168 321 166
3 208 298 79
3 77 208 79
3 41 39 38
3 316 41 38
3 298 83 81
3 79 298 81
3 297 84 83
3 298 297 83
3 322 321 168
3 343 322 168
3 307 19 18
3 17 307 18
3 323 24 22
3 21 323 22
3 248 47 45
3 43 248 45
3 277 246 247
3 249 277 247
3 323 36 25
3 24 323 25
3 326 316 217
3 216 326 217
3 323 317 325
3 36 323 325
3 325 31 32
3 36 325 32
3 325 29 30
3 31 325 30
3 245 28 27
3 320 245 27
3 65 63 343
3 168 65 343
3 310 42 44
3 46 310 44
3 2 328 268
3 177 2 268
3 54 56 290
3 142 54 290
3 291 58 60
3 259 291 60
3 2 179 346
3 328 2 346
3 304 125 123
3 121 304 123
3 305 289 291
3 259 305 291
3 329 300 159
3 162 329 159
3 342 315 314
3 196 342 314
3 238 236 302
3 322 238 302
3 240 238 322
3 343 240 322
3 179 181 183
3 346 179 183
3 152 150 93
3 95 152 93
3 264 347 344
3 178 264 344
3 344 347 348
3 345 344 348
3 347 332 331
3 348 347 331
3 307 7 8
3 19 307 8
3 307 4 3
3 7 307 3
3 327 189 188
3 191 327 188
3 113 252 253
3 115 113 253
3 95 97 154
3 152 95 154
3 89 91 218
3 92 90 186
3 269 197 328
3 346 269 328
3 269 346 183
3 184 269 183
3 284 315 339
3 231 303 229
3 210 202 200
3 199 210 200
3 59 228 6
3 176 59 6
3 14 11 330
3 175 14 330
3 257 256 194
3 192 257 194
3 228 227 17
3 6 228 17
3 341 196 195
3 271 341 195
3 34 347 264
3 332 347 34
3 241 332 20
3 34 20 332
3 302 245 320
3 84 266 267
3 293 10 311
3 293 292 10
3 292 330 11
3 11 10 292
3 223 222 308
3 282 338 280
3 14 175 5
3 275 242 243
3 342 340 315
3 5 4 16
3 349 171 170
3 349 170 350
3 350 170 351
3 351 170 294
3 351 294 352
3 353 345 354
3 345 353 355
3 345 355 356
3 357 358 296
3 359 285 272
3 359 272 360
3 361 296 358
3 361 362 296
3 363 364 331
3 363 331 285
3 364 365 331
3 331 365 366
3 331 366 348
3 367 348 366
3 348 367 354
3 348 354 345
3 272 171 368
3 272 368 360
3 363 285 359
3 356 369 1
3 356 1 345
3 370 180 1
3 370 1 369
3 180 370 371
3 180 371 279
3 279 371 357
3 279 357 296
3 372 294 296
3 372 296 362
3 372 352 294
3 171 349 368
