ply
format ascii 1.0
comment Created by Blender 2.91.0 - www.blender.org
element vertex 113
property float x
property float y
property float z
element face 214
property list uchar uint vertex_indices
end_header
0.765166 0.836227 0.242825
0.611856 0.994131 0.872264
0.558452 0.896136 0.754869
0.637382 0.461814 -1.024989
0.834803 -0.373550 -1.097604
0.004187 -0.458099 -1.463245
0.023649 0.471507 -1.225253
-0.012859 0.788916 -1.134123
-0.584699 -0.403632 1.338128
-0.641927 -0.924732 1.212047
-0.448861 -0.915864 1.252499
-0.453642 -0.001004 1.318551
0.146953 0.750019 1.166286
0.147207 0.353163 1.255862
0.611113 0.461330 0.858632
0.557100 0.767452 0.700184
0.961527 0.473570 -0.066508
1.117695 0.088782 -0.068117
0.708310 0.046728 0.936000
0.136930 0.017741 1.273646
0.710362 -0.648264 1.069936
1.223460 -0.291960 -0.048801
0.148094 0.946432 1.113671
0.869842 0.892489 0.234218
0.827393 0.875060 -0.064940
-0.542540 0.853097 1.262115
-0.545654 0.851958 1.262137
-0.554818 0.847259 1.261860
0.830029 0.741733 -0.048669
0.512008 0.779879 -0.932841
0.846192 0.980845 0.186100
-0.661886 0.692667 1.276851
-0.532947 -0.026828 1.424419
-0.545775 0.860315 1.260594
-0.231862 0.159845 1.408151
-0.470294 0.602252 1.312549
-0.533699 0.563208 1.315926
0.020004 -0.532314 1.440168
-0.418757 -0.753066 1.458528
-0.469291 0.563411 1.312504
0.791482 0.928089 -0.532687
0.787217 0.945210 -0.551144
0.794764 0.946733 -0.530407
0.762596 0.940976 -0.606991
0.778972 0.944459 -0.559120
0.859748 0.993096 0.183616
0.824326 0.995933 0.247049
0.611803 0.924706 -0.793444
0.541695 0.918537 -0.857661
0.512119 1.029047 0.936709
0.123074 1.030228 1.150646
0.615096 1.027201 0.855389
0.750477 1.010041 0.511233
0.905152 0.985301 0.035357
0.818423 0.952864 -0.443526
0.513245 0.912781 -0.936094
0.462942 0.910024 -0.955283
0.001132 0.901479 -1.149729
-0.725857 0.961296 1.326047
-0.725857 0.933078 1.310103
-0.725857 0.953242 1.326049
-0.725857 0.661746 1.249158
-0.725857 0.580684 1.255109
-0.725857 0.698173 1.244831
-0.725857 0.706129 1.243034
-0.725857 0.439329 -1.338366
-0.725857 -0.388637 -1.445218
-0.725857 -0.865323 1.229991
-0.725857 -0.907753 1.219541
-0.725857 -0.402733 1.294617
-0.725857 0.778791 -1.271669
-0.725857 0.461363 -1.332789
-0.706139 0.960878 1.325000
-0.725857 0.718660 1.246236
-0.725857 0.902184 1.293133
-0.725857 0.904054 1.293611
-0.725857 0.908086 1.292536
-0.725857 0.786582 -1.269264
-0.725857 0.781108 1.326088
-0.479429 0.956080 1.312959
-0.122384 0.908099 -1.174280
-0.212230 0.912988 -1.195174
-0.432737 0.925761 -1.278937
-0.725857 0.943185 -1.408851
-0.725857 1.017883 1.377170
-0.402968 1.020867 1.263455
-0.725857 0.865692 -1.292271
-0.725857 0.867718 -1.294849
-0.725857 0.913374 1.294520
-0.725857 0.790203 -1.269851
-0.558748 -1.021072 -1.242073
-0.540848 -1.016852 -1.250078
-0.522883 -1.012633 -1.252461
-0.040885 -0.899387 -1.334155
0.648740 -0.738274 -1.145172
0.812121 -0.700179 -1.075382
0.908855 -0.678280 -0.814756
1.249008 -0.600814 -0.051830
0.978459 -0.665947 0.518268
0.723434 -0.727370 1.064773
-0.248707 -0.955739 1.217723
-0.423882 -0.996847 1.230762
-0.624709 -1.043071 0.943525
-0.661676 -1.051667 0.920021
-0.672708 -1.054224 0.910261
-0.725857 -1.064392 0.143530
-0.725857 -1.062366 -0.534324
-0.673044 -1.048160 -1.144287
-0.222557 -0.950284 1.443799
-0.725857 -0.433817 -1.430441
-0.725857 -0.968056 -1.206141
-0.725857 -0.980330 -1.191957
-0.725857 -0.933119 1.162623
3 0 1 2
3 3 4 5
3 6 3 5
3 7 3 6
3 8 9 10
3 11 8 10
3 12 13 14
3 12 14 15
3 14 16 15
3 17 3 16
3 18 17 16
3 14 18 16
3 14 19 18
3 13 19 14
3 11 19 13
3 20 21 17
3 11 10 19
3 19 10 20
3 18 19 20
3 18 20 17
3 22 2 1
3 1 0 23
3 0 24 23
3 21 4 17
3 17 4 3
3 25 26 27
3 16 28 15
3 28 16 29
3 16 3 29
3 29 3 7
3 23 24 30
3 22 12 2
3 12 15 2
3 15 0 2
3 15 28 0
3 0 28 24
3 28 29 24
3 27 31 32
3 27 32 26
3 26 33 27
3 32 34 25
3 32 25 35
3 32 35 36
3 32 36 26
3 25 26 36
3 25 36 35
3 33 26 25
3 34 32 37
3 32 38 37
3 39 35 36
3 40 41 42
3 40 43 44
3 30 45 46
3 40 44 41
3 47 43 40
3 47 40 24
3 47 24 48
3 22 1 49
3 22 49 50
3 1 51 49
3 52 51 1
3 52 1 23
3 46 52 23
3 46 23 30
3 53 45 30
3 53 30 24
3 54 53 24
3 54 24 40
3 40 42 54
3 24 29 55
3 24 55 48
3 29 7 56
3 29 56 55
3 56 7 57
3 58 59 60
3 8 11 61
3 8 61 62
3 11 13 63
3 11 63 61
3 13 12 64
3 13 64 63
3 65 5 66
3 9 8 67
3 9 67 68
3 69 67 8
3 70 6 71
3 6 5 65
3 6 65 71
3 60 59 72
3 62 69 8
3 73 27 26
3 73 26 74
3 26 73 64
3 26 64 12
3 26 12 75
3 26 75 74
3 12 22 76
3 12 76 75
3 7 6 70
3 7 70 77
3 78 79 72
3 78 72 60
3 58 60 72
3 36 35 79
3 36 79 78
3 54 42 41
3 54 41 44
3 54 44 43
3 54 43 47
3 54 47 48
3 54 48 55
3 54 55 56
3 54 56 57
3 54 57 80
3 54 80 81
3 54 81 82
3 54 82 83
3 54 83 84
3 54 84 85
3 54 85 50
3 54 50 49
3 54 49 51
3 54 51 52
3 54 52 46
3 54 46 45
3 54 45 53
3 82 81 86
3 82 86 87
3 60 59 88
3 60 88 85
3 60 85 84
3 87 83 82
3 22 50 85
3 22 85 88
3 22 88 76
3 7 77 89
3 7 89 80
3 7 80 57
3 86 81 80
3 86 80 89
3 90 91 92
3 90 92 93
3 90 93 94
3 90 94 95
3 90 95 96
3 90 96 97
3 90 97 98
3 90 98 99
3 90 99 100
3 90 100 101
3 90 101 102
3 90 102 103
3 90 103 104
3 90 104 105
3 90 105 106
3 90 106 107
3 101 10 102
3 10 101 100
3 99 20 10
3 99 10 100
3 98 20 99
3 97 21 20
3 97 20 98
3 97 96 21
3 4 21 96
3 4 96 95
3 5 4 95
3 5 95 94
3 9 103 102
3 9 102 10
3 94 93 5
3 93 92 5
3 37 38 108
3 74 75 76
3 74 76 88
3 74 88 59
3 74 59 58
3 74 58 60
3 74 60 84
3 74 84 83
3 74 83 87
3 74 87 86
3 74 86 89
3 74 89 77
3 74 77 70
3 74 70 71
3 74 71 65
3 74 65 66
3 74 66 109
3 74 109 110
3 74 110 111
3 74 111 106
3 74 106 105
3 74 105 112
3 74 112 68
3 74 68 67
3 74 67 69
3 74 69 62
3 74 62 61
3 74 61 63
3 74 63 64
3 74 64 73
3 109 66 5
3 109 5 92
3 109 92 91
3 106 111 107
3 107 111 110
3 107 110 90
3 90 110 109
3 90 109 91
3 103 9 68
3 103 68 112
3 103 112 104
3 104 112 105
