ply
format ascii 1.0
comment Created by Blender 2.91.0 - www.blender.org
element vertex 130
property float x
property float y
property float z
element face 250
property list uchar uint vertex_indices
end_header
-0.621354 0.573686 -1.036318
-1.098499 0.197293 -0.079177
-0.945035 0.583169 -0.077656
-0.131729 0.865330 1.154682
-0.543449 1.008552 0.742272
-0.542248 0.879884 0.688811
0.102561 -0.910418 1.591305
0.315845 -0.146003 1.517137
-0.128475 0.006798 1.550209
-0.820222 -0.744309 -1.080679
-1.231277 -0.576685 -0.063633
-0.779860 -0.695366 -1.079414
-1.201580 -0.184180 -0.059804
-0.812948 -0.263043 -1.108825
0.083514 -0.940298 -1.299747
0.067823 -1.018310 -1.275245
0.563684 -0.907706 -1.258665
0.628279 -1.020000 -1.091349
0.764449 -0.842467 -1.215517
0.765169 -0.967814 -0.217451
-0.116507 0.133141 1.262035
-0.685365 -0.536872 1.058645
0.475810 -0.796330 1.240557
0.474208 0.118541 1.306608
-0.129147 0.468482 1.244257
-0.594024 0.573391 0.847288
-0.688265 0.158116 0.924710
0.608098 -0.283157 1.326110
0.668911 -0.803843 1.199996
0.026514 0.905342 -1.145817
-0.007816 0.587686 -1.236927
0.018036 -0.341761 -1.474932
0.759411 0.582686 -1.347438
0.762357 -0.265667 -1.456958
0.763179 -0.281081 1.278209
0.764923 -0.783719 1.208527
0.692684 -0.951060 0.860919
-0.714300 0.925335 0.230298
0.758009 0.985493 -1.307993
0.758287 0.908083 -1.284942
0.007584 1.049292 -1.165782
-0.500499 1.035583 -0.947738
-0.498162 0.892624 -0.944240
-0.813721 0.985591 -0.076162
-0.815412 0.852248 -0.059890
-0.778445 1.038869 -0.543929
0.758844 1.028846 1.284175
0.758677 1.067654 1.314927
0.712928 1.084218 1.317353
0.759279 0.826794 1.232500
0.574172 0.964301 1.249481
0.602501 0.949483 1.248476
0.625176 0.940472 1.248401
-0.133588 1.061728 1.101233
-0.549772 -0.753766 1.656812
0.548606 0.477863 1.364334
0.662971 0.788577 1.280389
0.608932 1.005756 1.234652
0.234600 0.559320 1.394348
-0.864587 1.117197 -0.259908
-0.793359 1.120267 -0.533956
-0.878107 1.107340 0.180155
-0.904030 1.111972 0.039338
-0.575367 1.121853 -1.045902
-0.595523 1.122141 -1.016738
0.099746 1.107642 1.192315
0.758367 1.139272 1.371677
-0.062983 1.100754 -1.210345
-0.280018 1.109623 -1.137858
0.216881 1.088708 -1.278352
0.757692 1.065904 -1.429575
-0.571102 1.078140 0.774486
-0.700067 1.091164 0.493110
-0.129970 1.096268 1.124248
-0.190609 1.091638 1.080065
-0.717481 1.119911 -0.674134
-0.758665 1.120921 -0.632244
0.777140 1.074805 1.313944
0.777140 1.054641 1.297998
0.777140 1.082859 1.313942
0.777140 1.029649 1.280431
0.777140 1.025617 1.281506
0.777140 1.023747 1.281028
0.777140 0.840223 1.234131
0.777140 0.827692 1.230929
0.777140 0.819736 1.232726
0.777140 0.783309 1.237053
0.777140 0.702247 1.243004
0.777140 -0.281170 1.282512
0.777140 -0.743760 1.217886
0.777140 -0.786190 1.207436
0.777140 -0.811556 1.150518
0.777140 -0.964982 -0.040550
0.777140 -1.025990 -0.152612
0.777140 -1.013563 -0.215480
0.777140 -0.981936 -0.258802
0.777140 -0.972298 -0.293952
0.777140 -0.858767 -1.204062
0.777140 -0.846493 -1.218246
0.777140 -0.312254 -1.442546
0.777140 -0.267074 -1.457323
0.777140 0.560892 -1.350471
0.777140 0.582926 -1.344894
0.777140 0.900354 -1.283774
0.777140 0.908145 -1.281369
0.777140 0.911766 -1.281956
0.777140 0.987255 -1.304376
0.777140 0.989281 -1.306954
0.777140 1.064748 -1.420956
0.777140 1.139446 1.365065
0.777140 1.034937 1.282415
0.477705 1.089196 1.329846
0.468030 0.683193 1.330451
0.777140 0.902671 1.313983
-0.361545 -0.969252 1.095349
-0.746643 -0.924505 1.033409
-0.910426 -0.905801 0.688648
-1.279647 -0.863619 -0.071095
-1.000850 -0.896735 -0.727497
-0.833987 -0.916488 -1.054449
-0.288511 -0.980087 -1.177247
0.068564 -1.021737 -1.274519
0.444096 -1.065302 -1.145314
0.605612 -1.083986 -1.038083
0.662727 -1.090154 -0.573519
0.732117 -1.097857 -0.211839
0.739304 -1.098549 -0.071933
0.678765 -1.090589 0.818152
0.552247 -1.075722 0.959691
0.397227 -1.057466 1.170658
3 0 1 2
3 3 4 5
3 6 7 8
3 9 10 11
3 10 12 11
3 11 12 13
3 11 14 9
3 9 14 15
3 14 16 15
3 15 16 17
3 17 16 18
3 19 17 18
3 20 21 22
3 23 20 22
3 24 20 23
3 21 12 10
3 21 1 12
3 25 2 26
3 23 22 27
3 27 22 28
3 24 25 20
3 25 26 20
3 0 29 30
3 30 31 0
3 30 32 31
3 32 33 31
3 0 31 13
3 13 31 11
3 31 14 11
3 31 16 14
3 31 33 16
3 33 18 16
3 34 27 35
3 1 0 13
3 36 19 35
3 5 4 37
3 38 39 40
3 40 39 29
3 40 29 41
3 41 29 42
3 43 41 42
3 44 43 42
3 5 37 44
3 37 43 44
3 42 29 0
3 2 42 0
3 43 45 41
3 46 47 48
3 39 32 30
3 29 39 30
3 49 27 34
3 46 50 51
3 46 51 52
3 46 52 49
3 3 49 52
3 3 52 51
3 3 51 50
3 3 50 46
3 53 3 46
3 53 4 3
3 44 42 2
3 2 5 44
3 25 5 2
3 3 5 25
3 3 25 24
3 3 24 49
3 24 23 49
3 23 27 49
3 26 21 20
3 28 36 35
3 27 28 35
3 28 22 36
3 26 2 1
3 26 1 21
3 12 1 13
3 8 54 6
3 51 55 56
3 51 56 52
3 52 57 51
3 58 55 51
3 58 51 50
3 50 51 57
3 58 7 55
3 58 8 7
3 59 60 45
3 37 61 62
3 37 62 43
3 43 62 59
3 43 59 45
3 63 41 45
3 63 45 64
3 65 53 46
3 65 46 48
3 65 48 47
3 65 47 66
3 67 40 41
3 67 41 68
3 40 67 69
3 40 69 38
3 70 38 69
3 4 71 72
3 4 72 37
3 72 61 37
3 73 53 65
3 53 73 74
3 71 4 53
3 71 53 74
3 68 41 63
3 75 64 45
3 45 76 75
3 60 76 45
3 77 78 79
3 80 81 82
3 80 82 83
3 80 83 84
3 80 84 85
3 80 85 86
3 80 86 87
3 80 87 88
3 80 88 89
3 80 89 90
3 80 90 91
3 80 91 92
3 80 92 93
3 80 93 94
3 80 94 95
3 80 95 96
3 80 96 97
3 80 97 98
3 80 98 99
3 80 99 100
3 80 100 101
3 80 101 102
3 80 102 103
3 80 103 104
3 80 104 105
3 80 105 106
3 80 106 107
3 80 107 108
3 80 108 109
3 80 109 77
3 80 77 79
3 80 79 78
3 80 78 110
3 93 19 94
3 19 93 92
3 49 87 86
3 49 86 85
3 49 85 84
3 100 33 32
3 100 32 101
3 33 100 99
3 35 90 89
3 89 88 34
3 89 34 35
3 94 19 95
3 95 19 96
3 18 97 96
3 18 96 19
3 18 98 97
3 102 32 39
3 102 39 103
3 32 102 101
3 98 18 33
3 98 33 99
3 35 91 90
3 35 19 92
3 35 92 91
3 78 77 47
3 78 47 46
3 87 49 34
3 87 34 88
3 46 49 83
3 46 83 82
3 46 82 81
3 49 84 83
3 46 81 80
3 39 104 103
3 47 48 111
3 47 111 112
3 47 112 113
3 47 113 77
3 48 47 77
3 48 77 79
3 108 70 69
3 108 69 67
3 108 67 68
3 108 68 63
3 108 63 64
3 108 64 75
3 108 75 76
3 108 76 60
3 108 60 59
3 108 59 62
3 108 62 61
3 108 61 72
3 108 72 71
3 108 71 74
3 108 74 73
3 108 73 65
3 108 65 66
3 108 66 109
3 38 107 106
3 46 110 78
3 66 47 77
3 66 77 109
3 108 107 38
3 108 38 70
3 46 80 110
3 39 105 104
3 39 38 106
3 39 106 105
3 114 115 116
3 114 116 117
3 114 117 118
3 114 118 119
3 114 119 120
3 114 120 121
3 114 121 122
3 114 122 123
3 114 123 124
3 114 124 125
3 114 125 126
3 114 126 127
3 114 127 128
3 114 128 129
3 128 127 36
3 118 9 119
3 10 9 118
3 10 118 117
3 126 125 19
3 116 10 117
3 116 115 21
3 116 21 10
3 21 115 114
3 21 114 22
3 128 36 22
3 128 22 129
3 129 22 114
3 19 36 127
3 19 127 126
3 120 119 9
3 9 15 121
3 9 121 120
3 15 17 122
3 15 122 121
3 17 123 122
3 123 17 19
3 123 19 124
3 125 124 19
