ply
format ascii 1.0
comment Created by Blender 2.91.0 - www.blender.org
element vertex 135
property float x
property float y
property float z
element face 294
property list uchar uint vertex_indices
end_header
0.591628 0.722291 -0.195622
0.591628 -0.657710 -0.102952
0.555498 -0.657710 -0.200501
0.555498 0.722291 -0.293171
0.496826 -0.657710 -0.290402
0.496826 0.722291 -0.383072
0.053407 0.722291 -0.521505
0.053407 -0.657710 -0.521505
-0.070459 -0.657710 -0.511514
-0.085316 0.722291 -0.511514
0.038550 0.722291 0.425825
0.162416 0.722291 0.415833
0.241037 0.722291 0.386242
0.350806 0.722291 0.338189
0.403008 0.722291 0.273520
0.481968 0.722291 0.194721
0.540641 0.722291 0.104820
0.576771 0.722291 0.007272
0.603828 0.722291 -0.094175
0.417866 0.722291 -0.461871
0.378824 0.716069 -0.468272
0.255895 0.722291 -0.481923
0.177273 0.722291 -0.511514
-0.223361 0.708580 -0.521053
-0.310203 0.703908 -0.512195
-0.406546 0.708580 -0.501001
-0.485506 0.708580 -0.422202
-0.544179 0.708580 -0.332300
-0.557828 0.721185 -0.195622
-0.530459 0.722291 -0.094175
-0.518259 0.722291 0.007272
-0.482129 0.722291 0.104820
-0.423456 0.722291 0.194722
-0.344496 0.722291 0.273520
-0.248283 0.722291 0.338189
-0.161311 0.722291 0.386242
-0.085315 0.722291 0.415833
-0.645831 -0.666234 -0.235119
-0.645935 -0.667009 -0.234628
-0.645612 -0.671255 -0.233054
-0.631088 -0.671276 -0.251243
-0.629017 -0.666993 -0.255833
-0.495790 -0.557285 -0.413422
-0.566006 -0.612776 -0.332301
-0.224900 -0.657933 -0.465077
-0.231686 -0.634471 -0.481170
-0.370735 -0.556778 -0.476267
-0.479260 -0.513150 -0.458317
-0.488750 -0.518688 -0.448981
-0.173981 -0.657710 -0.488647
-0.204550 -0.648450 -0.482188
0.261417 -0.619574 -0.490331
0.177273 -0.641515 -0.511514
0.142861 -0.657710 -0.514290
0.250692 -0.657710 -0.464220
0.461404 -0.642910 -0.370195
0.404970 -0.598507 -0.435352
0.294958 -0.609282 -0.481923
0.468433 -0.657710 -0.354418
0.544386 -0.204299 0.201722
0.557778 -0.169749 0.090987
0.517807 -0.202778 0.219203
0.509397 -0.207738 0.246116
0.525374 -0.213860 0.256073
0.540641 -0.211244 0.232324
0.398508 -0.266370 0.450588
0.413927 -0.268699 0.450516
0.481968 -0.232764 0.325164
0.392292 -0.269551 0.458808
0.406084 -0.276782 0.468978
0.403008 -0.281568 0.476545
0.348051 -0.289525 0.492541
0.292887 -0.332327 0.562111
0.317386 -0.325620 0.550123
-0.548465 -0.209803 0.183956
-0.544679 -0.209560 0.186444
-0.549360 -0.205958 0.172132
-0.040105 -0.349287 0.638736
-0.287919 -0.319367 0.537790
-0.274499 -0.329623 0.554604
-0.194862 -0.351727 0.603456
-0.117093 -0.360946 0.634912
0.056454 -0.346939 0.638096
0.130737 -0.357547 0.634224
0.241037 -0.354752 0.604068
0.600124 -0.134057 -0.080287
0.603828 -0.134691 -0.094175
0.600146 -0.133713 -0.096825
-0.318481 -0.310355 0.521535
-0.281070 -0.327259 0.550455
-0.447636 -0.262097 0.400367
-0.519555 -0.224386 0.267429
-0.521935 -0.225318 0.268918
-0.512022 -0.234627 0.298352
-0.454161 -0.260600 0.393506
-0.548168 -0.210677 0.187651
-0.547469 -0.212739 0.196377
-0.489192 -0.228479 -0.436305
-0.453051 -0.247225 -0.469474
-0.463559 -0.249343 -0.467534
0.121932 -0.657710 0.694930
-0.001934 -0.657710 0.704922
0.241037 -0.657710 0.665339
0.306795 -0.657710 0.617286
0.403008 -0.657710 0.552617
0.481968 -0.657710 0.383204
0.540641 -0.657710 0.293303
0.576771 -0.657710 0.007271
0.603828 -0.657710 -0.094175
0.461876 -0.657710 -0.369201
0.406147 -0.657710 -0.433870
0.296379 -0.657710 -0.481923
0.177273 -0.657710 -0.511514
-0.204422 -0.657710 -0.481923
-0.376239 -0.671421 -0.472999
-0.489176 -0.679761 -0.452496
-0.496840 -0.686494 -0.412526
-0.566974 -0.671421 -0.332301
-0.609898 -0.154725 -0.253465
-0.588262 -0.169437 -0.295886
-0.646215 -0.671421 -0.234752
-0.561369 -0.657710 0.286369
-0.596365 -0.657710 -0.094175
-0.525239 -0.657710 0.383918
-0.466566 -0.657710 0.473819
-0.387606 -0.657710 0.552618
-0.291393 -0.657710 0.617286
-0.204421 -0.657710 0.665340
-0.125799 -0.657710 0.694930
-0.534952 0.386463 -0.349329
-0.528254 0.370294 -0.305130
-0.574637 0.386402 -0.246909
-0.549412 0.391780 -0.332300
-0.580611 0.362222 -0.205708
-0.570166 0.320048 -0.169337
3 0 1 2
3 0 2 3
3 3 2 4
3 3 4 5
3 6 7 8
3 6 8 9
3 10 11 12
3 10 12 13
3 10 13 14
3 10 14 15
3 10 15 16
3 10 16 17
3 10 17 18
3 10 18 0
3 10 0 3
3 10 3 5
3 10 5 19
3 10 19 20
3 10 20 21
3 10 21 22
3 10 22 6
3 10 6 9
3 10 9 23
3 10 23 24
3 10 24 25
3 10 25 26
3 10 26 27
3 10 27 28
3 10 28 29
3 10 29 30
3 10 30 31
3 10 31 32
3 10 32 33
3 10 33 34
3 10 34 35
3 10 35 36
3 37 38 39
3 37 39 40
3 37 40 41
3 42 43 41
3 42 41 40
3 42 40 44
3 42 44 45
3 42 45 46
3 42 46 47
3 42 47 48
3 49 50 45
3 49 45 44
3 51 52 53
3 51 53 54
3 55 56 57
3 55 57 51
3 55 51 54
3 55 54 58
3 59 60 61
3 59 61 62
3 59 62 63
3 59 63 64
3 63 62 65
3 63 65 66
3 63 66 67
3 66 65 68
3 66 68 69
3 70 69 68
3 70 68 71
3 70 71 72
3 70 72 73
3 74 75 76
3 77 78 79
3 77 79 80
3 77 80 81
3 72 71 82
3 72 82 83
3 72 83 84
3 85 86 87
3 79 78 88
3 79 88 89
3 90 91 92
3 90 92 93
3 90 93 94
3 92 91 75
3 92 75 74
3 92 74 95
3 92 95 96
3 97 98 99
3 82 100 83
3 11 10 101
3 11 101 100
3 11 100 82
3 11 82 83
3 100 102 84
3 100 84 83
3 12 11 83
3 12 83 84
3 103 73 72
3 103 72 84
3 103 84 102
3 13 12 84
3 13 84 72
3 13 72 73
3 103 104 70
3 103 70 73
3 14 13 73
3 14 73 70
3 15 14 70
3 15 70 69
3 15 69 66
3 15 66 67
3 69 70 104
3 69 104 105
3 69 105 67
3 69 67 66
3 106 64 63
3 106 63 67
3 106 67 105
3 16 15 67
3 16 67 63
3 16 63 64
3 107 17 16
3 107 16 64
3 107 64 59
3 107 59 60
3 64 106 107
3 64 107 60
3 64 60 59
3 86 18 17
3 86 17 107
3 86 107 108
3 86 108 85
3 1 0 18
3 1 18 86
3 1 86 87
3 86 108 1
3 19 5 4
3 19 4 58
3 19 58 55
3 58 109 55
3 56 20 19
3 56 19 55
3 55 109 110
3 55 110 56
3 57 21 20
3 57 20 56
3 56 110 111
3 56 111 57
3 52 22 21
3 52 21 57
3 52 57 51
3 51 57 111
3 51 111 112
3 51 112 52
3 53 7 6
3 53 6 22
3 53 22 52
3 52 112 53
3 23 9 8
3 23 8 49
3 23 49 50
3 49 113 50
3 46 24 23
3 46 23 50
3 46 50 45
3 50 113 114
3 50 114 46
3 25 24 46
3 25 46 47
3 25 47 98
3 25 98 99
3 47 99 98
3 46 114 115
3 46 115 47
3 47 48 97
3 47 97 99
3 97 48 42
3 97 42 26
3 97 26 25
3 97 25 99
3 48 47 115
3 48 115 116
3 48 116 42
3 42 116 117
3 42 117 43
3 37 118 119
3 37 119 43
3 37 43 41
3 117 120 38
3 117 38 37
3 117 37 41
3 117 41 43
3 120 39 38
3 96 95 121
3 76 96 30
3 76 30 29
3 76 29 122
3 76 122 121
3 76 121 95
3 76 95 74
3 96 76 74
3 96 74 95
3 93 31 30
3 93 30 96
3 93 96 92
3 96 121 123
3 96 123 93
3 94 32 31
3 94 31 93
3 93 123 124
3 93 124 94
3 124 125 33
3 124 33 32
3 124 32 94
3 124 94 90
3 125 126 89
3 125 89 88
3 34 33 125
3 34 125 88
3 34 88 89
3 35 34 89
3 35 89 79
3 35 79 80
3 126 127 80
3 126 80 79
3 126 79 89
3 58 4 2
3 58 2 1
3 58 1 108
3 58 108 107
3 58 107 106
3 58 106 105
3 58 105 104
3 58 104 103
3 58 103 102
3 58 102 100
3 58 100 101
3 58 101 128
3 58 128 127
3 58 127 126
3 58 126 125
3 58 125 124
3 58 124 123
3 58 123 121
3 58 121 122
3 58 122 39
3 58 39 40
3 58 40 44
3 58 44 49
3 58 49 8
3 58 8 7
3 58 7 53
3 58 53 54
3 112 111 110
3 112 110 109
3 112 109 58
3 112 58 54
3 112 54 53
3 39 120 117
3 39 117 116
3 39 116 115
3 39 115 114
3 39 114 113
3 39 113 49
3 39 49 44
3 39 44 40
3 36 35 80
3 36 80 81
3 127 128 81
3 127 81 80
3 77 101 10
3 77 10 36
3 77 36 81
3 128 101 77
3 128 77 81
3 129 130 131
3 129 131 132
3 133 131 130
3 133 130 134
3 27 129 132
3 129 27 26
3 129 26 42
3 129 42 43
3 129 43 132
3 133 28 27
3 133 27 132
3 133 132 131
3 37 38 133
3 37 133 131
3 37 131 132
3 37 132 43
3 28 133 134
3 39 122 29
3 39 29 28
3 39 28 134
3 39 134 133
3 39 133 38
