ply
format ascii 1.0
comment Created by Blender 2.91.0 - www.blender.org
element vertex 152
property float x
property float y
property float z
element face 326
property list uchar uint vertex_indices
end_header
-0.480123 -1.033334 -0.131802
-0.207075 -1.122090 -0.145583
0.045009 -1.097446 0.417678
0.371119 0.884748 1.126016
0.456786 0.312185 0.964396
0.936794 0.765176 0.021420
0.380336 1.242429 -0.978450
0.421039 1.193771 -0.979738
-0.481421 0.991444 -1.198299
-0.280547 -0.918208 0.826001
0.221658 -0.825346 0.844458
-0.524501 -0.432386 0.802603
-0.350556 -0.351809 0.931078
-1.006909 0.204197 0.725802
0.831479 1.364278 0.037078
-0.727459 0.659864 1.215319
-1.089287 0.976412 0.962709
-0.422115 -0.075704 0.929563
0.083894 -0.122106 0.991089
0.185103 -0.564940 1.046822
0.534200 -0.215509 0.997334
0.597158 -0.221337 0.781335
0.923188 0.569665 0.004887
0.450395 0.856738 -0.928379
1.008155 0.369098 -0.011845
0.981099 0.008600 -0.032616
0.819440 -0.170201 0.715734
0.769403 -0.662841 0.415931
0.486743 -0.746861 0.845543
0.505937 -1.052591 0.406430
-0.492875 0.780855 -1.145712
-0.370259 0.255279 -1.179859
-0.955720 0.715507 -0.829051
-0.766206 0.140851 -0.816664
-0.911067 -0.000805 -0.074261
-0.738970 -0.327320 -0.841848
-0.794722 -0.555337 -0.108258
-0.646236 -0.658531 -0.791727
-0.394351 -0.976460 -0.629925
-0.228957 -0.871000 -1.100009
-0.068351 -1.012815 -0.875073
0.595612 -0.921264 -0.832130
-0.299372 -0.245446 -1.179718
-0.003001 -0.201185 -1.220585
0.541822 0.289380 -1.007831
0.615348 -0.129447 -1.126195
1.046206 -0.505297 -0.091087
0.974438 -0.757562 -0.127008
0.782673 -0.975071 -0.184438
0.089989 -1.246128 0.358118
-0.155790 -1.236042 -0.147394
0.511631 -1.191342 0.347818
0.761481 -1.115061 -0.203249
0.604546 -1.110952 -0.807405
-0.006178 -1.187789 -0.860006
0.633660 -0.563756 -1.047921
0.328175 -0.551242 -1.151710
0.016872 -0.529255 -1.157915
-0.603429 -0.699132 -0.119337
-0.689851 -0.510550 0.648605
0.510274 0.145693 0.853252
-1.025497 0.907921 -0.989595
-0.961785 1.020666 -1.156947
-0.465169 0.913543 -1.173806
-0.261799 -0.549084 -1.223878
0.051365 0.102402 1.150941
-0.454016 0.075779 1.025799
0.584662 -1.076552 -0.508204
0.490014 -1.050254 -0.608383
0.663949 -1.078245 -0.198720
0.700154 -1.103155 -0.325101
0.243014 -0.919351 -0.179171
0.081704 -1.093120 -0.619897
0.436084 -1.078864 -0.673728
0.293529 -1.146681 -0.824735
0.119179 -1.105369 -0.663849
-0.067420 -1.170094 -0.196417
-0.054579 -1.155671 -0.155459
-0.000961 -1.151424 -0.540413
-0.075699 -1.188942 -0.317654
0.422582 -1.101174 0.173115
0.531233 -1.118591 0.093452
0.621631 -1.135604 0.035145
0.662111 -1.096099 -0.139979
0.315494 -1.181351 0.290933
0.149736 -1.118542 0.148341
0.019737 -1.175869 0.041264
0.072312 -1.151625 0.081859
-0.017994 -0.917304 0.037975
-0.038690 -0.911559 -0.449581
-0.085567 -1.262907 -0.282475
0.025524 -1.215527 0.041768
-0.215641 -1.607701 0.347989
-0.022107 -1.424054 0.541529
0.010286 -1.507390 0.872894
0.334397 -1.282184 0.572895
0.339157 -1.421344 0.940867
0.722888 -1.501979 0.886290
0.573727 -1.601261 1.316488
0.873659 -1.754581 0.851252
0.567209 -1.731076 1.364999
0.249592 -0.909500 0.233763
0.322870 -1.211776 0.297331
0.648636 -1.205752 0.034963
0.535231 -0.911167 0.035726
0.748192 -1.221566 -0.259185
0.618009 -0.900671 -0.437817
0.556899 -1.222984 -0.566806
0.286131 -0.899986 -0.806438
0.295715 -1.219577 -0.830141
0.012447 -1.236669 -0.572693
0.305510 -1.414128 -0.893865
0.020345 -1.762538 -0.730036
0.326672 -1.748604 -0.911445
0.960890 -1.603786 0.427340
0.726249 -1.385549 0.500669
0.641740 -1.762545 -0.673215
-0.122209 -1.760075 -0.292372
0.874194 -1.760560 -0.290684
-0.222760 -1.756540 0.344196
1.013422 -1.756925 0.435674
-0.122070 -1.754074 0.813080
0.140050 -1.614490 1.287127
0.345927 -1.602003 1.381370
0.348763 -1.714092 1.433251
0.156376 -1.737012 1.341177
-1.150287 0.913399 -0.113649
-1.150287 0.900972 -0.050781
-1.150287 0.961980 0.061281
-1.150287 0.945026 -0.156971
-1.150287 0.954664 -0.192121
-1.086106 0.996858 1.009747
-1.049139 1.005454 1.033251
-0.848312 1.051678 1.320488
-0.673137 1.092786 1.307449
0.299004 1.321155 1.154499
0.554029 1.382578 0.607994
0.824578 1.447711 0.037896
0.484425 1.370245 -0.725030
0.387691 1.348346 -0.985656
0.224310 1.310251 -1.055446
-0.465315 1.149138 -1.244429
-0.947313 1.035892 -1.162735
-0.965278 1.031673 -1.160352
-0.983178 1.027453 -1.152347
-1.097474 1.000365 -1.054561
-1.150287 0.986159 -0.444598
-1.150287 0.984133 0.233256
-1.097138 0.994301 0.999987
-0.730119 0.233558 1.527237
-0.145325 0.593974 1.495863
-0.646987 1.098241 1.533525
3 0 1 2
3 3 4 5
3 6 7 8
3 9 0 2
3 9 2 10
3 11 9 10
3 12 11 10
3 13 11 12
3 3 5 14
3 15 16 13
3 17 12 18
3 18 12 19
3 19 12 10
3 19 10 20
3 10 21 20
3 20 21 5
3 21 22 5
3 5 22 23
3 22 24 23
3 24 25 23
3 26 25 24
3 26 27 25
3 28 27 26
3 28 29 27
3 28 2 29
3 30 23 31
3 30 31 32
3 32 31 33
3 34 32 33
3 34 33 35
3 36 34 35
3 36 35 37
3 38 36 37
3 38 37 39
3 38 39 40
3 40 39 41
3 31 42 33
3 31 43 42
3 31 44 43
3 44 45 43
3 25 45 44
3 46 45 25
3 27 46 25
3 27 47 46
3 29 47 27
3 29 48 47
3 49 2 50
3 2 49 29
3 29 49 51
3 29 51 48
3 51 52 48
3 48 52 41
3 52 53 41
3 41 53 54
3 48 41 47
3 47 41 55
3 56 55 41
3 45 55 56
3 57 45 56
3 43 45 57
3 43 57 42
3 9 58 0
3 36 58 9
3 9 59 36
3 59 34 36
3 11 34 59
3 11 13 34
3 10 2 28
3 10 28 21
3 21 28 26
3 26 24 21
3 18 19 20
3 60 18 20
3 60 20 5
3 4 60 5
3 61 62 63
3 8 63 62
3 50 2 1
3 50 1 54
3 1 40 54
3 40 41 54
3 56 41 57
3 57 41 64
3 64 41 39
3 64 39 37
3 58 36 38
3 0 58 38
3 0 38 1
3 15 65 3
3 15 66 65
3 15 13 66
3 67 68 53
3 67 53 52
3 67 52 69
3 67 69 70
3 71 68 67
3 71 67 70
3 71 70 69
3 72 54 53
3 72 53 68
3 72 68 73
3 72 73 74
3 72 74 75
3 73 68 71
3 73 71 72
3 73 72 75
3 73 75 74
3 76 77 50
3 76 50 54
3 76 54 72
3 76 72 78
3 76 78 79
3 72 71 77
3 72 77 76
3 72 76 79
3 72 79 78
3 42 57 64
3 42 64 35
3 37 35 64
3 69 52 51
3 69 51 80
3 69 80 81
3 69 81 82
3 69 82 83
3 83 82 81
3 83 81 80
3 83 80 71
3 83 71 69
3 84 80 51
3 84 51 49
3 84 49 85
3 85 71 80
3 85 80 84
3 46 47 45
3 47 55 45
3 11 59 9
3 1 38 40
3 21 24 22
3 49 50 77
3 49 77 86
3 49 86 87
3 49 87 85
3 86 77 71
3 86 71 85
3 86 85 87
3 33 42 35
3 4 18 60
3 25 44 23
3 23 44 31
3 8 7 63
3 63 7 30
3 61 63 30
3 32 61 30
3 7 23 30
3 5 23 7
3 7 6 14
3 5 7 14
3 3 65 4
3 65 18 4
3 65 66 18
3 66 17 18
3 66 13 17
3 17 13 12
3 88 89 79
3 88 79 76
3 90 76 79
3 77 86 88
3 77 88 76
3 76 90 91
3 76 91 86
3 76 86 77
3 92 91 90
3 93 91 92
3 94 93 92
3 94 95 93
3 94 96 95
3 96 97 95
3 98 97 96
3 98 99 97
3 100 99 98
3 80 81 101
3 80 101 84
3 84 102 103
3 84 103 81
3 84 81 80
3 82 104 101
3 82 101 81
3 103 82 81
3 82 83 104
3 83 82 103
3 83 103 105
3 106 104 83
3 106 83 69
3 106 69 70
3 83 105 70
3 83 70 69
3 70 67 106
3 105 107 67
3 105 67 70
3 108 106 67
3 108 67 68
3 108 68 73
3 67 107 73
3 67 73 68
3 73 74 108
3 107 109 74
3 107 74 73
3 74 75 108
3 109 110 75
3 109 75 74
3 109 111 110
3 110 111 112
3 111 113 112
3 87 101 88
3 87 88 86
3 91 87 86
3 84 101 87
3 84 87 85
3 87 91 102
3 87 102 84
3 97 114 115
3 99 114 97
3 112 113 116
3 117 112 116
3 117 116 118
3 119 117 118
3 119 118 120
3 99 119 120
3 72 78 89
3 72 89 108
3 72 108 75
3 110 78 72
3 110 72 75
3 79 89 78
3 78 110 90
3 78 90 79
3 90 110 117
3 92 90 117
3 119 92 117
3 121 92 119
3 122 96 94
3 122 123 96
3 123 122 124
3 123 124 98
3 124 100 98
3 121 94 92
3 122 94 121
3 125 122 121
3 122 125 124
3 107 111 109
3 116 111 107
3 118 116 107
3 118 107 105
3 114 118 105
3 103 114 105
3 121 119 99
3 100 121 99
3 125 121 100
3 124 125 100
3 120 118 114
3 99 120 114
3 117 110 112
3 93 95 91
3 111 116 113
3 123 98 96
3 97 115 95
3 115 114 103
3 95 115 103
3 95 103 102
3 91 95 102
3 126 34 13
3 126 13 127
3 13 16 128
3 13 128 127
3 129 32 34
3 129 34 126
3 32 129 130
3 32 130 61
3 131 132 133
3 131 133 134
3 131 134 135
3 131 135 136
3 131 136 137
3 131 137 138
3 131 138 139
3 131 139 140
3 131 140 141
3 131 141 142
3 131 142 143
3 131 143 144
3 131 144 145
3 131 145 146
3 131 146 147
3 131 147 148
3 149 150 151
3 15 133 132
3 15 132 16
3 15 3 134
3 15 134 133
3 3 135 134
3 135 3 14
3 135 14 136
3 136 14 137
3 138 137 14
3 138 14 6
3 6 139 138
3 6 140 139
3 131 16 132
3 6 8 141
3 6 141 140
3 8 62 142
3 8 142 141
3 146 130 129
3 146 129 126
3 146 126 127
3 146 127 128
3 146 128 147
3 62 143 142
3 145 61 130
3 145 130 146
3 144 62 61
3 144 61 145
3 143 62 144
3 16 131 148
3 16 148 147
3 16 147 128
