ply
format ascii 1.0
comment Created by Blender 2.91.0 - www.blender.org
element vertex 134
property float x
property float y
property float z
element face 295
property list uchar uint vertex_indices
end_header
-0.944454 -0.611972 -0.103509
-0.751202 -0.828131 -0.161047
-0.473597 -0.903704 0.429665
0.823251 -0.397334 -0.085753
0.632965 -0.542473 -0.096724
0.425553 -0.821261 -0.607196
-0.687119 -1.354607 0.909645
-0.691514 -1.238200 0.524026
-0.924660 -1.458078 0.450830
-0.739786 -0.515815 0.439315
-0.456303 -0.597848 0.868767
-0.793110 -0.023539 0.739147
-0.570438 -0.073112 0.804623
-0.986013 0.514426 0.011676
-0.902448 0.715582 0.028359
-0.432206 1.005964 -0.905171
-0.917416 0.910991 0.044901
0.748206 0.817366 1.237864
0.478762 0.231375 1.048497
1.030571 0.363672 0.748189
-0.433711 0.461382 0.987605
-0.486092 0.294518 0.876491
-0.507400 -0.066841 1.020586
-0.190675 -0.674471 0.867533
-0.012360 -0.945325 0.440654
0.675109 -0.501573 -0.769138
0.259158 -0.716967 -1.077187
0.289671 -0.394825 -1.201073
-0.564889 -0.773013 -0.808843
0.010904 -0.376953 -1.134953
-0.300233 -0.401128 -1.128574
-0.590346 0.018645 -1.102897
-0.605565 -0.415782 -1.024613
0.189090 -1.082509 -0.124531
0.239575 -0.968200 -0.122748
-0.056329 -1.094319 0.381119
-0.478348 -1.042493 0.371056
-0.729039 -0.967968 -0.179870
-0.572476 -0.962760 -0.784115
0.038744 -1.035309 -0.837058
0.552685 -0.276282 0.825260
0.935722 0.157997 -0.051819
0.378251 -0.196931 0.953834
-0.155833 -0.413815 1.069879
0.325136 -0.090932 -1.156934
0.765489 -0.169718 -0.819311
0.789452 0.298631 -0.794142
0.028440 -0.048753 -1.197634
0.392508 0.410278 -1.157114
-0.519695 0.437978 -0.984574
-0.956441 0.154123 -0.009113
0.312160 -0.763805 0.848794
0.718493 -0.353288 0.671169
0.974922 0.874605 -0.806633
0.512002 -0.877532 -0.109121
-0.057765 0.029719 1.014090
0.447870 0.079673 0.952278
-1.017972 -0.360215 -0.067548
-0.458261 -0.901259 -0.585157
-0.552665 -0.928221 -0.484924
-0.667865 -0.955632 -0.301756
-0.631765 -0.930469 -0.175395
-0.211944 -0.768627 -0.156084
-0.629769 -0.948310 -0.116657
-0.588915 -0.987529 0.058444
-0.498609 -0.969883 0.116698
-0.390033 -0.951704 0.196305
-0.117087 -0.967156 0.171374
-0.282321 -1.031126 0.314061
0.087314 -1.002851 -0.132539
-0.039468 -0.999696 0.104846
0.013250 -1.023569 0.064224
0.100233 -1.017185 -0.173505
0.108575 -1.035974 -0.294745
0.033449 -0.998979 -0.517463
-0.049666 -0.941258 -0.596900
-0.087079 -0.953771 -0.640831
-0.261226 -0.996305 -0.801619
-0.404167 -0.929491 -0.650533
0.099679 -0.859901 -0.852160
0.511453 0.936701 -1.123034
-0.351974 1.034532 1.149179
-0.026722 0.254450 1.173923
-0.255548 -0.749566 -0.783326
0.069545 -0.758855 -0.426652
0.020621 -1.084315 -0.549736
0.118982 -1.109866 -0.259572
0.049165 -0.764746 0.060916
0.007742 -1.063264 0.064731
-0.218359 -0.758819 0.256853
-0.289479 -1.061600 0.320463
-0.615426 -1.057862 0.058277
-0.300356 -1.132087 0.596033
-0.836135 -1.608256 0.874692
-0.976111 -1.611581 0.459193
-0.504090 -0.762492 0.058979
-0.715034 -1.074375 -0.235814
-0.587206 -0.752579 -0.414517
-0.523908 -1.074455 -0.543543
-0.262904 -1.069215 -0.807024
-0.271368 -1.263829 -0.870743
0.016326 -1.610231 -0.707076
-0.290193 -1.598446 -0.888312
-0.837269 -1.614241 -0.267244
0.259988 -1.602525 0.367020
0.159545 -1.600764 0.835961
-0.529569 -1.582603 1.388266
-0.118717 -1.585655 1.364214
-0.311208 -1.564085 1.456397
0.025494 -1.355014 0.895849
0.057115 -1.271455 0.564467
0.251826 -1.453738 0.370817
-0.103282 -1.463020 1.310155
-0.309188 -1.451980 1.404514
-0.303934 -1.271278 0.964008
-0.537024 -1.452836 1.339758
-0.605021 -1.614596 -0.649905
0.159106 -1.606765 -0.269491
1.020589 1.003518 -0.913950
0.859073 1.022202 -1.021181
0.483541 1.065767 -1.150386
0.126466 1.107417 -1.053114
-0.419010 1.171016 -0.930316
-0.585873 1.190769 -0.603364
-0.864670 1.223885 0.053038
-0.495449 1.181703 0.812781
-0.331666 1.162999 1.157542
0.053432 1.118252 1.219482
0.812204 1.030038 1.294791
0.967224 1.011782 1.083824
1.093742 0.996915 0.942285
1.154281 0.988955 0.052200
1.147094 0.989647 -0.087706
1.077704 0.997350 -0.449386
3 0 1 2
3 3 4 5
3 6 7 8
3 2 9 0
3 10 9 2
3 10 11 9
3 12 11 10
3 11 12 13
3 12 14 13
3 14 15 13
3 16 15 14
3 17 18 19
3 20 16 21
3 21 16 22
3 22 16 12
3 23 22 12
3 12 10 23
3 23 10 24
3 10 2 24
3 5 25 3
3 5 26 25
3 27 25 26
3 28 27 26
3 29 27 28
3 30 29 28
3 31 29 30
3 31 30 32
3 0 31 32
3 0 32 28
3 1 0 28
3 33 34 24
3 35 33 24
3 2 35 24
3 2 36 35
3 2 1 36
3 36 1 37
3 1 28 37
3 37 28 38
3 28 39 38
3 40 41 19
3 42 40 19
3 42 23 40
3 43 23 42
3 22 23 43
3 29 44 27
3 44 45 27
3 44 46 45
3 41 45 46
3 47 44 29
3 47 48 44
3 49 48 47
3 15 48 49
3 50 15 49
3 13 15 50
3 11 13 50
3 23 24 51
3 23 51 40
3 40 51 52
3 40 52 41
3 52 3 41
3 48 46 44
3 48 53 46
3 24 34 54
3 51 24 54
3 51 54 4
3 51 4 3
3 55 43 42
3 55 42 56
3 56 42 19
3 18 56 19
3 11 50 9
3 9 50 57
3 57 50 31
3 57 31 0
3 37 38 58
3 37 58 59
3 37 59 60
3 37 60 61
3 58 62 61
3 58 61 60
3 58 60 59
3 36 37 61
3 36 61 63
3 36 63 64
3 36 64 65
3 36 65 66
3 63 61 62
3 63 62 66
3 63 66 65
3 63 65 64
3 67 35 36
3 67 36 66
3 67 66 68
3 62 67 68
3 62 68 66
3 69 33 35
3 69 35 67
3 69 67 70
3 69 70 71
3 67 62 69
3 67 69 71
3 67 71 70
3 39 33 69
3 39 69 72
3 39 72 73
3 39 73 74
3 39 74 75
3 72 69 62
3 72 62 75
3 72 75 74
3 72 74 73
3 58 38 39
3 58 39 75
3 58 75 76
3 58 76 77
3 58 77 78
3 78 77 76
3 78 76 75
3 78 75 62
3 78 62 58
3 34 79 5
3 79 26 5
3 79 28 26
3 25 27 45
3 3 25 45
3 3 45 41
3 31 47 29
3 49 47 31
3 50 49 31
3 15 80 48
3 81 82 17
3 81 20 82
3 20 81 16
3 28 79 39
3 34 39 79
3 54 5 4
3 34 5 54
3 51 3 52
3 33 39 34
3 32 30 28
3 12 16 14
3 9 57 0
3 82 18 17
3 82 55 18
3 20 55 82
3 20 21 55
3 55 56 18
3 80 53 48
3 41 46 53
3 21 22 55
3 22 43 55
3 83 84 74
3 83 74 75
3 83 75 76
3 74 85 76
3 74 76 75
3 73 74 84
3 86 85 74
3 86 74 73
3 84 87 72
3 84 72 73
3 86 73 72
3 69 72 87
3 69 87 71
3 71 88 86
3 71 86 72
3 71 72 69
3 71 87 89
3 71 89 70
3 88 71 70
3 67 70 89
3 67 89 68
3 68 90 88
3 68 88 70
3 68 70 67
3 68 89 65
3 68 65 66
3 65 91 90
3 65 90 68
3 92 90 91
3 93 6 8
3 93 8 94
3 95 64 65
3 95 65 89
3 64 91 65
3 64 95 63
3 91 64 63
3 91 63 96
3 61 63 95
3 61 95 97
3 61 97 60
3 96 63 61
3 96 61 60
3 60 97 59
3 59 98 96
3 59 96 60
3 58 59 97
3 58 97 83
3 58 83 78
3 98 59 58
3 98 58 78
3 78 83 77
3 77 99 98
3 77 98 78
3 76 77 83
3 85 99 77
3 85 77 76
3 99 85 100
3 100 85 101
3 100 101 102
3 94 103 104
3 93 94 104
3 105 93 104
3 106 93 105
3 107 106 105
3 108 106 107
3 109 110 92
3 109 111 110
3 105 111 109
3 105 104 111
3 108 107 112
3 113 108 112
3 113 112 114
3 113 114 115
3 115 114 6
3 115 6 93
3 103 98 116
3 103 96 98
3 8 96 103
3 8 91 96
3 98 99 100
3 116 98 100
3 116 100 102
3 110 111 88
3 111 86 88
3 111 117 86
3 115 108 113
3 115 106 108
3 106 115 93
3 116 102 101
3 116 101 117
3 103 116 117
3 103 117 104
3 117 101 85
3 86 117 85
3 107 105 112
3 112 105 109
3 112 109 114
3 114 109 92
3 104 117 111
3 94 8 103
3 114 92 6
3 7 91 8
3 92 110 88
3 92 88 90
3 6 92 7
3 7 92 91
3 118 119 120
3 118 120 121
3 118 121 122
3 118 122 123
3 118 123 124
3 118 124 125
3 118 125 126
3 118 126 127
3 118 127 128
3 118 128 129
3 118 129 130
3 118 130 131
3 118 131 132
3 118 132 133
3 130 129 17
3 130 17 19
3 122 15 16
3 122 16 123
3 16 124 123
3 19 41 132
3 19 132 131
3 124 16 81
3 124 81 125
3 126 125 81
3 126 81 127
3 17 129 128
3 127 81 17
3 127 17 128
3 19 131 130
3 80 15 122
3 80 122 121
3 80 121 120
3 80 120 119
3 118 53 80
3 118 80 119
3 133 53 118
3 133 132 41
3 133 41 53
