ply
format ascii 1.0
comment Created by Blender 2.91.0 - www.blender.org
element vertex 370
property float x
property float y
property float z
element face 845
property list uchar uint vertex_indices
end_header
1.418251 -0.620748 -0.766668
1.453441 -0.420148 -0.770917
1.626281 -0.516381 -0.218468
1.427657 -0.759077 1.157319
1.738041 -0.874944 0.404803
1.420795 -0.270493 0.921307
-1.080930 -0.210039 1.181079
-0.863469 -0.718502 1.584306
-0.609584 -0.127560 1.347556
-0.009147 -0.557027 -1.179671
-0.007666 -0.985943 -1.268291
-0.829485 -0.487625 -0.968474
-1.752969 -0.887194 0.405579
-1.630587 -0.401448 0.399786
-1.644278 -0.527858 -0.217550
0.687843 1.024466 -1.122413
1.266725 1.019011 -0.891571
1.291240 0.516590 -1.086026
-1.369651 -0.067655 -0.954016
-1.648588 -0.370091 -0.710010
-1.751088 -0.043111 -0.868669
-0.716646 0.978358 0.529223
-0.838985 1.315306 -0.057850
-1.039908 1.190885 -0.034360
-0.899023 1.122239 -0.893560
-1.295883 1.010019 -0.890852
-1.343368 1.152217 -0.453758
-1.636624 0.103424 -0.130165
-1.958161 0.120178 -0.131216
-1.899992 0.217346 -0.600971
-1.945424 0.912507 0.095082
-1.903646 1.024188 -0.203945
-1.881828 0.944081 -0.509790
-1.873458 0.908252 -0.632634
-1.885522 0.678793 -0.759522
-1.888248 0.620072 -0.795625
-1.937915 0.304533 -0.637759
-1.951146 0.219907 -0.596318
-1.998146 0.140032 -0.210429
-2.007588 0.120347 -0.129724
-2.009843 0.169749 -0.030179
-2.020999 0.315314 0.330292
-1.999035 0.549042 0.315456
-1.972183 0.831540 0.292971
1.959418 0.802200 -0.669501
1.938131 0.902517 -0.618303
1.914975 0.971804 -0.413048
1.893006 1.033882 -0.204592
1.898258 0.914704 0.137278
1.901658 0.853367 0.299207
1.962520 0.521882 0.320517
1.998040 0.329475 0.329007
2.030929 0.226412 0.054951
2.057123 0.135110 -0.128711
2.058097 0.195783 -0.376068
2.060054 0.241078 -0.585437
2.010667 0.545142 -0.734427
1.998065 0.622980 -0.773375
0.814567 -0.635372 1.558629
1.061501 -0.202522 1.180477
0.589682 -0.123374 1.343335
-0.009912 -0.128338 1.447392
-0.008865 -0.421825 1.510421
1.612049 -0.390070 0.398875
-1.472427 -0.430415 -0.770095
-1.435829 -0.630764 -0.765866
-1.439881 -0.280529 0.922110
-1.456730 0.136733 0.609298
-1.243947 0.176958 0.927768
-0.819530 0.190484 1.105657
-0.010988 0.166288 1.295302
0.738669 0.538951 -1.174579
0.783947 -0.080589 -1.091724
-0.012944 0.516146 -1.289915
-0.010717 -0.113721 -1.231471
-0.805514 -0.086166 -1.091278
1.434538 0.146878 0.608486
1.221657 0.185609 0.927075
1.342741 0.584330 0.633211
0.898911 0.604827 0.847252
0.988581 0.935438 0.465301
0.688521 0.983289 0.528828
1.009966 1.198078 -0.034936
0.808162 1.321086 -0.058312
-1.316983 0.507438 -1.085292
-1.829464 0.468934 -1.022871
-0.924195 0.598430 0.847764
-0.478714 0.611503 0.951506
0.797255 0.196158 1.105202
0.453408 0.614774 0.951244
1.804015 0.481683 -1.023892
1.810316 0.869362 -0.843397
1.313456 1.161540 -0.454504
1.807155 1.109095 -0.454057
1.800025 1.105995 0.004153
-0.755396 1.168810 -0.556048
-0.789686 1.157436 -0.436598
-0.797357 1.145815 -0.409603
-0.852468 0.269526 -0.191713
-0.694891 1.072813 -0.763310
-0.535022 0.926078 -0.895283
-0.598888 1.029633 -0.863490
-0.662715 1.066769 -0.800811
-0.010326 -0.147740 -0.265645
-0.294366 0.834415 -0.939306
-0.013633 0.736777 -0.988303
0.266436 0.836383 -0.939463
-1.016399 0.928402 0.465864
-1.346104 0.909955 0.427471
-1.367991 0.574817 0.633972
-1.780854 0.549069 0.555564
-1.810639 0.842979 0.412790
-1.363986 1.140850 -0.023818
-1.829277 1.093260 0.005173
0.810805 -0.481870 -0.968934
-0.010868 0.109395 1.012502
-0.209757 0.190674 0.944049
0.187408 0.192068 0.943937
0.828910 0.275425 -0.192185
0.536442 0.539735 0.698400
0.449567 0.462552 0.771041
0.299482 0.306006 0.867934
0.713848 0.855584 0.398751
0.690524 0.826804 0.444586
0.649872 0.749798 0.510911
-1.037226 1.224056 -0.460937
0.869085 1.128444 -0.894056
1.006812 1.231229 -0.461511
1.673377 -0.327630 0.370606
1.730486 0.135845 0.544326
-1.711782 0.788100 -0.720425
-1.838384 0.856558 -0.842372
-1.610483 0.492066 -0.742022
-1.716912 0.628227 -0.805708
-1.237235 0.531494 -0.263323
-1.836687 1.096309 -0.453033
-1.763343 0.877158 -0.671537
-1.791169 0.924855 -0.645740
-1.779893 0.933519 -0.611100
-1.719438 0.985835 -0.415927
-1.779222 1.044134 -0.206496
-1.710121 0.980198 -0.048865
1.629207 -0.358589 -0.710931
1.729320 -0.030898 -0.869647
1.483623 0.240177 -0.582122
1.368771 0.202115 -0.432088
1.211789 0.540090 -0.264010
1.366552 0.145624 -0.247005
1.367021 0.150084 -0.263812
1.318386 0.919304 0.426723
1.334393 1.150319 -0.024575
0.506468 0.929733 -0.895575
0.665377 1.077585 -0.763692
0.633224 1.071316 -0.801175
0.569624 1.033732 -0.863818
-0.717185 1.019537 -1.122017
-0.764631 0.533676 -1.174156
1.755730 0.561479 0.554571
1.783372 0.855590 0.411780
1.585035 0.503279 -0.742920
1.684265 0.800017 -0.721377
1.690470 0.640183 -0.806665
1.690704 0.997800 -0.416885
1.751413 0.945912 -0.612084
1.762732 0.937326 -0.646737
1.735222 0.889425 -0.672524
1.348017 -0.058119 -0.954781
-1.432548 0.157746 0.009124
-1.692367 -0.339440 0.371552
-1.752629 0.123622 0.545305
-1.582073 0.258596 0.277711
-1.424271 0.104923 -0.130228
-1.389216 0.135955 -0.246232
-1.716719 0.961563 -0.001342
-1.769508 0.850184 0.311437
-1.727826 0.797993 0.315144
-1.636216 0.544393 0.337686
-0.014429 0.939983 -1.282565
-0.741150 0.850478 0.399160
-0.561361 0.535882 0.698709
-0.676369 0.745144 0.511283
-0.717598 0.821863 0.444981
-0.322671 0.303823 0.868109
-0.473906 0.459312 0.771300
0.813476 1.053293 -0.092597
0.753225 1.355386 -0.460804
0.767527 1.151306 -0.410043
0.777651 1.124669 -0.341496
0.723722 0.886610 0.350385
0.782596 1.021260 0.060547
0.779401 1.015913 0.076335
1.681635 0.992100 -0.049818
1.750196 1.056518 -0.207486
1.700823 0.810025 0.314181
1.742135 0.862505 0.310451
1.688390 0.973513 -0.002300
-1.639691 0.359945 0.356945
-1.639583 0.292256 0.361925
-1.612782 0.275472 0.322762
-1.600005 0.454552 -0.724600
-1.507136 0.229683 -0.581281
-1.540259 0.240659 -0.625255
-1.552251 0.291993 -0.646062
1.611006 0.555788 0.336774
1.558838 0.269618 0.276830
1.589452 0.286709 0.321863
1.616156 0.303681 0.361011
1.615786 0.371368 0.356031
1.574830 0.465688 -0.725490
1.528263 0.302802 -0.646928
1.516643 0.251386 -0.626114
1.409873 0.167720 0.008327
-0.842438 1.047482 -0.092132
-0.751268 0.881434 0.350799
-0.808007 1.010342 0.076780
-0.811248 1.015667 0.060994
-0.807255 1.119108 -0.341052
-1.391935 0.192428 -0.431312
-1.389725 0.140410 -0.263035
0.759760 1.162872 -0.437034
0.725323 1.174006 -0.556464
1.401889 0.114840 -0.131023
-0.904845 -0.959757 -0.999795
-1.323015 -0.784455 -0.755915
0.889458 -0.953461 -1.000299
0.815947 -0.813920 1.464094
1.363369 -0.861781 1.048244
0.742942 -1.061929 -0.907182
1.251232 -1.072072 -0.689423
-1.443183 -0.769150 1.158126
-0.007159 -0.879327 1.708265
1.306523 -0.775228 -0.756654
1.331273 -0.978454 -0.795351
-1.346358 -0.987850 -0.794599
1.808803 0.637225 -0.805756
1.767843 0.936915 -0.646458
1.585585 0.245568 -0.623698
1.245209 0.274290 -0.635626
1.175930 0.654595 -0.789713
1.566152 0.643290 -0.807620
1.935657 0.133842 -0.132309
1.773876 1.057154 -0.207285
1.907556 0.321098 0.350688
1.614246 0.114831 -0.131078
1.286357 0.114845 -0.130993
1.137186 0.972088 -0.629317
1.558549 0.953727 -0.657892
1.558797 1.051382 -0.209110
1.131640 1.051693 -0.198966
1.170880 0.837583 0.263885
1.876544 0.230598 -0.602031
1.257209 0.271867 0.322693
1.587253 0.301953 0.362035
1.820173 0.868589 0.313022
1.560458 0.848342 0.304465
-1.796276 0.924409 -0.645458
-1.802905 1.044603 -0.206282
-1.609157 0.234358 -0.622800
-1.835220 0.624438 -0.804733
-1.592621 0.632207 -0.806733
-1.587111 0.942689 -0.657009
-1.587793 1.040342 -0.208226
-1.165871 0.964007 -0.628671
-1.160643 1.043649 -0.198322
-1.587741 0.837295 0.305349
-1.847586 0.855720 0.314052
-1.610667 0.290731 0.362933
-1.931104 0.307628 0.351765
-1.202475 0.646249 -0.789045
-1.280443 0.262963 0.323405
-1.198120 0.829270 0.264550
-1.308743 0.105739 -0.130263
-1.268997 0.265468 -0.634919
0.954707 1.114540 -0.457947
0.807717 1.011635 0.076203
0.825912 0.833032 0.425737
-0.013405 0.794422 0.542590
-0.012068 0.436824 0.831181
-0.984301 1.107736 -0.457403
0.765640 0.480168 0.729864
0.666830 0.151760 0.911270
-0.010747 0.076291 1.030834
-0.008361 -0.584493 1.273779
-0.688905 0.147002 0.911652
-0.790120 0.474709 0.730301
0.793258 0.946696 -0.867196
-0.853037 0.827141 0.426208
-0.836292 1.005866 0.076664
-0.821908 0.941029 -0.866743
-0.012364 0.367577 -1.082122
-0.006737 -0.977215 1.630699
-0.665358 -1.008845 1.451337
-0.895074 -1.020219 1.383270
-0.955713 -1.024849 1.339087
-1.336206 -1.038347 1.033508
-1.465171 -1.025323 0.752132
-1.643211 -1.009147 0.439177
-1.669134 -1.004515 0.298360
-1.629691 -0.999290 -0.000886
-1.558463 -0.996220 -0.274934
-1.523769 -0.995566 -0.373222
-1.482585 -0.996576 -0.415112
-1.360627 -0.994346 -0.757716
-1.340471 -0.994634 -0.786880
-1.045122 -1.006864 -0.878836
-0.828087 -1.015733 -0.951323
-0.548223 -1.027779 -1.019330
-0.007412 -1.050583 -1.170553
0.305156 -1.069163 -1.032020
0.525663 -1.081936 -0.948257
0.615509 -1.086825 -0.927363
0.739025 -1.093445 -0.902812
1.200835 -1.084900 -0.708366
1.251138 -1.082143 -0.689177
1.279588 -1.076387 -0.610744
1.349696 -1.070218 -0.546527
1.500489 -1.053948 -0.360074
1.516865 -1.050465 -0.312203
1.525110 -1.049714 -0.304227
1.532657 -1.048191 -0.283490
1.556316 -1.042060 -0.196609
1.643045 -1.009623 0.282274
1.597641 -1.001828 0.430533
1.562219 -0.998991 0.493966
1.488370 -0.984883 0.758150
1.352989 -0.967723 1.102306
1.250012 -0.965877 1.183626
0.860967 -0.964696 1.397563
0.334925 -0.974057 1.510372
-0.666542 1.217325 -0.866141
-0.786270 1.322096 -0.453436
-0.456609 1.088254 -1.069072
-0.356901 1.050650 -1.087622
-0.014621 1.000866 -1.204067
0.332907 1.072744 -1.101297
-0.529256 1.128718 -1.163775
-0.668551 1.220795 -0.958689
-0.109519 1.004730 -1.260355
-0.014652 1.002281 -1.296851
0.089731 1.011971 -1.258181
0.414535 1.116285 -1.096121
0.627616 1.262812 -0.895658
-0.703327 1.248323 -0.907258
0.471597 1.148062 -1.170140
0.628289 1.263994 -0.927659
0.640353 1.273544 -0.909867
0.684155 1.317684 -0.700000
-0.793571 1.331980 -0.494630
-0.801912 1.341322 -0.460411
-0.802314 1.338658 -0.328848
0.491293 1.141052 -0.153157
0.573563 1.209035 -0.417059
0.482883 1.136092 -0.126244
0.371994 1.077460 0.078228
0.365778 1.074279 0.086448
0.321537 1.054305 0.120181
-0.571193 1.134270 -0.185916
-0.648242 1.193557 -0.421478
-0.314433 1.024463 0.165430
-0.014156 0.988209 0.287747
0.512391 1.165410 -0.751325
0.394894 1.101735 -0.861179
0.573832 1.213278 -0.621527
-0.423103 1.056509 0.107634
-0.446965 1.067479 0.078256
-0.546069 1.119444 -0.104931
-0.648507 1.197329 -0.602111
-0.567316 1.142121 -0.761300
-0.458203 1.085525 -0.861439
-0.014526 0.996569 -0.922286
3 0 1 2
3 3 4 5
3 6 7 8
3 9 10 11
3 12 13 14
3 15 16 17
3 18 19 20
3 21 22 23
3 24 25 26
3 27 28 29
3 30 31 32
3 30 32 33
3 30 33 34
3 30 34 35
3 30 35 36
3 30 36 37
3 30 37 38
3 30 38 39
3 30 39 40
3 30 40 41
3 30 41 42
3 30 42 43
3 44 45 46
3 44 46 47
3 44 47 48
3 44 48 49
3 44 49 50
3 44 50 51
3 44 51 52
3 44 52 53
3 44 53 54
3 44 54 55
3 44 55 56
3 44 56 57
3 5 58 3
3 59 58 5
3 60 58 59
3 61 62 60
3 4 2 63
3 4 63 5
3 64 11 65
3 66 67 13
3 66 68 67
3 68 66 6
3 68 6 69
3 69 6 8
3 69 8 70
3 70 8 61
3 70 61 60
3 15 17 71
3 71 17 72
3 71 72 73
3 73 72 74
3 73 74 75
3 75 74 11
3 64 75 11
3 5 63 76
3 5 76 77
3 77 76 78
3 79 77 78
3 79 78 80
3 79 80 81
3 80 82 81
3 81 82 83
3 20 84 18
3 85 84 20
3 86 68 69
3 86 69 87
3 87 69 70
3 79 88 77
3 89 88 79
3 16 90 17
3 16 91 90
3 92 91 16
3 93 91 92
3 94 93 92
3 95 96 97
3 95 97 98
3 95 98 99
3 100 101 102
3 100 102 99
3 100 99 98
3 100 98 103
3 100 103 104
3 103 105 104
3 105 103 106
3 107 21 23
3 108 107 23
3 108 109 107
3 110 109 108
3 111 110 108
3 111 108 112
3 111 112 113
3 74 9 11
3 74 114 9
3 72 114 74
3 72 1 114
3 70 115 116
3 103 98 116
3 103 116 115
3 70 117 115
3 117 118 103
3 117 103 115
3 70 89 119
3 70 119 120
3 70 120 121
3 70 121 117
3 119 118 117
3 119 117 121
3 119 121 120
3 89 81 122
3 89 122 123
3 89 123 124
3 89 124 119
3 122 118 119
3 122 119 124
3 122 124 123
3 125 24 26
3 112 125 26
3 23 125 112
3 126 16 15
3 127 16 126
3 63 128 129
3 76 63 129
3 78 76 129
3 130 131 85
3 130 85 132
3 130 132 133
3 133 132 134
3 133 134 130
3 135 131 130
3 135 130 136
3 135 136 137
3 135 137 138
3 135 138 139
3 137 136 130
3 137 130 134
3 137 134 139
3 137 139 138
3 113 135 139
3 113 139 140
3 113 140 141
3 139 134 141
3 139 141 140
3 142 143 144
3 142 144 145
3 145 144 146
3 147 2 142
3 147 142 145
3 147 145 148
3 148 145 146
3 148 146 147
3 149 80 78
3 80 149 82
3 149 150 82
3 88 60 59
3 70 60 88
3 89 70 88
3 106 103 118
3 106 118 151
3 151 118 152
3 151 152 153
3 151 153 154
3 25 155 156
3 25 156 84
3 84 156 75
3 127 92 16
3 127 150 92
3 82 150 127
3 149 78 157
3 149 157 158
3 158 94 150
3 149 158 150
3 159 90 91
3 159 91 160
3 159 160 161
3 161 160 146
3 161 146 159
3 91 93 162
3 91 162 163
3 91 163 164
3 91 164 165
3 91 165 160
3 164 163 162
3 164 162 146
3 164 146 160
3 164 160 165
3 17 166 72
3 166 1 72
3 167 168 169
3 167 169 170
3 170 134 167
3 171 172 14
3 171 14 168
3 171 168 167
3 172 171 167
3 172 167 134
3 169 168 13
3 169 13 67
3 111 113 141
3 111 141 173
3 111 173 174
3 111 174 175
3 173 141 134
3 173 134 175
3 173 175 174
3 111 175 176
3 111 176 110
3 176 175 134
3 15 71 177
3 177 71 73
3 18 75 64
3 84 75 18
3 26 25 131
3 135 26 131
3 178 21 87
3 178 87 179
3 178 179 180
3 178 180 181
3 181 180 179
3 181 179 98
3 181 98 178
3 179 87 70
3 179 70 116
3 179 116 182
3 179 182 183
3 116 98 179
3 116 179 183
3 116 183 182
3 113 26 135
3 112 26 113
3 110 169 109
3 169 67 109
3 184 83 185
3 184 185 186
3 184 186 187
3 187 186 118
3 187 118 184
3 188 122 81
3 188 81 83
3 188 83 184
3 188 184 189
3 188 189 190
3 184 118 122
3 184 122 188
3 184 188 190
3 184 190 189
3 85 25 84
3 131 25 85
3 24 155 25
3 2 1 142
3 166 142 1
3 155 177 156
3 177 73 156
3 166 143 142
3 17 143 166
3 93 94 191
3 93 191 192
3 93 192 162
3 191 146 162
3 191 162 192
3 191 94 158
3 191 158 193
3 191 193 194
3 191 194 195
3 193 146 191
3 193 191 195
3 193 195 194
3 13 168 14
3 169 110 176
3 169 176 196
3 169 196 197
3 169 197 198
3 169 198 170
3 197 196 176
3 197 176 134
3 197 134 170
3 197 170 198
3 199 132 85
3 199 85 20
3 199 20 200
3 199 200 201
3 199 201 202
3 201 200 134
3 201 134 132
3 201 132 199
3 108 23 112
3 109 86 107
3 63 2 128
3 203 157 129
3 203 129 204
3 203 204 205
3 203 205 206
3 203 206 207
3 206 205 204
3 206 204 146
3 206 146 203
3 193 158 157
3 193 157 203
3 203 146 193
3 144 143 90
3 144 90 159
3 144 159 208
3 144 208 209
3 144 209 210
3 159 146 144
3 159 144 210
3 159 210 209
3 159 209 208
3 17 90 143
3 150 94 92
3 78 129 157
3 156 73 75
3 83 82 127
3 129 128 211
3 129 211 204
3 204 211 146
3 86 21 107
3 21 86 87
3 23 22 125
3 212 22 21
3 212 21 178
3 212 178 213
3 212 213 214
3 212 214 215
3 178 98 212
3 178 212 215
3 178 215 214
3 178 214 213
3 212 98 97
3 212 97 216
3 217 19 14
3 217 14 172
3 217 172 218
3 218 172 134
3 218 134 217
3 200 20 19
3 200 19 217
3 217 134 200
3 186 219 220
3 186 220 152
3 186 152 118
3 128 2 147
3 128 147 221
3 128 221 211
3 147 146 211
3 147 211 221
3 83 127 185
3 185 127 126
3 81 89 79
3 88 59 77
3 77 59 5
3 109 68 86
3 68 109 67
3 19 18 64
3 14 19 64
3 65 222 223
3 65 11 222
3 11 10 222
3 114 0 224
3 114 1 0
3 58 225 3
3 225 226 3
3 227 224 228
3 61 8 62
3 8 7 62
3 9 114 10
3 114 224 10
3 6 66 7
3 66 229 7
3 58 230 225
3 229 66 12
3 12 66 13
3 3 226 4
3 60 62 58
3 62 230 58
3 62 7 230
3 224 0 231
3 231 232 224
3 228 224 232
3 223 222 233
3 14 64 65
3 44 57 234
3 235 45 44
3 235 44 234
3 209 236 210
3 210 237 238
3 210 238 209
3 236 209 208
3 238 239 208
3 238 208 209
3 53 240 54
3 46 45 235
3 241 47 46
3 241 46 235
3 50 242 51
3 52 51 242
3 52 242 240
3 236 243 221
3 236 221 147
3 236 147 148
3 244 148 147
3 244 147 221
3 210 236 148
3 210 148 145
3 210 145 144
3 148 244 237
3 148 237 210
3 148 210 144
3 148 144 145
3 245 246 238
3 245 247 246
3 248 247 245
3 249 247 248
3 56 55 250
3 234 57 56
3 234 56 250
3 249 251 252
3 235 234 161
3 235 161 160
3 235 160 165
3 160 161 239
3 160 239 165
3 234 236 208
3 234 208 159
3 234 159 161
3 239 161 159
3 239 159 208
3 234 250 236
3 47 241 253
3 47 253 48
3 253 49 48
3 49 253 242
3 49 242 50
3 240 250 55
3 240 55 54
3 52 240 53
3 249 254 247
3 254 249 252
3 251 244 252
3 211 221 243
3 211 243 205
3 211 205 204
3 252 244 221
3 252 221 211
3 252 211 204
3 252 204 205
3 243 236 250
3 243 250 240
3 242 243 240
3 243 242 206
3 243 206 205
3 252 205 206
3 206 242 253
3 206 253 207
3 207 252 206
3 207 253 194
3 207 194 193
3 207 193 203
3 193 194 254
3 193 254 252
3 193 252 207
3 253 241 195
3 253 195 194
3 254 194 195
3 241 192 191
3 241 191 195
3 191 192 247
3 191 247 254
3 191 254 195
3 192 241 235
3 192 235 163
3 192 163 162
3 162 163 247
3 162 247 192
3 163 235 164
3 164 246 247
3 164 247 163
3 164 235 165
3 246 164 165
3 246 165 239
3 246 239 238
3 32 255 33
3 32 31 256
3 32 256 255
3 27 29 257
3 258 257 29
3 257 258 133
3 257 133 132
3 257 132 199
3 133 259 199
3 133 199 132
3 133 258 255
3 133 255 136
3 133 136 130
3 130 136 259
3 130 259 133
3 137 136 255
3 136 137 260
3 136 260 259
3 255 138 137
3 261 260 137
3 261 137 138
3 261 262 260
3 261 263 262
3 256 140 139
3 256 139 138
3 256 138 255
3 140 261 138
3 140 138 139
3 256 173 141
3 256 141 140
3 261 140 141
3 261 141 173
3 261 173 264
3 265 174 173
3 265 173 256
3 174 264 173
3 174 265 196
3 174 196 176
3 174 176 175
3 176 196 266
3 176 266 264
3 176 264 174
3 265 267 197
3 265 197 196
3 196 197 266
3 197 267 27
3 197 27 198
3 198 266 197
3 267 28 27
3 34 258 35
3 255 258 34
3 255 34 33
3 258 29 36
3 258 36 35
3 36 29 37
3 37 29 28
3 37 28 38
3 38 28 39
3 256 31 30
3 256 30 265
3 43 265 30
3 199 202 257
3 268 202 199
3 268 199 259
3 42 41 267
3 40 28 267
3 40 267 41
3 266 269 270
3 264 266 270
3 264 270 261
3 198 27 171
3 198 171 167
3 198 167 170
3 171 271 266
3 171 266 198
3 171 198 170
3 171 170 167
3 266 271 269
3 171 27 257
3 171 257 218
3 171 218 172
3 172 218 271
3 172 271 171
3 270 263 261
3 40 39 28
3 267 265 43
3 267 43 42
3 257 201 200
3 257 200 217
3 257 217 218
3 200 201 272
3 200 272 271
3 200 271 218
3 200 218 217
3 202 201 257
3 272 201 202
3 272 202 268
3 260 268 259
3 260 262 268
3 187 273 219
3 187 219 186
3 184 189 274
3 184 274 273
3 184 273 187
3 190 274 189
3 274 190 188
3 274 188 275
3 122 123 275
3 122 275 188
3 123 124 275
3 124 123 276
3 124 276 277
3 97 96 278
3 97 278 216
3 119 120 279
3 119 279 275
3 119 275 124
3 277 120 119
3 277 119 124
3 280 279 120
3 280 120 121
3 277 121 120
3 115 281 280
3 115 280 121
3 115 121 117
3 117 121 277
3 117 277 115
3 281 282 280
3 281 283 282
3 284 283 182
3 284 182 183
3 183 182 277
3 182 283 281
3 182 281 115
3 182 115 116
3 115 277 182
3 153 285 154
3 220 273 285
3 220 285 153
3 220 153 152
3 219 273 220
3 286 181 178
3 286 178 213
3 214 287 286
3 214 286 213
3 287 214 215
3 212 216 278
3 212 278 287
3 212 287 215
3 96 95 278
3 102 288 278
3 102 278 95
3 102 95 99
3 102 101 288
3 289 288 101
3 289 101 100
3 289 100 104
3 289 104 105
3 286 284 183
3 286 183 179
3 286 179 180
3 179 183 277
3 179 277 180
3 181 286 180
3 276 181 180
3 276 180 277
3 285 289 105
3 285 105 106
3 285 106 151
3 285 151 154
3 290 291 292
3 290 292 293
3 290 293 294
3 290 294 295
3 290 295 296
3 290 296 297
3 290 297 298
3 290 298 299
3 290 299 300
3 290 300 301
3 290 301 302
3 290 302 303
3 290 303 304
3 290 304 305
3 290 305 306
3 290 306 307
3 290 307 308
3 290 308 309
3 290 309 310
3 290 310 311
3 290 311 312
3 290 312 313
3 290 313 314
3 290 314 315
3 290 315 316
3 290 316 317
3 290 317 318
3 290 318 319
3 290 319 320
3 290 320 321
3 290 321 322
3 290 322 323
3 290 323 324
3 290 324 325
3 290 325 326
3 290 326 327
3 290 327 328
3 0 2 319
3 0 319 318
3 14 299 298
3 14 298 12
3 296 12 297
3 297 12 298
3 232 231 317
3 232 317 316
3 233 303 302
3 224 227 309
3 224 309 308
3 290 230 291
3 328 225 230
3 328 230 290
3 222 305 304
3 305 222 306
3 306 222 10
3 306 10 307
3 307 10 224
3 307 224 308
3 294 229 295
3 12 296 295
3 12 295 229
3 4 226 323
3 4 323 322
3 7 292 291
3 7 291 230
3 292 7 229
3 292 229 293
3 293 229 294
3 231 0 318
3 231 318 317
3 228 232 316
3 228 316 315
3 314 228 315
3 303 233 222
3 303 222 304
3 302 301 223
3 302 223 233
3 65 223 301
3 65 301 300
3 300 299 14
3 300 14 65
3 327 225 328
3 225 327 326
3 325 226 225
3 325 225 326
3 325 324 226
3 324 323 226
3 322 321 4
3 321 320 4
3 2 4 320
3 2 320 319
3 314 313 228
3 313 312 228
3 227 228 312
3 227 312 311
3 311 310 227
3 309 227 310
3 97 95 99
3 97 99 329
3 97 329 330
3 99 102 101
3 99 101 100
3 99 100 331
3 99 331 329
3 331 100 104
3 331 104 332
3 332 104 105
3 332 105 333
3 105 106 334
3 105 334 333
3 335 155 336
3 337 177 155
3 337 155 335
3 177 337 338
3 177 338 339
3 334 106 151
3 334 151 340
3 340 151 154
3 340 154 153
3 340 153 152
3 340 152 341
3 336 155 24
3 336 24 342
3 15 177 339
3 15 339 343
3 15 343 344
3 185 126 345
3 185 345 346
3 345 126 15
3 345 15 344
3 342 24 347
3 125 348 347
3 125 347 24
3 348 125 22
3 348 22 349
3 22 212 216
3 22 216 97
3 22 97 330
3 22 330 349
3 186 185 346
3 186 346 341
3 186 341 152
3 350 187 186
3 350 186 219
3 350 219 351
3 184 187 350
3 184 350 352
3 184 352 189
3 353 190 189
3 353 189 352
3 353 354 188
3 353 188 190
3 276 123 122
3 276 122 188
3 276 188 354
3 276 354 355
3 97 216 356
3 97 356 357
3 97 357 96
3 358 276 359
3 359 276 355
3 360 153 154
3 360 154 361
3 362 220 152
3 362 152 153
3 362 153 360
3 351 219 220
3 351 220 362
3 213 178 181
3 213 181 276
3 213 276 358
3 213 358 363
3 213 363 364
3 213 364 214
3 215 214 364
3 215 364 365
3 212 215 365
3 212 365 356
3 212 356 216
3 95 96 357
3 95 357 366
3 367 102 99
3 367 99 95
3 367 95 366
3 368 101 102
3 368 102 367
3 105 104 100
3 105 100 101
3 105 101 368
3 105 368 369
3 154 151 106
3 154 106 105
3 154 105 369
3 154 369 361
